<?xml version="1.0" encoding="UTF-8" standalone="no"?>
<!DOCTYPE svg PUBLIC "-//W3C//DTD SVG 1.1//EN" "http://www.w3.org/Graphics/SVG/1.1/DTD/svg11.dtd">
<svg width="100%" height="100%" viewBox="0 0 1453 473" version="1.1" xmlns="http://www.w3.org/2000/svg" xmlns:xlink="http://www.w3.org/1999/xlink" xml:space="preserve" xmlns:serif="http://www.serif.com/" style="fill-rule:evenodd;clip-rule:evenodd;stroke-linejoin:round;stroke-miterlimit:10;">
    <g transform="matrix(1,0,0,1,-8463.75,-3451.55)">
        <g id="Artboard4" transform="matrix(2.05,0,0,1.6,8463.75,3451.55)">
            <rect x="0" y="0" width="708.661" height="295.276" style="fill:none;"/>
            <g transform="matrix(0.39274,0,0,0.519419,-2509.39,-807.817)">
                <g transform="matrix(0.471034,0,0,0.451577,-4691.69,-9110.16)">
                    <path d="M26911,24156.5L26911,24578.2L26406,24578.2L26406,23917.5L26911,23917.5L26911,23917.7C26913,23917.2 26915.1,23916.9 26917.2,23916.9L27053.6,23916.9C27068.2,23916.9 27080.1,23929.3 27080.1,23944.6L27080.1,24129.6C27080.1,24144.9 27068.2,24157.3 27053.6,24157.3L26917.2,24157.3C26915.1,24157.3 26913,24157 26911,24156.5Z" style="fill:rgb(254,255,254);stroke:rgb(128,128,128);stroke-width:8.84px;"/>
                </g>
                <g transform="matrix(0.488761,0,0,0.476881,-5152.8,-9706.06)">
                    <path d="M26321.8,24111.4C26321.8,24111.4 26305.3,24175.5 26380.5,24174.4C26504.6,24172.6 26544.8,24214.4 26536.2,24229.1" style="fill:none;stroke:rgb(128,128,128);stroke-width:8.44px;"/>
                </g>
                <g id="path2836" transform="matrix(1.32953,1.87253e-17,-1.87253e-17,-1.17663,7531.22,2217.92)">
                    <path d="M187.282,305.953L182.539,311.981L172.757,311.917L172.757,302.834L167.387,302.834L166.74,305.685L166.223,308.609L165.964,311.46L165.835,314.458L165.964,317.382L166.223,320.379L166.74,323.45L167.387,326.52L172.757,326.52L172.757,318.287L182.539,318.223L187.282,322.217L210.3,322.217L210.3,305.953L187.282,305.953Z" style="fill:white;stroke:rgb(128,128,128);stroke-width:3.25px;stroke-miterlimit:2;"/>
                </g>
                <g transform="matrix(0.476334,0.126551,-0.0304643,0.10833,-4087.36,-4074.88)">
                    <rect x="26318.1" y="24237.7" width="315.175" height="79.714" style="fill:rgb(254,255,254);"/>
                </g>
                <g transform="matrix(0.476334,0.126551,-0.0304643,0.10833,-4087.36,-4074.88)">
                    <path d="M26636.6,24237.9L26636.6,24317.6C26636.6,24325.7 26635.1,24332.2 26633.3,24332.2L26318.1,24332.2C26317.2,24332.2 26316.3,24330.6 26315.7,24327.8C26315.1,24325 26314.7,24321.1 26314.7,24317.2L26314.7,24237.5C26314.7,24229.4 26316.2,24222.9 26318,24222.9L26633.2,24222.9C26634.1,24222.9 26635,24224.5 26635.6,24227.3C26636.3,24230.1 26636.6,24233.9 26636.6,24237.9ZM26629.9,24252.5L26321.5,24252.5L26321.5,24302.6L26629.9,24302.6L26629.9,24252.5Z" style="fill:rgb(128,128,128);"/>
                </g>
                <g transform="matrix(0.689897,0,0,0.272402,-10431.4,-4702.85)">
                    <rect x="26260.4" y="24404.5" width="596.013" height="55.186" style="fill:rgb(254,255,254);"/>
                </g>
                <g transform="matrix(0.689897,0,0,0.272402,-10431.4,-4702.85)">
                    <path d="M26858.9,24404.5L26858.9,24459.6C26858.9,24463 26857.8,24465.8 26856.4,24465.8L26260.4,24465.8C26259.1,24465.8 26258,24463 26258,24459.6L26258,24404.5C26258,24401.1 26259.1,24398.3 26260.4,24398.3L26856.4,24398.3C26857.8,24398.3 26858.9,24401.1 26858.9,24404.5ZM26854,24410.6L26262.9,24410.6L26262.9,24453.5L26854,24453.5L26854,24410.6Z" style="fill:rgb(128,128,128);"/>
                </g>
                <g transform="matrix(0.488761,0,0,0.476881,-5156.54,-9708.12)">
                    <rect x="26872.5" y="24355.7" width="127.427" height="137.008" style="fill:rgb(254,255,254);stroke:rgb(128,128,128);stroke-width:8.44px;"/>
                </g>
                <g transform="matrix(0.614054,0,0,0.614054,-3855.2,-18380.6)">
                    <path d="M19138,32991.9L19109.9,32991.9L19109.9,32978L19138,32978L19138,32955.2L19126.1,32955.2L19126.1,32938.5L19138,32938.5L19138,32926.1L19145.7,32926.1L19145.7,32938.5L19156.6,32938.5L19156.6,32930.9C19156.6,32923.9 19162.3,32918.2 19169.3,32918.2L19231.6,32918.2C19238.7,32918.2 19244.4,32923.9 19244.4,32930.9L19244.4,32956.4C19244.4,32963.4 19238.7,32969.1 19231.6,32969.1L19169.3,32969.1C19162.3,32969.1 19156.6,32963.4 19156.6,32956.4L19156.6,32955.2L19145.7,32955.2L19145.7,32978L19233.9,32978L19233.9,32991.9L19145.7,32991.9L19145.7,33002.3L19149.4,33002.3L19149.4,33015.5L19134.3,33015.5L19134.3,33002.3L19138,33002.3L19138,32991.9Z" style="fill:none;stroke:rgb(128,128,128);stroke-width:6.63px;"/>
                </g>
                <g transform="matrix(0.833005,0,0,1.28133,491.892,2480.83)">
                    <path d="M8783.47,-503.985L8777.13,-503.985L8777.13,-513.843L8783.47,-513.843L8783.47,-532.487L8793.32,-532.487L8793.32,-513.843L8799.66,-513.843L8799.66,-503.985L8793.32,-503.985L8793.32,-469.69L8799.66,-469.69L8799.66,-459.832L8793.32,-459.832L8793.32,-450.879L8789.48,-450.879L8789.48,-442.265L8787.31,-442.265L8787.31,-450.879L8783.47,-450.879L8783.47,-459.832L8777.13,-459.832L8777.13,-469.69L8783.47,-469.69L8783.47,-503.985Z" style="fill:white;stroke:rgb(128,128,128);stroke-width:3.75px;stroke-miterlimit:1.5;"/>
                </g>
                <g>
                    <g transform="matrix(0.488761,0,0,0.464138,-5162.44,-9398.83)">
                        <rect x="26271.5" y="23898" width="127.542" height="213.387" style="fill:rgb(38,38,38);"/>
                    </g>
                    <g transform="matrix(0.488761,0,0,0.476881,-5162.44,-9706.06)">
                        <rect x="26271.5" y="23898" width="127.542" height="213.387" style="fill:none;stroke:black;stroke-width:10.55px;"/>
                    </g>
                </g>
            </g>
            <g transform="matrix(0.618955,0,0,0.618955,25.8934,55.8134)">
                <g transform="matrix(0.634521,0,0,0.839187,-4812.65,-1395.31)">
                    <g transform="matrix(0.471034,0,0,0.451577,-4691.69,-9110.16)">
                        <path d="M26911,24156.5L26911,24578.2L26406,24578.2L26406,23917.5L26911,23917.5L26911,23917.7C26913,23917.2 26915.1,23916.9 26917.2,23916.9L27053.6,23916.9C27068.2,23916.9 27080.1,23929.3 27080.1,23944.6L27080.1,24129.6C27080.1,24144.9 27068.2,24157.3 27053.6,24157.3L26917.2,24157.3C26915.1,24157.3 26913,24157 26911,24156.5Z" style="fill:rgb(254,255,254);stroke:rgb(89,89,89);stroke-width:8.84px;"/>
                    </g>
                    <g id="path28361" serif:id="path2836" transform="matrix(1.32953,1.87253e-17,-1.87253e-17,-1.17663,7531.22,2217.92)">
                        <path d="M187.282,305.953L182.539,311.981L172.757,311.917L172.757,302.834L167.387,302.834L166.74,305.685L166.223,308.609L165.964,311.46L165.835,314.458L165.964,317.382L166.223,320.379L166.74,323.45L167.387,326.52L172.757,326.52L172.757,318.287L182.539,318.223L187.282,322.217L210.3,322.217L210.3,305.953L187.282,305.953Z" style="fill:white;stroke:rgb(89,89,89);stroke-width:3.25px;stroke-miterlimit:2;"/>
                    </g>
                    <g transform="matrix(0.476334,0.126551,-0.0304643,0.10833,-4087.36,-4074.88)">
                        <rect x="26318.1" y="24237.7" width="315.175" height="79.714" style="fill:rgb(254,255,254);"/>
                    </g>
                    <g transform="matrix(0.476334,0.126551,-0.0304643,0.10833,-4087.36,-4074.88)">
                        <path d="M26636.6,24237.9L26636.6,24317.6C26636.6,24325.7 26635.1,24332.2 26633.3,24332.2L26318.1,24332.2C26317.2,24332.2 26316.3,24330.6 26315.7,24327.8C26315.1,24325 26314.7,24321.1 26314.7,24317.2L26314.7,24237.5C26314.7,24229.4 26316.2,24222.9 26318,24222.9L26633.2,24222.9C26634.1,24222.9 26635,24224.5 26635.6,24227.3C26636.3,24230.1 26636.6,24233.9 26636.6,24237.9ZM26629.9,24252.5L26321.5,24252.5L26321.5,24302.6L26629.9,24302.6L26629.9,24252.5Z" style="fill:rgb(89,89,89);"/>
                    </g>
                    <g transform="matrix(0.689897,0,0,0.272402,-10431.4,-4702.85)">
                        <rect x="26260.4" y="24404.5" width="596.013" height="55.186" style="fill:rgb(254,255,254);"/>
                    </g>
                    <g transform="matrix(0.689897,0,0,0.272402,-10431.4,-4702.85)">
                        <path d="M26858.9,24404.5L26858.9,24459.6C26858.9,24463 26857.8,24465.8 26856.4,24465.8L26260.4,24465.8C26259.1,24465.8 26258,24463 26258,24459.6L26258,24404.5C26258,24401.1 26259.1,24398.3 26260.4,24398.3L26856.4,24398.3C26857.8,24398.3 26858.9,24401.1 26858.9,24404.5ZM26854,24410.6L26262.9,24410.6L26262.9,24453.5L26854,24453.5L26854,24410.6Z" style="fill:rgb(89,89,89);"/>
                    </g>
                    <g transform="matrix(0.488761,0,0,0.476881,-5162.44,-9706.06)">
                        <rect x="26271.5" y="23898" width="127.542" height="213.387" style="fill:none;stroke:rgb(89,89,89);stroke-width:8.44px;"/>
                    </g>
                    <g transform="matrix(0.488761,0,0,0.476881,-5152.8,-9706.06)">
                        <path d="M26321.8,24111.4C26321.8,24111.4 26305.3,24175.5 26380.5,24174.4C26504.6,24172.6 26544.8,24214.4 26536.2,24229.1" style="fill:none;stroke:rgb(89,89,89);stroke-width:8.44px;"/>
                    </g>
                    <g transform="matrix(0.488761,0,0,0.476881,-5156.54,-9708.12)">
                        <rect x="26872.5" y="24355.7" width="127.427" height="137.008" style="fill:rgb(254,255,254);stroke:rgb(89,89,89);stroke-width:8.44px;"/>
                    </g>
                    <g transform="matrix(0.614054,0,0,0.614054,-3855.2,-18380.6)">
                        <path d="M19138,32991.9L19109.9,32991.9L19109.9,32978L19138,32978L19138,32955.2L19126.1,32955.2L19126.1,32938.5L19138,32938.5L19138,32926.1L19145.7,32926.1L19145.7,32938.5L19156.6,32938.5L19156.6,32930.9C19156.6,32923.9 19162.3,32918.2 19169.3,32918.2L19231.6,32918.2C19238.7,32918.2 19244.4,32923.9 19244.4,32930.9L19244.4,32956.4C19244.4,32963.4 19238.7,32969.1 19231.6,32969.1L19169.3,32969.1C19162.3,32969.1 19156.6,32963.4 19156.6,32956.4L19156.6,32955.2L19145.7,32955.2L19145.7,32978L19233.9,32978L19233.9,32991.9L19145.7,32991.9L19145.7,33002.3L19149.4,33002.3L19149.4,33015.5L19134.3,33015.5L19134.3,33002.3L19138,33002.3L19138,32991.9Z" style="fill:none;stroke:rgb(89,89,89);stroke-width:6.63px;"/>
                    </g>
                    <g transform="matrix(0.833005,0,0,1.28133,491.892,2480.83)">
                        <path d="M8783.47,-503.985L8777.13,-503.985L8777.13,-513.843L8783.47,-513.843L8783.47,-532.487L8793.32,-532.487L8793.32,-513.843L8799.66,-513.843L8799.66,-503.985L8793.32,-503.985L8793.32,-469.69L8799.66,-469.69L8799.66,-459.832L8793.32,-459.832L8793.32,-450.879L8789.48,-450.879L8789.48,-442.265L8787.31,-442.265L8787.31,-450.879L8783.47,-450.879L8783.47,-459.832L8777.13,-459.832L8777.13,-469.69L8783.47,-469.69L8783.47,-503.985Z" style="fill:white;stroke:rgb(89,89,89);stroke-width:3.75px;stroke-miterlimit:1.5;"/>
                    </g>
                </g>
                <g transform="matrix(1.21524,0,0,1.1857,-311.168,-5.21335)">
                    <path d="M326.935,185.111L327.311,185.111C327.773,185.111 328.147,185.602 328.147,186.209L328.147,201.892C328.147,202.498 327.773,202.99 327.311,202.99L319.174,202.99C318.712,202.99 318.337,202.498 318.337,201.892L318.337,186.209C318.337,185.602 318.712,185.111 319.174,185.111L319.549,185.111L319.549,179.162C319.549,178.556 319.924,178.064 320.386,178.064L326.099,178.064C326.561,178.064 326.935,178.556 326.935,179.162L326.935,185.111ZM326.474,187.307L320.01,187.307L320.01,200.794L326.474,200.794L326.474,187.307ZM325.262,180.714L325.262,180.261L321.222,180.261L321.222,181.597C321.759,181.583 322.503,181.534 323.272,181.387C323.958,181.255 324.668,181.049 325.262,180.714ZM325.262,182.702L325.262,181.655C324.675,181.941 324.014,182.132 323.369,182.256C322.562,182.41 321.783,182.462 321.222,182.475L321.222,183.585C321.759,183.572 322.503,183.522 323.272,183.375C323.958,183.244 324.668,183.038 325.262,182.702ZM321.222,184.464L321.222,185.088L325.262,185.088L325.262,183.643C324.675,183.929 324.014,184.121 323.369,184.244C322.562,184.399 321.783,184.45 321.222,184.464Z"/>
                </g>
                <g transform="matrix(1.21524,0,0,1.1857,-368.186,-70.4716)">
                    <path d="M326.935,185.111L327.311,185.111C327.773,185.111 328.147,185.602 328.147,186.209L328.147,201.892C328.147,202.498 327.773,202.99 327.311,202.99L319.174,202.99C318.712,202.99 318.337,202.498 318.337,201.892L318.337,186.209C318.337,185.602 318.712,185.111 319.174,185.111L319.549,185.111L319.549,179.162C319.549,178.556 319.924,178.064 320.386,178.064L326.099,178.064C326.561,178.064 326.935,178.556 326.935,179.162L326.935,185.111ZM326.474,187.307L320.01,187.307L320.01,200.794L326.474,200.794L326.474,187.307ZM325.262,180.714L325.262,180.261L321.222,180.261L321.222,181.597C321.759,181.583 322.503,181.534 323.272,181.387C323.958,181.255 324.668,181.049 325.262,180.714ZM325.262,182.702L325.262,181.655C324.675,181.941 324.014,182.132 323.369,182.256C322.562,182.41 321.783,182.462 321.222,182.475L321.222,183.585C321.759,183.572 322.503,183.522 323.272,183.375C323.958,183.244 324.668,183.038 325.262,182.702ZM321.222,184.464L321.222,185.088L325.262,185.088L325.262,183.643C324.675,183.929 324.014,184.121 323.369,184.244C322.562,184.399 321.783,184.45 321.222,184.464Z"/>
                </g>
                <g transform="matrix(0.226369,0.502355,-0.679779,0.500258,18218,-31364.2)">
                    <g transform="matrix(0.867011,-0.870646,1.5095,0.502667,26663.5,35740.5)">
                        <path d="M126.279,270.94L145.421,295.641L116.347,307.101L126.279,270.94Z"/>
                        <path d="M95.485,265.756C95.485,265.756 103.361,281.14 126.135,290.344" style="fill:none;stroke:black;stroke-width:8.33px;"/>
                    </g>
                </g>
            </g>
            <g transform="matrix(0.379207,0,0,0.485859,-2604.5,-746.085)">
                <g transform="matrix(0.471034,0,0,0.451577,-4691.69,-9110.16)">
                    <path d="M26911,24156.5L26911,24578.2L26406,24578.2L26406,23917.5L26911,23917.5L26911,23917.7C26913,23917.2 26915.1,23916.9 26917.2,23916.9L27053.6,23916.9C27068.2,23916.9 27080.1,23929.3 27080.1,23944.6L27080.1,24129.6C27080.1,24144.9 27068.2,24157.3 27053.6,24157.3L26917.2,24157.3C26915.1,24157.3 26913,24157 26911,24156.5Z" style="fill:rgb(254,255,254);stroke:rgb(89,89,89);stroke-width:9.29px;"/>
                </g>
                <g id="path28362" serif:id="path2836" transform="matrix(1.32953,1.87253e-17,-1.87253e-17,-1.17663,7531.22,2217.92)">
                    <path d="M187.282,305.953L182.539,311.981L172.757,311.917L172.757,302.834L167.387,302.834L166.74,305.685L166.223,308.609L165.964,311.46L165.835,314.458L165.964,317.382L166.223,320.379L166.74,323.45L167.387,326.52L172.757,326.52L172.757,318.287L182.539,318.223L187.282,322.217L210.3,322.217L210.3,305.953L187.282,305.953Z" style="fill:white;stroke:rgb(89,89,89);stroke-width:3.42px;stroke-miterlimit:2;"/>
                </g>
                <g transform="matrix(1,0,0,1,-601.857,-915.516)">
                    <g transform="matrix(1.17101,0.331593,-0.262758,0.927921,-14382.3,-40524.1)">
                        <path d="M27665.2,36796.4L27665.2,36812C27663.2,36816.7 27646.1,36816.8 27644,36812L27644,36796.4C27646.4,36800.1 27662.4,36800.1 27665.2,36796.4Z" style="fill:white;stroke:black;stroke-width:3.91px;stroke-linecap:round;"/>
                    </g>
                    <g transform="matrix(1.18542,0.335674,-0.24838,0.877147,-15388.8,-38614.4)">
                        <ellipse cx="27682.1" cy="36609.6" rx="10.438" ry="3.287" style="fill:white;stroke:black;stroke-width:3.96px;stroke-linecap:round;"/>
                    </g>
                </g>
                <g transform="matrix(1.21705,0,9.7727e-16,0.964406,-26071.2,-33719.7)">
                    <path d="M27665.2,36796.4L27665.2,36812C27663.2,36816.7 27646.1,36816.8 27644,36812L27644,36796.4C27646.4,36800.1 27662.4,36800.1 27665.2,36796.4Z" style="fill:white;stroke:black;stroke-width:3.91px;stroke-linecap:round;"/>
                </g>
                <g transform="matrix(1.23203,-3.36731e-16,8.9229e-16,0.911636,-26519.3,-31608)">
                    <ellipse cx="27682.1" cy="36609.6" rx="10.438" ry="3.287" style="fill:white;stroke:black;stroke-width:3.96px;stroke-linecap:round;"/>
                </g>
                <g transform="matrix(0.476334,0.126551,-0.0304643,0.10833,-4087.36,-4074.88)">
                    <rect x="26318.1" y="24237.7" width="315.175" height="79.714" style="fill:rgb(254,255,254);"/>
                </g>
                <g transform="matrix(0.476334,0.126551,-0.0304643,0.10833,-4087.36,-4074.88)">
                    <path d="M26636.6,24237.9L26636.6,24317.6C26636.6,24325.7 26635.1,24332.2 26633.3,24332.2L26318.1,24332.2C26317.2,24332.2 26316.3,24330.6 26315.7,24327.8C26315.1,24325 26314.7,24321.1 26314.7,24317.2L26314.7,24237.5C26314.7,24229.4 26316.2,24222.9 26318,24222.9L26633.2,24222.9C26634.1,24222.9 26635,24224.5 26635.6,24227.3C26636.3,24230.1 26636.6,24233.9 26636.6,24237.9ZM26629.9,24252.5L26321.5,24252.5L26321.5,24302.6L26629.9,24302.6L26629.9,24252.5Z" style="fill:rgb(26,26,26);"/>
                </g>
                <g transform="matrix(0.689897,0,0,0.272402,-10431.4,-4702.85)">
                    <rect x="26260.4" y="24404.5" width="596.013" height="55.186" style="fill:rgb(254,255,254);"/>
                </g>
                <g transform="matrix(0.689897,0,0,0.272402,-10431.4,-4702.85)">
                    <path d="M26858.9,24404.5L26858.9,24459.6C26858.9,24463 26857.8,24465.8 26856.4,24465.8L26260.4,24465.8C26259.1,24465.8 26258,24463 26258,24459.6L26258,24404.5C26258,24401.1 26259.1,24398.3 26260.4,24398.3L26856.4,24398.3C26857.8,24398.3 26858.9,24401.1 26858.9,24404.5ZM26854,24410.6L26262.9,24410.6L26262.9,24453.5L26854,24453.5L26854,24410.6Z" style="fill:rgb(89,89,89);"/>
                </g>
                <g transform="matrix(0.488761,0,0,0.476881,-5162.44,-9706.06)">
                    <rect x="26271.5" y="23898" width="127.542" height="213.387" style="fill:none;stroke:rgb(89,89,89);stroke-width:8.88px;"/>
                </g>
                <g transform="matrix(0.488761,0,0,0.476881,-5152.8,-9706.06)">
                    <path d="M26321.8,24111.4C26321.8,24111.4 26305.3,24175.5 26380.5,24174.4C26504.6,24172.6 26544.8,24214.4 26536.2,24229.1" style="fill:none;stroke:rgb(89,89,89);stroke-width:8.88px;"/>
                </g>
                <g transform="matrix(0.488761,0,0,0.476881,-5156.54,-9708.12)">
                    <rect x="26872.5" y="24355.7" width="127.427" height="137.008" style="fill:rgb(254,255,254);stroke:rgb(89,89,89);stroke-width:8.88px;"/>
                </g>
                <g transform="matrix(1.16414,0,0,1.16414,-1276.46,1113.94)">
                    <g transform="matrix(1.10501,-0,-0,1.10501,6996.37,362.211)">
                        <path d="M612.985,224.684L634.776,247.083L607.171,261.731L612.985,224.684Z"/>
                        <path d="M565.564,211.3C565.564,211.3 586.653,235.287 615.017,243.983" style="fill:none;stroke:black;stroke-width:8.33px;stroke-miterlimit:1.5;"/>
                    </g>
                </g>
                <g transform="matrix(0.614054,0,0,0.614054,-3855.2,-18380.6)">
                    <path d="M19138,32991.9L19109.9,32991.9L19109.9,32978L19138,32978L19138,32955.2L19126.1,32955.2L19126.1,32938.5L19138,32938.5L19138,32926.1L19145.7,32926.1L19145.7,32938.5L19156.6,32938.5L19156.6,32930.9C19156.6,32923.9 19162.3,32918.2 19169.3,32918.2L19231.6,32918.2C19238.7,32918.2 19244.4,32923.9 19244.4,32930.9L19244.4,32956.4C19244.4,32963.4 19238.7,32969.1 19231.6,32969.1L19169.3,32969.1C19162.3,32969.1 19156.6,32963.4 19156.6,32956.4L19156.6,32955.2L19145.7,32955.2L19145.7,32978L19233.9,32978L19233.9,32991.9L19145.7,32991.9L19145.7,33002.3L19149.4,33002.3L19149.4,33015.5L19134.3,33015.5L19134.3,33002.3L19138,33002.3L19138,32991.9Z" style="fill:none;stroke:rgb(89,89,89);stroke-width:6.98px;"/>
                </g>
                <g transform="matrix(0.833005,0,0,1.28133,491.892,2480.83)">
                    <path d="M8783.47,-503.985L8777.13,-503.985L8777.13,-513.843L8783.47,-513.843L8783.47,-532.487L8793.32,-532.487L8793.32,-513.843L8799.66,-513.843L8799.66,-503.985L8793.32,-503.985L8793.32,-469.69L8799.66,-469.69L8799.66,-459.832L8793.32,-459.832L8793.32,-450.879L8789.48,-450.879L8789.48,-442.265L8787.31,-442.265L8787.31,-450.879L8783.47,-450.879L8783.47,-459.832L8777.13,-459.832L8777.13,-469.69L8783.47,-469.69L8783.47,-503.985Z" style="fill:white;stroke:rgb(89,89,89);stroke-width:3.97px;stroke-miterlimit:1.5;"/>
                </g>
            </g>
            <g transform="matrix(0.0871024,0,0,0.136796,250.964,-167.989)">
                <path d="M2920.49,1480.38L2941,1478.15C2943.36,1487.63 2947.37,1494.46 2953.02,1498.64C2958.68,1502.83 2965.58,1504.92 2973.7,1504.92C2983.35,1504.92 2991.5,1502.19 2998.14,1496.74C3004.79,1491.28 3008.11,1484.53 3008.11,1476.47C3008.11,1468.79 3005.04,1462.45 2998.89,1457.46C2992.73,1452.48 2984.91,1449.98 2975.41,1449.98C2971.54,1449.98 2966.72,1450.6 2960.94,1451.84L2963.22,1437.15C2964.59,1437.28 2965.69,1437.34 2966.53,1437.34C2975.26,1437.34 2983.12,1435.48 2990.11,1431.76C2997.1,1428.05 3000.59,1422.31 3000.59,1414.57C3000.59,1408.43 2998.05,1403.35 2992.96,1399.32C2987.87,1395.29 2981.3,1393.28 2973.25,1393.28C2965.27,1393.28 2958.63,1395.33 2953.31,1399.41C2947.99,1403.51 2944.57,1409.64 2943.05,1417.82L2922.55,1414.85C2925.05,1403.63 2930.75,1394.94 2939.64,1388.77C2948.52,1382.61 2959.58,1379.52 2972.79,1379.52C2981.91,1379.52 2990.3,1381.12 2997.97,1384.31C3005.64,1387.5 3011.51,1391.86 3015.58,1397.37C3019.64,1402.89 3021.67,1408.74 3021.67,1414.94C3021.67,1420.83 3019.74,1426.19 3015.86,1431.02C3011.99,1435.85 3006.25,1439.69 2998.66,1442.55C3008.53,1444.4 3016.2,1448.26 3021.67,1454.12C3027.14,1459.98 3029.88,1467.3 3029.88,1476.1C3029.88,1488 3024.56,1498.09 3013.93,1506.36C3003.29,1514.63 2989.85,1518.77 2973.59,1518.77C2958.93,1518.77 2946.76,1515.2 2937.07,1508.08C2927.39,1500.95 2921.86,1491.72 2920.49,1480.38Z" style="fill-rule:nonzero;"/>
            </g>
            <g transform="matrix(0.0871024,0,0,0.136796,-217.741,-167.989)">
                <path d="M2997.63,1516.35L2977.12,1516.35L2977.12,1409.73C2972.18,1413.58 2965.71,1417.42 2957.7,1421.26C2949.68,1425.1 2942.49,1427.98 2936.1,1429.9L2936.1,1413.73C2947.57,1409.33 2957.6,1404 2966.18,1397.74C2974.77,1391.48 2980.84,1385.41 2984.41,1379.52L2997.63,1379.52L2997.63,1516.35Z" style="fill-rule:nonzero;"/>
            </g>
            <g transform="matrix(0.0871024,0,0,0.136796,13.1237,-167.989)">
                <path d="M3028.17,1500.27L3028.17,1516.35L2917.76,1516.35C2917.61,1512.32 2918.41,1508.45 2920.15,1504.73C2922.96,1498.6 2927.46,1492.56 2933.65,1486.61C2939.85,1480.66 2948.79,1473.78 2960.49,1465.97C2978.64,1453.82 2990.91,1444.2 2997.29,1437.11C3003.67,1430.01 3006.86,1423.3 3006.86,1416.98C3006.86,1410.35 3003.95,1404.76 2998.14,1400.2C2992.33,1395.65 2984.76,1393.37 2975.41,1393.37C2965.54,1393.37 2957.64,1395.79 2951.71,1400.62C2945.79,1405.46 2942.79,1412.15 2942.71,1420.7L2921.63,1418.94C2923.08,1406.11 2928.51,1396.33 2937.93,1389.61C2947.35,1382.88 2959.99,1379.52 2975.87,1379.52C2991.9,1379.52 3004.58,1383.15 3013.93,1390.4C3023.27,1397.65 3027.94,1406.63 3027.94,1417.36C3027.94,1422.81 3026.57,1428.17 3023.84,1433.44C3021.1,1438.7 3016.57,1444.25 3010.22,1450.08C3003.88,1455.9 2993.34,1463.89 2978.6,1474.06C2966.3,1482.49 2958.4,1488.2 2954.9,1491.21C2951.41,1494.21 2948.52,1497.23 2946.24,1500.27L3028.17,1500.27Z" style="fill-rule:nonzero;"/>
            </g>
        </g>
    </g>
</svg>
