<?xml version="1.0" encoding="UTF-8" standalone="no"?>
<!DOCTYPE svg PUBLIC "-//W3C//DTD SVG 1.1//EN" "http://www.w3.org/Graphics/SVG/1.1/DTD/svg11.dtd">
<svg width="100%" height="100%" viewBox="0 0 1453 473" version="1.1" xmlns="http://www.w3.org/2000/svg" xmlns:xlink="http://www.w3.org/1999/xlink" xml:space="preserve" xmlns:serif="http://www.serif.com/" style="fill-rule:evenodd;clip-rule:evenodd;stroke-linecap:round;stroke-linejoin:round;stroke-miterlimit:1.5;">
    <g transform="matrix(1,0,0,1,-6697.7,-7828.49)">
        <g id="Artboard4" transform="matrix(2.05,0,0,1.6,6697.7,7828.49)">
            <rect x="0" y="0" width="708.661" height="295.276" style="fill:none;"/>
            <clipPath id="_clip1">
                <rect x="0" y="0" width="708.661" height="295.276"/>
            </clipPath>
            <g clip-path="url(#_clip1)">
                <g transform="matrix(0.993602,0,0,0.941361,0,-1.13687e-12)">
                    <rect x="0" y="0" width="708.661" height="295.276" style="fill:none;"/>
                </g>
                <g transform="matrix(0.972844,0,0,0.935304,10.9806,39.66)">
                    <g transform="matrix(-0.645802,0,0,0.821756,154.644,13.2005)">
                        <path d="M182.316,59.517C182.316,59.517 186.922,65.228 184.435,68.083C181.948,70.939 182.224,74.071 182.224,76.742C182.224,79.414 185.725,80.058 185.725,80.058C185.725,80.058 185.909,86.783 185.08,88.533C184.251,90.283 180.29,106.772 183.053,109.167C183.053,109.167 185.264,108.4 185.08,114.602C184.896,120.804 187.567,123.291 187.567,123.291L182.04,124.12L182.04,132.733L187.014,134.851L187.014,144.017C187.014,144.017 181.948,145.122 181.395,146.78C180.843,148.438 181.395,153.413 181.395,153.413L188.902,156.032" style="fill:none;stroke:rgb(128,128,128);stroke-width:1.14px;"/>
                    </g>
                    <g transform="matrix(0.645802,0,0,0.925144,-94.9298,13.6439)">
                        <rect x="183.964" y="-0.584" width="18.891" height="40.481" style="fill:none;stroke:rgb(128,128,128);stroke-width:1.07px;"/>
                    </g>
                    <g transform="matrix(0.645802,0,0,0.821756,-94.672,13.2005)">
                        <path d="M182.316,59.517C182.316,59.517 186.922,65.228 184.435,68.083C181.948,70.939 182.224,74.071 182.224,76.742C182.224,79.414 185.725,80.058 185.725,80.058C185.725,80.058 185.909,86.783 185.08,88.533C184.251,90.283 180.29,106.772 183.053,109.167C183.053,109.167 185.264,108.4 185.08,114.602C184.896,120.804 187.567,123.291 187.567,123.291L182.04,124.12L182.04,132.733L187.014,134.851L187.014,144.017C187.014,144.017 181.948,145.122 181.395,146.78C180.843,148.438 181.395,153.413 181.395,153.413L188.902,156.032" style="fill:none;stroke:rgb(128,128,128);stroke-width:1.14px;"/>
                    </g>
                    <g transform="matrix(0.645802,0,0,0.821756,-94.672,-289.197)">
                        <path d="M185.955,448.053C185.955,448.053 189.764,448.317 190.33,448.317" style="fill:none;stroke:rgb(128,128,128);stroke-width:1.14px;stroke-linecap:butt;"/>
                    </g>
                    <g transform="matrix(0.645802,0,0,0.821756,-94.672,-289.197)">
                        <path d="M202.004,477.808C202.004,477.808 192.901,475.746 184.754,478.11" style="fill:none;stroke:rgb(128,128,128);stroke-width:1.14px;stroke-linecap:butt;"/>
                    </g>
                    <g transform="matrix(0.645802,0,0,0.821756,-94.672,-289.197)">
                        <path d="M185.257,482.988L200.947,483.089" style="fill:none;stroke:rgb(128,128,128);stroke-width:1.14px;stroke-linecap:butt;"/>
                    </g>
                    <g transform="matrix(3.11819e-17,0.647985,-0.536937,4.18358e-17,40.5281,-69.9562)">
                        <path d="M202.854,-0.584C205.507,12.173 205.434,25.687 202.854,39.896L183.964,39.896C180.609,25.922 180.555,12.421 183.964,-0.584L202.854,-0.584Z" style="fill:white;stroke:rgb(128,128,128);stroke-width:1.41px;"/>
                    </g>
                    <g transform="matrix(0.645802,0,0,0.919987,-95.2662,-3.35278)">
                        <rect x="183.966" y="157.559" width="20.511" height="64.604" style="fill:none;stroke:rgb(128,128,128);stroke-width:1.08px;"/>
                    </g>
                    <g transform="matrix(0.645802,0,0,0.827434,-94.7755,-12.7123)">
                        <rect x="203.718" y="198.068" width="21.751" height="18.316" style="fill:none;stroke:rgb(128,128,128);stroke-width:1.14px;"/>
                    </g>
                    <g transform="matrix(0.619912,0,0,0.827434,-88.5565,-12.7123)">
                        <rect x="224.896" y="197.352" width="15.311" height="20.32" style="fill:none;stroke:rgb(128,128,128);stroke-width:1.16px;"/>
                    </g>
                    <g transform="matrix(0.828325,0,0,0.827434,-139.144,-12.7123)">
                        <path d="M245.456,198.748L245.456,215.159C244.07,214.074 242.584,213.703 240.84,215.159L240.84,198.748C242.114,200.199 243.647,200.227 245.456,198.748Z" style="fill:none;stroke:rgb(128,128,128);stroke-width:0.99px;"/>
                    </g>
                    <g transform="matrix(0.461287,0,0,0.827434,-49.3635,-12.7123)">
                        <path d="M252.27,194.938C255.02,202.112 254.837,210.697 252.27,219.116L246.116,219.116L246.116,194.938L252.27,194.938Z" style="fill:none;stroke:rgb(128,128,128);stroke-width:1.31px;"/>
                    </g>
                    <g transform="matrix(0.645802,0,0,0.713957,-94.7755,11.224)">
                        <path d="M300.836,196.69L300.836,218.059C284.908,220.36 269.697,220.395 255.236,218.059L255.236,196.69C271.446,192.167 286.628,192.248 300.836,196.69Z" style="fill:none;stroke:rgb(128,128,128);stroke-width:1.22px;"/>
                    </g>
                    <g transform="matrix(0.645802,0,0,0.827434,-94.7755,-12.7123)">
                        <rect x="251.82" y="200.074" width="3.376" height="14.38" style="fill:none;stroke:rgb(128,128,128);stroke-width:1.14px;"/>
                    </g>
                    <g transform="matrix(0.645802,0,0,0.827434,-94.8545,-12.6821)">
                        <rect x="300.96" y="201.887" width="2.876" height="9.19" style="fill:none;stroke:rgb(128,128,128);stroke-width:1.14px;"/>
                    </g>
                    <g transform="matrix(0.632979,0,0,0.821756,-93.0966,-10.5279)">
                        <path d="M183.493,226.442L176.163,226.442C171.763,222.774 172.735,219.745 176.163,217.009L184.058,217.009L184.058,218.616L205.096,218.616L205.096,217.4L213.151,217.4C216.649,220.136 217.64,223.165 213.151,226.833L205.985,226.833L205.985,227.49C198.388,229.163 190.89,229.17 183.493,227.49L183.493,226.442Z" style="fill:none;stroke:rgb(128,128,128);stroke-width:1.15px;"/>
                    </g>
                    <g transform="matrix(4.48269e-17,-0.924326,0.74802,5.78311e-17,-112.352,355.324)">
                        <path d="M209.199,214.203C207.092,213.082 205.656,210.863 205.656,208.312C205.656,205.775 207.075,203.568 209.161,202.441L209.161,197.663C211.195,195.854 213.291,195.854 215.448,197.663L215.448,202.42C217.556,203.541 218.992,205.76 218.992,208.312C218.992,210.848 217.573,213.056 215.486,214.183L215.486,219.235C213.329,220.678 211.233,220.678 209.199,219.235L209.199,214.203Z" style="fill:white;stroke:black;stroke-width:1.96px;"/>
                    </g>
                    <g transform="matrix(0.645802,0,0,0.821756,-94.0729,-14.073)">
                        <circle cx="212.979" cy="210.696" r="3.157" style="fill:none;stroke:black;stroke-width:1.14px;"/>
                    </g>
                    <g transform="matrix(0.645802,0,0,0.821756,-95.3178,-10.0533)">
                        <circle cx="177.822" cy="221.533" r="2.533" style="fill:none;stroke:rgb(128,128,128);stroke-width:1.14px;"/>
                    </g>
                    <g transform="matrix(0.645802,0,0,0.69866,-95.9636,32.6177)">
                        <path d="M207.868,225.324L207.868,242.829C199.173,246.816 190.775,247.068 182.735,242.829L182.735,225.324L207.868,225.324Z" style="fill:white;stroke:rgb(128,128,128);stroke-width:1.23px;stroke-linecap:butt;"/>
                    </g>
                    <g transform="matrix(0.645802,0,0,0.821756,-96.1744,-617.944)">
                        <rect x="189.256" y="902.81" width="12.237" height="9.264" style="fill:white;stroke:rgb(128,128,128);stroke-width:1.14px;stroke-linecap:butt;"/>
                    </g>
                    <g transform="matrix(1.34485,-0.606238,0.380284,1.34485,-53.6796,5.77432)">
                        <g transform="matrix(0.417018,0.224202,-0.173786,0.530637,-24.6416,-16.0273)">
                            <rect x="189.485" y="66.581" width="12.451" height="8.772" style="fill:white;stroke:black;stroke-width:2.23px;"/>
                        </g>
                        <g transform="matrix(0.388864,0.209066,-0.172737,0.527435,-19.1613,-12.77)">
                            <rect x="190.051" y="75.307" width="11.178" height="7.263" style="fill:white;stroke:black;stroke-width:2.31px;"/>
                        </g>
                        <g transform="matrix(0.417018,0.224202,-0.173786,0.530637,39.3098,-211.296)">
                            <path d="M189.914,448.566C189.914,448.566 188.668,451.319 194.831,451.254L194.831,457.613C194.831,457.613 187.751,459.71 187.357,455.711C186.964,451.712 187.882,449.418 188.078,448.631L189.914,448.566Z" style="fill:white;stroke:black;stroke-width:1.14px;stroke-linecap:butt;"/>
                        </g>
                        <g transform="matrix(-0.417018,-0.224202,-0.173786,0.530637,202.175,-123.735)">
                            <path d="M189.914,448.566C189.914,448.566 188.668,451.319 194.831,451.254L194.831,457.613C194.831,457.613 187.751,459.71 187.357,455.711C186.964,451.712 187.882,449.418 188.078,448.631L189.914,448.566Z" style="fill:white;stroke:black;stroke-width:1.15px;stroke-linecap:butt;"/>
                        </g>
                        <g transform="matrix(0.417018,0.224202,-0.173786,0.530637,39.3098,-211.296)">
                            <path d="M189.951,458.323C189.951,458.323 185.227,470.133 194.053,470.879C202.879,471.624 201.139,460.436 200.331,458.447L195.669,457.701L189.951,458.323Z" style="fill:white;stroke:black;stroke-width:2.23px;stroke-linecap:butt;"/>
                        </g>
                        <g transform="matrix(0.417018,0.224202,-0.173786,0.530637,39.4353,-211.146)">
                            <circle cx="194.875" cy="464.277" r="1.808" style="fill:none;stroke:black;stroke-width:1.14px;stroke-linecap:butt;"/>
                        </g>
                        <g transform="matrix(0.392082,0.444317,-0.346539,0.497761,124.533,-239.29)">
                            <path d="M195.337,461.244L198.498,463.069L198.498,466.72L195.337,468.545L192.176,466.72L192.176,463.069L195.337,461.244Z" style="fill:none;stroke:black;stroke-width:0.98px;stroke-linecap:butt;"/>
                        </g>
                        <g transform="matrix(0.429286,0.230797,-0.173786,0.530637,-27.0313,-17.4222)">
                            <path d="M202.48,29.532L202.48,66.82L189.142,66.82L189.142,29.532C193.626,26.047 198.074,25.933 202.48,29.532Z" style="fill:white;stroke:black;stroke-width:2.2px;"/>
                        </g>
                    </g>
                    <g transform="matrix(0.433133,0,0,0.199922,-54.429,172.833)">
                        <path d="M207.868,153.449L207.868,170.954C199.173,174.941 190.775,175.193 182.735,170.954L182.735,153.449L207.868,153.449Z" style="fill:white;stroke:rgb(128,128,128);stroke-width:2.27px;stroke-linecap:butt;"/>
                    </g>
                    <g transform="matrix(-0.870097,-1.88981e-16,0,-1.08984,19426.7,36748)">
                        <rect x="22205" y="33570.2" width="2.894" height="6.47" style="fill:none;stroke:rgb(128,128,128);stroke-width:0.96px;stroke-linecap:butt;stroke-miterlimit:10;"/>
                    </g>
                    <g transform="matrix(-0.882033,-9.44904e-17,0,-1.08984,19691.9,36748)">
                        <path d="M22210.7,33571.5L22210.7,33575.8C22209.8,33575.3 22208.9,33575.2 22208,33575.8L22208,33571.5C22208.9,33572 22209.8,33572 22210.7,33571.5Z" style="fill:none;stroke:rgb(128,128,128);stroke-width:0.95px;stroke-linecap:butt;stroke-miterlimit:10;"/>
                    </g>
                </g>
                <g transform="matrix(0.0865452,0,0,0.128774,290.24,-158.138)">
                    <path d="M2920.49,1480.38L2941,1478.15C2943.36,1487.63 2947.37,1494.46 2953.02,1498.64C2958.68,1502.83 2965.58,1504.92 2973.7,1504.92C2983.35,1504.92 2991.5,1502.19 2998.14,1496.74C3004.79,1491.28 3008.11,1484.53 3008.11,1476.47C3008.11,1468.79 3005.04,1462.45 2998.89,1457.46C2992.73,1452.48 2984.91,1449.98 2975.41,1449.98C2971.54,1449.98 2966.72,1450.6 2960.94,1451.84L2963.22,1437.15C2964.59,1437.28 2965.69,1437.34 2966.53,1437.34C2975.26,1437.34 2983.12,1435.48 2990.11,1431.76C2997.1,1428.05 3000.59,1422.31 3000.59,1414.57C3000.59,1408.43 2998.05,1403.35 2992.96,1399.32C2987.87,1395.29 2981.3,1393.28 2973.25,1393.28C2965.27,1393.28 2958.63,1395.33 2953.31,1399.41C2947.99,1403.51 2944.57,1409.64 2943.05,1417.82L2922.55,1414.85C2925.05,1403.63 2930.75,1394.94 2939.64,1388.77C2948.52,1382.61 2959.58,1379.52 2972.79,1379.52C2981.91,1379.52 2990.3,1381.12 2997.97,1384.31C3005.64,1387.5 3011.51,1391.86 3015.58,1397.37C3019.64,1402.89 3021.67,1408.74 3021.67,1414.94C3021.67,1420.83 3019.74,1426.19 3015.86,1431.02C3011.99,1435.85 3006.25,1439.69 2998.66,1442.55C3008.53,1444.4 3016.2,1448.26 3021.67,1454.12C3027.14,1459.98 3029.88,1467.3 3029.88,1476.1C3029.88,1488 3024.56,1498.09 3013.93,1506.36C3003.29,1514.63 2989.85,1518.77 2973.59,1518.77C2958.93,1518.77 2946.76,1515.2 2937.07,1508.08C2927.39,1500.95 2921.86,1491.72 2920.49,1480.38Z" style="fill-rule:nonzero;"/>
                </g>
                <g transform="matrix(0.0865452,0,0,0.128774,-222.913,-158.138)">
                    <path d="M2997.63,1516.35L2977.12,1516.35L2977.12,1409.73C2972.18,1413.58 2965.71,1417.42 2957.7,1421.26C2949.68,1425.1 2942.49,1427.98 2936.1,1429.9L2936.1,1413.73C2947.57,1409.33 2957.6,1404 2966.18,1397.74C2974.77,1391.48 2980.84,1385.41 2984.41,1379.52L2997.63,1379.52L2997.63,1516.35Z" style="fill-rule:nonzero;"/>
                </g>
                <g transform="matrix(0.0865452,0,0,0.128774,-25.0841,-158.138)">
                    <path d="M3028.17,1500.27L3028.17,1516.35L2917.76,1516.35C2917.61,1512.32 2918.41,1508.45 2920.15,1504.73C2922.96,1498.6 2927.46,1492.56 2933.65,1486.61C2939.85,1480.66 2948.79,1473.78 2960.49,1465.97C2978.64,1453.82 2990.91,1444.2 2997.29,1437.11C3003.67,1430.01 3006.86,1423.3 3006.86,1416.98C3006.86,1410.35 3003.95,1404.76 2998.14,1400.2C2992.33,1395.65 2984.76,1393.37 2975.41,1393.37C2965.54,1393.37 2957.64,1395.79 2951.71,1400.62C2945.79,1405.46 2942.79,1412.15 2942.71,1420.7L2921.63,1418.94C2923.08,1406.11 2928.51,1396.33 2937.93,1389.61C2947.35,1382.88 2959.99,1379.52 2975.87,1379.52C2991.9,1379.52 3004.58,1383.15 3013.93,1390.4C3023.27,1397.65 3027.94,1406.63 3027.94,1417.36C3027.94,1422.81 3026.57,1428.17 3023.84,1433.44C3021.1,1438.7 3016.57,1444.25 3010.22,1450.08C3003.88,1455.9 2993.34,1463.89 2978.6,1474.06C2966.3,1482.49 2958.4,1488.2 2954.9,1491.21C2951.41,1494.21 2948.52,1497.23 2946.24,1500.27L3028.17,1500.27Z" style="fill-rule:nonzero;"/>
                </g>
                <g transform="matrix(0.710557,0,0,0.862533,-6861.17,-6923.65)">
                    <path d="M10156.8,8087.07C10159.2,8087.07 10161.5,8088.02 10163.2,8089.71C10164.9,8091.4 10165.9,8093.69 10165.9,8096.09L10165.9,8282.23C10165.9,8286.71 10162.6,8290.51 10158.1,8291.16C10141.6,8293.54 10104.5,8298.91 10104.5,8298.91C10104.5,8298.91 10035.5,8292.7 10013,8290.67C10008.8,8290.3 10005.5,8287.16 10004.9,8283.06C9999.57,8248.39 9972.59,8096.6 9972.59,8096.6C9972.59,8096.6 9998.85,8089.31 10004.6,8087.49C10005.5,8087.21 10006.4,8087.07 10007.3,8087.07L10156.8,8087.07Z" style="fill:white;stroke:rgb(128,128,128);stroke-width:2.35px;stroke-linecap:butt;"/>
                </g>
                <g transform="matrix(1.06811,0,0,1.10891,-10491,-8931.15)">
                    <path d="M10155.7,8163.48L10155.7,8205.45L10130.2,8207.45L10130.2,8165.48L10155.7,8163.48Z" style="fill:white;stroke:rgb(13,13,13);stroke-width:0.81px;stroke-linecap:butt;"/>
                </g>
                <g transform="matrix(0.993602,0,0,1.05629,33.0866,-20.3598)">
                    <g transform="matrix(0.867668,0,0,0.916262,-8497.46,-7343.56)">
                        <path d="M10152.4,8164.64C10153.8,8164.64 10164.8,8164.2 10166.1,8165.05C10170.6,8168.01 10164.2,8176.61 10164.2,8185.64C10164.2,8194.88 10169.3,8203.64 10164.6,8206.45C10163.4,8207.16 10153.7,8206.63 10152.4,8206.63C10145.9,8206.63 10140.6,8197.22 10140.6,8185.64C10140.6,8174.05 10145.9,8164.64 10152.4,8164.64Z" style="fill:white;stroke:rgb(13,13,13);stroke-width:1.95px;stroke-linecap:butt;"/>
                    </g>
                    <g transform="matrix(0.867668,0,0,0.916262,-8487.4,-7343.56)">
                        <ellipse cx="10152.4" cy="8185.64" rx="11.809" ry="20.994" style="fill:white;stroke:rgb(13,13,13);stroke-width:1.95px;stroke-linecap:butt;"/>
                    </g>
                    <g transform="matrix(0.867668,0,0,1.04961,-8480.67,-8430.14)">
                        <path d="M10140.8,8198.19L10140.8,8173.9L10143.9,8170.06L10147.3,8170.09L10149.3,8197.74C10149.3,8197.74 10145,8200.76 10140.8,8198.19Z" style="fill:white;stroke:rgb(13,13,13);stroke-width:1.82px;stroke-linecap:butt;"/>
                    </g>
                    <g transform="matrix(0.867668,0,0,1.04961,-8477.72,-8430.14)">
                        <path d="M10141.2,8197.74L10140.8,8173.9L10143.9,8170.06L10145.4,8172.15L10146.1,8198.29C10146.1,8198.29 10143.8,8198.76 10141.2,8197.74Z" style="fill:white;stroke:rgb(13,13,13);stroke-width:1.82px;stroke-linecap:butt;"/>
                    </g>
                </g>
                <g transform="matrix(0.661703,0,0,0.862533,-6400.27,-6915.99)">
                    <path d="M10156.2,8087.07C10161.5,8087.07 10165.9,8091.11 10165.9,8096.09L10165.9,8281.02C10165.9,8286 10161.5,8290.04 10156.2,8290.04L10015.6,8290.04C10010.3,8290.04 10005.9,8286 10005.9,8281.02L10005.9,8096.09C10005.9,8091.11 10010.3,8087.07 10015.6,8087.07L10156.2,8087.07Z" style="fill:white;stroke:rgb(128,128,128);stroke-width:2.44px;stroke-linecap:butt;"/>
                </g>
                <g transform="matrix(1.45664,0,0,1.38005,-62.4273,-40.952)">
                    <g transform="matrix(0.26265,0,0,0.335176,-3088.21,-4191.21)">
                        <path d="M12617.6,12862.9L12658.6,12944.9L12576.6,12944.9L12617.6,12862.9Z" style="fill:rgb(250,211,0);stroke:black;stroke-width:2.12px;stroke-linecap:butt;"/>
                    </g>
                    <g transform="matrix(0.33274,0,0,0.426324,42.8609,29.6583)">
                        <g>
                            <path d="M553.224,266.397L548.703,270.712L545.826,265.164L553.224,266.397Z"/>
                            <path d="M548.164,236.068L543.276,253.126L552.432,248.351C552.432,248.351 550.431,260.348 549.361,266.767" style="fill:none;stroke:black;stroke-width:1.67px;stroke-miterlimit:10;"/>
                        </g>
                    </g>
                </g>
                <g transform="matrix(0.710557,0,0,0.862533,-7604.76,-7186.66)">
                    <g transform="matrix(1.2416,0,0,1.41939,9296.06,6346.22)">
                        <rect x="1415.83" y="1547.53" width="43.634" height="12.121" style="fill:white;fill-opacity:0.48;stroke:rgb(115,115,115);stroke-width:0.85px;"/>
                    </g>
                    <g transform="matrix(0.439841,0,0,0.502826,9620.43,8097.86)">
                        <path d="M3279.76,898.351L3280.41,898.551C3280.26,899.221 3280.01,899.721 3279.65,900.05C3279.29,900.38 3278.86,900.545 3278.34,900.545C3277.89,900.545 3277.5,900.434 3277.18,900.213C3276.86,899.991 3276.59,899.637 3276.39,899.148C3276.18,898.659 3276.08,898.083 3276.08,897.418C3276.08,896.761 3276.18,896.205 3276.39,895.75C3276.59,895.295 3276.87,894.952 3277.22,894.72C3277.57,894.488 3277.96,894.372 3278.39,894.372C3278.87,894.372 3279.27,894.519 3279.61,894.812C3279.95,895.106 3280.19,895.537 3280.32,896.105L3279.69,896.288C3279.47,895.461 3279.03,895.047 3278.38,895.047C3278.06,895.047 3277.77,895.131 3277.53,895.298C3277.3,895.465 3277.11,895.725 3276.96,896.078C3276.82,896.431 3276.75,896.877 3276.75,897.417C3276.75,898.235 3276.89,898.848 3277.18,899.256C3277.47,899.665 3277.85,899.869 3278.33,899.869C3278.68,899.869 3278.99,899.744 3279.24,899.493C3279.5,899.242 3279.67,898.861 3279.76,898.351Z" style="fill-opacity:0.48;fill-rule:nonzero;"/>
                    </g>
                    <g transform="matrix(0.439841,0,0,0.502826,9620.43,8097.86)">
                        <path d="M3281.03,897.538C3281.03,896.52 3281.26,895.738 3281.7,895.192C3282.15,894.645 3282.71,894.372 3283.38,894.372C3283.81,894.372 3284.2,894.494 3284.56,894.738C3284.91,894.982 3285.19,895.337 3285.4,895.802C3285.61,896.267 3285.71,896.821 3285.71,897.464C3285.71,898.349 3285.51,899.069 3285.11,899.625C3284.67,900.238 3284.09,900.545 3283.37,900.545C3282.65,900.545 3282.07,900.23 3281.63,899.601C3281.23,899.031 3281.03,898.343 3281.03,897.538ZM3281.7,897.548C3281.7,898.284 3281.86,898.854 3282.19,899.26C3282.51,899.666 3282.91,899.869 3283.37,899.869C3283.84,899.869 3284.24,899.664 3284.56,899.254C3284.89,898.844 3285.05,898.241 3285.05,897.446C3285.05,896.933 3284.96,896.474 3284.8,896.07C3284.67,895.76 3284.48,895.512 3284.22,895.326C3283.97,895.14 3283.68,895.047 3283.38,895.047C3282.89,895.047 3282.49,895.251 3282.18,895.658C3281.86,896.065 3281.7,896.695 3281.7,897.548Z" style="fill-opacity:0.48;fill-rule:nonzero;"/>
                    </g>
                    <g transform="matrix(0.439841,0,0,0.502826,9620.43,8097.86)">
                        <path d="M3286.58,900.443L3286.58,894.478L3289.88,894.478L3289.88,895.182L3287.23,895.182L3287.23,897.029L3289.52,897.029L3289.52,897.733L3287.23,897.733L3287.23,900.443L3286.58,900.443Z" style="fill-opacity:0.48;fill-rule:nonzero;"/>
                    </g>
                    <g transform="matrix(0.439841,0,0,0.502826,9620.43,8097.86)">
                        <path d="M3290.76,900.443L3290.76,894.478L3294.05,894.478L3294.05,895.182L3291.4,895.182L3291.4,897.029L3293.7,897.029L3293.7,897.733L3291.4,897.733L3291.4,900.443L3290.76,900.443Z" style="fill-opacity:0.48;fill-rule:nonzero;"/>
                    </g>
                    <g transform="matrix(0.439841,0,0,0.502826,9620.43,8097.86)">
                        <path d="M3294.88,900.443L3294.88,894.478L3297.05,894.478C3297.5,894.478 3297.84,894.533 3298.05,894.644C3298.27,894.756 3298.45,894.941 3298.58,895.199C3298.72,895.458 3298.79,895.759 3298.79,896.1C3298.79,896.55 3298.67,896.915 3298.44,897.194C3298.2,897.473 3297.86,897.651 3297.41,897.727C3297.6,897.836 3297.74,897.946 3297.83,898.058C3298.02,898.286 3298.19,898.54 3298.34,898.819L3299.19,900.443L3298.38,900.443L3297.73,899.201C3297.48,898.715 3297.29,898.389 3297.16,898.221C3297.03,898.053 3296.9,897.939 3296.78,897.881C3296.66,897.823 3296.49,897.794 3296.28,897.794L3295.53,897.794L3295.53,900.443L3294.88,900.443ZM3295.53,897.11L3296.92,897.11C3297.22,897.11 3297.45,897.074 3297.61,897C3297.77,896.927 3297.89,896.812 3297.99,896.655C3298.08,896.497 3298.12,896.314 3298.12,896.105C3298.12,895.804 3298.03,895.567 3297.86,895.395C3297.68,895.223 3297.42,895.137 3297.07,895.137L3295.53,895.137L3295.53,897.11Z" style="fill-opacity:0.48;fill-rule:nonzero;"/>
                    </g>
                    <g transform="matrix(0.439841,0,0,0.502826,9620.43,8097.86)">
                        <path d="M3299.83,900.443L3299.83,894.478L3303.36,894.478L3303.36,895.182L3300.47,895.182L3300.47,897.005L3303.18,897.005L3303.18,897.708L3300.47,897.708L3300.47,899.739L3303.48,899.739L3303.48,900.443L3299.83,900.443Z" style="fill-opacity:0.48;fill-rule:nonzero;"/>
                    </g>
                    <g transform="matrix(0.439841,0,0,0.502826,9620.43,8097.86)">
                        <path d="M3305.63,900.443L3305.63,895.182L3304.01,895.182L3304.01,894.478L3307.89,894.478L3307.89,895.182L3306.27,895.182L3306.27,900.443L3305.63,900.443Z" style="fill-opacity:0.48;fill-rule:nonzero;"/>
                    </g>
                    <g transform="matrix(0.439841,0,0,0.502826,9620.43,8097.86)">
                        <path d="M3310.31,900.443L3310.31,894.478L3312,894.478C3312.42,894.478 3312.74,894.514 3312.95,894.588C3313.24,894.682 3313.49,894.856 3313.7,895.108C3313.9,895.361 3314.07,895.679 3314.18,896.063C3314.3,896.446 3314.36,896.901 3314.36,897.428C3314.36,898.103 3314.26,898.676 3314.06,899.147C3313.86,899.617 3313.61,899.951 3313.3,900.148C3312.99,900.344 3312.58,900.443 3312.08,900.443L3310.31,900.443ZM3310.96,899.739L3312,899.739C3312.42,899.739 3312.74,899.67 3312.96,899.533C3313.18,899.396 3313.34,899.176 3313.46,898.872C3313.61,898.468 3313.69,897.984 3313.69,897.42C3313.69,896.815 3313.61,896.339 3313.45,895.993C3313.28,895.647 3313.07,895.416 3312.81,895.3C3312.64,895.221 3312.36,895.182 3311.99,895.182L3310.96,895.182L3310.96,899.739Z" style="fill-opacity:0.48;fill-rule:nonzero;"/>
                    </g>
                    <g transform="matrix(0.439841,0,0,0.502826,9620.43,8097.86)">
                        <path d="M3315.18,896.589L3315.02,895.475L3315.02,894.478L3315.71,894.478L3315.71,895.475L3315.55,896.589L3315.18,896.589Z" style="fill-opacity:0.48;fill-rule:nonzero;"/>
                    </g>
                    <g transform="matrix(0.439841,0,0,0.502826,9620.43,8097.86)">
                        <path d="M3316.03,900.443L3317.91,894.478L3318.61,894.478L3320.61,900.443L3319.87,900.443L3319.3,898.636L3317.26,898.636L3316.72,900.443L3316.03,900.443ZM3317.45,897.993L3319.1,897.993L3318.6,896.341C3318.44,895.834 3318.32,895.422 3318.25,895.104C3318.19,895.487 3318.1,895.867 3317.98,896.244L3317.45,897.993Z" style="fill-opacity:0.48;fill-rule:nonzero;"/>
                    </g>
                    <g transform="matrix(0.439841,0,0,0.502826,9620.43,8097.86)">
                        <path d="M3321.09,900.443L3321.09,894.478L3321.74,894.478L3321.74,899.739L3324.14,899.739L3324.14,900.443L3321.09,900.443Z" style="fill-opacity:0.48;fill-rule:nonzero;"/>
                    </g>
                    <g transform="matrix(0.439841,0,0,0.502826,9620.43,8097.86)">
                        <rect x="3325.05" y="894.478" width="0.647" height="5.965" style="fill-opacity:0.48;"/>
                    </g>
                    <g transform="matrix(0.439841,0,0,0.502826,9620.43,8097.86)">
                        <path d="M3326.81,900.443L3326.81,894.478L3327.78,894.478L3328.94,898.701L3329.17,899.584C3329.23,899.365 3329.32,899.046 3329.43,898.628L3330.61,894.478L3331.48,894.478L3331.48,900.443L3330.86,900.443L3330.86,895.455L3329.43,900.443L3328.85,900.443L3327.43,895.37L3327.43,900.443L3326.81,900.443Z" style="fill-opacity:0.48;fill-rule:nonzero;"/>
                    </g>
                    <g transform="matrix(0.439841,0,0,0.502826,9620.43,8097.86)">
                        <path d="M3332.53,900.443L3332.53,894.478L3336.07,894.478L3336.07,895.182L3333.18,895.182L3333.18,897.005L3335.89,897.005L3335.89,897.708L3333.18,897.708L3333.18,899.739L3336.18,899.739L3336.18,900.443L3332.53,900.443Z" style="fill-opacity:0.48;fill-rule:nonzero;"/>
                    </g>
                    <g transform="matrix(0.439841,0,0,0.502826,9620.43,8097.86)">
                        <path d="M3337.06,900.443L3337.06,894.478L3337.72,894.478L3340.3,899.17L3340.3,894.478L3340.91,894.478L3340.91,900.443L3340.25,900.443L3337.68,895.749L3337.68,900.443L3337.06,900.443Z" style="fill-opacity:0.48;fill-rule:nonzero;"/>
                    </g>
                    <g transform="matrix(0.439841,0,0,0.502826,9620.43,8097.86)">
                        <path d="M3343.26,900.443L3343.26,895.182L3341.65,895.182L3341.65,894.478L3345.53,894.478L3345.53,895.182L3343.91,895.182L3343.91,900.443L3343.26,900.443Z" style="fill-opacity:0.48;fill-rule:nonzero;"/>
                    </g>
                    <g transform="matrix(0.439841,0,0,0.502826,9620.43,8097.86)">
                        <path d="M3345.15,900.443L3347.03,894.478L3347.72,894.478L3349.73,900.443L3348.99,900.443L3348.42,898.636L3346.37,898.636L3345.84,900.443L3345.15,900.443ZM3346.56,897.993L3348.22,897.993L3347.71,896.341C3347.55,895.834 3347.44,895.422 3347.36,895.104C3347.3,895.487 3347.21,895.867 3347.1,896.244L3346.56,897.993Z" style="fill-opacity:0.48;fill-rule:nonzero;"/>
                    </g>
                    <g transform="matrix(0.439841,0,0,0.502826,9620.43,8097.86)">
                        <path d="M3351,900.443L3351,895.182L3349.39,895.182L3349.39,894.478L3353.26,894.478L3353.26,895.182L3351.64,895.182L3351.64,900.443L3351,900.443Z" style="fill-opacity:0.48;fill-rule:nonzero;"/>
                    </g>
                    <g transform="matrix(0.439841,0,0,0.502826,9620.43,8097.86)">
                        <rect x="3354.04" y="894.478" width="0.647" height="5.965" style="fill-opacity:0.48;"/>
                    </g>
                    <g transform="matrix(0.439841,0,0,0.502826,9620.43,8097.86)">
                        <path d="M3355.64,897.538C3355.64,896.52 3355.86,895.738 3356.31,895.192C3356.75,894.645 3357.31,894.372 3357.98,894.372C3358.41,894.372 3358.8,894.494 3359.16,894.738C3359.51,894.982 3359.8,895.337 3360,895.802C3360.21,896.267 3360.31,896.821 3360.31,897.464C3360.31,898.349 3360.11,899.069 3359.71,899.625C3359.27,900.238 3358.69,900.545 3357.97,900.545C3357.25,900.545 3356.67,900.23 3356.23,899.601C3355.83,899.031 3355.64,898.343 3355.64,897.538ZM3356.3,897.548C3356.3,898.284 3356.46,898.854 3356.79,899.26C3357.11,899.666 3357.51,899.869 3357.97,899.869C3358.45,899.869 3358.84,899.664 3359.16,899.254C3359.49,898.844 3359.65,898.241 3359.65,897.446C3359.65,896.933 3359.56,896.474 3359.4,896.07C3359.27,895.76 3359.08,895.512 3358.82,895.326C3358.57,895.14 3358.29,895.047 3357.98,895.047C3357.49,895.047 3357.09,895.251 3356.78,895.658C3356.46,896.065 3356.3,896.695 3356.3,897.548Z" style="fill-opacity:0.48;fill-rule:nonzero;"/>
                    </g>
                    <g transform="matrix(0.439841,0,0,0.502826,9620.43,8097.86)">
                        <path d="M3361.12,900.443L3361.12,894.478L3361.78,894.478L3364.35,899.17L3364.35,894.478L3364.97,894.478L3364.97,900.443L3364.31,900.443L3361.74,895.749L3361.74,900.443L3361.12,900.443Z" style="fill-opacity:0.48;fill-rule:nonzero;"/>
                    </g>
                    <g transform="matrix(0.439841,0,0,0.502826,9620.43,8097.86)">
                        <path d="M3270.19,908.776L3270.19,902.811L3273.72,902.811L3273.72,903.515L3270.83,903.515L3270.83,905.338L3273.54,905.338L3273.54,906.042L3270.83,906.042L3270.83,908.072L3273.84,908.072L3273.84,908.776L3270.19,908.776Z" style="fill-opacity:0.48;fill-rule:nonzero;"/>
                    </g>
                    <g transform="matrix(0.439841,0,0,0.502826,9620.43,8097.86)">
                        <path d="M3275.98,908.776L3275.98,903.515L3274.37,903.515L3274.37,902.811L3278.25,902.811L3278.25,903.515L3276.63,903.515L3276.63,908.776L3275.98,908.776Z" style="fill-opacity:0.48;fill-rule:nonzero;"/>
                    </g>
                    <g transform="matrix(0.439841,0,0,0.502826,9620.43,8097.86)">
                        <path d="M3280.67,908.776L3280.67,902.811L3282.36,902.811C3282.78,902.811 3283.1,902.848 3283.31,902.921C3283.6,903.016 3283.84,903.189 3284.05,903.442C3284.26,903.694 3284.43,904.012 3284.54,904.396C3284.66,904.78 3284.72,905.235 3284.72,905.761C3284.72,906.436 3284.62,907.01 3284.42,907.48C3284.22,907.951 3283.97,908.284 3283.66,908.481C3283.35,908.678 3282.94,908.776 3282.44,908.776L3280.67,908.776ZM3281.32,908.072L3282.36,908.072C3282.78,908.072 3283.1,908.004 3283.32,907.867C3283.53,907.73 3283.7,907.509 3283.82,907.206C3283.97,906.801 3284.05,906.317 3284.05,905.753C3284.05,905.148 3283.97,904.673 3283.8,904.327C3283.64,903.981 3283.43,903.75 3283.17,903.633C3283,903.554 3282.72,903.515 3282.34,903.515L3281.32,903.515L3281.32,908.072Z" style="fill-opacity:0.48;fill-rule:nonzero;"/>
                    </g>
                    <g transform="matrix(0.439841,0,0,0.502826,9620.43,8097.86)">
                        <path d="M3285.63,908.776L3285.63,902.811L3289.17,902.811L3289.17,903.515L3286.28,903.515L3286.28,905.338L3288.99,905.338L3288.99,906.042L3286.28,906.042L3286.28,908.072L3289.28,908.072L3289.28,908.776L3285.63,908.776Z" style="fill-opacity:0.48;fill-rule:nonzero;"/>
                    </g>
                    <g transform="matrix(0.439841,0,0,0.502826,9620.43,8097.86)">
                        <path d="M3291.86,906.856L3292.47,906.79C3292.5,907.119 3292.57,907.374 3292.69,907.557C3292.81,907.741 3292.97,907.888 3293.18,907.999C3293.4,908.11 3293.64,908.166 3293.91,908.166C3294.29,908.166 3294.59,908.072 3294.81,907.884C3295.02,907.695 3295.12,907.451 3295.12,907.151C3295.12,906.975 3295.09,906.821 3295.01,906.69C3294.93,906.559 3294.82,906.451 3294.66,906.367C3294.5,906.283 3294.17,906.164 3293.65,906.011C3293.19,905.874 3292.86,905.737 3292.66,905.598C3292.47,905.46 3292.32,905.284 3292.21,905.071C3292.1,904.858 3292.04,904.618 3292.04,904.349C3292.04,903.866 3292.2,903.472 3292.51,903.165C3292.82,902.858 3293.24,902.705 3293.77,902.705C3294.14,902.705 3294.45,902.777 3294.73,902.921C3295,903.065 3295.21,903.271 3295.36,903.539C3295.51,903.808 3295.59,904.124 3295.61,904.487L3294.98,904.544C3294.95,904.156 3294.83,903.869 3294.63,903.682C3294.43,903.495 3294.16,903.401 3293.79,903.401C3293.43,903.401 3293.15,903.483 3292.96,903.647C3292.76,903.811 3292.67,904.023 3292.67,904.284C3292.67,904.525 3292.74,904.712 3292.88,904.845C3293.02,904.978 3293.34,905.113 3293.83,905.25C3294.31,905.384 3294.65,905.501 3294.85,905.599C3295.15,905.753 3295.37,905.953 3295.52,906.201C3295.68,906.448 3295.75,906.744 3295.75,907.088C3295.75,907.429 3295.67,907.739 3295.51,908.019C3295.35,908.299 3295.13,908.513 3294.86,908.659C3294.58,908.805 3294.25,908.878 3293.86,908.878C3293.26,908.878 3292.78,908.696 3292.42,908.333C3292.06,907.969 3291.87,907.477 3291.86,906.856Z" style="fill-opacity:0.48;fill-rule:nonzero;"/>
                    </g>
                    <g transform="matrix(0.439841,0,0,0.502826,9620.43,8097.86)">
                        <path d="M3296.65,908.776L3296.65,902.811L3300.18,902.811L3300.18,903.515L3297.29,903.515L3297.29,905.338L3300,905.338L3300,906.042L3297.29,906.042L3297.29,908.072L3300.3,908.072L3300.3,908.776L3296.65,908.776Z" style="fill-opacity:0.48;fill-rule:nonzero;"/>
                    </g>
                    <g transform="matrix(0.439841,0,0,0.502826,9620.43,8097.86)">
                        <path d="M3304.66,906.685L3305.31,906.884C3305.17,907.554 3304.92,908.054 3304.56,908.384C3304.2,908.713 3303.76,908.878 3303.25,908.878C3302.79,908.878 3302.41,908.767 3302.09,908.546C3301.76,908.325 3301.5,907.97 3301.3,907.481C3301.09,906.993 3300.99,906.416 3300.99,905.751C3300.99,905.094 3301.09,904.538 3301.3,904.083C3301.5,903.629 3301.78,903.285 3302.13,903.053C3302.48,902.821 3302.87,902.705 3303.3,902.705C3303.77,902.705 3304.18,902.852 3304.52,903.146C3304.86,903.439 3305.09,903.87 3305.23,904.439L3304.59,904.622C3304.38,903.794 3303.94,903.381 3303.29,903.381C3302.96,903.381 3302.68,903.464 3302.44,903.631C3302.2,903.798 3302.01,904.058 3301.87,904.411C3301.73,904.764 3301.66,905.211 3301.66,905.751C3301.66,906.568 3301.8,907.181 3302.09,907.59C3302.37,907.998 3302.76,908.202 3303.23,908.202C3303.59,908.202 3303.89,908.077 3304.15,907.826C3304.4,907.575 3304.58,907.195 3304.66,906.685Z" style="fill-opacity:0.48;fill-rule:nonzero;"/>
                    </g>
                    <g transform="matrix(0.439841,0,0,0.502826,9620.43,8097.86)">
                        <path d="M3309.32,902.811L3309.97,902.811L3309.97,906.257C3309.97,906.835 3309.91,907.309 3309.8,907.68C3309.69,908.05 3309.48,908.342 3309.18,908.556C3308.89,908.771 3308.51,908.878 3308.05,908.878C3307.41,908.878 3306.92,908.685 3306.6,908.3C3306.28,907.915 3306.12,907.234 3306.12,906.257L3306.12,902.811L3306.77,902.811L3306.77,906.253C3306.77,906.793 3306.81,907.184 3306.89,907.425C3306.98,907.667 3307.11,907.85 3307.31,907.977C3307.5,908.103 3307.73,908.166 3308,908.166C3308.46,908.166 3308.8,908.036 3309.01,907.775C3309.21,907.515 3309.32,907.007 3309.32,906.253L3309.32,902.811Z" style="fill-opacity:0.48;fill-rule:nonzero;"/>
                    </g>
                    <g transform="matrix(0.439841,0,0,0.502826,9620.43,8097.86)">
                        <path d="M3311.05,908.776L3311.05,902.811L3313.22,902.811C3313.67,902.811 3314.01,902.867 3314.22,902.978C3314.44,903.089 3314.62,903.274 3314.75,903.533C3314.89,903.792 3314.96,904.092 3314.96,904.434C3314.96,904.884 3314.84,905.248 3314.61,905.527C3314.37,905.807 3314.03,905.984 3313.59,906.06C3313.77,906.169 3313.91,906.28 3314,906.392C3314.19,906.62 3314.36,906.873 3314.51,907.153L3315.36,908.776L3314.55,908.776L3313.9,907.535C3313.65,907.049 3313.46,906.722 3313.33,906.554C3313.2,906.386 3313.07,906.273 3312.95,906.215C3312.83,906.156 3312.66,906.127 3312.45,906.127L3311.7,906.127L3311.7,908.776L3311.05,908.776ZM3311.7,905.444L3313.09,905.444C3313.39,905.444 3313.62,905.407 3313.78,905.334C3313.94,905.261 3314.06,905.145 3314.16,904.988C3314.25,904.831 3314.29,904.647 3314.29,904.439C3314.29,904.137 3314.21,903.901 3314.03,903.729C3313.85,903.556 3313.59,903.47 3313.24,903.47L3311.7,903.47L3311.7,905.444Z" style="fill-opacity:0.48;fill-rule:nonzero;"/>
                    </g>
                    <g transform="matrix(0.439841,0,0,0.502826,9620.43,8097.86)">
                        <rect x="3316.11" y="902.811" width="0.647" height="5.965" style="fill-opacity:0.48;"/>
                    </g>
                    <g transform="matrix(0.439841,0,0,0.502826,9620.43,8097.86)">
                        <path d="M3319.14,908.776L3319.14,903.515L3317.53,903.515L3317.53,902.811L3321.41,902.811L3321.41,903.515L3319.79,903.515L3319.79,908.776L3319.14,908.776Z" style="fill-opacity:0.48;fill-rule:nonzero;"/>
                    </g>
                    <g transform="matrix(0.439841,0,0,0.502826,9620.43,8097.86)">
                        <path d="M3322.07,908.776L3322.07,902.811L3325.61,902.811L3325.61,903.515L3322.72,903.515L3322.72,905.338L3325.43,905.338L3325.43,906.042L3322.72,906.042L3322.72,908.072L3325.72,908.072L3325.72,908.776L3322.07,908.776ZM3323.41,902.404L3323.86,901.265L3324.64,901.265L3323.91,902.404L3323.41,902.404Z" style="fill-opacity:0.48;fill-rule:nonzero;"/>
                    </g>
                    <g transform="matrix(0.439841,0,0,0.502826,9620.43,8097.86)">
                        <path d="M3328.53,908.776L3328.53,902.811L3332.07,902.811L3332.07,903.515L3329.18,903.515L3329.18,905.338L3331.88,905.338L3331.88,906.042L3329.18,906.042L3329.18,908.072L3332.18,908.072L3332.18,908.776L3328.53,908.776Z" style="fill-opacity:0.48;fill-rule:nonzero;"/>
                    </g>
                    <g transform="matrix(0.439841,0,0,0.502826,9620.43,8097.86)">
                        <path d="M3333.04,908.776L3333.04,902.811L3333.68,902.811L3333.68,908.072L3336.09,908.072L3336.09,908.776L3333.04,908.776Z" style="fill-opacity:0.48;fill-rule:nonzero;"/>
                    </g>
                    <g transform="matrix(0.439841,0,0,0.502826,9620.43,8097.86)">
                        <path d="M3336.89,908.776L3336.89,902.811L3340.43,902.811L3340.43,903.515L3337.54,903.515L3337.54,905.338L3340.24,905.338L3340.24,906.042L3337.54,906.042L3337.54,908.072L3340.54,908.072L3340.54,908.776L3336.89,908.776Z" style="fill-opacity:0.48;fill-rule:nonzero;"/>
                    </g>
                    <g transform="matrix(0.439841,0,0,0.502826,9620.43,8097.86)">
                        <path d="M3344.91,906.685L3345.56,906.884C3345.41,907.554 3345.16,908.054 3344.8,908.384C3344.44,908.713 3344,908.878 3343.49,908.878C3343.04,908.878 3342.65,908.767 3342.33,908.546C3342.01,908.325 3341.74,907.97 3341.54,907.481C3341.33,906.993 3341.23,906.416 3341.23,905.751C3341.23,905.094 3341.33,904.538 3341.54,904.083C3341.74,903.629 3342.02,903.285 3342.37,903.053C3342.72,902.821 3343.11,902.705 3343.54,902.705C3344.01,902.705 3344.42,902.852 3344.76,903.146C3345.1,903.439 3345.34,903.87 3345.47,904.439L3344.84,904.622C3344.62,903.794 3344.18,903.381 3343.53,903.381C3343.2,903.381 3342.92,903.464 3342.68,903.631C3342.45,903.798 3342.25,904.058 3342.11,904.411C3341.97,904.764 3341.9,905.211 3341.9,905.751C3341.9,906.568 3342.04,907.181 3342.33,907.59C3342.62,907.998 3343,908.202 3343.48,908.202C3343.83,908.202 3344.13,908.077 3344.39,907.826C3344.65,907.575 3344.82,907.195 3344.91,906.685Z" style="fill-opacity:0.48;fill-rule:nonzero;"/>
                    </g>
                    <g transform="matrix(0.439841,0,0,0.502826,9620.43,8097.86)">
                        <path d="M3347.62,908.776L3347.62,903.515L3346.01,903.515L3346.01,902.811L3349.89,902.811L3349.89,903.515L3348.27,903.515L3348.27,908.776L3347.62,908.776Z" style="fill-opacity:0.48;fill-rule:nonzero;"/>
                    </g>
                    <g transform="matrix(0.439841,0,0,0.502826,9620.43,8097.86)">
                        <path d="M3350.54,908.776L3350.54,902.811L3352.7,902.811C3353.16,902.811 3353.49,902.867 3353.71,902.978C3353.92,903.089 3354.1,903.274 3354.24,903.533C3354.38,903.792 3354.45,904.092 3354.45,904.434C3354.45,904.884 3354.33,905.248 3354.1,905.527C3353.86,905.807 3353.52,905.984 3353.07,906.06C3353.25,906.169 3353.39,906.28 3353.49,906.392C3353.68,906.62 3353.85,906.873 3353.99,907.153L3354.85,908.776L3354.04,908.776L3353.39,907.535C3353.13,907.049 3352.94,906.722 3352.81,906.554C3352.68,906.386 3352.56,906.273 3352.44,906.215C3352.32,906.156 3352.15,906.127 3351.93,906.127L3351.18,906.127L3351.18,908.776L3350.54,908.776ZM3351.18,905.444L3352.58,905.444C3352.88,905.444 3353.11,905.407 3353.27,905.334C3353.42,905.261 3353.55,905.145 3353.64,904.988C3353.73,904.831 3353.78,904.647 3353.78,904.439C3353.78,904.137 3353.69,903.901 3353.51,903.729C3353.34,903.556 3353.08,903.47 3352.73,903.47L3351.18,903.47L3351.18,905.444Z" style="fill-opacity:0.48;fill-rule:nonzero;"/>
                    </g>
                    <g transform="matrix(0.439841,0,0,0.502826,9620.43,8097.86)">
                        <rect x="3355.59" y="902.811" width="0.647" height="5.965" style="fill-opacity:0.48;"/>
                    </g>
                    <g transform="matrix(0.439841,0,0,0.502826,9620.43,8097.86)">
                        <path d="M3361.1,908.137C3361.4,908.39 3361.67,908.574 3361.93,908.691L3361.73,909.24C3361.38,909.083 3361.03,908.839 3360.68,908.508C3360.32,908.754 3359.93,908.878 3359.49,908.878C3358.77,908.878 3358.19,908.565 3357.75,907.938C3357.35,907.374 3357.15,906.66 3357.15,905.798C3357.15,905.152 3357.26,904.593 3357.47,904.119C3357.69,903.646 3357.97,903.292 3358.32,903.057C3358.67,902.823 3359.06,902.705 3359.5,902.705C3359.93,902.705 3360.32,902.827 3360.67,903.069C3361.03,903.312 3361.31,903.666 3361.52,904.131C3361.73,904.597 3361.83,905.147 3361.83,905.781C3361.83,906.278 3361.77,906.727 3361.64,907.128C3361.51,907.53 3361.33,907.866 3361.1,908.137ZM3359.67,907.127C3360.04,907.252 3360.35,907.442 3360.59,907.697C3360.97,907.268 3361.16,906.629 3361.16,905.779C3361.16,905.266 3361.09,904.83 3360.94,904.472C3360.8,904.114 3360.6,903.842 3360.34,903.658C3360.08,903.473 3359.8,903.381 3359.5,903.381C3359.02,903.381 3358.62,903.584 3358.3,903.989C3357.98,904.395 3357.82,904.997 3357.82,905.796C3357.82,906.583 3357.98,907.181 3358.3,907.59C3358.63,907.998 3359.03,908.202 3359.5,908.202C3359.73,908.202 3359.95,908.149 3360.15,908.044C3359.95,907.883 3359.74,907.769 3359.51,907.701L3359.67,907.127Z" style="fill-opacity:0.48;fill-rule:nonzero;"/>
                    </g>
                    <g transform="matrix(0.439841,0,0,0.502826,9620.43,8097.86)">
                        <path d="M3365.89,902.811L3366.54,902.811L3366.54,906.257C3366.54,906.835 3366.48,907.309 3366.37,907.68C3366.25,908.05 3366.05,908.342 3365.75,908.556C3365.45,908.771 3365.08,908.878 3364.62,908.878C3363.97,908.878 3363.49,908.685 3363.17,908.3C3362.85,907.915 3362.69,907.234 3362.69,906.257L3362.69,902.811L3363.33,902.811L3363.33,906.253C3363.33,906.793 3363.38,907.184 3363.46,907.425C3363.54,907.667 3363.68,907.85 3363.87,907.977C3364.06,908.103 3364.3,908.166 3364.57,908.166C3365.03,908.166 3365.37,908.036 3365.57,907.775C3365.78,907.515 3365.89,907.007 3365.89,906.253L3365.89,902.811Z" style="fill-opacity:0.48;fill-rule:nonzero;"/>
                    </g>
                    <g transform="matrix(0.439841,0,0,0.502826,9620.43,8097.86)">
                        <path d="M3367.63,908.776L3367.63,902.811L3371.17,902.811L3371.17,903.515L3368.28,903.515L3368.28,905.338L3370.99,905.338L3370.99,906.042L3368.28,906.042L3368.28,908.072L3371.28,908.072L3371.28,908.776L3367.63,908.776Z" style="fill-opacity:0.48;fill-rule:nonzero;"/>
                    </g>
                </g>
                <g transform="matrix(0.710557,0,0,0.862533,-6847.53,-6911.69)">
                    <path d="M10034.2,8134.73L10034.2,8134.74L9972.84,8134.74L9972.84,8105.34L9972.97,8105.34L9984.02,8101.83L10045.4,8101.83L10045.4,8131.23L10034.2,8134.73Z" style="fill:white;stroke:rgb(128,128,128);stroke-width:1.14px;stroke-linecap:butt;"/>
                </g>
                <g transform="matrix(0.710557,0,0,0.862533,-6855.47,-6908.67)">
                    <circle cx="9991.39" cy="8125.71" r="2.129" style="fill:rgb(89,89,89);"/>
                </g>
                <g transform="matrix(0.297461,0,0,0.361083,-3163.91,-6792.83)">
                    <rect x="11408.9" y="19136.9" width="46.2" height="175.561" style="fill:none;stroke:rgb(115,115,115);stroke-width:2.72px;stroke-miterlimit:10;"/>
                </g>
                <g transform="matrix(0.710557,0,0,1.1441,-4824.49,-10862.6)">
                    <circle cx="7109.63" cy="9557.4" r="3.794" style="fill:white;stroke:rgb(128,128,128);stroke-width:0.97px;stroke-linecap:butt;"/>
                </g>
                <g transform="matrix(0.710557,0,0,1.1441,-4824.49,-10710.9)">
                    <circle cx="7109.63" cy="9557.4" r="3.794" style="fill:white;stroke:rgb(128,128,128);stroke-width:0.97px;stroke-linecap:butt;"/>
                </g>
                <g transform="matrix(0.710557,0,0,1.1441,-4734.03,-10862.6)">
                    <circle cx="7109.63" cy="9557.4" r="3.794" style="fill:white;stroke:rgb(128,128,128);stroke-width:0.97px;stroke-linecap:butt;"/>
                </g>
                <g transform="matrix(0.710557,0,0,1.1441,-4734.03,-10710.9)">
                    <circle cx="7109.63" cy="9557.4" r="3.794" style="fill:white;stroke:rgb(128,128,128);stroke-width:0.97px;stroke-linecap:butt;"/>
                </g>
                <g transform="matrix(0.176992,0,0,0.242785,-2047.59,-3012.06)">
                    <path d="M13306.9,12686.9L13370.9,12756L13368.8,13270.2L13301.6,13344.4L12911,13345.6L12839.1,13265.5L12840.2,12757.8L12900.5,12685.8L13306.9,12686.9Z" style="fill:none;stroke:rgb(115,115,115);stroke-width:4.28px;stroke-linecap:butt;"/>
                </g>
                <g transform="matrix(0.292489,0,0,0.355048,-1505.1,-3484.7)">
                    <path d="M5943.84,10070.3C5943.84,10070.3 5977.67,10068.5 5979.76,10047.6C5979.76,10047.6 5992.25,10082.3 6015.93,10047.4C6015.93,10047.4 6007.86,10081.2 6036.23,10064.6C6036.23,10064.6 6014.89,10085.4 6034.67,10099.7C6034.67,10099.7 6019.83,10098.1 6021.91,10116.3C6021.91,10116.3 6009.94,10101.1 5994.07,10121.9C5994.07,10121.9 5978.71,10101.4 5954.77,10120.1C5954.77,10120.1 5963.88,10097 5939.68,10102.7C5939.68,10102.7 5964.4,10079.5 5943.84,10070.3Z" style="fill:rgb(115,115,115);fill-opacity:0.3;"/>
                </g>
                <g transform="matrix(0.484684,-2.57151e-07,2.86942e-07,0.58835,0.0339111,-0.0418816)">
                    <g>
                        <path d="M707.812,164.819L731.433,185.279L705.178,202.227L707.812,164.819Z" style="fill:rgb(64,64,64);"/>
                        <path d="M661.496,240.854C661.496,240.854 665.814,187.342 711.482,183.874" style="fill:none;stroke:rgb(64,64,64);stroke-width:8.33px;stroke-linecap:butt;stroke-miterlimit:10;"/>
                    </g>
                </g>
                <g transform="matrix(0.993602,0,0,0.941361,15.7081,81.322)">
                    <g transform="matrix(0.933672,-9.87164e-33,0,1.10255,-945.961,-1647.98)">
                        <rect x="1411.24" y="1560.73" width="55.537" height="60.258" style="fill:none;stroke:rgb(115,115,115);stroke-width:1.63px;"/>
                    </g>
                    <g transform="matrix(1,0,0,1,2.62208,1.37873)">
                        <g>
                            <g transform="matrix(0.68359,-9.81358e-49,0,0.875849,-3508.77,-7554.73)">
                                <g transform="matrix(7.38822e-17,1.20659,-1.20659,7.38822e-17,7630.81,7007.44)">
                                    <circle cx="1440.08" cy="1591.4" r="25.991" style="fill:none;stroke:black;stroke-width:1.23px;"/>
                                </g>
                                <g>
                                    <g transform="matrix(8.10304e-17,1.32333,-1.90565,1.16687e-16,8740.27,6845.24)">
                                        <rect x="1416.5" y="1585.56" width="8.303" height="7.791" style="fill:none;stroke:black;stroke-width:0.36px;"/>
                                    </g>
                                    <g transform="matrix(0.120778,0,0,0.120778,5709.31,8727.63)">
                                        <text x="0px" y="0px" style="font-family:'ArialNarrow-Bold', 'Arial', sans-serif;font-weight:700;font-stretch:condensed;font-size:55.547px;">ON</text>
                                    </g>
                                </g>
                                <g transform="matrix(7.38822e-17,1.20659,-1.20659,7.38822e-17,7630.93,7007.44)">
                                    <path d="M1431.63,1590.96L1436.41,1595.91C1437.26,1594.6 1465.64,1595.68 1465.64,1595.68C1466.31,1593.19 1466.35,1590.07 1465.64,1586.18C1465.64,1586.18 1437.26,1587.26 1436.41,1585.96L1431.63,1590.9" style="fill:white;stroke:black;stroke-width:1.23px;"/>
                                </g>
                            </g>
                            <g transform="matrix(0.487805,0,0,0.625,-3279.71,-5978.66)">
                                <path d="M7528.32,9700.58L7528.32,9710.44" style="fill:none;stroke:black;stroke-width:2.08px;stroke-linecap:butt;"/>
                            </g>
                        </g>
                    </g>
                    <g transform="matrix(0.20614,0,-6.01266e-33,0.264116,-286.752,-169.123)">
                        <path d="M3288.49,880.806C3288.49,876.069 3289.19,872.168 3290.6,869.103C3292,866.038 3293.83,863.755 3296.09,862.254C3298.35,860.753 3301.09,860.003 3304.31,860.003C3308.97,860.003 3312.77,861.784 3315.71,865.346C3318.65,868.908 3320.12,873.98 3320.12,880.562C3320.12,887.216 3318.56,892.415 3315.45,896.157C3312.72,899.466 3309.02,901.121 3304.33,901.121C3299.61,901.121 3295.89,899.484 3293.16,896.212C3290.05,892.469 3288.49,887.334 3288.49,880.806ZM3295.27,880.535C3295.27,885.11 3296.14,888.541 3297.88,890.828C3299.61,893.115 3301.77,894.259 3304.33,894.259C3306.92,894.259 3309.06,893.124 3310.76,890.855C3312.46,888.586 3313.31,885.1 3313.31,880.399C3313.31,875.788 3312.48,872.38 3310.83,870.174C3309.18,867.968 3307.01,866.865 3304.33,866.865C3301.66,866.865 3299.48,867.977 3297.8,870.201C3296.12,872.425 3295.27,875.87 3295.27,880.535Z" style="fill-rule:nonzero;"/>
                        <path d="M3325.33,900.443L3325.33,860.681L3331.73,860.681L3345.07,887.234L3345.07,860.681L3351.2,860.681L3351.2,900.443L3344.58,900.443L3331.46,874.514L3331.46,900.443L3325.33,900.443Z" style="fill-rule:nonzero;"/>
                    </g>
                </g>
                <g transform="matrix(0.993602,0,0,0.941361,16.4644,-91.8802)">
                    <g transform="matrix(1,0,0,1,0,14.3426)">
                        <g transform="matrix(5.71709e-17,-1.19627,0.860527,6.75117e-17,-972.136,1909.2)">
                            <rect x="1411.24" y="1560.73" width="55.537" height="60.258" style="fill:none;stroke:rgb(115,115,115);stroke-width:1.64px;"/>
                        </g>
                        <g transform="matrix(1,0,0,1,0,-3.35954)">
                            <g transform="matrix(0.824811,1.2326e-32,0,1.05679,-792.066,-1490.65)">
                                <circle cx="1440.08" cy="1591.4" r="25.991" style="fill:none;stroke:black;stroke-width:1.23px;"/>
                            </g>
                            <g transform="matrix(7.10903e-17,1.48752,-1.16883,9.16993e-17,2240.17,-1924.71)">
                                <rect x="1416.5" y="1585.56" width="8.303" height="7.791" style="fill:none;stroke:black;stroke-width:0.35px;"/>
                            </g>
                            <g transform="matrix(0.392359,6.16298e-33,9.24446e-33,0.494388,-2562.17,-4550.9)">
                                <ellipse cx="7504.72" cy="9579.75" rx="4.094" ry="2.95" style="fill:white;stroke:black;stroke-width:2.61px;stroke-linecap:butt;"/>
                            </g>
                            <g transform="matrix(0.0792836,-3.08149e-33,-1.54074e-33,0.101582,378.676,192.55)">
                                <text x="0px" y="0px" style="font-family:'ArialNarrow-Bold', 'Arial', sans-serif;font-weight:700;font-stretch:condensed;font-size:55.547px;">OFF</text>
                            </g>
                            <g transform="matrix(0.824811,-1.2326e-32,1.84889e-32,1.05679,-792.066,-1490.75)">
                                <path d="M1431.63,1590.96L1436.41,1595.91C1437.26,1594.6 1465.64,1595.68 1465.64,1595.68C1466.31,1593.19 1466.35,1590.07 1465.64,1586.18C1465.64,1586.18 1437.26,1587.26 1436.41,1585.96L1431.63,1590.9" style="fill:white;stroke:black;stroke-width:1.23px;"/>
                            </g>
                        </g>
                    </g>
                    <g transform="matrix(0.20614,-3.08149e-33,-4.62223e-33,0.264116,-287.667,-73.0442)">
                        <path d="M3277.1,880.806C3277.1,876.069 3277.8,872.168 3279.2,869.103C3280.61,866.038 3282.44,863.755 3284.7,862.254C3286.96,860.753 3289.7,860.003 3292.91,860.003C3297.58,860.003 3301.38,861.784 3304.32,865.346C3307.26,868.908 3308.73,873.98 3308.73,880.562C3308.73,887.216 3307.17,892.415 3304.06,896.157C3301.33,899.466 3297.62,901.121 3292.94,901.121C3288.22,901.121 3284.5,899.484 3281.77,896.212C3278.66,892.469 3277.1,887.334 3277.1,880.806ZM3283.88,880.535C3283.88,885.11 3284.75,888.541 3286.49,890.828C3288.22,893.115 3290.37,894.259 3292.94,894.259C3295.53,894.259 3297.67,893.124 3299.37,890.855C3301.07,888.586 3301.92,885.1 3301.92,880.399C3301.92,875.788 3301.09,872.38 3299.44,870.174C3297.78,867.968 3295.62,866.865 3292.94,866.865C3290.27,866.865 3288.09,867.977 3286.41,870.201C3284.72,872.425 3283.88,875.87 3283.88,880.535Z" style="fill-rule:nonzero;"/>
                        <path d="M3313.91,900.443L3313.91,860.681L3336.26,860.681L3336.26,867.408L3320.47,867.408L3320.47,876.819L3334.11,876.819L3334.11,883.545L3320.47,883.545L3320.47,900.443L3313.91,900.443Z" style="fill-rule:nonzero;"/>
                        <path d="M3341.74,900.443L3341.74,860.681L3364.08,860.681L3364.08,867.408L3348.3,867.408L3348.3,876.819L3361.94,876.819L3361.94,883.545L3348.3,883.545L3348.3,900.443L3341.74,900.443Z" style="fill-rule:nonzero;"/>
                    </g>
                </g>
                <g transform="matrix(2.48307,0,0,3.06017,37.7626,-309.008)">
                    <g transform="matrix(1,0,0,1,-3055.82,-919.156)">
                        <rect x="3259.03" y="1038.65" width="44.536" height="59.824" style="fill:white;stroke:black;stroke-width:0.58px;stroke-linecap:butt;"/>
                    </g>
                    <g transform="matrix(0.0754422,0,0,0.0741557,-1616.79,-2351.07)">
                        <path d="M24368.5,33403.5L24368.5,33330.6L24411.7,33330.6L24411.7,33339.2L24376.4,33339.2L24376.4,33361.5L24409.5,33361.5L24409.5,33370.1L24376.4,33370.1L24376.4,33394.9L24413.1,33394.9L24413.1,33403.5L24368.5,33403.5Z" style="fill-rule:nonzero;"/>
                        <path d="M24423.8,33403.5L24423.8,33330.6L24431.9,33330.6L24463.3,33388L24463.3,33330.6L24470.9,33330.6L24470.9,33403.5L24462.8,33403.5L24431.4,33346.1L24431.4,33403.5L24423.8,33403.5Z" style="fill-rule:nonzero;"/>
                        <path d="M24241,33481.9L24248.5,33481.1C24248.9,33485.1 24249.8,33488.3 24251.2,33490.5C24252.6,33492.7 24254.6,33494.5 24257.2,33495.9C24259.8,33497.3 24262.8,33497.9 24266.1,33497.9C24270.8,33497.9 24274.5,33496.8 24277.1,33494.5C24279.7,33492.2 24281,33489.2 24281,33485.5C24281,33483.4 24280.5,33481.5 24279.5,33479.9C24278.6,33478.3 24277.2,33477 24275.3,33475.9C24273.4,33474.9 24269.2,33473.5 24262.9,33471.6C24257.3,33469.9 24253.2,33468.2 24250.9,33466.5C24248.5,33464.9 24246.6,33462.7 24245.3,33460.1C24244,33457.5 24243.3,33454.6 24243.3,33451.3C24243.3,33445.4 24245.2,33440.5 24249,33436.8C24252.8,33433.1 24258,33431.2 24264.4,33431.2C24268.9,33431.2 24272.8,33432.1 24276.1,33433.8C24279.4,33435.6 24282,33438.1 24283.9,33441.4C24285.7,33444.7 24286.7,33448.5 24286.8,33453L24279.2,33453.7C24278.8,33448.9 24277.4,33445.4 24275,33443.1C24272.5,33440.8 24269.1,33439.7 24264.7,33439.7C24260.2,33439.7 24256.8,33440.7 24254.4,33442.7C24252.1,33444.7 24250.9,33447.3 24250.9,33450.5C24250.9,33453.4 24251.8,33455.7 24253.5,33457.3C24255.2,33459 24259.1,33460.6 24265.1,33462.3C24271,33463.9 24275.2,33465.4 24277.6,33466.6C24281.2,33468.4 24284,33470.9 24285.8,33473.9C24287.7,33476.9 24288.6,33480.6 24288.6,33484.8C24288.6,33488.9 24287.6,33492.7 24285.7,33496.1C24283.7,33499.6 24281.1,33502.2 24277.7,33504C24274.3,33505.8 24270.3,33506.6 24265.5,33506.6C24258.1,33506.6 24252.2,33504.4 24247.9,33500C24243.5,33495.5 24241.2,33489.5 24241,33481.9Z" style="fill-rule:nonzero;"/>
                        <path d="M24299.6,33505.4L24299.6,33432.5L24342.8,33432.5L24342.8,33441.1L24307.5,33441.1L24307.5,33463.4L24340.6,33463.4L24340.6,33472L24307.5,33472L24307.5,33496.8L24344.2,33496.8L24344.2,33505.4L24299.6,33505.4Z" style="fill-rule:nonzero;"/>
                        <path d="M24355.1,33505.4L24355.1,33432.5L24381.6,33432.5C24387.1,33432.5 24391.2,33433.2 24393.9,33434.5C24396.5,33435.9 24398.7,33438.1 24400.4,33441.3C24402,33444.5 24402.9,33448.1 24402.9,33452.3C24402.9,33457.8 24401.5,33462.3 24398.6,33465.7C24395.7,33469.1 24391.5,33471.3 24386.1,33472.2C24388.3,33473.5 24390,33474.9 24391.1,33476.2C24393.5,33479 24395.6,33482.1 24397.4,33485.6L24407.8,33505.4L24397.9,33505.4L24389.9,33490.2C24386.8,33484.3 24384.5,33480.3 24382.9,33478.2C24381.3,33476.2 24379.8,33474.8 24378.3,33474.1C24376.9,33473.4 24374.8,33473 24372.1,33473L24363,33473L24363,33505.4L24355.1,33505.4ZM24363,33464.7L24380,33464.7C24383.7,33464.7 24386.5,33464.2 24388.5,33463.3C24390.4,33462.4 24391.9,33461 24393,33459.1C24394.2,33457.2 24394.7,33454.9 24394.7,33452.4C24394.7,33448.7 24393.7,33445.8 24391.5,33443.7C24389.3,33441.6 24386.1,33440.5 24381.9,33440.5L24363,33440.5L24363,33464.7Z" style="fill-rule:nonzero;"/>
                        <path d="M24431.1,33505.4L24407.9,33432.5L24416.5,33432.5L24432,33485.5C24433.2,33489.6 24434.3,33493.5 24435.2,33497.4C24436.1,33493.4 24437.2,33489.4 24438.4,33485.5L24454.5,33432.5L24462.6,33432.5L24439.2,33505.4L24431.1,33505.4Z" style="fill-rule:nonzero;"/>
                        <rect x="24471.2" y="33432.5" width="7.91" height="72.929" style="fill-rule:nonzero;"/>
                        <path d="M24535.4,33479.8L24543.3,33482.3C24541.6,33490.5 24538.5,33496.6 24534.1,33500.6C24529.7,33504.6 24524.4,33506.6 24518.1,33506.6C24512.5,33506.6 24507.8,33505.3 24503.9,33502.6C24499.9,33499.9 24496.7,33495.5 24494.2,33489.6C24491.7,33483.6 24490.4,33476.5 24490.4,33468.4C24490.4,33460.4 24491.7,33453.6 24494.2,33448C24496.7,33442.5 24500.1,33438.3 24504.4,33435.4C24508.7,33432.6 24513.4,33431.2 24518.7,33431.2C24524.5,33431.2 24529.4,33433 24533.6,33436.6C24537.7,33440.2 24540.6,33445.4 24542.3,33452.4L24534.5,33454.6C24531.9,33444.5 24526.5,33439.4 24518.6,33439.4C24514.6,33439.4 24511.1,33440.5 24508.2,33442.5C24505.3,33444.5 24503,33447.7 24501.2,33452C24499.5,33456.3 24498.6,33461.8 24498.6,33468.4C24498.6,33478.4 24500.4,33485.9 24503.9,33490.9C24507.4,33495.9 24512.1,33498.4 24517.9,33498.4C24522.2,33498.4 24525.9,33496.9 24529.1,33493.8C24532.2,33490.7 24534.3,33486.1 24535.4,33479.8Z" style="fill-rule:nonzero;"/>
                        <path d="M24553.4,33505.4L24553.4,33432.5L24596.6,33432.5L24596.6,33441.1L24561.3,33441.1L24561.3,33463.4L24594.4,33463.4L24594.4,33472L24561.3,33472L24561.3,33496.8L24598,33496.8L24598,33505.4L24553.4,33505.4Z" style="fill-rule:nonzero;"/>
                    </g>
                    <g transform="matrix(0.893618,0,0,0.929032,23.9864,17.1709)">
                        <g>
                            <g transform="matrix(1,0,0,1,-3052.89,-922.535)">
                                <circle cx="3278.36" cy="1071.94" r="20.772" style="fill:white;stroke:black;stroke-width:0.64px;stroke-linecap:butt;"/>
                            </g>
                            <g transform="matrix(0.877333,0,0,0.877333,-2650.74,-791.044)">
                                <circle cx="3278.36" cy="1071.94" r="20.772" style="fill:white;stroke:black;stroke-width:0.73px;stroke-linecap:butt;"/>
                            </g>
                        </g>
                    </g>
                </g>
                <g transform="matrix(0.254643,-0.516468,0.425467,0.309107,-20674.8,2098.32)">
                    <g transform="matrix(0.993444,0,0,0.993444,-881.527,-1433.03)">
                        <path d="M25628.6,37112.2C25628.6,37112.2 25687.4,36934.3 25763.8,36916C25787.4,36882.2 25845.8,36808.9 25859.8,36825.1C25868.5,36835.2 25814.7,36901.8 25814.7,36901.8C25814.7,36901.8 25837.2,36901.8 25833.4,36915C25832.6,36918 25827.8,36927.4 25827.8,36927.4C25827.8,36927.4 25851.1,36928.5 25847.4,36941.7C25846,36946.4 25836.9,36963.3 25836.9,36963.3C25836.9,36963.3 25849.2,36965.8 25845.5,36978.9C25841.7,36992.1 25827.1,37026.3 25818,37045.5C25818,37045.5 25737.5,37111.5 25722.1,37146C25706.7,37180.4 25704.4,37170.6 25694.6,37186.8" style="fill:white;"/>
                    </g>
                    <g transform="matrix(2.03656,0,0,1.58951,23974.8,35094.5)">
                        <g transform="matrix(0.487805,0,0,0.625,-12215,-23018.7)">
                            <path d="M25650.8,37173.5C25650.8,37173.5 25709.3,36995.7 25785.7,36977.3" style="fill:none;stroke:rgb(13,13,13);stroke-width:4.1px;stroke-miterlimit:10;"/>
                        </g>
                        <g transform="matrix(0.487805,0,0,0.625,-12215,-23018.7)">
                            <path d="M25725.9,37041.8C25725.9,37041.8 25762,37012 25784.5,36979.3C25807.1,36946.6 25867.7,36869.8 25882,36886.4C25896.3,36903 25810.1,36989.1 25803.4,37007.5" style="fill:white;stroke:rgb(13,13,13);stroke-width:4.1px;stroke-miterlimit:10;"/>
                        </g>
                        <g transform="matrix(0.487805,0,0,0.625,-12215,-23018.7)">
                            <path d="M25836.8,36963.1C25836.8,36963.1 25859.4,36963.1 25855.6,36976.3C25851.9,36989.5 25824.8,37029 25825.5,37043.6" style="fill:none;stroke:rgb(13,13,13);stroke-width:4.1px;stroke-miterlimit:10;"/>
                        </g>
                        <g transform="matrix(0.487805,0,0,0.625,-12208.2,-23002)">
                            <path d="M25836.8,36963.1C25836.8,36963.1 25859.4,36963.1 25855.6,36976.3C25851.9,36989.5 25824.8,37029 25825.5,37043.6" style="fill:none;stroke:rgb(13,13,13);stroke-width:4.1px;stroke-miterlimit:10;"/>
                        </g>
                        <g transform="matrix(0.487805,0,0,0.625,-12204.2,-22980.4)">
                            <path d="M25836.8,36963.1C25836.8,36963.1 25849.2,36965.8 25845.5,36978.9C25841.7,36992.1 25827.1,37026.3 25818,37045.5C25818,37045.5 25737.5,37111.5 25722.1,37146C25706.7,37180.4 25704.4,37170.6 25694.6,37186.8" style="fill:none;stroke:rgb(13,13,13);stroke-width:4.1px;stroke-miterlimit:10;"/>
                        </g>
                        <g transform="matrix(0.487805,0,0,0.625,-12215,-23018.7)">
                            <path d="M25870.2,36886C25870.2,36886 25855.4,36908.4 25881.5,36899.7" style="fill:none;stroke:rgb(13,13,13);stroke-width:4.1px;stroke-miterlimit:10;"/>
                        </g>
                    </g>
                </g>
            </g>
        </g>
    </g>
</svg>
