<?xml version="1.0" encoding="UTF-8" standalone="no"?>
<!DOCTYPE svg PUBLIC "-//W3C//DTD SVG 1.1//EN" "http://www.w3.org/Graphics/SVG/1.1/DTD/svg11.dtd">
<svg width="100%" height="100%" viewBox="0 0 1453 473" version="1.1" xmlns="http://www.w3.org/2000/svg" xmlns:xlink="http://www.w3.org/1999/xlink" xml:space="preserve" xmlns:serif="http://www.serif.com/" style="fill-rule:evenodd;clip-rule:evenodd;stroke-linejoin:round;stroke-miterlimit:10;">
    <g transform="matrix(1,0,0,1,-8741.59,-7828.49)">
        <g id="Artboard4" transform="matrix(2.05,0,0,1.6,8741.59,7828.49)">
            <rect x="0" y="0" width="708.661" height="295.276" style="fill:none;"/>
            <g transform="matrix(0.0865452,0,0,0.128774,-222.913,-158.138)">
                <path d="M2997.63,1516.35L2977.12,1516.35L2977.12,1409.73C2972.18,1413.58 2965.71,1417.42 2957.7,1421.26C2949.68,1425.1 2942.49,1427.98 2936.1,1429.9L2936.1,1413.73C2947.57,1409.33 2957.6,1404 2966.18,1397.74C2974.77,1391.48 2980.84,1385.41 2984.41,1379.52L2997.63,1379.52L2997.63,1516.35Z" style="fill-rule:nonzero;"/>
            </g>
            <g transform="matrix(0.0865452,0,0,0.128774,-25.0841,-158.138)">
                <path d="M3028.17,1500.27L3028.17,1516.35L2917.76,1516.35C2917.61,1512.32 2918.41,1508.45 2920.15,1504.73C2922.96,1498.6 2927.46,1492.56 2933.65,1486.61C2939.85,1480.66 2948.79,1473.78 2960.49,1465.97C2978.64,1453.82 2990.91,1444.2 2997.29,1437.11C3003.67,1430.01 3006.86,1423.3 3006.86,1416.98C3006.86,1410.35 3003.95,1404.76 2998.14,1400.2C2992.33,1395.65 2984.76,1393.37 2975.41,1393.37C2965.54,1393.37 2957.64,1395.79 2951.71,1400.62C2945.79,1405.46 2942.79,1412.15 2942.71,1420.7L2921.63,1418.94C2923.08,1406.11 2928.51,1396.33 2937.93,1389.61C2947.35,1382.88 2959.99,1379.52 2975.87,1379.52C2991.9,1379.52 3004.58,1383.15 3013.93,1390.4C3023.27,1397.65 3027.94,1406.63 3027.94,1417.36C3027.94,1422.81 3026.57,1428.17 3023.84,1433.44C3021.1,1438.7 3016.57,1444.25 3010.22,1450.08C3003.88,1455.9 2993.34,1463.89 2978.6,1474.06C2966.3,1482.49 2958.4,1488.2 2954.9,1491.21C2951.41,1494.21 2948.52,1497.23 2946.24,1500.27L3028.17,1500.27Z" style="fill-rule:nonzero;"/>
            </g>
            <g transform="matrix(0.206396,0,0,0.221792,-1087.56,-571.317)">
                <g transform="matrix(6.68386,0,0,8.10748,-17173.4,-5992.23)">
                    <circle cx="3420.02" cy="1141.73" r="39" style="fill:rgb(255,215,3);"/>
                </g>
                <g transform="matrix(-1.1734,5.4566,-4.45945,-1.35178,14790,-13853.9)">
                    <path d="M3390.68,1167.95L3392.42,1169.44L3391.59,1171.85L3394.75,1174.56L3396.93,1173.3L3398.63,1174.76L3388.83,1180.12L3387.14,1178.67L3390.68,1167.95ZM3390.97,1173.64L3389.57,1177.55L3393.13,1175.49L3390.97,1173.64Z" style="fill-rule:nonzero;"/>
                </g>
                <g transform="matrix(-1.1734,5.4566,-4.45945,-1.35178,14790,-13853.9)">
                    <path d="M3389.63,1166.62L3380.9,1172.31L3378.51,1168.55C3377.91,1167.61 3377.55,1166.87 3377.44,1166.34C3377.32,1165.82 3377.38,1165.29 3377.62,1164.77C3377.86,1164.26 3378.23,1163.83 3378.75,1163.49C3379.4,1163.06 3380.07,1162.91 3380.74,1163.02C3381.42,1163.13 3382.06,1163.54 3382.66,1164.24C3382.64,1163.71 3382.68,1163.23 3382.79,1162.81C3382.89,1162.38 3383.15,1161.74 3383.56,1160.87L3384.57,1158.68L3385.93,1160.81L3384.85,1163.34C3384.47,1164.24 3384.24,1164.83 3384.17,1165.11C3384.1,1165.4 3384.09,1165.65 3384.15,1165.89C3384.2,1166.12 3384.36,1166.44 3384.62,1166.85L3384.85,1167.21L3388.49,1164.84L3389.63,1166.62ZM3383.46,1168.12L3382.62,1166.8C3382.07,1165.94 3381.7,1165.43 3381.49,1165.27C3381.28,1165.1 3381.05,1165.01 3380.8,1165.01C3380.55,1165 3380.29,1165.08 3380.03,1165.25C3379.74,1165.44 3379.55,1165.68 3379.47,1165.95C3379.39,1166.23 3379.42,1166.53 3379.56,1166.85C3379.63,1167.01 3379.9,1167.45 3380.36,1168.17L3381.24,1169.56L3383.46,1168.12Z" style="fill-rule:nonzero;"/>
                </g>
                <g transform="matrix(-1.1734,5.4566,-4.45945,-1.35178,14790,-13853.9)">
                    <path d="M3383.86,1157.11L3373.89,1160.06L3372.65,1155.78C3372.34,1154.7 3372.21,1153.89 3372.24,1153.35C3372.28,1152.81 3372.49,1152.32 3372.86,1151.89C3373.23,1151.46 3373.71,1151.16 3374.3,1150.99C3375.05,1150.77 3375.73,1150.81 3376.35,1151.11C3376.96,1151.41 3377.46,1151.98 3377.85,1152.83C3377.97,1152.31 3378.14,1151.87 3378.37,1151.49C3378.59,1151.12 3379.01,1150.57 3379.65,1149.85L3381.24,1148.05L3381.94,1150.48L3380.2,1152.6C3379.57,1153.35 3379.19,1153.85 3379.04,1154.1C3378.9,1154.35 3378.82,1154.6 3378.81,1154.84C3378.79,1155.07 3378.86,1155.42 3378.99,1155.89L3379.11,1156.31L3383.27,1155.07L3383.86,1157.11ZM3377.52,1156.78L3377.08,1155.27C3376.8,1154.29 3376.58,1153.7 3376.43,1153.48C3376.28,1153.26 3376.08,1153.11 3375.85,1153.03C3375.61,1152.95 3375.34,1152.96 3375.04,1153.05C3374.7,1153.15 3374.46,1153.32 3374.3,1153.56C3374.15,1153.8 3374.09,1154.1 3374.14,1154.44C3374.16,1154.61 3374.29,1155.11 3374.53,1155.94L3374.99,1157.53L3377.52,1156.78Z" style="fill-rule:nonzero;"/>
                </g>
                <g transform="matrix(-1.1734,5.4566,-4.45945,-1.35178,14790,-13853.9)">
                    <path d="M3381.08,1146.33L3370.7,1146.49L3370.58,1138.7L3372.34,1138.67L3372.42,1144.34L3374.73,1144.3L3374.65,1139.03L3376.39,1139L3376.47,1144.28L3379.3,1144.23L3379.21,1138.37L3380.96,1138.34L3381.08,1146.33ZM3370.09,1145.15L3367.97,1143.68L3367.95,1141.81L3370.01,1140.3L3370.04,1141.92L3368.99,1142.76L3370.06,1143.52L3370.09,1145.15Z" style="fill-rule:nonzero;"/>
                </g>
                <g transform="matrix(-1.1734,5.4566,-4.45945,-1.35178,14790,-13853.9)">
                    <path d="M3381.83,1133.72L3373.44,1131.68L3372.72,1134.71L3371.01,1134.3L3372.94,1126.18L3374.65,1126.6L3373.93,1129.62L3382.32,1131.66L3381.83,1133.72Z" style="fill-rule:nonzero;"/>
                </g>
                <g transform="matrix(4.38326,1.30549,-1.13634,5.35902,-8107.71,-9945.35)">
                    <path d="M3530.98,1628.37L3534.06,1630.81C3534.76,1631.36 3535.24,1631.83 3535.52,1632.23C3535.9,1632.76 3536.11,1633.34 3536.17,1633.99C3536.22,1634.63 3536.13,1635.28 3535.88,1635.95C3535.64,1636.63 3535.2,1637.35 3534.58,1638.12C3534.03,1638.81 3533.47,1639.32 3532.9,1639.68C3532.2,1640.12 3531.51,1640.37 3530.82,1640.43C3530.3,1640.48 3529.73,1640.39 3529.11,1640.15C3528.64,1639.98 3528.1,1639.64 3527.47,1639.15L3524.3,1636.64L3530.98,1628.37ZM3531.53,1631.11L3527.11,1636.58L3528.37,1637.58C3528.84,1637.95 3529.2,1638.19 3529.45,1638.3C3529.78,1638.45 3530.1,1638.52 3530.41,1638.5C3530.72,1638.48 3531.09,1638.33 3531.5,1638.05C3531.91,1637.77 3532.38,1637.31 3532.89,1636.67C3533.41,1636.03 3533.75,1635.5 3533.91,1635.07C3534.07,1634.63 3534.13,1634.24 3534.08,1633.89C3534.03,1633.53 3533.87,1633.2 3533.61,1632.88C3533.42,1632.64 3532.98,1632.25 3532.29,1631.7L3531.53,1631.11Z" style="fill-rule:nonzero;"/>
                </g>
                <g transform="matrix(4.38326,1.30549,-1.13634,5.35902,-8107.71,-9945.35)">
                    <path d="M3538.36,1638.26L3538.97,1636.35L3539.83,1634.78L3541.79,1635.83L3540.93,1637.4L3539.68,1638.98L3538.36,1638.26Z" style="fill-rule:nonzero;"/>
                </g>
                <g transform="matrix(4.38326,1.30549,-1.13634,5.35902,-8107.71,-9945.35)">
                    <path d="M3543.79,1636.99L3545.85,1637.65L3544.05,1643.1C3543.77,1643.97 3543.61,1644.53 3543.58,1644.81C3543.53,1645.25 3543.63,1645.64 3543.88,1646C3544.12,1646.36 3544.54,1646.63 3545.11,1646.81C3545.69,1647 3546.17,1647.02 3546.54,1646.88C3546.92,1646.74 3547.19,1646.51 3547.36,1646.19C3547.54,1645.86 3547.75,1645.3 3548.02,1644.51L3549.85,1638.94L3551.9,1639.6L3550.16,1644.89C3549.76,1646.1 3549.43,1646.93 3549.15,1647.39C3548.88,1647.86 3548.53,1648.21 3548.12,1648.46C3547.71,1648.71 3547.22,1648.85 3546.66,1648.89C3546.09,1648.94 3545.4,1648.83 3544.6,1648.57C3543.63,1648.26 3542.93,1647.91 3542.5,1647.52C3542.07,1647.14 3541.77,1646.72 3541.6,1646.28C3541.42,1645.83 3541.35,1645.39 3541.39,1644.97C3541.44,1644.36 3541.66,1643.48 3542.03,1642.36L3543.79,1636.99Z" style="fill-rule:nonzero;"/>
                </g>
                <g transform="matrix(4.38326,1.30549,-1.13634,5.35902,-8107.71,-9945.35)">
                    <path d="M3553.59,1650.64L3554.1,1640.07L3558.64,1640.28C3559.78,1640.34 3560.6,1640.47 3561.11,1640.68C3561.62,1640.9 3562.02,1641.26 3562.31,1641.76C3562.59,1642.26 3562.72,1642.82 3562.69,1643.44C3562.65,1644.24 3562.39,1644.88 3561.89,1645.37C3561.39,1645.87 3560.68,1646.16 3559.73,1646.25C3560.18,1646.54 3560.56,1646.86 3560.84,1647.19C3561.13,1647.53 3561.51,1648.12 3561.99,1648.97L3563.2,1651.09L3560.62,1650.97L3559.17,1648.6C3558.65,1647.75 3558.3,1647.21 3558.1,1646.99C3557.91,1646.77 3557.7,1646.61 3557.48,1646.52C3557.25,1646.43 3556.89,1646.37 3556.4,1646.35L3555.96,1646.33L3555.75,1650.74L3553.59,1650.64ZM3556.04,1644.64L3557.64,1644.72C3558.67,1644.76 3559.32,1644.75 3559.58,1644.68C3559.84,1644.6 3560.05,1644.46 3560.21,1644.26C3560.36,1644.05 3560.45,1643.79 3560.46,1643.48C3560.48,1643.12 3560.4,1642.83 3560.22,1642.6C3560.03,1642.37 3559.77,1642.22 3559.42,1642.15C3559.25,1642.12 3558.73,1642.08 3557.85,1642.04L3556.17,1641.96L3556.04,1644.64Z" style="fill-rule:nonzero;"/>
                </g>
                <g transform="matrix(4.38326,1.30549,-1.13634,5.35902,-8107.71,-9945.35)">
                    <path d="M3571.22,1645.96L3570.85,1644.22L3575.41,1643.28L3576.27,1647.41C3575.92,1647.93 3575.35,1648.43 3574.58,1648.93C3573.81,1649.42 3572.99,1649.76 3572.13,1649.93C3571.03,1650.16 3570.03,1650.12 3569.12,1649.84C3568.21,1649.55 3567.46,1649.02 3566.88,1648.26C3566.29,1647.5 3565.89,1646.62 3565.69,1645.63C3565.46,1644.55 3565.49,1643.54 3565.77,1642.61C3566.05,1641.68 3566.59,1640.9 3567.38,1640.27C3567.98,1639.79 3568.78,1639.44 3569.78,1639.24C3571.08,1638.97 3572.15,1639.04 3572.99,1639.43C3573.84,1639.82 3574.46,1640.47 3574.87,1641.38L3572.85,1642.19C3572.6,1641.71 3572.24,1641.37 3571.77,1641.16C3571.3,1640.95 3570.76,1640.9 3570.15,1641.03C3569.23,1641.22 3568.55,1641.66 3568.13,1642.35C3567.7,1643.04 3567.61,1643.95 3567.85,1645.1C3568.11,1646.33 3568.57,1647.19 3569.26,1647.69C3569.94,1648.19 3570.72,1648.36 3571.62,1648.17C3572.06,1648.08 3572.49,1647.9 3572.9,1647.64C3573.31,1647.38 3573.65,1647.09 3573.91,1646.78L3573.64,1645.47L3571.22,1645.96Z" style="fill-rule:nonzero;"/>
                </g>
                <g transform="matrix(4.38326,1.30549,-1.13634,5.35902,-8107.71,-9945.35)">
                    <path d="M3581.06,1647.16L3576.25,1637.71L3583.34,1634.19L3584.15,1635.79L3578.99,1638.35L3580.06,1640.45L3584.86,1638.06L3585.66,1639.65L3580.87,1642.04L3582.18,1644.61L3587.51,1641.95L3588.32,1643.55L3581.06,1647.16Z" style="fill-rule:nonzero;"/>
                </g>
                <g transform="matrix(4.38326,1.30549,-1.13634,5.35902,-8107.71,-9945.35)">
                    <path d="M3592.22,1641.01L3585.26,1632.97L3586.86,1631.62L3594.83,1634.17L3590.18,1628.8L3591.71,1627.51L3598.66,1635.55L3597.02,1636.94L3589.21,1634.47L3593.74,1639.71L3592.22,1641.01Z" style="fill-rule:nonzero;"/>
                </g>
                <g transform="matrix(4.38326,1.30549,-1.13634,5.35902,-8107.71,-9945.35)">
                    <path d="M3602.79,1624.06L3604.53,1622.75C3605.31,1623.67 3605.71,1624.6 3605.74,1625.52C3605.78,1626.45 3605.46,1627.38 3604.8,1628.31C3603.99,1629.45 3602.92,1630.12 3601.6,1630.31C3600.28,1630.5 3598.93,1630.12 3597.56,1629.16C3596.1,1628.15 3595.23,1626.99 3594.95,1625.68C3594.68,1624.38 3594.97,1623.12 3595.83,1621.91C3596.58,1620.85 3597.51,1620.21 3598.61,1619.99C3599.27,1619.85 3600.01,1619.93 3600.85,1620.22L3600.04,1622.24C3599.52,1622.03 3599.01,1621.99 3598.51,1622.14C3598.02,1622.28 3597.61,1622.58 3597.28,1623.05C3596.82,1623.69 3596.68,1624.37 3596.87,1625.09C3597.05,1625.82 3597.66,1626.54 3598.7,1627.27C3599.81,1628.04 3600.74,1628.39 3601.49,1628.32C3602.24,1628.25 3602.83,1627.9 3603.28,1627.27C3603.61,1626.81 3603.74,1626.31 3603.68,1625.76C3603.62,1625.22 3603.33,1624.65 3602.79,1624.06Z" style="fill-rule:nonzero;"/>
                </g>
                <g transform="matrix(4.38326,1.30549,-1.13634,5.35902,-8107.71,-9945.35)">
                    <path d="M3609.34,1620.5L3599.35,1616.72L3602.18,1609.39L3603.87,1610.03L3601.81,1615.36L3604.02,1616.2L3605.94,1611.24L3607.63,1611.88L3605.71,1616.84L3608.42,1617.87L3610.56,1612.35L3612.24,1612.99L3609.34,1620.5Z" style="fill-rule:nonzero;"/>
                </g>
                <g transform="matrix(3.8353,-0.78667,0.648537,4.65219,-8171.76,643.211)">
                    <circle cx="3420.02" cy="1141.73" r="39" style="fill:rgb(250,51,51);"/>
                </g>
                <g transform="matrix(3.91189,-0.802381,0.657318,4.71518,-8730.88,-143.989)">
                    <path d="M3440.41,1317.78C3440.03,1316.06 3439.83,1314.27 3439.83,1312.43C3439.83,1299.89 3449.14,1289.5 3461.21,1287.79L3461.36,1288.76C3449.76,1290.41 3440.83,1300.39 3440.83,1312.44C3440.83,1314.15 3441.01,1315.82 3441.35,1317.42L3443.79,1316.49L3443.13,1323.79L3437.63,1318.85L3440.41,1317.78ZM3474.55,1289.55C3478.39,1291.21 3481.74,1293.8 3484.3,1297.05C3487.64,1301.29 3489.63,1306.63 3489.63,1312.44C3489.63,1316.57 3488.63,1320.46 3486.85,1323.88L3485.96,1323.43C3487.68,1320.14 3488.64,1316.4 3488.64,1312.43C3488.64,1306.86 3486.73,1301.72 3483.52,1297.65C3481.1,1294.58 3477.94,1292.11 3474.31,1290.52L3473.68,1293.04L3468.04,1288.26L3475.26,1286.68L3474.55,1289.55ZM3477.53,1332.63L3475.76,1330.7L3482.89,1328.74L3480.22,1335.57L3478.21,1333.37C3474.33,1335.88 3469.7,1337.33 3464.74,1337.33C3457.48,1337.33 3450.94,1334.22 3446.39,1329.26L3447.12,1328.6C3451.49,1333.36 3457.76,1336.35 3464.73,1336.35C3469.44,1336.35 3473.83,1334.98 3477.53,1332.63Z" style="fill:rgb(51,51,51);"/>
                </g>
            </g>
            <g transform="matrix(1,0,0,1,1.48315,-3.80059)">
                <g transform="matrix(0.481989,0,0,0.684878,-3466.04,-1096.05)">
                    <g transform="matrix(0.471034,0,0,0.451577,-4691.69,-9110.16)">
                        <path d="M26911,24156.5L26911,24578.2L26406,24578.2L26406,23917.5L26911,23917.5L26911,23917.7C26913,23917.2 26915.1,23916.9 26917.2,23916.9L27053.6,23916.9C27068.2,23916.9 27080.1,23929.3 27080.1,23944.6L27080.1,24129.6C27080.1,24144.9 27068.2,24157.3 27053.6,24157.3L26917.2,24157.3C26915.1,24157.3 26913,24157 26911,24156.5Z" style="fill:rgb(254,255,254);stroke:rgb(128,128,128);stroke-width:7.34px;"/>
                    </g>
                    <g id="path2836" transform="matrix(1.32953,1.87253e-17,-1.87253e-17,-1.17663,7531.22,2217.92)">
                        <path d="M187.282,305.953L182.539,311.981L172.757,311.917L172.757,302.834L167.387,302.834L166.74,305.685L166.223,308.609L165.964,311.46L165.835,314.458L165.964,317.382L166.223,320.379L166.74,323.45L167.387,326.52L172.757,326.52L172.757,318.287L182.539,318.223L187.282,322.217L210.3,322.217L210.3,305.953L187.282,305.953Z" style="fill:white;stroke:rgb(128,128,128);stroke-width:2.71px;stroke-miterlimit:2;"/>
                    </g>
                    <g transform="matrix(0.476334,0.126551,-0.0304643,0.10833,-4087.36,-4074.88)">
                        <rect x="26318.1" y="24237.7" width="315.175" height="79.714" style="fill:rgb(254,255,254);"/>
                    </g>
                    <g transform="matrix(0.476334,0.126551,-0.0304643,0.10833,-4087.36,-4074.88)">
                        <path d="M26636.6,24237.9L26636.6,24317.6C26636.6,24325.7 26635.1,24332.2 26633.3,24332.2L26318.1,24332.2C26317.2,24332.2 26316.3,24330.6 26315.7,24327.8C26315.1,24325 26314.7,24321.1 26314.7,24317.2L26314.7,24237.5C26314.7,24229.4 26316.2,24222.9 26318,24222.9L26633.2,24222.9C26634.1,24222.9 26635,24224.5 26635.6,24227.3C26636.3,24230.1 26636.6,24233.9 26636.6,24237.9ZM26629.9,24252.5L26321.5,24252.5L26321.5,24302.6L26629.9,24302.6L26629.9,24252.5Z" style="fill:rgb(128,128,128);"/>
                    </g>
                    <g transform="matrix(0.689897,0,0,0.272402,-10431.4,-4702.85)">
                        <rect x="26260.4" y="24404.5" width="596.013" height="55.186" style="fill:rgb(254,255,254);"/>
                    </g>
                    <g transform="matrix(0.689897,0,0,0.272402,-10431.4,-4702.85)">
                        <path d="M26858.9,24404.5L26858.9,24459.6C26858.9,24463 26857.8,24465.8 26856.4,24465.8L26260.4,24465.8C26259.1,24465.8 26258,24463 26258,24459.6L26258,24404.5C26258,24401.1 26259.1,24398.3 26260.4,24398.3L26856.4,24398.3C26857.8,24398.3 26858.9,24401.1 26858.9,24404.5ZM26854,24410.6L26262.9,24410.6L26262.9,24453.5L26854,24453.5L26854,24410.6Z" style="fill:rgb(128,128,128);"/>
                    </g>
                    <g transform="matrix(0.488761,0,0,0.476881,-5162.44,-9706.06)">
                        <rect x="26271.5" y="23898" width="127.542" height="213.387" style="fill:none;stroke:rgb(128,128,128);stroke-width:7.01px;"/>
                    </g>
                    <g transform="matrix(0.488761,0,0,0.476881,-5152.8,-9706.06)">
                        <path d="M26321.8,24111.4C26321.8,24111.4 26305.3,24175.5 26380.5,24174.4C26504.6,24172.6 26544.8,24214.4 26536.2,24229.1" style="fill:none;stroke:rgb(128,128,128);stroke-width:7.01px;"/>
                    </g>
                    <g transform="matrix(0.488761,0,0,0.476881,-5156.54,-9708.12)">
                        <rect x="26872.5" y="24355.7" width="127.427" height="137.008" style="fill:rgb(254,255,254);stroke:rgb(128,128,128);stroke-width:7.01px;"/>
                    </g>
                    <g transform="matrix(0.614054,0,0,0.614054,-3855.2,-18380.6)">
                        <path d="M19138,32991.9L19109.9,32991.9L19109.9,32978L19138,32978L19138,32955.2L19126.1,32955.2L19126.1,32938.5L19138,32938.5L19138,32926.1L19145.7,32926.1L19145.7,32938.5L19156.6,32938.5L19156.6,32930.9C19156.6,32923.9 19162.3,32918.2 19169.3,32918.2L19231.6,32918.2C19238.7,32918.2 19244.4,32923.9 19244.4,32930.9L19244.4,32956.4C19244.4,32963.4 19238.7,32969.1 19231.6,32969.1L19169.3,32969.1C19162.3,32969.1 19156.6,32963.4 19156.6,32956.4L19156.6,32955.2L19145.7,32955.2L19145.7,32978L19233.9,32978L19233.9,32991.9L19145.7,32991.9L19145.7,33002.3L19149.4,33002.3L19149.4,33015.5L19134.3,33015.5L19134.3,33002.3L19138,33002.3L19138,32991.9Z" style="fill:none;stroke:rgb(128,128,128);stroke-width:5.5px;"/>
                    </g>
                    <g transform="matrix(0.833005,0,0,1.28133,491.892,2480.83)">
                        <path d="M8783.47,-503.985L8777.13,-503.985L8777.13,-513.843L8783.47,-513.843L8783.47,-532.487L8793.32,-532.487L8793.32,-513.843L8799.66,-513.843L8799.66,-503.985L8793.32,-503.985L8793.32,-469.69L8799.66,-469.69L8799.66,-459.832L8793.32,-459.832L8793.32,-450.879L8789.48,-450.879L8789.48,-442.265L8787.31,-442.265L8787.31,-450.879L8783.47,-450.879L8783.47,-459.832L8777.13,-459.832L8777.13,-469.69L8783.47,-469.69L8783.47,-503.985Z" style="fill:white;stroke:rgb(128,128,128);stroke-width:3.06px;stroke-miterlimit:1.5;"/>
                    </g>
                </g>
                <g transform="matrix(0.563434,0,0,0.962698,-4648.09,-6769.6)">
                    <path d="M8926.79,7172.4L8875.52,7139.44L8672.49,7139.44L8723.76,7172.4L8926.79,7172.4Z" style="fill:rgb(230,230,230);fill-opacity:0.68;stroke:black;stroke-width:2.59px;stroke-miterlimit:1.5;"/>
                </g>
                <g transform="matrix(0.499684,-0.164862,0.128673,0.640223,178.925,-28.9429)">
                    <g>
                        <path d="M29.034,260.683L59.231,252.638L58.498,283.88L29.034,260.683Z" style="fill:rgb(64,64,64);"/>
                        <path d="M60.018,343.113C43.112,341.215 9.041,312.371 46.859,268.353" style="fill:none;stroke:rgb(64,64,64);stroke-width:8.33px;"/>
                    </g>
                </g>
            </g>
        </g>
    </g>
</svg>
