<?xml version="1.0" encoding="UTF-8" standalone="no"?>
<!DOCTYPE svg PUBLIC "-//W3C//DTD SVG 1.1//EN" "http://www.w3.org/Graphics/SVG/1.1/DTD/svg11.dtd">
<svg width="100%" height="100%" viewBox="0 0 1453 473" version="1.1" xmlns="http://www.w3.org/2000/svg" xmlns:xlink="http://www.w3.org/1999/xlink" xml:space="preserve" xmlns:serif="http://www.serif.com/" style="fill-rule:evenodd;clip-rule:evenodd;stroke-linejoin:round;stroke-miterlimit:1.5;">
    <g transform="matrix(1,0,0,1,-8672.78,-11885.8)">
        <g id="Artboard4" transform="matrix(2.05,0,0,1.6,8672.78,11885.8)">
            <rect x="0" y="0" width="708.661" height="295.276" style="fill:none;"/>
            <g transform="matrix(0.487805,0,0,0.625,-11291.7,-6823.91)">
                <g>
                    <g transform="matrix(0.638526,0.592629,-0.680273,0.732958,15962,-10217.6)">
                        <path d="M23113.1,10473.1L23113.1,10685.3C23113.1,10690.9 23082.4,10718.4 23076,10718.4L22892.3,10695.5C22885.9,10695.5 22880.7,10690.9 22880.7,10685.3L22848.1,10495.9C22848.1,10490.3 22885.9,10463 22892.3,10463L23101.5,10463C23107.9,10463 23113.1,10467.6 23113.1,10473.1Z" style="fill:none;stroke:rgb(64,64,64);stroke-width:3.55px;"/>
                    </g>
                    <g transform="matrix(0.638526,0.592629,-0.680273,0.732958,15922.7,-10217.6)">
                        <path d="M23113.1,10473.1L23113.1,10685.3C23113.1,10690.9 23107.9,10695.5 23101.5,10695.5L22892.3,10695.5C22885.9,10695.5 22880.7,10690.9 22880.7,10685.3L22880.7,10473.1C22880.7,10467.6 22885.9,10463 22892.3,10463L23101.5,10463C23107.9,10463 23113.1,10467.6 23113.1,10473.1Z" style="fill:white;stroke:rgb(64,64,64);stroke-width:3.55px;"/>
                    </g>
                    <g transform="matrix(1,0,0,1,112.788,113.525)">
                        <g transform="matrix(1,0,0,1,6.21809,386.037)">
                            <g transform="matrix(0.707107,0.707107,-0.707107,0.707107,14292.9,-13373.2)">
                                <path d="M23293.6,10539C23299.3,10539 23303.9,10545.9 23303.9,10554.4C23303.9,10559.5 23294.4,10571.8 23291.8,10574.6C23290.1,10576.4 23287.3,10576.4 23285,10576.4C23279.3,10576.4 23283.2,10562.9 23283.2,10554.4C23283.2,10550.7 23276.5,10554.9 23278,10552.2C23279.9,10548.8 23290.4,10539 23293.6,10539Z" style="fill:white;stroke:rgb(179,179,179);stroke-width:3.33px;"/>
                            </g>
                            <g transform="matrix(0.865876,0.865876,-0.865876,0.865876,12271.8,-18746.2)">
                                <path d="M23288.9,10574.2C23292.5,10571.8 23298.6,10565.9 23298.6,10559.6C23298.6,10551.1 23291.3,10542.1 23286.4,10543.6C23280.2,10545.4 23278.9,10551.4 23277.8,10554.1C23283.3,10539.8 23290.4,10537.6 23295.1,10539.5C23299.7,10541.3 23304.3,10548.5 23303.9,10554.4C23303.5,10561.4 23297.1,10573.7 23288.9,10574.2Z" style="fill:white;stroke:rgb(179,179,179);stroke-width:1.35px;"/>
                            </g>
                            <g transform="matrix(0.707107,0.707107,-0.707107,0.707107,14281.5,-13373.2)">
                                <ellipse cx="23293.6" cy="10554.4" rx="10.35" ry="15.405" style="fill:white;stroke:rgb(179,179,179);stroke-width:3.33px;"/>
                            </g>
                        </g>
                        <g>
                            <g transform="matrix(0.581116,0.532565,-0.522888,0.570557,15044.2,-7810.18)">
                                <path d="M23965.8,10702.5L23964.8,10784.4L23912.6,10782.7L23913.5,10701.7L23965.8,10702.5Z" style="fill:none;stroke:rgb(179,179,179);stroke-width:2.12px;"/>
                            </g>
                            <g transform="matrix(0.581116,0.532565,-0.522888,0.570557,15004.7,-7846.72)">
                                <path d="M23964.1,10701.8L23963.1,10782.3L23910.8,10782.7L23911.9,10701.2L23964.1,10701.8Z" style="fill:none;stroke:rgb(179,179,179);stroke-width:2.12px;"/>
                            </g>
                            <g transform="matrix(0.581116,0.532565,-0.522888,0.570557,14950.1,-7792.15)">
                                <path d="M23967.1,10702.3L23966,10787.2L23913.8,10786.5L23914.8,10701.5L23967.1,10702.3Z" style="fill:none;stroke:rgb(179,179,179);stroke-width:2.12px;"/>
                            </g>
                            <g transform="matrix(0.581116,0.532565,-0.507143,0.553376,14883.7,-7714.04)">
                                <path d="M23964.8,10702.9L23963.2,10786.3L23911.6,10785.8L23911.9,10702.7L23964.8,10702.9Z" style="fill:none;stroke:rgb(179,179,179);stroke-width:2.15px;"/>
                            </g>
                            <g transform="matrix(0.581116,0.532565,-0.507143,0.553376,14922.5,-7678.37)">
                                <path d="M23967.9,10703.6L23966.7,10787.4L23914.6,10786.7L23915.4,10703.1L23967.9,10703.6Z" style="fill:none;stroke:rgb(179,179,179);stroke-width:2.15px;"/>
                            </g>
                            <g transform="matrix(0.581116,0.532565,-0.526135,0.5741,14994.1,-7927.22)">
                                <path d="M23970.4,10701.8L23969.1,10781.8L23917.2,10782.7L23918.2,10701L23970.4,10701.8Z" style="fill:none;stroke:rgb(179,179,179);stroke-width:2.11px;"/>
                            </g>
                            <g transform="matrix(0.581116,0.532565,-0.526135,0.5741,14939,-7872.18)">
                                <path d="M23973.6,10701.4L23972.2,10785.6L23920.1,10784.9L23921.4,10700.6L23973.6,10701.4Z" style="fill:none;stroke:rgb(179,179,179);stroke-width:2.11px;"/>
                            </g>
                            <g transform="matrix(0.707107,0.707107,-0.707107,0.707107,14371.6,-12914.6)">
                                <path d="M23293.6,10539C23299.3,10539 23303.9,10545.9 23303.9,10554.4C23303.9,10559.5 23294.4,10571.8 23291.8,10574.6C23290.1,10576.4 23287.3,10576.4 23285,10576.4C23279.3,10576.4 23283.2,10562.9 23283.2,10554.4C23283.2,10550.7 23276.5,10554.9 23278,10552.2C23279.9,10548.8 23290.4,10539 23293.6,10539Z" style="fill:white;stroke:rgb(179,179,179);stroke-width:3.33px;"/>
                            </g>
                            <g transform="matrix(0.865876,0.865876,-0.865876,0.865876,12350.6,-18287.6)">
                                <path d="M23288.9,10574.2C23292.5,10571.8 23298.6,10565.9 23298.6,10559.6C23298.6,10551.1 23291.3,10542.1 23286.4,10543.6C23280.2,10545.4 23278.9,10551.4 23277.8,10554.1C23283.3,10539.8 23290.4,10537.6 23295.1,10539.5C23299.7,10541.3 23304.3,10548.5 23303.9,10554.4C23303.5,10561.4 23297.1,10573.7 23288.9,10574.2Z" style="fill:white;stroke:rgb(179,179,179);stroke-width:1.35px;"/>
                            </g>
                            <g transform="matrix(1,0,0,1,40.7539,420.572)">
                                <g transform="matrix(0.707107,0.707107,-0.707107,0.707107,14292.9,-13373.2)">
                                    <path d="M23293.6,10539C23299.3,10539 23303.9,10545.9 23303.9,10554.4C23303.9,10559.5 23294.4,10571.8 23291.8,10574.6C23290.1,10576.4 23287.3,10576.4 23285,10576.4C23279.3,10576.4 23283.2,10562.9 23283.2,10554.4C23283.2,10550.7 23276.5,10554.9 23278,10552.2C23279.9,10548.8 23290.4,10539 23293.6,10539Z" style="fill:white;stroke:rgb(179,179,179);stroke-width:3.33px;"/>
                                </g>
                                <g transform="matrix(0.865876,0.865876,-0.865876,0.865876,12271.8,-18746.2)">
                                    <path d="M23288.9,10574.2C23292.5,10571.8 23298.6,10565.9 23298.6,10559.6C23298.6,10551.1 23291.3,10542.1 23286.4,10543.6C23280.2,10545.4 23278.9,10551.4 23277.8,10554.1C23283.3,10539.8 23290.4,10537.6 23295.1,10539.5C23299.7,10541.3 23304.3,10548.5 23303.9,10554.4C23303.5,10561.4 23297.1,10573.7 23288.9,10574.2Z" style="fill:white;stroke:rgb(179,179,179);stroke-width:1.35px;"/>
                                </g>
                                <g transform="matrix(0.707107,0.707107,-0.707107,0.707107,14281.5,-13373.2)">
                                    <ellipse cx="23293.6" cy="10554.4" rx="10.35" ry="15.405" style="fill:white;stroke:rgb(179,179,179);stroke-width:3.33px;"/>
                                </g>
                            </g>
                            <g transform="matrix(1,0,0,1,-7.16451,468.822)">
                                <g transform="matrix(0.707107,0.707107,-0.707107,0.707107,14292.9,-13373.2)">
                                    <path d="M23293.6,10539C23299.3,10539 23303.9,10545.9 23303.9,10554.4C23303.9,10559.5 23294.4,10571.8 23291.8,10574.6C23290.1,10576.4 23287.3,10576.4 23285,10576.4C23279.3,10576.4 23283.2,10562.9 23283.2,10554.4C23283.2,10550.7 23276.5,10554.9 23278,10552.2C23279.9,10548.8 23290.4,10539 23293.6,10539Z" style="fill:white;stroke:rgb(179,179,179);stroke-width:3.33px;"/>
                                </g>
                                <g transform="matrix(0.865876,0.865876,-0.865876,0.865876,12271.8,-18746.2)">
                                    <path d="M23288.9,10574.2C23292.5,10571.8 23298.6,10565.9 23298.6,10559.6C23298.6,10551.1 23291.3,10542.1 23286.4,10543.6C23280.2,10545.4 23278.9,10551.4 23277.8,10554.1C23283.3,10539.8 23290.5,10537.5 23295.1,10539.5C23298.1,10540.8 23302.8,10545.7 23303.3,10553.7C23303.7,10560.7 23296,10573.3 23288.9,10574.2Z" style="fill:white;stroke:rgb(179,179,179);stroke-width:1.35px;"/>
                                </g>
                                <g transform="matrix(0.707107,0.707107,-0.707107,0.707107,14281.5,-13373.2)">
                                    <ellipse cx="23293.6" cy="10554.4" rx="10.35" ry="15.405" style="fill:white;stroke:rgb(179,179,179);stroke-width:3.33px;"/>
                                </g>
                            </g>
                            <g transform="matrix(1,0,0,1,28.5064,502.837)">
                                <g transform="matrix(0.707107,0.707107,-0.707107,0.707107,14292.9,-13373.2)">
                                    <path d="M23293.6,10539C23299.3,10539 23303.9,10545.9 23303.9,10554.4C23303.9,10559.5 23294.4,10571.8 23291.8,10574.6C23290.1,10576.4 23287.3,10576.4 23285,10576.4C23279.3,10576.4 23283.2,10562.9 23283.2,10554.4C23283.2,10550.7 23276.5,10554.9 23278,10552.2C23279.9,10548.8 23290.4,10539 23293.6,10539Z" style="fill:white;stroke:rgb(179,179,179);stroke-width:3.33px;"/>
                                </g>
                                <g transform="matrix(0.865876,0.865876,-0.865876,0.865876,12271.8,-18746.2)">
                                    <path d="M23288.9,10574.2C23292.5,10571.8 23298.6,10565.9 23298.6,10559.6C23298.6,10551.1 23291.3,10542.1 23286.4,10543.6C23280.2,10545.4 23278.9,10551.4 23277.8,10554.1C23283.3,10539.8 23290.4,10537.6 23295.1,10539.5C23299.7,10541.3 23304.3,10548.5 23303.9,10554.4C23303.5,10561.4 23297.1,10573.7 23288.9,10574.2Z" style="fill:white;stroke:rgb(179,179,179);stroke-width:1.35px;"/>
                                </g>
                                <g transform="matrix(0.707107,0.707107,-0.707107,0.707107,14281.5,-13373.2)">
                                    <ellipse cx="23293.6" cy="10554.4" rx="10.35" ry="15.405" style="fill:white;stroke:rgb(179,179,179);stroke-width:3.33px;"/>
                                </g>
                            </g>
                            <g transform="matrix(0.707107,0.707107,-0.707107,0.707107,14360.2,-12914.6)">
                                <ellipse cx="23293.6" cy="10554.4" rx="10.35" ry="15.405" style="fill:white;stroke:rgb(179,179,179);stroke-width:3.33px;"/>
                            </g>
                            <g transform="matrix(1,0,0,1,-47.9934,431.636)">
                                <g transform="matrix(0.707107,0.707107,-0.707107,0.707107,14292.9,-13373.2)">
                                    <path d="M23293.6,10539C23299.3,10539 23303.9,10545.9 23303.9,10554.4C23303.9,10559.5 23294.4,10571.8 23291.8,10574.6C23290.1,10576.4 23287.3,10576.4 23285,10576.4C23279.3,10576.4 23283.2,10562.9 23283.2,10554.4C23283.2,10550.7 23276.5,10554.9 23278,10552.2C23279.9,10548.8 23290.4,10539 23293.6,10539Z" style="fill:white;stroke:rgb(179,179,179);stroke-width:3.33px;"/>
                                </g>
                                <g transform="matrix(0.865876,0.865876,-0.865876,0.865876,12271.8,-18746.2)">
                                    <path d="M23288.9,10574.2C23292.5,10571.8 23298.6,10565.9 23298.6,10559.6C23298.6,10551.1 23291.3,10542.1 23286.4,10543.6C23280.2,10545.4 23278.9,10551.4 23277.8,10554.1C23283.3,10539.8 23290.4,10537.6 23295.1,10539.5C23299.7,10541.3 23304.3,10548.5 23303.9,10554.4C23303.5,10561.4 23297.1,10573.7 23288.9,10574.2Z" style="fill:white;stroke:rgb(179,179,179);stroke-width:1.35px;"/>
                                </g>
                                <g transform="matrix(0.707107,0.707107,-0.707107,0.707107,14281.5,-13373.2)">
                                    <ellipse cx="23293.6" cy="10554.4" rx="10.35" ry="15.405" style="fill:white;stroke:rgb(179,179,179);stroke-width:3.33px;"/>
                                </g>
                            </g>
                            <g transform="matrix(1,0,0,1,-65.4019,522.965)">
                                <g transform="matrix(0.707107,0.707107,-0.707107,0.707107,14292.9,-13373.2)">
                                    <path d="M23293.6,10539C23299.3,10539 23303.9,10545.9 23303.9,10554.4C23303.9,10559.5 23294.4,10571.8 23291.8,10574.6C23290.1,10576.4 23287.3,10576.4 23285,10576.4C23279.3,10576.4 23283.2,10562.9 23283.2,10554.4C23283.2,10550.7 23276.5,10554.9 23278,10552.2C23279.9,10548.8 23290.4,10539 23293.6,10539Z" style="fill:white;stroke:rgb(179,179,179);stroke-width:3.33px;"/>
                                </g>
                                <g transform="matrix(0.865876,0.865876,-0.865876,0.865876,12271.8,-18746.2)">
                                    <path d="M23288.9,10574.2C23292.5,10571.8 23298.6,10565.9 23298.6,10559.6C23298.6,10551.1 23291.3,10542.1 23286.4,10543.6C23280.2,10545.4 23278.9,10551.4 23277.8,10554.1C23283.3,10539.8 23290.4,10537.6 23295.1,10539.5C23299.7,10541.3 23304.3,10548.5 23303.9,10554.4C23303.5,10561.4 23297.1,10573.7 23288.9,10574.2Z" style="fill:white;stroke:rgb(179,179,179);stroke-width:1.35px;"/>
                                </g>
                                <g transform="matrix(0.707107,0.707107,-0.707107,0.707107,14281.5,-13373.2)">
                                    <ellipse cx="23293.6" cy="10554.4" rx="10.35" ry="15.405" style="fill:white;stroke:rgb(179,179,179);stroke-width:3.33px;"/>
                                </g>
                            </g>
                            <g transform="matrix(1,0,0,1,-98.8467,489.819)">
                                <g transform="matrix(0.707107,0.707107,-0.707107,0.707107,14292.9,-13373.2)">
                                    <path d="M23293.6,10539C23299.3,10539 23303.9,10545.9 23303.9,10554.4C23303.9,10559.5 23294.4,10571.8 23291.8,10574.6C23290.1,10576.4 23287.3,10576.4 23285,10576.4C23279.3,10576.4 23283.2,10562.9 23283.2,10554.4C23283.2,10550.7 23276.5,10554.9 23278,10552.2C23279.9,10548.8 23290.4,10539 23293.6,10539Z" style="fill:white;stroke:rgb(179,179,179);stroke-width:3.33px;"/>
                                </g>
                                <g transform="matrix(0.865876,0.865876,-0.865876,0.865876,12271.8,-18746.2)">
                                    <path d="M23288.9,10574.2C23292.5,10571.8 23298.6,10565.9 23298.6,10559.6C23298.6,10551.1 23291.3,10542.1 23286.4,10543.6C23280.2,10545.4 23278.9,10551.4 23277.8,10554.1C23283.3,10539.8 23290.4,10537.6 23295.1,10539.5C23299.7,10541.3 23304.3,10548.5 23303.9,10554.4C23303.5,10561.4 23297.1,10573.7 23288.9,10574.2Z" style="fill:white;stroke:rgb(179,179,179);stroke-width:1.35px;"/>
                                </g>
                                <g transform="matrix(0.707107,0.707107,-0.707107,0.707107,14281.5,-13373.2)">
                                    <ellipse cx="23293.6" cy="10554.4" rx="10.35" ry="15.405" style="fill:white;stroke:rgb(179,179,179);stroke-width:3.33px;"/>
                                </g>
                            </g>
                        </g>
                        <g transform="matrix(0.581116,0.532565,-0.526135,0.5741,15045.2,-7974.17)">
                            <path d="M23964,10702.9L23962.8,10782.7L23910.8,10781.7L23912,10702.5L23964,10702.9Z" style="fill:none;stroke:rgb(179,179,179);stroke-width:2.11px;"/>
                        </g>
                    </g>
                    <g transform="matrix(0.638526,0.592629,-0.680273,0.732958,15922.7,-10217.6)">
                        <path d="M23113.1,10473.1L23113.1,10685.3C23113.1,10690.9 23107.9,10695.5 23101.5,10695.5L22892.3,10695.5C22885.9,10695.5 22880.7,10690.9 22880.7,10685.3L22880.7,10473.1C22880.7,10467.6 22885.9,10463 22892.3,10463L23101.5,10463C23107.9,10463 23113.1,10467.6 23113.1,10473.1Z" style="fill:none;stroke:rgb(64,64,64);stroke-width:3.55px;"/>
                    </g>
                    <g transform="matrix(1,0,0,1,-499.319,393.531)">
                        <g>
                            <g transform="matrix(0.621405,0,0,0.621405,9103.98,4021.57)">
                                <g transform="matrix(1.12875,0.767687,-1.05287,1.54805,9184.31,-23069.1)">
                                    <ellipse cx="22892.8" cy="10651.4" rx="33.223" ry="34.029" style="fill:rgb(255,215,3);stroke:rgb(115,115,115);stroke-width:1.63px;"/>
                                </g>
                                <g transform="matrix(0.491742,0.334446,-0.448228,0.659039,17317.4,-3684.62)">
                                    <path d="M22853,10678.4C22842,10672.9 22834.4,10661.3 22834.4,10647.8C22834.4,10629.1 22849.2,10613.8 22867.6,10613.8C22869.9,10613.8 22872.2,10614.1 22874.4,10614.5C22887.3,10615.6 22880.3,10615.1 22890.5,10616.7C22894.3,10617.3 22891.5,10617.4 22892.8,10617.4C22911.2,10617.4 22926,10632.7 22926,10651.4C22926,10670.2 22911.2,10685.5 22892.8,10685.5C22880.7,10685.5 22868.6,10686.8 22853,10678.4Z" style="fill:rgb(64,64,64);stroke:rgb(38,38,38);stroke-width:3.79px;"/>
                                </g>
                                <g transform="matrix(0.690892,0.469893,-0.679827,0.999564,15209.8,-10428.3)">
                                    <ellipse cx="22892.8" cy="10651.4" rx="33.223" ry="34.029" style="fill:rgb(250,51,51);stroke:rgb(210,4,4);stroke-width:2.56px;"/>
                                </g>
                                <g transform="matrix(0.690892,0.469893,-0.679827,0.999564,15204.7,-10433.3)">
                                    <ellipse cx="22892.8" cy="10651.4" rx="33.223" ry="34.029" style="fill:rgb(250,51,51);stroke:rgb(210,4,4);stroke-width:2.56px;"/>
                                </g>
                            </g>
                            <g transform="matrix(0.400265,-0.581901,0.344111,0.239577,22040.7,12538.7)">
                                <g transform="matrix(0.809019,1.965,-1.16201,1.35164,3640.08,434.855)">
                                    <path d="M221.123,329.441L227.056,327.577L222.005,323.95L221.123,329.441Z" style="fill:rgb(64,64,64);"/>
                                    <path d="M226.644,298.629L224.801,304.568L230.658,302.479L226.644,298.629Z" style="fill:rgb(64,64,64);"/>
                                    <path d="M246.601,311.541L244.675,305.629L241.1,310.717L246.601,311.541Z" style="fill:rgb(64,64,64);"/>
                                    <path d="M222.662,326.872C222.445,326.757 222.235,326.628 222.031,326.486C217.799,323.54 217.943,315.795 222.104,308.504M227.881,301.357C229.962,299.529 232.169,298.214 234.283,297.512C237.022,296.603 239.608,296.721 241.566,298.085C242.958,299.054 243.877,300.543 244.335,302.363M244.015,310.029C243.304,312.682 242.025,315.473 240.196,318.132C237.349,322.272 233.735,325.269 230.276,326.7" style="fill:none;stroke:rgb(64,64,64);stroke-width:0.83px;"/>
                                </g>
                            </g>
                        </g>
                    </g>
                    <g transform="matrix(1.29871,0,0,1,-6877.64,294.104)">
                        <g transform="matrix(0.769997,-0,-0,1,23119.7,10624.2)">
                            <path d="M261.818,297.121L254.415,284.55L268.556,280.964L261.818,297.121Z"/>
                            <path d="M225.334,350.022C250.051,367.556 294.818,307.264 263.033,288.144" style="fill:none;stroke:black;stroke-width:3.89px;"/>
                        </g>
                    </g>
                </g>
            </g>
            <g transform="matrix(0.363249,-0.417152,0.325582,0.465413,-9604.84,4294.53)">
                <g>
                    <path d="M19056.6,8272.13C19056.6,8272.13 19106.5,8296.62 19130.5,8320.26C19134.4,8324.08 19134.1,8328.01 19136.5,8331.66C19154,8357.98 19160.5,8352.71 19167.8,8361.59C19171.1,8365.72 19173.6,8373.83 19176.3,8379.11C19179.4,8385.22 19184.5,8390.04 19184.5,8390.04C19184.5,8390.04 19177.6,8395.09 19179.2,8402.17C19179.8,8404.59 19183.3,8406.71 19183.3,8406.71C19183.3,8406.71 19179.6,8413.59 19186.7,8414.85C19193.3,8416 19199.7,8411.26 19199.7,8411.26C19199.7,8411.26 19202,8420.14 19215.5,8414.22C19228.9,8408.3 19229.3,8400.41 19231.6,8402.38C19233.9,8404.35 19238.3,8410.37 19241.2,8395.42C19244.2,8380.48 19266.7,8368.48 19262.9,8359.21C19259.1,8349.95 19245.2,8343.22 19237.6,8316.27C19236.2,8311.07 19187.3,8288.69 19157.9,8263.85" style="fill:white;stroke:black;stroke-width:1.65px;"/>
                    <g transform="matrix(1,0,0,1,-0.0286319,0.359186)">
                        <path d="M19056.6,8272.13C19056.6,8272.13 19106.5,8296.62 19130.5,8320.26C19134.4,8324.08 19134.1,8328.01 19136.5,8331.66C19154,8357.98 19160.5,8352.71 19167.8,8361.59C19171.1,8365.72 19173.6,8373.83 19176.3,8379.11C19179.4,8385.22 19184.5,8390.04 19184.5,8390.04C19184.5,8390.04 19177.6,8395.09 19179.2,8402.17C19179.8,8404.59 19183.3,8406.71 19183.3,8406.71C19183.3,8406.71 19179.6,8413.59 19186.7,8414.85C19193.3,8416 19199.7,8411.26 19199.7,8411.26C19199.7,8411.26 19202,8420.14 19215.5,8414.22C19228.9,8408.3 19229.3,8400.41 19231.6,8402.38C19233.9,8404.35 19238.3,8410.37 19241.2,8395.42C19244.2,8380.48 19266.7,8368.48 19262.9,8359.21C19259.1,8349.95 19245.2,8343.22 19237.6,8316.27C19236.2,8311.07 19187.3,8288.69 19157.9,8263.85" style="fill:none;stroke:black;stroke-width:1.65px;"/>
                    </g>
                    <path d="M19244.6,8334.03C19244.6,8334.03 19254.7,8365.52 19250.1,8375.12C19245.6,8384.72 19233.7,8398.93 19230.4,8402.63" style="fill:none;stroke:black;stroke-width:1.65px;"/>
                    <path d="M19235.6,8338.24C19235.6,8338.24 19249.3,8387.34 19199.3,8411.81" style="fill:none;stroke:black;stroke-width:1.65px;"/>
                    <path d="M19221,8344.18C19221,8344.18 19221.1,8361.19 19220.6,8369.27C19220.1,8377.36 19202.1,8402.67 19183.1,8407.39" style="fill:none;stroke:black;stroke-width:1.65px;"/>
                    <path d="M19144,8323.01C19144,8323.01 19153.5,8331.63 19163.1,8336.66C19164.5,8337.42 19173.2,8339.36 19176.9,8341.45C19183.6,8345.26 19187.4,8343.12 19189.1,8351.35C19189.6,8354.17 19193.7,8358.76 19196.5,8362.17C19199.5,8365.8 19194.6,8371.24 19196.2,8373.32C19198.9,8376.85 19193.8,8382.48 19184.6,8390.4" style="fill:none;stroke:black;stroke-width:1.65px;"/>
                </g>
            </g>
            <g transform="matrix(1,0,0,1,6.15912,-2.71268)">
                <g transform="matrix(0.311476,0.370393,-0.331841,0.458099,-3257.99,-13215.8)">
                    <path d="M23113.1,10473.1L23113.1,10685.3C23113.1,10690.9 23082.4,10718.4 23076,10718.4L22892.3,10695.5C22885.9,10695.5 22880.7,10690.9 22880.7,10685.3L22848.1,10495.9C22848.1,10490.3 22885.9,10463 22892.3,10463L23101.5,10463C23107.9,10463 23113.1,10467.6 23113.1,10473.1Z" style="fill:none;stroke:rgb(64,64,64);stroke-width:3.55px;"/>
                </g>
                <g transform="matrix(0.311476,0.370393,-0.331841,0.458099,-3277.17,-13215.8)">
                    <path d="M23113.1,10473.1L23113.1,10685.3C23113.1,10690.9 23107.9,10695.5 23101.5,10695.5L22892.3,10695.5C22885.9,10695.5 22880.7,10690.9 22880.7,10685.3L22880.7,10473.1C22880.7,10467.6 22885.9,10463 22892.3,10463L23101.5,10463C23107.9,10463 23113.1,10467.6 23113.1,10473.1Z" style="fill:white;stroke:rgb(64,64,64);stroke-width:3.55px;"/>
                </g>
                <g transform="matrix(0.487805,0,0,0.625,-10989.3,-6758.85)">
                    <g transform="matrix(1,0,0,1,6.21809,386.037)">
                        <g transform="matrix(0.707107,0.707107,-0.707107,0.707107,14292.9,-13373.2)">
                            <path d="M23293.6,10539C23299.3,10539 23303.9,10545.9 23303.9,10554.4C23303.9,10559.5 23294.4,10571.8 23291.8,10574.6C23290.1,10576.4 23287.3,10576.4 23285,10576.4C23279.3,10576.4 23283.2,10562.9 23283.2,10554.4C23283.2,10550.7 23276.5,10554.9 23278,10552.2C23279.9,10548.8 23290.4,10539 23293.6,10539Z" style="fill:white;stroke:rgb(179,179,179);stroke-width:3.33px;"/>
                        </g>
                        <g transform="matrix(0.865876,0.865876,-0.865876,0.865876,12271.8,-18746.2)">
                            <path d="M23288.9,10574.2C23292.5,10571.8 23298.6,10565.9 23298.6,10559.6C23298.6,10551.1 23291.3,10542.1 23286.4,10543.6C23280.2,10545.4 23278.9,10551.4 23277.8,10554.1C23283.3,10539.8 23290.4,10537.6 23295.1,10539.5C23299.7,10541.3 23304.3,10548.5 23303.9,10554.4C23303.5,10561.4 23297.1,10573.7 23288.9,10574.2Z" style="fill:white;stroke:rgb(179,179,179);stroke-width:1.35px;"/>
                        </g>
                        <g transform="matrix(0.707107,0.707107,-0.707107,0.707107,14281.5,-13373.2)">
                            <ellipse cx="23293.6" cy="10554.4" rx="10.35" ry="15.405" style="fill:white;stroke:rgb(179,179,179);stroke-width:3.33px;"/>
                        </g>
                    </g>
                    <g>
                        <g transform="matrix(0.581116,0.532565,-0.522888,0.570557,15044.2,-7810.18)">
                            <path d="M23965.8,10702.5L23964.8,10784.4L23912.6,10782.7L23913.5,10701.7L23965.8,10702.5Z" style="fill:none;stroke:rgb(179,179,179);stroke-width:2.12px;"/>
                        </g>
                        <g transform="matrix(0.581116,0.532565,-0.522888,0.570557,15004.7,-7846.72)">
                            <path d="M23964.1,10701.8L23963.1,10782.3L23910.8,10782.7L23911.9,10701.2L23964.1,10701.8Z" style="fill:none;stroke:rgb(179,179,179);stroke-width:2.12px;"/>
                        </g>
                        <g transform="matrix(0.581116,0.532565,-0.522888,0.570557,14950.1,-7792.15)">
                            <path d="M23967.1,10702.3L23966,10787.2L23913.8,10786.5L23914.8,10701.5L23967.1,10702.3Z" style="fill:none;stroke:rgb(179,179,179);stroke-width:2.12px;"/>
                        </g>
                        <g transform="matrix(0.581116,0.532565,-0.507143,0.553376,14883.7,-7714.04)">
                            <path d="M23964.8,10702.9L23963.2,10786.3L23911.6,10785.8L23911.9,10702.7L23964.8,10702.9Z" style="fill:none;stroke:rgb(179,179,179);stroke-width:2.15px;"/>
                        </g>
                        <g transform="matrix(0.581116,0.532565,-0.507143,0.553376,14922.5,-7678.37)">
                            <path d="M23967.9,10703.6L23966.7,10787.4L23914.6,10786.7L23915.4,10703.1L23967.9,10703.6Z" style="fill:none;stroke:rgb(179,179,179);stroke-width:2.15px;"/>
                        </g>
                        <g transform="matrix(0.581116,0.532565,-0.526135,0.5741,14994.1,-7927.22)">
                            <path d="M23970.4,10701.8L23969.1,10781.8L23917.2,10782.7L23918.2,10701L23970.4,10701.8Z" style="fill:none;stroke:rgb(179,179,179);stroke-width:2.11px;"/>
                        </g>
                        <g transform="matrix(0.581116,0.532565,-0.526135,0.5741,14939,-7872.18)">
                            <path d="M23973.6,10701.4L23972.2,10785.6L23920.1,10784.9L23921.4,10700.6L23973.6,10701.4Z" style="fill:none;stroke:rgb(179,179,179);stroke-width:2.11px;"/>
                        </g>
                        <g transform="matrix(0.707107,0.707107,-0.707107,0.707107,14371.6,-12914.6)">
                            <path d="M23293.6,10539C23299.3,10539 23303.9,10545.9 23303.9,10554.4C23303.9,10559.5 23294.4,10571.8 23291.8,10574.6C23290.1,10576.4 23287.3,10576.4 23285,10576.4C23279.3,10576.4 23283.2,10562.9 23283.2,10554.4C23283.2,10550.7 23276.5,10554.9 23278,10552.2C23279.9,10548.8 23290.4,10539 23293.6,10539Z" style="fill:white;stroke:rgb(179,179,179);stroke-width:3.33px;"/>
                        </g>
                        <g transform="matrix(0.865876,0.865876,-0.865876,0.865876,12350.6,-18287.6)">
                            <path d="M23288.9,10574.2C23292.5,10571.8 23298.6,10565.9 23298.6,10559.6C23298.6,10551.1 23291.3,10542.1 23286.4,10543.6C23280.2,10545.4 23278.9,10551.4 23277.8,10554.1C23283.3,10539.8 23290.4,10537.6 23295.1,10539.5C23299.7,10541.3 23304.3,10548.5 23303.9,10554.4C23303.5,10561.4 23297.1,10573.7 23288.9,10574.2Z" style="fill:white;stroke:rgb(179,179,179);stroke-width:1.35px;"/>
                        </g>
                        <g transform="matrix(1,0,0,1,40.7539,420.572)">
                            <g transform="matrix(0.707107,0.707107,-0.707107,0.707107,14292.9,-13373.2)">
                                <path d="M23293.6,10539C23299.3,10539 23303.9,10545.9 23303.9,10554.4C23303.9,10559.5 23294.4,10571.8 23291.8,10574.6C23290.1,10576.4 23287.3,10576.4 23285,10576.4C23279.3,10576.4 23283.2,10562.9 23283.2,10554.4C23283.2,10550.7 23276.5,10554.9 23278,10552.2C23279.9,10548.8 23290.4,10539 23293.6,10539Z" style="fill:white;stroke:rgb(179,179,179);stroke-width:3.33px;"/>
                            </g>
                            <g transform="matrix(0.865876,0.865876,-0.865876,0.865876,12271.8,-18746.2)">
                                <path d="M23288.9,10574.2C23292.5,10571.8 23298.6,10565.9 23298.6,10559.6C23298.6,10551.1 23291.3,10542.1 23286.4,10543.6C23280.2,10545.4 23278.9,10551.4 23277.8,10554.1C23283.3,10539.8 23290.4,10537.6 23295.1,10539.5C23299.7,10541.3 23304.3,10548.5 23303.9,10554.4C23303.5,10561.4 23297.1,10573.7 23288.9,10574.2Z" style="fill:white;stroke:rgb(179,179,179);stroke-width:1.35px;"/>
                            </g>
                            <g transform="matrix(0.707107,0.707107,-0.707107,0.707107,14281.5,-13373.2)">
                                <ellipse cx="23293.6" cy="10554.4" rx="10.35" ry="15.405" style="fill:white;stroke:rgb(179,179,179);stroke-width:3.33px;"/>
                            </g>
                        </g>
                        <g transform="matrix(1,0,0,1,-7.16451,468.822)">
                            <g transform="matrix(0.707107,0.707107,-0.707107,0.707107,14292.9,-13373.2)">
                                <path d="M23293.6,10539C23299.3,10539 23303.9,10545.9 23303.9,10554.4C23303.9,10559.5 23294.4,10571.8 23291.8,10574.6C23290.1,10576.4 23287.3,10576.4 23285,10576.4C23279.3,10576.4 23283.2,10562.9 23283.2,10554.4C23283.2,10550.7 23276.5,10554.9 23278,10552.2C23279.9,10548.8 23290.4,10539 23293.6,10539Z" style="fill:white;stroke:rgb(179,179,179);stroke-width:3.33px;"/>
                            </g>
                            <g transform="matrix(0.865876,0.865876,-0.865876,0.865876,12271.8,-18746.2)">
                                <path d="M23288.9,10574.2C23292.5,10571.8 23298.6,10565.9 23298.6,10559.6C23298.6,10551.1 23291.3,10542.1 23286.4,10543.6C23280.2,10545.4 23278.9,10551.4 23277.8,10554.1C23283.3,10539.8 23290.5,10537.5 23295.1,10539.5C23298.1,10540.8 23302.8,10545.7 23303.3,10553.7C23303.7,10560.7 23296,10573.3 23288.9,10574.2Z" style="fill:white;stroke:rgb(179,179,179);stroke-width:1.35px;"/>
                            </g>
                            <g transform="matrix(0.707107,0.707107,-0.707107,0.707107,14281.5,-13373.2)">
                                <ellipse cx="23293.6" cy="10554.4" rx="10.35" ry="15.405" style="fill:white;stroke:rgb(179,179,179);stroke-width:3.33px;"/>
                            </g>
                        </g>
                        <g transform="matrix(1,0,0,1,28.5064,502.837)">
                            <g transform="matrix(0.707107,0.707107,-0.707107,0.707107,14292.9,-13373.2)">
                                <path d="M23293.6,10539C23299.3,10539 23303.9,10545.9 23303.9,10554.4C23303.9,10559.5 23294.4,10571.8 23291.8,10574.6C23290.1,10576.4 23287.3,10576.4 23285,10576.4C23279.3,10576.4 23283.2,10562.9 23283.2,10554.4C23283.2,10550.7 23276.5,10554.9 23278,10552.2C23279.9,10548.8 23290.4,10539 23293.6,10539Z" style="fill:white;stroke:rgb(179,179,179);stroke-width:3.33px;"/>
                            </g>
                            <g transform="matrix(0.865876,0.865876,-0.865876,0.865876,12271.8,-18746.2)">
                                <path d="M23288.9,10574.2C23292.5,10571.8 23298.6,10565.9 23298.6,10559.6C23298.6,10551.1 23291.3,10542.1 23286.4,10543.6C23280.2,10545.4 23278.9,10551.4 23277.8,10554.1C23283.3,10539.8 23290.4,10537.6 23295.1,10539.5C23299.7,10541.3 23304.3,10548.5 23303.9,10554.4C23303.5,10561.4 23297.1,10573.7 23288.9,10574.2Z" style="fill:white;stroke:rgb(179,179,179);stroke-width:1.35px;"/>
                            </g>
                            <g transform="matrix(0.707107,0.707107,-0.707107,0.707107,14281.5,-13373.2)">
                                <ellipse cx="23293.6" cy="10554.4" rx="10.35" ry="15.405" style="fill:white;stroke:rgb(179,179,179);stroke-width:3.33px;"/>
                            </g>
                        </g>
                        <g transform="matrix(0.707107,0.707107,-0.707107,0.707107,14360.2,-12914.6)">
                            <ellipse cx="23293.6" cy="10554.4" rx="10.35" ry="15.405" style="fill:white;stroke:rgb(179,179,179);stroke-width:3.33px;"/>
                        </g>
                        <g transform="matrix(1,0,0,1,-47.9934,431.636)">
                            <g transform="matrix(0.707107,0.707107,-0.707107,0.707107,14292.9,-13373.2)">
                                <path d="M23293.6,10539C23299.3,10539 23303.9,10545.9 23303.9,10554.4C23303.9,10559.5 23294.4,10571.8 23291.8,10574.6C23290.1,10576.4 23287.3,10576.4 23285,10576.4C23279.3,10576.4 23283.2,10562.9 23283.2,10554.4C23283.2,10550.7 23276.5,10554.9 23278,10552.2C23279.9,10548.8 23290.4,10539 23293.6,10539Z" style="fill:white;stroke:rgb(179,179,179);stroke-width:3.33px;"/>
                            </g>
                            <g transform="matrix(0.865876,0.865876,-0.865876,0.865876,12271.8,-18746.2)">
                                <path d="M23288.9,10574.2C23292.5,10571.8 23298.6,10565.9 23298.6,10559.6C23298.6,10551.1 23291.3,10542.1 23286.4,10543.6C23280.2,10545.4 23278.9,10551.4 23277.8,10554.1C23283.3,10539.8 23290.4,10537.6 23295.1,10539.5C23299.7,10541.3 23304.3,10548.5 23303.9,10554.4C23303.5,10561.4 23297.1,10573.7 23288.9,10574.2Z" style="fill:white;stroke:rgb(179,179,179);stroke-width:1.35px;"/>
                            </g>
                            <g transform="matrix(0.707107,0.707107,-0.707107,0.707107,14281.5,-13373.2)">
                                <ellipse cx="23293.6" cy="10554.4" rx="10.35" ry="15.405" style="fill:white;stroke:rgb(179,179,179);stroke-width:3.33px;"/>
                            </g>
                        </g>
                        <g transform="matrix(1,0,0,1,-65.4019,522.965)">
                            <g transform="matrix(0.707107,0.707107,-0.707107,0.707107,14292.9,-13373.2)">
                                <path d="M23293.6,10539C23299.3,10539 23303.9,10545.9 23303.9,10554.4C23303.9,10559.5 23294.4,10571.8 23291.8,10574.6C23290.1,10576.4 23287.3,10576.4 23285,10576.4C23279.3,10576.4 23283.2,10562.9 23283.2,10554.4C23283.2,10550.7 23276.5,10554.9 23278,10552.2C23279.9,10548.8 23290.4,10539 23293.6,10539Z" style="fill:white;stroke:rgb(179,179,179);stroke-width:3.33px;"/>
                            </g>
                            <g transform="matrix(0.865876,0.865876,-0.865876,0.865876,12271.8,-18746.2)">
                                <path d="M23288.9,10574.2C23292.5,10571.8 23298.6,10565.9 23298.6,10559.6C23298.6,10551.1 23291.3,10542.1 23286.4,10543.6C23280.2,10545.4 23278.9,10551.4 23277.8,10554.1C23283.3,10539.8 23290.4,10537.6 23295.1,10539.5C23299.7,10541.3 23304.3,10548.5 23303.9,10554.4C23303.5,10561.4 23297.1,10573.7 23288.9,10574.2Z" style="fill:white;stroke:rgb(179,179,179);stroke-width:1.35px;"/>
                            </g>
                            <g transform="matrix(0.707107,0.707107,-0.707107,0.707107,14281.5,-13373.2)">
                                <ellipse cx="23293.6" cy="10554.4" rx="10.35" ry="15.405" style="fill:white;stroke:rgb(179,179,179);stroke-width:3.33px;"/>
                            </g>
                        </g>
                        <g transform="matrix(1,0,0,1,-98.8467,489.819)">
                            <g transform="matrix(0.707107,0.707107,-0.707107,0.707107,14292.9,-13373.2)">
                                <path d="M23293.6,10539C23299.3,10539 23303.9,10545.9 23303.9,10554.4C23303.9,10559.5 23294.4,10571.8 23291.8,10574.6C23290.1,10576.4 23287.3,10576.4 23285,10576.4C23279.3,10576.4 23283.2,10562.9 23283.2,10554.4C23283.2,10550.7 23276.5,10554.9 23278,10552.2C23279.9,10548.8 23290.4,10539 23293.6,10539Z" style="fill:white;stroke:rgb(179,179,179);stroke-width:3.33px;"/>
                            </g>
                            <g transform="matrix(0.865876,0.865876,-0.865876,0.865876,12271.8,-18746.2)">
                                <path d="M23288.9,10574.2C23292.5,10571.8 23298.6,10565.9 23298.6,10559.6C23298.6,10551.1 23291.3,10542.1 23286.4,10543.6C23280.2,10545.4 23278.9,10551.4 23277.8,10554.1C23283.3,10539.8 23290.4,10537.6 23295.1,10539.5C23299.7,10541.3 23304.3,10548.5 23303.9,10554.4C23303.5,10561.4 23297.1,10573.7 23288.9,10574.2Z" style="fill:white;stroke:rgb(179,179,179);stroke-width:1.35px;"/>
                            </g>
                            <g transform="matrix(0.707107,0.707107,-0.707107,0.707107,14281.5,-13373.2)">
                                <ellipse cx="23293.6" cy="10554.4" rx="10.35" ry="15.405" style="fill:white;stroke:rgb(179,179,179);stroke-width:3.33px;"/>
                            </g>
                        </g>
                    </g>
                    <g transform="matrix(0.581116,0.532565,-0.526135,0.5741,15045.2,-7974.17)">
                        <path d="M23964,10702.9L23962.8,10782.7L23910.8,10781.7L23912,10702.5L23964,10702.9Z" style="fill:none;stroke:rgb(179,179,179);stroke-width:2.11px;"/>
                    </g>
                </g>
                <g transform="matrix(0.311476,0.370393,-0.331841,0.458099,-3277.17,-13215.8)">
                    <path d="M23113.1,10473.1L23113.1,10685.3C23113.1,10690.9 23107.9,10695.5 23101.5,10695.5L22892.3,10695.5C22885.9,10695.5 22880.7,10690.9 22880.7,10685.3L22880.7,10473.1C22880.7,10467.6 22885.9,10463 22892.3,10463L23101.5,10463C23107.9,10463 23113.1,10467.6 23113.1,10473.1Z" style="fill:none;stroke:rgb(64,64,64);stroke-width:3.55px;"/>
                </g>
                <g transform="matrix(0.487805,0,0,0.625,-11287.9,-6583.82)">
                    <g>
                        <g transform="matrix(0.621405,0,0,0.621405,9103.98,4021.57)">
                            <g transform="matrix(1.12875,0.767687,-1.05287,1.54805,9184.31,-23069.1)">
                                <ellipse cx="22892.8" cy="10651.4" rx="33.223" ry="34.029" style="fill:rgb(255,215,3);stroke:rgb(115,115,115);stroke-width:1.63px;"/>
                            </g>
                            <g transform="matrix(0.491742,0.334446,-0.448228,0.659039,17317.4,-3684.62)">
                                <path d="M22826.7,10674.7C22815.6,10669.1 22808,10657.5 22808,10644.1C22808,10625.3 22822.9,10610.1 22841.3,10610.1C22843.6,10610.1 22845.9,10610.3 22848.1,10610.8C22860.9,10611.9 22880.3,10615.1 22890.5,10616.7C22894.3,10617.3 22891.5,10617.4 22892.8,10617.4C22911.2,10617.4 22926,10632.7 22926,10651.4C22926,10670.2 22911.2,10685.5 22892.8,10685.5C22880.7,10685.5 22842.3,10683.1 22826.7,10674.7Z" style="fill:rgb(64,64,64);stroke:rgb(38,38,38);stroke-width:3.79px;"/>
                            </g>
                            <g transform="matrix(0.690892,0.469893,-0.679827,0.999564,15186.5,-10444.3)">
                                <ellipse cx="22892.8" cy="10651.4" rx="33.223" ry="34.029" style="fill:rgb(250,51,51);stroke:rgb(210,4,4);stroke-width:2.56px;"/>
                            </g>
                            <g transform="matrix(0.690892,0.469893,-0.679827,0.999564,15181.5,-10449.4)">
                                <ellipse cx="22892.8" cy="10651.4" rx="33.223" ry="34.029" style="fill:rgb(250,51,51);stroke:rgb(210,4,4);stroke-width:2.56px;"/>
                            </g>
                        </g>
                        <g transform="matrix(0.400265,-0.581901,0.344111,0.239577,22026.3,12528.7)">
                            <g transform="matrix(0.809019,1.965,-1.16201,1.35164,3203.76,-525.926)">
                                <path d="M726.386,305.722L732.318,303.858L727.267,300.231L726.386,305.722Z" style="fill:rgb(64,64,64);"/>
                                <path d="M731.907,274.91L730.064,280.849L735.921,278.759L731.907,274.91Z" style="fill:rgb(64,64,64);"/>
                                <path d="M751.863,287.822L749.937,281.909L746.363,286.998L751.863,287.822Z" style="fill:rgb(64,64,64);"/>
                                <path d="M727.925,303.153C727.708,303.037 727.497,302.909 727.293,302.767C723.061,299.821 723.205,292.076 727.366,284.785M733.144,277.637C735.225,275.81 737.431,274.495 739.546,273.793C742.285,272.883 744.87,273.002 746.829,274.366C748.221,275.335 749.139,276.823 749.597,278.644M749.278,286.31C748.567,288.963 747.288,291.754 745.459,294.413C742.611,298.552 738.998,301.549 735.538,302.981" style="fill:none;stroke:rgb(64,64,64);stroke-width:0.83px;"/>
                            </g>
                        </g>
                    </g>
                </g>
            </g>
            <g transform="matrix(0.487805,0,0,0.625,-4200.24,-6866.33)">
                <g transform="matrix(1,-0,-0,1,8610.49,10986.1)">
                    <path d="M565.613,268.543L590.613,287.293L565.613,306.043L565.613,268.543Z" style="fill:rgb(64,64,64);"/>
                    <path d="M524.243,287.293L570.613,287.293" style="fill:none;stroke:rgb(64,64,64);stroke-width:8.33px;"/>
                </g>
            </g>
        </g>
    </g>
</svg>
