<?xml version="1.0" encoding="UTF-8" standalone="no"?>
<!DOCTYPE svg PUBLIC "-//W3C//DTD SVG 1.1//EN" "http://www.w3.org/Graphics/SVG/1.1/DTD/svg11.dtd">
<svg width="100%" height="100%" viewBox="0 0 1453 473" version="1.1" xmlns="http://www.w3.org/2000/svg" xmlns:xlink="http://www.w3.org/1999/xlink" xml:space="preserve" xmlns:serif="http://www.serif.com/" style="fill-rule:evenodd;clip-rule:evenodd;stroke-linejoin:round;stroke-miterlimit:10;">
    <g transform="matrix(1,0,0,1,-8672.78,-9234.65)">
        <g id="Artboard4" transform="matrix(2.05,0,0,1.6,8672.78,9234.65)">
            <rect x="0" y="0" width="708.661" height="295.276" style="fill:none;"/>
            <g transform="matrix(1,0,0,1,-93.1193,-0.882909)">
                <g transform="matrix(0.481989,0,0,0.684878,-3580.17,-1096.05)">
                    <g transform="matrix(0.471034,0,0,0.451577,-4691.69,-9110.16)">
                        <path d="M26911,24156.5L26911,24578.2L26406,24578.2L26406,23917.5L26911,23917.5L26911,23917.7C26913,23917.2 26915.1,23916.9 26917.2,23916.9L27053.6,23916.9C27068.2,23916.9 27080.1,23929.3 27080.1,23944.6L27080.1,24129.6C27080.1,24144.9 27068.2,24157.3 27053.6,24157.3L26917.2,24157.3C26915.1,24157.3 26913,24157 26911,24156.5Z" style="fill:rgb(254,255,254);stroke:rgb(128,128,128);stroke-width:7.34px;"/>
                    </g>
                    <g id="path2836" transform="matrix(1.32953,1.87253e-17,-1.87253e-17,-1.17663,7531.22,2217.92)">
                        <path d="M187.282,305.953L182.539,311.981L172.757,311.917L172.757,302.834L167.387,302.834L166.74,305.685L166.223,308.609L165.964,311.46L165.835,314.458L165.964,317.382L166.223,320.379L166.74,323.45L167.387,326.52L172.757,326.52L172.757,318.287L182.539,318.223L187.282,322.217L210.3,322.217L210.3,305.953L187.282,305.953Z" style="fill:white;stroke:rgb(128,128,128);stroke-width:2.71px;stroke-miterlimit:2;"/>
                    </g>
                    <g transform="matrix(0.476334,0.126551,-0.0304643,0.10833,-4087.36,-4074.88)">
                        <rect x="26318.1" y="24237.7" width="315.175" height="79.714" style="fill:rgb(254,255,254);"/>
                    </g>
                    <g transform="matrix(0.476334,0.126551,-0.0304643,0.10833,-4087.36,-4074.88)">
                        <path d="M26636.6,24237.9L26636.6,24317.6C26636.6,24325.7 26635.1,24332.2 26633.3,24332.2L26318.1,24332.2C26317.2,24332.2 26316.3,24330.6 26315.7,24327.8C26315.1,24325 26314.7,24321.1 26314.7,24317.2L26314.7,24237.5C26314.7,24229.4 26316.2,24222.9 26318,24222.9L26633.2,24222.9C26634.1,24222.9 26635,24224.5 26635.6,24227.3C26636.3,24230.1 26636.6,24233.9 26636.6,24237.9ZM26629.9,24252.5L26321.5,24252.5L26321.5,24302.6L26629.9,24302.6L26629.9,24252.5Z" style="fill:rgb(128,128,128);"/>
                    </g>
                    <g transform="matrix(0.689897,0,0,0.272402,-10431.4,-4702.85)">
                        <rect x="26260.4" y="24404.5" width="596.013" height="55.186" style="fill:rgb(254,255,254);"/>
                    </g>
                    <g transform="matrix(0.689897,0,0,0.272402,-10431.4,-4702.85)">
                        <path d="M26858.9,24404.5L26858.9,24459.6C26858.9,24463 26857.8,24465.8 26856.4,24465.8L26260.4,24465.8C26259.1,24465.8 26258,24463 26258,24459.6L26258,24404.5C26258,24401.1 26259.1,24398.3 26260.4,24398.3L26856.4,24398.3C26857.8,24398.3 26858.9,24401.1 26858.9,24404.5ZM26854,24410.6L26262.9,24410.6L26262.9,24453.5L26854,24453.5L26854,24410.6Z" style="fill:rgb(128,128,128);"/>
                    </g>
                    <g transform="matrix(0.488761,0,0,0.476881,-5162.44,-9706.06)">
                        <rect x="26271.5" y="23898" width="127.542" height="213.387" style="fill:none;stroke:rgb(128,128,128);stroke-width:7.01px;"/>
                    </g>
                    <g transform="matrix(0.488761,0,0,0.476881,-5152.8,-9706.06)">
                        <path d="M26321.8,24111.4C26321.8,24111.4 26305.3,24175.5 26380.5,24174.4C26504.6,24172.6 26544.8,24214.4 26536.2,24229.1" style="fill:none;stroke:rgb(128,128,128);stroke-width:7.01px;"/>
                    </g>
                    <g transform="matrix(0.488761,0,0,0.476881,-5156.54,-9708.12)">
                        <rect x="26872.5" y="24355.7" width="127.427" height="137.008" style="fill:rgb(254,255,254);stroke:rgb(128,128,128);stroke-width:7.01px;"/>
                    </g>
                    <g transform="matrix(0.614054,0,0,0.614054,-3855.2,-18380.6)">
                        <path d="M19138,32991.9L19109.9,32991.9L19109.9,32978L19138,32978L19138,32955.2L19126.1,32955.2L19126.1,32938.5L19138,32938.5L19138,32926.1L19145.7,32926.1L19145.7,32938.5L19156.6,32938.5L19156.6,32930.9C19156.6,32923.9 19162.3,32918.2 19169.3,32918.2L19231.6,32918.2C19238.7,32918.2 19244.4,32923.9 19244.4,32930.9L19244.4,32956.4C19244.4,32963.4 19238.7,32969.1 19231.6,32969.1L19169.3,32969.1C19162.3,32969.1 19156.6,32963.4 19156.6,32956.4L19156.6,32955.2L19145.7,32955.2L19145.7,32978L19233.9,32978L19233.9,32991.9L19145.7,32991.9L19145.7,33002.3L19149.4,33002.3L19149.4,33015.5L19134.3,33015.5L19134.3,33002.3L19138,33002.3L19138,32991.9Z" style="fill:none;stroke:rgb(128,128,128);stroke-width:5.5px;"/>
                    </g>
                    <g transform="matrix(0.833005,0,0,1.28133,491.892,2480.83)">
                        <path d="M8783.47,-503.985L8777.13,-503.985L8777.13,-513.843L8783.47,-513.843L8783.47,-532.487L8793.32,-532.487L8793.32,-513.843L8799.66,-513.843L8799.66,-503.985L8793.32,-503.985L8793.32,-469.69L8799.66,-469.69L8799.66,-459.832L8793.32,-459.832L8793.32,-450.879L8789.48,-450.879L8789.48,-442.265L8787.31,-442.265L8787.31,-450.879L8783.47,-450.879L8783.47,-459.832L8777.13,-459.832L8777.13,-469.69L8783.47,-469.69L8783.47,-503.985Z" style="fill:white;stroke:rgb(128,128,128);stroke-width:3.06px;stroke-miterlimit:1.5;"/>
                    </g>
                </g>
                <g transform="matrix(0.355519,0.107931,0.0842391,0.55627,-3394.5,-8222.56)">
                    <path d="M7280.71,13695.3L7117.99,13799" style="fill:none;stroke:black;stroke-width:3.95px;stroke-miterlimit:1.5;"/>
                </g>
                <g transform="matrix(0.576144,0,0,0.750991,-13505,-20484.4)">
                    <g>
                        <g transform="matrix(1.16895,0,0,1.16895,20245.8,26222.9)">
                            <path d="M3474.37,943.946L3474.37,1194.28C3474.37,1198.27 3471.08,1201.5 3467.02,1201.5L3236.68,1201.5C3232.62,1201.5 3229.33,1198.27 3229.33,1194.28L3229.33,943.946C3229.33,939.958 3232.62,936.72 3236.68,936.72L3467.02,936.72C3471.08,936.72 3474.37,939.958 3474.37,943.946Z" style="fill:white;stroke:black;stroke-width:2.09px;stroke-miterlimit:1.5;"/>
                        </g>
                        <g transform="matrix(0.184539,0,0,0.152866,23195.1,27057.9)">
                            <g transform="matrix(6.68386,0,0,8.10748,-17173.4,-5992.23)">
                                <circle cx="3420.02" cy="1141.73" r="39" style="fill:rgb(255,215,3);"/>
                            </g>
                            <g transform="matrix(-1.1734,5.4566,-4.45945,-1.35178,14790,-13853.9)">
                                <path d="M3390.68,1167.95L3392.42,1169.44L3391.59,1171.85L3394.75,1174.56L3396.93,1173.3L3398.63,1174.76L3388.83,1180.12L3387.14,1178.67L3390.68,1167.95ZM3390.97,1173.64L3389.57,1177.55L3393.13,1175.49L3390.97,1173.64Z" style="fill-rule:nonzero;"/>
                            </g>
                            <g transform="matrix(-1.1734,5.4566,-4.45945,-1.35178,14790,-13853.9)">
                                <path d="M3389.63,1166.62L3380.9,1172.31L3378.51,1168.55C3377.91,1167.61 3377.55,1166.87 3377.44,1166.34C3377.32,1165.82 3377.38,1165.29 3377.62,1164.77C3377.86,1164.26 3378.23,1163.83 3378.75,1163.49C3379.4,1163.06 3380.07,1162.91 3380.74,1163.02C3381.42,1163.13 3382.06,1163.54 3382.66,1164.24C3382.64,1163.71 3382.68,1163.23 3382.79,1162.81C3382.89,1162.38 3383.15,1161.74 3383.56,1160.87L3384.57,1158.68L3385.93,1160.81L3384.85,1163.34C3384.47,1164.24 3384.24,1164.83 3384.17,1165.11C3384.1,1165.4 3384.09,1165.65 3384.15,1165.89C3384.2,1166.12 3384.36,1166.44 3384.62,1166.85L3384.85,1167.21L3388.49,1164.84L3389.63,1166.62ZM3383.46,1168.12L3382.62,1166.8C3382.07,1165.94 3381.7,1165.43 3381.49,1165.27C3381.28,1165.1 3381.05,1165.01 3380.8,1165.01C3380.55,1165 3380.29,1165.08 3380.03,1165.25C3379.74,1165.44 3379.55,1165.68 3379.47,1165.95C3379.39,1166.23 3379.42,1166.53 3379.56,1166.85C3379.63,1167.01 3379.9,1167.45 3380.36,1168.17L3381.24,1169.56L3383.46,1168.12Z" style="fill-rule:nonzero;"/>
                            </g>
                            <g transform="matrix(-1.1734,5.4566,-4.45945,-1.35178,14790,-13853.9)">
                                <path d="M3383.86,1157.11L3373.89,1160.06L3372.65,1155.78C3372.34,1154.7 3372.21,1153.89 3372.24,1153.35C3372.28,1152.81 3372.49,1152.32 3372.86,1151.89C3373.23,1151.46 3373.71,1151.16 3374.3,1150.99C3375.05,1150.77 3375.73,1150.81 3376.35,1151.11C3376.96,1151.41 3377.46,1151.98 3377.85,1152.83C3377.97,1152.31 3378.14,1151.87 3378.37,1151.49C3378.59,1151.12 3379.01,1150.57 3379.65,1149.85L3381.24,1148.05L3381.94,1150.48L3380.2,1152.6C3379.57,1153.35 3379.19,1153.85 3379.04,1154.1C3378.9,1154.35 3378.82,1154.6 3378.81,1154.84C3378.79,1155.07 3378.86,1155.42 3378.99,1155.89L3379.11,1156.31L3383.27,1155.07L3383.86,1157.11ZM3377.52,1156.78L3377.08,1155.27C3376.8,1154.29 3376.58,1153.7 3376.43,1153.48C3376.28,1153.26 3376.08,1153.11 3375.85,1153.03C3375.61,1152.95 3375.34,1152.96 3375.04,1153.05C3374.7,1153.15 3374.46,1153.32 3374.3,1153.56C3374.15,1153.8 3374.09,1154.1 3374.14,1154.44C3374.16,1154.61 3374.29,1155.11 3374.53,1155.94L3374.99,1157.53L3377.52,1156.78Z" style="fill-rule:nonzero;"/>
                            </g>
                            <g transform="matrix(-1.1734,5.4566,-4.45945,-1.35178,14790,-13853.9)">
                                <path d="M3381.08,1146.33L3370.7,1146.49L3370.58,1138.7L3372.34,1138.67L3372.42,1144.34L3374.73,1144.3L3374.65,1139.03L3376.39,1139L3376.47,1144.28L3379.3,1144.23L3379.21,1138.37L3380.96,1138.34L3381.08,1146.33ZM3370.09,1145.15L3367.97,1143.68L3367.95,1141.81L3370.01,1140.3L3370.04,1141.92L3368.99,1142.76L3370.06,1143.52L3370.09,1145.15Z" style="fill-rule:nonzero;"/>
                            </g>
                            <g transform="matrix(-1.1734,5.4566,-4.45945,-1.35178,14790,-13853.9)">
                                <path d="M3381.83,1133.72L3373.44,1131.68L3372.72,1134.71L3371.01,1134.3L3372.94,1126.18L3374.65,1126.6L3373.93,1129.62L3382.32,1131.66L3381.83,1133.72Z" style="fill-rule:nonzero;"/>
                            </g>
                            <g transform="matrix(4.38326,1.30549,-1.13634,5.35902,-8107.71,-9945.35)">
                                <path d="M3530.98,1628.37L3534.06,1630.81C3534.76,1631.36 3535.24,1631.83 3535.52,1632.23C3535.9,1632.76 3536.11,1633.34 3536.17,1633.99C3536.22,1634.63 3536.13,1635.28 3535.88,1635.95C3535.64,1636.63 3535.2,1637.35 3534.58,1638.12C3534.03,1638.81 3533.47,1639.32 3532.9,1639.68C3532.2,1640.12 3531.51,1640.37 3530.82,1640.43C3530.3,1640.48 3529.73,1640.39 3529.11,1640.15C3528.64,1639.98 3528.1,1639.64 3527.47,1639.15L3524.3,1636.64L3530.98,1628.37ZM3531.53,1631.11L3527.11,1636.58L3528.37,1637.58C3528.84,1637.95 3529.2,1638.19 3529.45,1638.3C3529.78,1638.45 3530.1,1638.52 3530.41,1638.5C3530.72,1638.48 3531.09,1638.33 3531.5,1638.05C3531.91,1637.77 3532.38,1637.31 3532.89,1636.67C3533.41,1636.03 3533.75,1635.5 3533.91,1635.07C3534.07,1634.63 3534.13,1634.24 3534.08,1633.89C3534.03,1633.53 3533.87,1633.2 3533.61,1632.88C3533.42,1632.64 3532.98,1632.25 3532.29,1631.7L3531.53,1631.11Z" style="fill-rule:nonzero;"/>
                            </g>
                            <g transform="matrix(4.38326,1.30549,-1.13634,5.35902,-8107.71,-9945.35)">
                                <path d="M3538.36,1638.26L3538.97,1636.35L3539.83,1634.78L3541.79,1635.83L3540.93,1637.4L3539.68,1638.98L3538.36,1638.26Z" style="fill-rule:nonzero;"/>
                            </g>
                            <g transform="matrix(4.38326,1.30549,-1.13634,5.35902,-8107.71,-9945.35)">
                                <path d="M3543.79,1636.99L3545.85,1637.65L3544.05,1643.1C3543.77,1643.97 3543.61,1644.53 3543.58,1644.81C3543.53,1645.25 3543.63,1645.64 3543.88,1646C3544.12,1646.36 3544.54,1646.63 3545.11,1646.81C3545.69,1647 3546.17,1647.02 3546.54,1646.88C3546.92,1646.74 3547.19,1646.51 3547.36,1646.19C3547.54,1645.86 3547.75,1645.3 3548.02,1644.51L3549.85,1638.94L3551.9,1639.6L3550.16,1644.89C3549.76,1646.1 3549.43,1646.93 3549.15,1647.39C3548.88,1647.86 3548.53,1648.21 3548.12,1648.46C3547.71,1648.71 3547.22,1648.85 3546.66,1648.89C3546.09,1648.94 3545.4,1648.83 3544.6,1648.57C3543.63,1648.26 3542.93,1647.91 3542.5,1647.52C3542.07,1647.14 3541.77,1646.72 3541.6,1646.28C3541.42,1645.83 3541.35,1645.39 3541.39,1644.97C3541.44,1644.36 3541.66,1643.48 3542.03,1642.36L3543.79,1636.99Z" style="fill-rule:nonzero;"/>
                            </g>
                            <g transform="matrix(4.38326,1.30549,-1.13634,5.35902,-8107.71,-9945.35)">
                                <path d="M3553.59,1650.64L3554.1,1640.07L3558.64,1640.28C3559.78,1640.34 3560.6,1640.47 3561.11,1640.68C3561.62,1640.9 3562.02,1641.26 3562.31,1641.76C3562.59,1642.26 3562.72,1642.82 3562.69,1643.44C3562.65,1644.24 3562.39,1644.88 3561.89,1645.37C3561.39,1645.87 3560.68,1646.16 3559.73,1646.25C3560.18,1646.54 3560.56,1646.86 3560.84,1647.19C3561.13,1647.53 3561.51,1648.12 3561.99,1648.97L3563.2,1651.09L3560.62,1650.97L3559.17,1648.6C3558.65,1647.75 3558.3,1647.21 3558.1,1646.99C3557.91,1646.77 3557.7,1646.61 3557.48,1646.52C3557.25,1646.43 3556.89,1646.37 3556.4,1646.35L3555.96,1646.33L3555.75,1650.74L3553.59,1650.64ZM3556.04,1644.64L3557.64,1644.72C3558.67,1644.76 3559.32,1644.75 3559.58,1644.68C3559.84,1644.6 3560.05,1644.46 3560.21,1644.26C3560.36,1644.05 3560.45,1643.79 3560.46,1643.48C3560.48,1643.12 3560.4,1642.83 3560.22,1642.6C3560.03,1642.37 3559.77,1642.22 3559.42,1642.15C3559.25,1642.12 3558.73,1642.08 3557.85,1642.04L3556.17,1641.96L3556.04,1644.64Z" style="fill-rule:nonzero;"/>
                            </g>
                            <g transform="matrix(4.38326,1.30549,-1.13634,5.35902,-8107.71,-9945.35)">
                                <path d="M3571.22,1645.96L3570.85,1644.22L3575.41,1643.28L3576.27,1647.41C3575.92,1647.93 3575.35,1648.43 3574.58,1648.93C3573.81,1649.42 3572.99,1649.76 3572.13,1649.93C3571.03,1650.16 3570.03,1650.12 3569.12,1649.84C3568.21,1649.55 3567.46,1649.02 3566.88,1648.26C3566.29,1647.5 3565.89,1646.62 3565.69,1645.63C3565.46,1644.55 3565.49,1643.54 3565.77,1642.61C3566.05,1641.68 3566.59,1640.9 3567.38,1640.27C3567.98,1639.79 3568.78,1639.44 3569.78,1639.24C3571.08,1638.97 3572.15,1639.04 3572.99,1639.43C3573.84,1639.82 3574.46,1640.47 3574.87,1641.38L3572.85,1642.19C3572.6,1641.71 3572.24,1641.37 3571.77,1641.16C3571.3,1640.95 3570.76,1640.9 3570.15,1641.03C3569.23,1641.22 3568.55,1641.66 3568.13,1642.35C3567.7,1643.04 3567.61,1643.95 3567.85,1645.1C3568.11,1646.33 3568.57,1647.19 3569.26,1647.69C3569.94,1648.19 3570.72,1648.36 3571.62,1648.17C3572.06,1648.08 3572.49,1647.9 3572.9,1647.64C3573.31,1647.38 3573.65,1647.09 3573.91,1646.78L3573.64,1645.47L3571.22,1645.96Z" style="fill-rule:nonzero;"/>
                            </g>
                            <g transform="matrix(4.38326,1.30549,-1.13634,5.35902,-8107.71,-9945.35)">
                                <path d="M3581.06,1647.16L3576.25,1637.71L3583.34,1634.19L3584.15,1635.79L3578.99,1638.35L3580.06,1640.45L3584.86,1638.06L3585.66,1639.65L3580.87,1642.04L3582.18,1644.61L3587.51,1641.95L3588.32,1643.55L3581.06,1647.16Z" style="fill-rule:nonzero;"/>
                            </g>
                            <g transform="matrix(4.38326,1.30549,-1.13634,5.35902,-8107.71,-9945.35)">
                                <path d="M3592.22,1641.01L3585.26,1632.97L3586.86,1631.62L3594.83,1634.17L3590.18,1628.8L3591.71,1627.51L3598.66,1635.55L3597.02,1636.94L3589.21,1634.47L3593.74,1639.71L3592.22,1641.01Z" style="fill-rule:nonzero;"/>
                            </g>
                            <g transform="matrix(4.38326,1.30549,-1.13634,5.35902,-8107.71,-9945.35)">
                                <path d="M3602.79,1624.06L3604.53,1622.75C3605.31,1623.67 3605.71,1624.6 3605.74,1625.52C3605.78,1626.45 3605.46,1627.38 3604.8,1628.31C3603.99,1629.45 3602.92,1630.12 3601.6,1630.31C3600.28,1630.5 3598.93,1630.12 3597.56,1629.16C3596.1,1628.15 3595.23,1626.99 3594.95,1625.68C3594.68,1624.38 3594.97,1623.12 3595.83,1621.91C3596.58,1620.85 3597.51,1620.21 3598.61,1619.99C3599.27,1619.85 3600.01,1619.93 3600.85,1620.22L3600.04,1622.24C3599.52,1622.03 3599.01,1621.99 3598.51,1622.14C3598.02,1622.28 3597.61,1622.58 3597.28,1623.05C3596.82,1623.69 3596.68,1624.37 3596.87,1625.09C3597.05,1625.82 3597.66,1626.54 3598.7,1627.27C3599.81,1628.04 3600.74,1628.39 3601.49,1628.32C3602.24,1628.25 3602.83,1627.9 3603.28,1627.27C3603.61,1626.81 3603.74,1626.31 3603.68,1625.76C3603.62,1625.22 3603.33,1624.65 3602.79,1624.06Z" style="fill-rule:nonzero;"/>
                            </g>
                            <g transform="matrix(4.38326,1.30549,-1.13634,5.35902,-8107.71,-9945.35)">
                                <path d="M3609.34,1620.5L3599.35,1616.72L3602.18,1609.39L3603.87,1610.03L3601.81,1615.36L3604.02,1616.2L3605.94,1611.24L3607.63,1611.88L3605.71,1616.84L3608.42,1617.87L3610.56,1612.35L3612.24,1612.99L3609.34,1620.5Z" style="fill-rule:nonzero;"/>
                            </g>
                            <g transform="matrix(3.8353,-0.78667,0.648537,4.65219,-8171.76,643.211)">
                                <circle cx="3420.02" cy="1141.73" r="39" style="fill:rgb(250,51,51);"/>
                            </g>
                            <g transform="matrix(3.91189,-0.802381,0.657318,4.71518,-8730.88,-143.989)">
                                <path d="M3440.41,1317.78C3440.03,1316.06 3439.83,1314.27 3439.83,1312.43C3439.83,1299.89 3449.14,1289.5 3461.21,1287.79L3461.36,1288.76C3449.76,1290.41 3440.83,1300.39 3440.83,1312.44C3440.83,1314.15 3441.01,1315.82 3441.35,1317.42L3443.79,1316.49L3443.13,1323.79L3437.63,1318.85L3440.41,1317.78ZM3474.55,1289.55C3478.39,1291.21 3481.74,1293.8 3484.3,1297.05C3487.64,1301.29 3489.63,1306.63 3489.63,1312.44C3489.63,1316.57 3488.63,1320.46 3486.85,1323.88L3485.96,1323.43C3487.68,1320.14 3488.64,1316.4 3488.64,1312.43C3488.64,1306.86 3486.73,1301.72 3483.52,1297.65C3481.1,1294.58 3477.94,1292.11 3474.31,1290.52L3473.68,1293.04L3468.04,1288.26L3475.26,1286.68L3474.55,1289.55ZM3477.53,1332.63L3475.76,1330.7L3482.89,1328.74L3480.22,1335.57L3478.21,1333.37C3474.33,1335.88 3469.7,1337.33 3464.74,1337.33C3457.48,1337.33 3450.94,1334.22 3446.39,1329.26L3447.12,1328.6C3451.49,1333.36 3457.76,1336.35 3464.73,1336.35C3469.44,1336.35 3473.83,1334.98 3477.53,1332.63Z" style="fill:rgb(51,51,51);"/>
                            </g>
                        </g>
                        <g transform="matrix(1.16895,0,0,1.16895,23817.9,27287.2)">
                            <g transform="matrix(1,0,0,1,-3055.82,-919.156)">
                                <rect x="3259.03" y="1038.65" width="44.536" height="59.824" style="fill:white;stroke:black;stroke-width:0.6px;stroke-miterlimit:1.5;"/>
                            </g>
                            <g transform="matrix(0.0754422,0,0,0.0741557,-1616.52,-2344.44)">
                                <path d="M24240.4,33403.5L24240.4,33330.6L24252.3,33330.6L24266.5,33382.2L24269.3,33393C24270,33390.3 24271.1,33386.4 24272.5,33381.3L24286.8,33330.6L24297.5,33330.6L24297.5,33403.5L24289.9,33403.5L24289.9,33342.5L24272.5,33403.5L24265.3,33403.5L24248,33341.5L24248,33403.5L24240.4,33403.5Z" style="fill-rule:nonzero;"/>
                                <path d="M24303.7,33403.5L24326.7,33330.6L24335.2,33330.6L24359.7,33403.5L24350.6,33403.5L24343.6,33381.4L24318.7,33381.4L24312.1,33403.5L24303.7,33403.5ZM24321,33373.6L24341.2,33373.6L24335,33353.4C24333.1,33347.2 24331.7,33342.1 24330.8,33338.2C24330,33342.9 24328.9,33347.6 24327.5,33352.2L24321,33373.6Z" style="fill-rule:nonzero;"/>
                                <path d="M24365.9,33403.5L24365.9,33330.6L24392.4,33330.6C24398,33330.6 24402.1,33331.3 24404.7,33332.6C24407.3,33334 24409.5,33336.2 24411.2,33339.4C24412.9,33342.6 24413.7,33346.2 24413.7,33350.4C24413.7,33355.9 24412.3,33360.4 24409.4,33363.8C24406.6,33367.2 24402.4,33369.4 24396.9,33370.3C24399.1,33371.6 24400.8,33373 24402,33374.4C24404.3,33377.2 24406.4,33380.3 24408.2,33383.7L24418.7,33403.5L24408.7,33403.5L24400.7,33388.3C24397.7,33382.4 24395.3,33378.4 24393.8,33376.3C24392.2,33374.3 24390.7,33372.9 24389.2,33372.2C24387.7,33371.5 24385.6,33371.1 24383,33371.1L24373.8,33371.1L24373.8,33403.5L24365.9,33403.5ZM24373.8,33362.8L24390.9,33362.8C24394.6,33362.8 24397.4,33362.3 24399.3,33361.4C24401.2,33360.5 24402.8,33359.1 24403.9,33357.2C24405,33355.3 24405.6,33353 24405.6,33350.5C24405.6,33346.8 24404.5,33343.9 24402.3,33341.8C24400.2,33339.7 24397,33338.6 24392.7,33338.6L24373.8,33338.6L24373.8,33362.8Z" style="fill-rule:nonzero;"/>
                                <path d="M24468.7,33377.9L24476.7,33380.4C24474.9,33388.6 24471.8,33394.7 24467.4,33398.7C24463,33402.7 24457.7,33404.8 24451.4,33404.8C24445.9,33404.8 24441.1,33403.4 24437.2,33400.7C24433.3,33398 24430,33393.7 24427.5,33387.7C24425,33381.7 24423.8,33374.7 24423.8,33366.5C24423.8,33358.5 24425,33351.7 24427.5,33346.1C24430,33340.6 24433.4,33336.4 24437.7,33333.6C24442,33330.7 24446.8,33329.3 24452,33329.3C24457.8,33329.3 24462.8,33331.1 24466.9,33334.7C24471.1,33338.3 24474,33343.5 24475.6,33350.5L24467.9,33352.7C24465.2,33342.6 24459.9,33337.6 24451.9,33337.6C24447.9,33337.6 24444.5,33338.6 24441.5,33340.6C24438.6,33342.7 24436.3,33345.8 24434.6,33350.2C24432.8,33354.5 24431.9,33359.9 24431.9,33366.5C24431.9,33376.5 24433.7,33384 24437.2,33389C24440.7,33394 24445.4,33396.5 24451.2,33396.5C24455.6,33396.5 24459.3,33395 24462.4,33391.9C24465.5,33388.8 24467.6,33384.2 24468.7,33377.9Z" style="fill-rule:nonzero;"/>
                                <path d="M24486.5,33403.5L24486.5,33330.6L24494.4,33330.6L24494.4,33360.5L24525.5,33360.5L24525.5,33330.6L24533.4,33330.6L24533.4,33403.5L24525.5,33403.5L24525.5,33369.1L24494.4,33369.1L24494.4,33403.5L24486.5,33403.5Z" style="fill-rule:nonzero;"/>
                                <path d="M24547,33403.5L24547,33330.6L24590.2,33330.6L24590.2,33339.2L24554.9,33339.2L24554.9,33361.5L24588,33361.5L24588,33370.1L24554.9,33370.1L24554.9,33394.9L24591.6,33394.9L24591.6,33403.5L24547,33403.5Z" style="fill-rule:nonzero;"/>
                            </g>
                            <g transform="matrix(1,0,0,1,0,6)">
                                <g>
                                    <g transform="matrix(1,0,0,1,-3052.89,-922.535)">
                                        <circle cx="3278.36" cy="1071.94" r="20.772" style="fill:white;stroke:black;stroke-width:0.6px;stroke-miterlimit:1.5;"/>
                                    </g>
                                    <g transform="matrix(0.857838,0,0,0.857838,-2586.78,-770.036)">
                                        <circle cx="3278.36" cy="1071.94" r="20.772" style="fill:white;stroke:black;stroke-width:0.7px;stroke-miterlimit:1.5;"/>
                                    </g>
                                </g>
                            </g>
                        </g>
                        <g transform="matrix(1.16895,0,0,1.16895,23817.9,27195.4)">
                            <g transform="matrix(1,0,0,1,-3055.82,-919.156)">
                                <rect x="3259.03" y="1038.65" width="44.536" height="59.824" style="fill:white;stroke:black;stroke-width:0.6px;stroke-miterlimit:1.5;"/>
                            </g>
                            <g transform="matrix(0.0754422,0,0,0.0741557,-1615.94,-2351.07)">
                                <path d="M24368.5,33403.5L24368.5,33330.6L24411.7,33330.6L24411.7,33339.2L24376.4,33339.2L24376.4,33361.5L24409.5,33361.5L24409.5,33370.1L24376.4,33370.1L24376.4,33394.9L24413.1,33394.9L24413.1,33403.5L24368.5,33403.5Z" style="fill-rule:nonzero;"/>
                                <path d="M24423.8,33403.5L24423.8,33330.6L24431.9,33330.6L24463.3,33388L24463.3,33330.6L24470.9,33330.6L24470.9,33403.5L24462.8,33403.5L24431.4,33346.1L24431.4,33403.5L24423.8,33403.5Z" style="fill-rule:nonzero;"/>
                                <path d="M24241,33481.9L24248.5,33481.1C24248.9,33485.1 24249.8,33488.3 24251.2,33490.5C24252.6,33492.7 24254.6,33494.5 24257.2,33495.9C24259.8,33497.3 24262.8,33497.9 24266.1,33497.9C24270.8,33497.9 24274.5,33496.8 24277.1,33494.5C24279.7,33492.2 24281,33489.2 24281,33485.5C24281,33483.4 24280.5,33481.5 24279.5,33479.9C24278.6,33478.3 24277.2,33477 24275.3,33475.9C24273.4,33474.9 24269.2,33473.5 24262.9,33471.6C24257.3,33469.9 24253.2,33468.2 24250.9,33466.5C24248.5,33464.9 24246.6,33462.7 24245.3,33460.1C24244,33457.5 24243.3,33454.6 24243.3,33451.3C24243.3,33445.4 24245.2,33440.5 24249,33436.8C24252.8,33433.1 24258,33431.2 24264.4,33431.2C24268.9,33431.2 24272.8,33432.1 24276.1,33433.8C24279.4,33435.6 24282,33438.1 24283.9,33441.4C24285.7,33444.7 24286.7,33448.5 24286.8,33453L24279.2,33453.7C24278.8,33448.9 24277.4,33445.4 24275,33443.1C24272.5,33440.8 24269.1,33439.7 24264.7,33439.7C24260.2,33439.7 24256.8,33440.7 24254.4,33442.7C24252.1,33444.7 24250.9,33447.3 24250.9,33450.5C24250.9,33453.4 24251.8,33455.7 24253.5,33457.3C24255.2,33459 24259.1,33460.6 24265.1,33462.3C24271,33463.9 24275.2,33465.4 24277.6,33466.6C24281.2,33468.4 24284,33470.9 24285.8,33473.9C24287.7,33476.9 24288.6,33480.6 24288.6,33484.8C24288.6,33488.9 24287.6,33492.7 24285.7,33496.1C24283.7,33499.6 24281.1,33502.2 24277.7,33504C24274.3,33505.8 24270.3,33506.6 24265.5,33506.6C24258.1,33506.6 24252.2,33504.4 24247.9,33500C24243.5,33495.5 24241.2,33489.5 24241,33481.9Z" style="fill-rule:nonzero;"/>
                                <path d="M24299.6,33505.4L24299.6,33432.5L24342.8,33432.5L24342.8,33441.1L24307.5,33441.1L24307.5,33463.4L24340.6,33463.4L24340.6,33472L24307.5,33472L24307.5,33496.8L24344.2,33496.8L24344.2,33505.4L24299.6,33505.4Z" style="fill-rule:nonzero;"/>
                                <path d="M24355.1,33505.4L24355.1,33432.5L24381.6,33432.5C24387.1,33432.5 24391.2,33433.2 24393.9,33434.5C24396.5,33435.9 24398.7,33438.1 24400.4,33441.3C24402,33444.5 24402.9,33448.1 24402.9,33452.3C24402.9,33457.8 24401.5,33462.3 24398.6,33465.7C24395.7,33469.1 24391.5,33471.3 24386.1,33472.2C24388.3,33473.5 24390,33474.9 24391.1,33476.2C24393.5,33479 24395.6,33482.1 24397.4,33485.6L24407.8,33505.4L24397.9,33505.4L24389.9,33490.2C24386.8,33484.3 24384.5,33480.3 24382.9,33478.2C24381.3,33476.2 24379.8,33474.8 24378.3,33474.1C24376.9,33473.4 24374.8,33473 24372.1,33473L24363,33473L24363,33505.4L24355.1,33505.4ZM24363,33464.7L24380,33464.7C24383.7,33464.7 24386.5,33464.2 24388.5,33463.3C24390.4,33462.4 24391.9,33461 24393,33459.1C24394.2,33457.2 24394.7,33454.9 24394.7,33452.4C24394.7,33448.7 24393.7,33445.8 24391.5,33443.7C24389.3,33441.6 24386.1,33440.5 24381.9,33440.5L24363,33440.5L24363,33464.7Z" style="fill-rule:nonzero;"/>
                                <path d="M24431.1,33505.4L24407.9,33432.5L24416.5,33432.5L24432,33485.5C24433.2,33489.6 24434.3,33493.5 24435.2,33497.4C24436.1,33493.4 24437.2,33489.4 24438.4,33485.5L24454.5,33432.5L24462.6,33432.5L24439.2,33505.4L24431.1,33505.4Z" style="fill-rule:nonzero;"/>
                                <rect x="24471.2" y="33432.5" width="7.91" height="72.929" style="fill-rule:nonzero;"/>
                                <path d="M24535.4,33479.8L24543.3,33482.3C24541.6,33490.5 24538.5,33496.6 24534.1,33500.6C24529.7,33504.6 24524.4,33506.6 24518.1,33506.6C24512.5,33506.6 24507.8,33505.3 24503.9,33502.6C24499.9,33499.9 24496.7,33495.5 24494.2,33489.6C24491.7,33483.6 24490.4,33476.5 24490.4,33468.4C24490.4,33460.4 24491.7,33453.6 24494.2,33448C24496.7,33442.5 24500.1,33438.3 24504.4,33435.4C24508.7,33432.6 24513.4,33431.2 24518.7,33431.2C24524.5,33431.2 24529.4,33433 24533.6,33436.6C24537.7,33440.2 24540.6,33445.4 24542.3,33452.4L24534.5,33454.6C24531.9,33444.5 24526.5,33439.4 24518.6,33439.4C24514.6,33439.4 24511.1,33440.5 24508.2,33442.5C24505.3,33444.5 24503,33447.7 24501.2,33452C24499.5,33456.3 24498.6,33461.8 24498.6,33468.4C24498.6,33478.4 24500.4,33485.9 24503.9,33490.9C24507.4,33495.9 24512.1,33498.4 24517.9,33498.4C24522.2,33498.4 24525.9,33496.9 24529.1,33493.8C24532.2,33490.7 24534.3,33486.1 24535.4,33479.8Z" style="fill-rule:nonzero;"/>
                                <path d="M24553.4,33505.4L24553.4,33432.5L24596.6,33432.5L24596.6,33441.1L24561.3,33441.1L24561.3,33463.4L24594.4,33463.4L24594.4,33472L24561.3,33472L24561.3,33496.8L24598,33496.8L24598,33505.4L24553.4,33505.4Z" style="fill-rule:nonzero;"/>
                            </g>
                            <g transform="matrix(1,0,0,1,0,6)">
                                <g>
                                    <g transform="matrix(1,0,0,1,-3052.89,-922.535)">
                                        <circle cx="3278.36" cy="1071.94" r="20.772" style="fill:white;stroke:black;stroke-width:0.6px;stroke-miterlimit:1.5;"/>
                                    </g>
                                    <g transform="matrix(0.877333,0,0,0.877333,-2650.74,-791.044)">
                                        <circle cx="3278.36" cy="1071.94" r="20.772" style="fill:white;stroke:black;stroke-width:0.68px;stroke-miterlimit:1.5;"/>
                                    </g>
                                </g>
                            </g>
                        </g>
                        <g transform="matrix(1.16895,0,0,1.16895,23817.9,27379.3)">
                            <g transform="matrix(1,0,0,1,-3055.82,-919.156)">
                                <rect x="3259.03" y="1038.65" width="44.536" height="59.824" style="fill:white;stroke:black;stroke-width:0.6px;stroke-miterlimit:1.5;"/>
                            </g>
                            <g transform="matrix(1,0,0,1,0,6)">
                                <g>
                                    <g transform="matrix(1,0,0,1,-3052.89,-922.535)">
                                        <circle cx="3278.36" cy="1071.94" r="20.772" style="fill:white;stroke:black;stroke-width:0.6px;stroke-miterlimit:1.5;"/>
                                    </g>
                                    <g transform="matrix(0.877333,0,0,0.877333,-2650.74,-791.044)">
                                        <circle cx="3278.36" cy="1071.94" r="20.772" style="fill:white;stroke:black;stroke-width:0.68px;stroke-miterlimit:1.5;"/>
                                    </g>
                                </g>
                            </g>
                        </g>
                        <g transform="matrix(0.0881883,0,0,0.0866845,21931.6,24636.9)">
                            <path d="M24240.7,33403.5L24240.7,33330.6L24263.2,33330.6C24268.5,33330.6 24272.4,33331.1 24274.9,33332C24278.4,33333.2 24281.1,33335.6 24283.2,33339C24285.3,33342.4 24286.3,33346.6 24286.3,33351.6C24286.3,33358.1 24284.6,33363.5 24281.3,33367.7C24277.9,33371.8 24272.1,33373.9 24263.9,33373.9L24248.6,33373.9L24248.6,33403.5L24240.7,33403.5ZM24248.6,33365.3L24264,33365.3C24268.9,33365.3 24272.5,33364.2 24274.7,33362C24277,33359.7 24278.1,33356.4 24278.1,33352C24278.1,33349.1 24277.6,33346.6 24276.5,33344.6C24275.3,33342.5 24274,33341.1 24272.4,33340.3C24270.9,33339.6 24268,33339.2 24263.9,33339.2L24248.6,33339.2L24248.6,33365.3Z" style="fill-rule:nonzero;"/>
                            <path d="M24335.4,33330.6L24343.4,33330.6L24343.4,33372.7C24343.4,33379.8 24342.7,33385.6 24341.3,33390.1C24340,33394.6 24337.4,33398.2 24333.8,33400.8C24330.2,33403.5 24325.6,33404.8 24320,33404.8C24312.1,33404.8 24306.2,33402.4 24302.2,33397.7C24298.3,33393 24296.3,33384.7 24296.3,33372.7L24296.3,33330.6L24304.2,33330.6L24304.2,33372.7C24304.2,33379.3 24304.8,33384.1 24305.8,33387C24306.8,33390 24308.5,33392.2 24310.8,33393.7C24313.2,33395.3 24316,33396.1 24319.4,33396.1C24325,33396.1 24329.1,33394.5 24331.6,33391.3C24334.2,33388.1 24335.4,33381.9 24335.4,33372.7L24335.4,33330.6Z" style="fill-rule:nonzero;"/>
                            <path d="M24356.6,33403.5L24356.6,33330.6L24383.1,33330.6C24388.7,33330.6 24392.8,33331.3 24395.4,33332.6C24398,33334 24400.2,33336.2 24401.9,33339.4C24403.6,33342.6 24404.4,33346.2 24404.4,33350.4C24404.4,33355.9 24403,33360.4 24400.1,33363.8C24397.3,33367.2 24393.1,33369.4 24387.6,33370.3C24389.8,33371.6 24391.5,33373 24392.7,33374.4C24395,33377.2 24397.1,33380.3 24398.9,33383.7L24409.4,33403.5L24399.4,33403.5L24391.4,33388.3C24388.4,33382.4 24386,33378.4 24384.5,33376.3C24382.9,33374.3 24381.4,33372.9 24379.9,33372.2C24378.4,33371.5 24376.3,33371.1 24373.7,33371.1L24364.5,33371.1L24364.5,33403.5L24356.6,33403.5ZM24364.5,33362.8L24381.5,33362.8C24385.3,33362.8 24388.1,33362.3 24390,33361.4C24391.9,33360.5 24393.5,33359.1 24394.6,33357.2C24395.7,33355.3 24396.3,33353 24396.3,33350.5C24396.3,33346.8 24395.2,33343.9 24393,33341.8C24390.9,33339.7 24387.7,33338.6 24383.4,33338.6L24364.5,33338.6L24364.5,33362.8Z" style="fill-rule:nonzero;"/>
                            <path d="M24445.1,33374.9L24445.1,33366.3L24470.4,33366.3L24470.4,33393.4C24466.6,33397.2 24462.6,33400 24458.4,33401.9C24454.3,33403.8 24450,33404.8 24445.6,33404.8C24439.8,33404.8 24434.6,33403.3 24430,33400.4C24425.4,33397.5 24421.8,33393.2 24419.1,33387.6C24416.5,33382 24415.1,33375.2 24415.1,33367.4C24415.1,33359.4 24416.5,33352.5 24419.2,33346.6C24421.8,33340.7 24425.4,33336.3 24429.7,33333.5C24434,33330.7 24439.2,33329.3 24445.1,33329.3C24449.5,33329.3 24453.3,33330.1 24456.6,33331.7C24459.9,33333.4 24462.6,33335.7 24464.7,33338.6C24466.8,33341.6 24468.4,33345.7 24469.5,33350.9L24462.4,33353.3C24461.4,33349.2 24460.2,33346.1 24458.8,33344.1C24457.3,33342.1 24455.4,33340.5 24453,33339.3C24450.6,33338.1 24447.9,33337.6 24444.9,33337.6C24440.6,33337.6 24436.8,33338.6 24433.7,33340.7C24430.6,33342.8 24428.1,33346.1 24426.1,33350.5C24424.2,33355 24423.3,33360.4 24423.3,33366.8C24423.3,33376.6 24425.3,33383.9 24429.4,33388.8C24433.5,33393.6 24438.8,33396.1 24445.3,33396.1C24448.4,33396.1 24451.6,33395.3 24454.9,33393.8C24458.2,33392.3 24460.8,33390.6 24462.7,33388.5L24462.7,33374.9L24445.1,33374.9Z" style="fill-rule:nonzero;"/>
                            <path d="M24482.1,33403.5L24482.1,33330.6L24525.4,33330.6L24525.4,33339.2L24490,33339.2L24490,33361.5L24523.1,33361.5L24523.1,33370.1L24490,33370.1L24490,33394.9L24526.8,33394.9L24526.8,33403.5L24482.1,33403.5Z" style="fill-rule:nonzero;"/>
                        </g>
                        <g transform="matrix(1.16895,0,0,1.16895,23892.5,27287.2)">
                            <g transform="matrix(1,0,0,1,-3055.82,-919.156)">
                                <rect x="3259.03" y="1038.65" width="44.536" height="59.824" style="fill:white;stroke:black;stroke-width:0.6px;stroke-miterlimit:1.5;"/>
                            </g>
                            <g transform="matrix(1,0,0,1,0,6)">
                                <g>
                                    <g transform="matrix(1,0,0,1,-3052.89,-922.535)">
                                        <circle cx="3278.36" cy="1071.94" r="20.772" style="fill:white;stroke:black;stroke-width:0.6px;stroke-miterlimit:1.5;"/>
                                    </g>
                                    <g transform="matrix(0.877333,0,0,0.877333,-2650.74,-791.044)">
                                        <circle cx="3278.36" cy="1071.94" r="20.772" style="fill:white;stroke:black;stroke-width:0.68px;stroke-miterlimit:1.5;"/>
                                    </g>
                                </g>
                            </g>
                        </g>
                        <g transform="matrix(0.0881883,0,0,0.0866845,22003.3,24546.7)">
                            <path d="M24240.5,33403.5L24240.5,33330.6L24261.1,33330.6C24266.2,33330.6 24270.1,33331 24272.8,33331.9C24276.2,33333.1 24279.2,33335.2 24281.8,33338.3C24284.4,33341.4 24286.3,33345.3 24287.8,33350C24289.2,33354.7 24289.9,33360.2 24289.9,33366.7C24289.9,33374.9 24288.7,33381.9 24286.3,33387.7C24283.9,33393.4 24280.8,33397.5 24277,33399.9C24273.2,33402.3 24268.2,33403.5 24262.1,33403.5L24240.5,33403.5ZM24248.4,33394.9L24261.1,33394.9C24266.2,33394.9 24270.1,33394.1 24272.8,33392.4C24275.5,33390.7 24277.5,33388 24278.9,33384.3C24280.8,33379.4 24281.8,33373.5 24281.8,33366.6C24281.8,33359.2 24280.8,33353.3 24278.7,33349.1C24276.7,33344.9 24274.2,33342.1 24271,33340.6C24268.9,33339.7 24265.5,33339.2 24260.9,33339.2L24248.4,33339.2L24248.4,33394.9Z" style="fill-rule:nonzero;"/>
                            <path d="M24301.1,33403.5L24301.1,33330.6L24344.3,33330.6L24344.3,33339.2L24309,33339.2L24309,33361.5L24342.1,33361.5L24342.1,33370.1L24309,33370.1L24309,33394.9L24345.7,33394.9L24345.7,33403.5L24301.1,33403.5Z" style="fill-rule:nonzero;"/>
                            <path d="M24357.2,33403.5L24357.2,33330.6L24397.6,33330.6L24397.6,33339.2L24365.1,33339.2L24365.1,33361.8L24393.2,33361.8L24393.2,33370.4L24365.1,33370.4L24365.1,33403.5L24357.2,33403.5Z" style="fill-rule:nonzero;"/>
                            <path d="M24396.6,33403.5L24419.6,33330.6L24428.1,33330.6L24452.5,33403.5L24443.5,33403.5L24436.5,33381.4L24411.5,33381.4L24405,33403.5L24396.6,33403.5ZM24413.8,33373.6L24434.1,33373.6L24427.9,33353.4C24425.9,33347.2 24424.5,33342.1 24423.6,33338.2C24422.9,33342.9 24421.8,33347.6 24420.4,33352.2L24413.8,33373.6Z" style="fill-rule:nonzero;"/>
                            <path d="M24497.9,33330.6L24505.9,33330.6L24505.9,33372.7C24505.9,33379.8 24505.2,33385.6 24503.8,33390.1C24502.4,33394.6 24499.9,33398.2 24496.3,33400.8C24492.7,33403.5 24488,33404.8 24482.4,33404.8C24474.5,33404.8 24468.6,33402.4 24464.7,33397.7C24460.8,33393 24458.8,33384.7 24458.8,33372.7L24458.8,33330.6L24466.7,33330.6L24466.7,33372.7C24466.7,33379.3 24467.2,33384.1 24468.3,33387C24469.3,33390 24471,33392.2 24473.3,33393.7C24475.6,33395.3 24478.5,33396.1 24481.8,33396.1C24487.5,33396.1 24491.6,33394.5 24494.1,33391.3C24496.6,33388.1 24497.9,33381.9 24497.9,33372.7L24497.9,33330.6Z" style="fill-rule:nonzero;"/>
                            <path d="M24518.7,33403.5L24518.7,33330.6L24526.6,33330.6L24526.6,33394.9L24556,33394.9L24556,33403.5L24518.7,33403.5Z" style="fill-rule:nonzero;"/>
                            <path d="M24574.8,33403.5L24574.8,33339.2L24555.1,33339.2L24555.1,33330.6L24602.5,33330.6L24602.5,33339.2L24582.7,33339.2L24582.7,33403.5L24574.8,33403.5Z" style="fill-rule:nonzero;"/>
                        </g>
                        <g transform="matrix(1.16895,0,0,1.16895,23892.5,27195)">
                            <g transform="matrix(1,0,0,1,-3055.82,-919.156)">
                                <rect x="3259.03" y="1038.65" width="44.536" height="59.824" style="fill:white;stroke:black;stroke-width:0.6px;stroke-miterlimit:1.5;"/>
                            </g>
                            <g transform="matrix(1,0,0,1,0,6)">
                                <g>
                                    <g transform="matrix(1,0,0,1,-3052.89,-922.535)">
                                        <circle cx="3278.36" cy="1071.94" r="20.772" style="fill:white;stroke:black;stroke-width:0.6px;stroke-miterlimit:1.5;"/>
                                    </g>
                                    <g transform="matrix(0.877333,0,0,0.877333,-2650.74,-791.044)">
                                        <circle cx="3278.36" cy="1071.94" r="20.772" style="fill:white;stroke:black;stroke-width:0.68px;stroke-miterlimit:1.5;"/>
                                    </g>
                                </g>
                            </g>
                        </g>
                        <g transform="matrix(0.0881883,0,0,0.0866845,22002.5,24447.1)">
                            <path d="M24305.3,33380L24312.7,33379.2C24313.1,33383.3 24314,33386.4 24315.4,33388.6C24316.8,33390.9 24318.9,33392.7 24321.5,33394C24324.1,33395.4 24327,33396.1 24330.3,33396.1C24335,33396.1 24338.7,33394.9 24341.3,33392.6C24343.9,33390.3 24345.2,33387.3 24345.2,33383.6C24345.2,33381.5 24344.7,33379.6 24343.8,33378C24342.8,33376.4 24341.4,33375.1 24339.5,33374.1C24337.6,33373 24333.5,33371.6 24327.1,33369.7C24321.5,33368 24317.5,33366.4 24315.1,33364.7C24312.7,33363 24310.9,33360.8 24309.5,33358.2C24308.2,33355.6 24307.5,33352.7 24307.5,33349.4C24307.5,33343.5 24309.5,33338.7 24313.3,33334.9C24317.1,33331.2 24322.2,33329.3 24328.7,33329.3C24333.1,33329.3 24337,33330.2 24340.4,33331.9C24343.7,33333.7 24346.3,33336.2 24348.1,33339.5C24350,33342.8 24350.9,33346.6 24351.1,33351.1L24343.5,33351.8C24343.1,33347 24341.7,33343.5 24339.2,33341.2C24336.8,33338.9 24333.4,33337.8 24328.9,33337.8C24324.5,33337.8 24321,33338.8 24318.7,33340.8C24316.3,33342.8 24315.2,33345.4 24315.2,33348.6C24315.2,33351.5 24316,33353.8 24317.7,33355.5C24319.5,33357.1 24323.4,33358.7 24329.4,33360.4C24335.3,33362 24339.4,33363.5 24341.8,33364.7C24345.5,33366.6 24348.2,33369 24350.1,33372C24351.9,33375.1 24352.9,33378.7 24352.9,33382.9C24352.9,33387 24351.9,33390.8 24349.9,33394.3C24348,33397.7 24345.3,33400.3 24341.9,33402.1C24338.6,33403.9 24334.5,33404.8 24329.8,33404.8C24322.4,33404.8 24316.5,33402.5 24312.1,33398.1C24307.7,33393.7 24305.4,33387.6 24305.3,33380Z" style="fill-rule:nonzero;"/>
                            <path d="M24361.4,33368C24361.4,33355.6 24364.2,33346 24369.6,33339.3C24375.1,33332.6 24381.9,33329.3 24390.1,33329.3C24395.4,33329.3 24400.2,33330.8 24404.5,33333.8C24408.9,33336.8 24412.3,33341.1 24414.8,33346.8C24417.4,33352.5 24418.6,33359.2 24418.6,33367.1C24418.6,33377.9 24416.2,33386.7 24411.3,33393.5C24405.9,33401 24398.8,33404.8 24390,33404.8C24381.2,33404.8 24374.1,33400.9 24368.7,33393.2C24363.9,33386.3 24361.4,33377.8 24361.4,33368ZM24369.6,33368.1C24369.6,33377.1 24371.6,33384.1 24375.5,33389.1C24379.5,33394 24384.3,33396.5 24390,33396.5C24395.8,33396.5 24400.7,33394 24404.6,33389C24408.5,33384 24410.5,33376.6 24410.5,33366.9C24410.5,33360.6 24409.5,33355 24407.4,33350.1C24405.9,33346.3 24403.5,33343.2 24400.4,33341C24397.3,33338.7 24393.8,33337.6 24390.1,33337.6C24384.2,33337.6 24379.2,33340 24375.4,33345C24371.5,33350 24369.6,33357.7 24369.6,33368.1Z" style="fill-rule:nonzero;"/>
                            <path d="M24467.7,33330.6L24475.7,33330.6L24475.7,33372.7C24475.7,33379.8 24475,33385.6 24473.6,33390.1C24472.3,33394.6 24469.7,33398.2 24466.1,33400.8C24462.5,33403.5 24457.9,33404.8 24452.3,33404.8C24444.4,33404.8 24438.5,33402.4 24434.5,33397.7C24430.6,33393 24428.6,33384.7 24428.6,33372.7L24428.6,33330.6L24436.5,33330.6L24436.5,33372.7C24436.5,33379.3 24437.1,33384.1 24438.1,33387C24439.1,33390 24440.8,33392.2 24443.1,33393.7C24445.5,33395.3 24448.3,33396.1 24451.7,33396.1C24457.3,33396.1 24461.4,33394.5 24463.9,33391.3C24466.5,33388.1 24467.7,33381.9 24467.7,33372.7L24467.7,33330.6Z" style="fill-rule:nonzero;"/>
                            <path d="M24486.3,33380L24493.8,33379.2C24494.2,33383.3 24495.1,33386.4 24496.5,33388.6C24497.9,33390.9 24499.9,33392.7 24502.5,33394C24505.1,33395.4 24508.1,33396.1 24511.4,33396.1C24516.1,33396.1 24519.7,33394.9 24522.3,33392.6C24524.9,33390.3 24526.2,33387.3 24526.2,33383.6C24526.2,33381.5 24525.8,33379.6 24524.8,33378C24523.9,33376.4 24522.4,33375.1 24520.5,33374.1C24518.6,33373 24514.5,33371.6 24508.2,33369.7C24502.5,33368 24498.5,33366.4 24496.1,33364.7C24493.8,33363 24491.9,33360.8 24490.6,33358.2C24489.2,33355.6 24488.6,33352.7 24488.6,33349.4C24488.6,33343.5 24490.5,33338.7 24494.3,33334.9C24498.1,33331.2 24503.3,33329.3 24509.7,33329.3C24514.2,33329.3 24518.1,33330.2 24521.4,33331.9C24524.7,33333.7 24527.3,33336.2 24529.1,33339.5C24531,33342.8 24532,33346.6 24532.1,33351.1L24524.5,33351.8C24524.1,33347 24522.7,33343.5 24520.2,33341.2C24517.8,33338.9 24514.4,33337.8 24510,33337.8C24505.5,33337.8 24502.1,33338.8 24499.7,33340.8C24497.4,33342.8 24496.2,33345.4 24496.2,33348.6C24496.2,33351.5 24497.1,33353.8 24498.8,33355.5C24500.5,33357.1 24504.4,33358.7 24510.4,33360.4C24516.3,33362 24520.5,33363.5 24522.9,33364.7C24526.5,33366.6 24529.3,33369 24531.1,33372C24533,33375.1 24533.9,33378.7 24533.9,33382.9C24533.9,33387 24532.9,33390.8 24531,33394.3C24529,33397.7 24526.3,33400.3 24523,33402.1C24519.6,33403.9 24515.6,33404.8 24510.8,33404.8C24503.4,33404.8 24497.5,33402.5 24493.1,33398.1C24488.7,33393.7 24486.5,33387.6 24486.3,33380Z" style="fill-rule:nonzero;"/>
                            <path d="M24256,33505.4L24256,33441.1L24236.3,33441.1L24236.3,33432.5L24283.7,33432.5L24283.7,33441.1L24263.9,33441.1L24263.9,33505.4L24256,33505.4Z" style="fill-rule:nonzero;"/>
                            <path d="M24291.9,33505.4L24291.9,33432.5L24335.1,33432.5L24335.1,33441.1L24299.8,33441.1L24299.8,33463.4L24332.8,33463.4L24332.8,33472L24299.8,33472L24299.8,33496.8L24336.5,33496.8L24336.5,33505.4L24291.9,33505.4Z" style="fill-rule:nonzero;"/>
                            <path d="M24347.2,33505.4L24347.2,33432.5L24355.3,33432.5L24386.7,33489.8L24386.7,33432.5L24394.3,33432.5L24394.3,33505.4L24386.2,33505.4L24354.8,33448L24354.8,33505.4L24347.2,33505.4Z" style="fill-rule:nonzero;"/>
                            <path d="M24405,33481.9L24412.5,33481.1C24412.9,33485.1 24413.8,33488.3 24415.2,33490.5C24416.6,33492.7 24418.6,33494.5 24421.2,33495.9C24423.9,33497.3 24426.8,33497.9 24430.1,33497.9C24434.8,33497.9 24438.5,33496.8 24441.1,33494.5C24443.7,33492.2 24445,33489.2 24445,33485.5C24445,33483.4 24444.5,33481.5 24443.6,33479.9C24442.6,33478.3 24441.2,33477 24439.3,33475.9C24437.4,33474.9 24433.3,33473.5 24426.9,33471.6C24421.3,33469.9 24417.3,33468.2 24414.9,33466.5C24412.5,33464.9 24410.6,33462.7 24409.3,33460.1C24408,33457.5 24407.3,33454.6 24407.3,33451.3C24407.3,33445.4 24409.2,33440.5 24413,33436.8C24416.9,33433.1 24422,33431.2 24428.5,33431.2C24432.9,33431.2 24436.8,33432.1 24440.1,33433.8C24443.5,33435.6 24446,33438.1 24447.9,33441.4C24449.7,33444.7 24450.7,33448.5 24450.8,33453L24443.2,33453.7C24442.8,33448.9 24441.4,33445.4 24439,33443.1C24436.5,33440.8 24433.1,33439.7 24428.7,33439.7C24424.2,33439.7 24420.8,33440.7 24418.5,33442.7C24416.1,33444.7 24414.9,33447.3 24414.9,33450.5C24414.9,33453.4 24415.8,33455.7 24417.5,33457.3C24419.2,33459 24423.1,33460.6 24429.2,33462.3C24435.1,33463.9 24439.2,33465.4 24441.6,33466.6C24445.2,33468.4 24448,33470.9 24449.9,33473.9C24451.7,33476.9 24452.6,33480.6 24452.6,33484.8C24452.6,33488.9 24451.7,33492.7 24449.7,33496.1C24447.7,33499.6 24445.1,33502.2 24441.7,33504C24438.4,33505.8 24434.3,33506.6 24429.6,33506.6C24422.2,33506.6 24416.3,33504.4 24411.9,33500C24407.5,33495.5 24405.2,33489.5 24405,33481.9Z" style="fill-rule:nonzero;"/>
                            <rect x="24464.9" y="33432.5" width="7.91" height="72.929" style="fill-rule:nonzero;"/>
                            <path d="M24484.4,33469.9C24484.4,33457.4 24487.2,33447.9 24492.6,33441.2C24498.1,33434.5 24504.9,33431.2 24513.1,33431.2C24518.4,33431.2 24523.2,33432.7 24527.5,33435.7C24531.9,33438.6 24535.3,33443 24537.8,33448.7C24540.4,33454.4 24541.6,33461.1 24541.6,33469C24541.6,33479.8 24539.2,33488.6 24534.3,33495.4C24528.9,33502.9 24521.8,33506.6 24513,33506.6C24504.2,33506.6 24497.1,33502.8 24491.7,33495.1C24486.9,33488.1 24484.4,33479.7 24484.4,33469.9ZM24492.6,33470C24492.6,33479 24494.6,33486 24498.5,33490.9C24502.5,33495.9 24507.3,33498.4 24513,33498.4C24518.8,33498.4 24523.7,33495.9 24527.6,33490.9C24531.5,33485.9 24533.5,33478.5 24533.5,33468.8C24533.5,33462.5 24532.5,33456.9 24530.4,33451.9C24528.9,33448.1 24526.5,33445.1 24523.4,33442.8C24520.3,33440.6 24516.8,33439.4 24513.1,33439.4C24507.2,33439.4 24502.2,33441.9 24498.4,33446.9C24494.5,33451.9 24492.6,33459.6 24492.6,33470Z" style="fill-rule:nonzero;"/>
                            <path d="M24551.4,33505.4L24551.4,33432.5L24559.5,33432.5L24591,33489.8L24591,33432.5L24598.5,33432.5L24598.5,33505.4L24590.4,33505.4L24559,33448L24559,33505.4L24551.4,33505.4Z" style="fill-rule:nonzero;"/>
                        </g>
                        <g transform="matrix(1.16895,0,0,1.16895,23892.5,27379.3)">
                            <g transform="matrix(1,0,0,1,-3055.82,-919.156)">
                                <rect x="3259.03" y="1038.65" width="44.536" height="59.824" style="fill:white;stroke:black;stroke-width:0.6px;stroke-miterlimit:1.5;"/>
                            </g>
                            <g transform="matrix(1,0,0,1,0,6)">
                                <g>
                                    <g transform="matrix(1,0,0,1,-3052.89,-922.535)">
                                        <circle cx="3278.36" cy="1071.94" r="20.772" style="fill:white;stroke:black;stroke-width:0.6px;stroke-miterlimit:1.5;"/>
                                    </g>
                                    <g transform="matrix(0.877333,0,0,0.877333,-2650.74,-791.044)">
                                        <circle cx="3278.36" cy="1071.94" r="20.772" style="fill:white;stroke:black;stroke-width:0.68px;stroke-miterlimit:1.5;"/>
                                    </g>
                                </g>
                            </g>
                        </g>
                        <g transform="matrix(0.0881883,0,0,0.0866845,22005.2,24636.9)">
                            <path d="M24234.1,33403.5L24257.1,33330.6L24265.6,33330.6L24290.1,33403.5L24281,33403.5L24274,33381.4L24249.1,33381.4L24242.5,33403.5L24234.1,33403.5ZM24251.4,33373.6L24271.6,33373.6L24265.4,33353.4C24263.5,33347.2 24262.1,33342.1 24261.2,33338.2C24260.4,33342.9 24259.3,33347.6 24257.9,33352.2L24251.4,33373.6Z" style="fill-rule:nonzero;"/>
                            <path d="M24296.3,33403.5L24296.3,33330.6L24322.8,33330.6C24328.4,33330.6 24332.5,33331.3 24335.1,33332.6C24337.7,33334 24339.9,33336.2 24341.6,33339.4C24343.3,33342.6 24344.1,33346.2 24344.1,33350.4C24344.1,33355.9 24342.7,33360.4 24339.8,33363.8C24337,33367.2 24332.8,33369.4 24327.3,33370.3C24329.5,33371.6 24331.2,33373 24332.4,33374.4C24334.8,33377.2 24336.8,33380.3 24338.6,33383.7L24349.1,33403.5L24339.1,33403.5L24331.2,33388.3C24328.1,33382.4 24325.7,33378.4 24324.2,33376.3C24322.6,33374.3 24321.1,33372.9 24319.6,33372.2C24318.1,33371.5 24316,33371.1 24313.4,33371.1L24304.2,33371.1L24304.2,33403.5L24296.3,33403.5ZM24304.2,33362.8L24321.3,33362.8C24325,33362.8 24327.8,33362.3 24329.7,33361.4C24331.6,33360.5 24333.2,33359.1 24334.3,33357.2C24335.4,33355.3 24336,33353 24336,33350.5C24336,33346.8 24334.9,33343.9 24332.7,33341.8C24330.6,33339.7 24327.4,33338.6 24323.1,33338.6L24304.2,33338.6L24304.2,33362.8Z" style="fill-rule:nonzero;"/>
                            <path d="M24356.6,33403.5L24356.6,33330.6L24383.1,33330.6C24388.7,33330.6 24392.8,33331.3 24395.4,33332.6C24398,33334 24400.2,33336.2 24401.9,33339.4C24403.6,33342.6 24404.4,33346.2 24404.4,33350.4C24404.4,33355.9 24403,33360.4 24400.1,33363.8C24397.3,33367.2 24393.1,33369.4 24387.6,33370.3C24389.8,33371.6 24391.5,33373 24392.7,33374.4C24395,33377.2 24397.1,33380.3 24398.9,33383.7L24409.4,33403.5L24399.4,33403.5L24391.4,33388.3C24388.4,33382.4 24386,33378.4 24384.5,33376.3C24382.9,33374.3 24381.4,33372.9 24379.9,33372.2C24378.4,33371.5 24376.3,33371.1 24373.7,33371.1L24364.5,33371.1L24364.5,33403.5L24356.6,33403.5ZM24364.5,33362.8L24381.5,33362.8C24385.3,33362.8 24388.1,33362.3 24390,33361.4C24391.9,33360.5 24393.5,33359.1 24394.6,33357.2C24395.7,33355.3 24396.3,33353 24396.3,33350.5C24396.3,33346.8 24395.2,33343.9 24393,33341.8C24390.9,33339.7 24387.7,33338.6 24383.4,33338.6L24364.5,33338.6L24364.5,33362.8Z" style="fill-rule:nonzero;"/>
                            <path d="M24417.1,33403.5L24417.1,33330.6L24460.3,33330.6L24460.3,33339.2L24425,33339.2L24425,33361.5L24458.1,33361.5L24458.1,33370.1L24425,33370.1L24425,33394.9L24461.7,33394.9L24461.7,33403.5L24417.1,33403.5ZM24439,33317.2L24434.4,33325.6L24426,33325.6L24434.8,33311.7L24442.7,33311.7L24451.8,33325.6L24443.5,33325.6L24439,33317.2Z" style="fill-rule:nonzero;"/>
                            <path d="M24488,33403.5L24488,33339.2L24468.3,33339.2L24468.3,33330.6L24515.7,33330.6L24515.7,33339.2L24495.9,33339.2L24495.9,33403.5L24488,33403.5Z" style="fill-rule:nonzero;"/>
                        </g>
                        <g>
                            <g transform="matrix(1.16895,0,0,1.16895,23973.2,27287.2)">
                                <g transform="matrix(1.05934,0,0,1,-3250.53,-919.156)">
                                    <rect x="3259.03" y="1038.65" width="44.536" height="59.824" style="fill:white;stroke:rgb(13,13,13);stroke-width:0.58px;stroke-miterlimit:1.5;"/>
                                </g>
                                <g transform="matrix(1,0,0,1,0,6)">
                                    <g>
                                        <g transform="matrix(1,0,0,1,-3052.89,-922.535)">
                                            <circle cx="3278.36" cy="1071.94" r="20.772" style="fill:white;stroke:rgb(13,13,13);stroke-width:0.6px;stroke-miterlimit:1.5;"/>
                                        </g>
                                        <g transform="matrix(0.877333,0,0,0.877333,-2650.74,-791.044)">
                                            <circle cx="3278.36" cy="1071.94" r="20.772" style="fill:white;stroke:rgb(13,13,13);stroke-width:0.68px;stroke-miterlimit:1.5;"/>
                                        </g>
                                    </g>
                                </g>
                            </g>
                            <g transform="matrix(1.13789,0,0,0.872966,24032.8,27316.6)">
                                <g transform="matrix(0.0775015,0,0,0.0992988,-1720.07,-3172.94)">
                                    <path d="M24234.1,33403.5L24257.1,33330.6L24265.6,33330.6L24290.1,33403.5L24281,33403.5L24274,33381.4L24249.1,33381.4L24242.5,33403.5L24234.1,33403.5ZM24251.4,33373.6L24271.6,33373.6L24265.4,33353.4C24263.5,33347.2 24262.1,33342.1 24261.2,33338.2C24260.4,33342.9 24259.3,33347.6 24257.9,33352.2L24251.4,33373.6Z" style="fill-rule:nonzero;"/>
                                    <path d="M24335.4,33330.6L24343.4,33330.6L24343.4,33372.7C24343.4,33379.8 24342.7,33385.6 24341.3,33390.1C24340,33394.6 24337.4,33398.2 24333.8,33400.8C24330.2,33403.5 24325.6,33404.8 24320,33404.8C24312.1,33404.8 24306.2,33402.4 24302.2,33397.7C24298.3,33393 24296.3,33384.7 24296.3,33372.7L24296.3,33330.6L24304.2,33330.6L24304.2,33372.7C24304.2,33379.3 24304.8,33384.1 24305.8,33387C24306.8,33390 24308.5,33392.2 24310.8,33393.7C24313.2,33395.3 24316,33396.1 24319.4,33396.1C24325,33396.1 24329.1,33394.5 24331.6,33391.3C24334.2,33388.1 24335.4,33381.9 24335.4,33372.7L24335.4,33330.6Z" style="fill-rule:nonzero;"/>
                                    <path d="M24372,33403.5L24372,33339.2L24352.3,33339.2L24352.3,33330.6L24399.7,33330.6L24399.7,33339.2L24379.9,33339.2L24379.9,33403.5L24372,33403.5Z" style="fill-rule:nonzero;"/>
                                    <path d="M24404,33368C24404,33355.6 24406.8,33346 24412.2,33339.3C24417.7,33332.6 24424.5,33329.3 24432.7,33329.3C24438,33329.3 24442.8,33330.8 24447.1,33333.8C24451.5,33336.8 24454.9,33341.1 24457.4,33346.8C24460,33352.5 24461.2,33359.2 24461.2,33367.1C24461.2,33377.9 24458.8,33386.7 24453.9,33393.5C24448.5,33401 24441.4,33404.8 24432.6,33404.8C24423.8,33404.8 24416.7,33400.9 24411.3,33393.2C24406.5,33386.3 24404,33377.8 24404,33368ZM24412.2,33368.1C24412.2,33377.1 24414.2,33384.1 24418.1,33389.1C24422.1,33394 24426.9,33396.5 24432.6,33396.5C24438.4,33396.5 24443.3,33394 24447.2,33389C24451.1,33384 24453.1,33376.6 24453.1,33366.9C24453.1,33360.6 24452.1,33355 24450,33350.1C24448.5,33346.3 24446.1,33343.2 24443,33341C24439.9,33338.7 24436.5,33337.6 24432.7,33337.6C24426.8,33337.6 24421.9,33340 24418,33345C24414.1,33350 24412.2,33357.7 24412.2,33368.1Z" style="fill-rule:nonzero;"/>
                                </g>
                                <g transform="matrix(0.0775015,0,0,0.0992988,-1693.74,-3173.13)">
                                    <path d="M24240.4,33403.5L24240.4,33330.6L24252.3,33330.6L24266.5,33382.2L24269.3,33393C24270,33390.3 24271.1,33386.4 24272.5,33381.3L24286.8,33330.6L24297.5,33330.6L24297.5,33403.5L24289.9,33403.5L24289.9,33342.5L24272.5,33403.5L24265.3,33403.5L24248,33341.5L24248,33403.5L24240.4,33403.5Z" style="fill-rule:nonzero;"/>
                                    <path d="M24303.7,33403.5L24326.7,33330.6L24335.2,33330.6L24359.7,33403.5L24350.6,33403.5L24343.6,33381.4L24318.7,33381.4L24312.1,33403.5L24303.7,33403.5ZM24321,33373.6L24341.2,33373.6L24335,33353.4C24333.1,33347.2 24331.7,33342.1 24330.8,33338.2C24330,33342.9 24328.9,33347.6 24327.5,33352.2L24321,33373.6Z" style="fill-rule:nonzero;"/>
                                    <rect x="24367.5" y="33330.6" width="7.91" height="72.929" style="fill-rule:nonzero;"/>
                                    <path d="M24389,33403.5L24389,33330.6L24397.1,33330.6L24428.5,33388L24428.5,33330.6L24436.1,33330.6L24436.1,33403.5L24428,33403.5L24396.6,33346.1L24396.6,33403.5L24389,33403.5Z" style="fill-rule:nonzero;"/>
                                </g>
                                <g transform="matrix(0.0775015,0,0,0.0992988,-1700.61,-3180.43)">
                                    <path d="M24238.4,33368C24238.4,33355.6 24241.2,33346 24246.6,33339.3C24252.1,33332.6 24258.9,33329.3 24267.1,33329.3C24272.4,33329.3 24277.2,33330.8 24281.5,33333.8C24285.9,33336.8 24289.3,33341.1 24291.8,33346.8C24294.4,33352.5 24295.6,33359.2 24295.6,33367.1C24295.6,33377.9 24293.2,33386.7 24288.3,33393.5C24282.9,33401 24275.8,33404.8 24267,33404.8C24258.2,33404.8 24251.1,33400.9 24245.7,33393.2C24240.9,33386.3 24238.4,33377.8 24238.4,33368ZM24246.6,33368.1C24246.6,33377.1 24248.6,33384.1 24252.5,33389.1C24256.5,33394 24261.3,33396.5 24267,33396.5C24272.8,33396.5 24277.7,33394 24281.6,33389C24285.5,33384 24287.5,33376.6 24287.5,33366.9C24287.5,33360.6 24286.5,33355 24284.4,33350.1C24282.9,33346.3 24280.5,33343.2 24277.4,33341C24274.3,33338.7 24270.8,33337.6 24267.1,33337.6C24261.2,33337.6 24256.2,33340 24252.4,33345C24248.5,33350 24246.6,33357.7 24246.6,33368.1Z" style="fill-rule:nonzero;"/>
                                </g>
                            </g>
                        </g>
                        <g transform="matrix(0.318794,0,0,0.424225,17604.7,13492.9)">
                            <path d="M20814,32909.5L20814,32975.8C20814,32979 20810.4,32981.7 20806,32981.7C20801.5,32981.7 20797.9,32979 20797.9,32975.8L20797.9,32909.5C20797.9,32906.2 20801.5,32903.6 20806,32903.6C20810.4,32903.6 20814,32906.2 20814,32909.5Z" style="fill:none;stroke:rgb(13,13,13);stroke-width:1.86px;"/>
                        </g>
                        <g transform="matrix(0.13155,0,0,0.175055,21500.5,21693.6)">
                            <path d="M20814,32909.5L20814,32975.8C20814,32979 20810.4,32981.7 20806,32981.7C20801.5,32981.7 20797.9,32979 20797.9,32975.8L20797.9,32909.5C20797.9,32906.2 20801.5,32903.6 20806,32903.6C20810.4,32903.6 20814,32906.2 20814,32909.5Z" style="fill:rgb(13,13,13);"/>
                        </g>
                        <g transform="matrix(1.16895,0,0,1.16895,23973.2,27195.2)">
                            <g transform="matrix(1,0,0,1,-3055.82,-919.156)">
                                <rect x="3259.03" y="1038.65" width="44.536" height="59.824" style="fill:white;stroke:black;stroke-width:0.6px;stroke-miterlimit:1.5;"/>
                            </g>
                            <g transform="matrix(0.0754422,0,0,0.0741557,-1616.88,-2344.55)">
                                <path d="M24321.7,33403.5L24321.7,33330.6L24333.5,33330.6L24347.7,33382.2L24350.6,33393C24351.3,33390.3 24352.3,33386.4 24353.7,33381.3L24368.1,33330.6L24378.7,33330.6L24378.7,33403.5L24371.1,33403.5L24371.1,33342.5L24353.7,33403.5L24346.6,33403.5L24329.3,33341.5L24329.3,33403.5L24321.7,33403.5Z" style="fill-rule:nonzero;"/>
                                <path d="M24384.9,33403.5L24407.9,33330.6L24416.4,33330.6L24440.9,33403.5L24431.8,33403.5L24424.9,33381.4L24399.9,33381.4L24393.3,33403.5L24384.9,33403.5ZM24402.2,33373.6L24422.4,33373.6L24416.2,33353.4C24414.3,33347.2 24412.9,33342.1 24412,33338.2C24411.2,33342.9 24410.2,33347.6 24408.8,33352.2L24402.2,33373.6Z" style="fill-rule:nonzero;"/>
                                <rect x="24448.7" y="33330.6" width="7.91" height="72.929" style="fill-rule:nonzero;"/>
                                <path d="M24470.2,33403.5L24470.2,33330.6L24478.3,33330.6L24509.7,33388L24509.7,33330.6L24517.3,33330.6L24517.3,33403.5L24509.2,33403.5L24477.8,33346.1L24477.8,33403.5L24470.2,33403.5Z" style="fill-rule:nonzero;"/>
                            </g>
                            <g transform="matrix(1,0,0,1,0,6)">
                                <g>
                                    <g transform="matrix(1,0,0,1,-3052.89,-922.535)">
                                        <circle cx="3278.36" cy="1071.94" r="20.772" style="fill:white;stroke:black;stroke-width:0.6px;stroke-miterlimit:1.5;"/>
                                    </g>
                                    <g transform="matrix(0.877333,0,0,0.877333,-2650.74,-791.044)">
                                        <circle cx="3278.36" cy="1071.94" r="20.772" style="fill:white;stroke:black;stroke-width:0.68px;stroke-miterlimit:1.5;"/>
                                    </g>
                                </g>
                            </g>
                        </g>
                    </g>
                </g>
                <g transform="matrix(0.129498,0,0,0.168798,-2849.73,-4406.35)">
                    <g>
                        <g transform="matrix(1.16895,0,0,1.16895,20245.8,26222.9)">
                            <path d="M3474.37,943.946L3474.37,1194.28C3474.37,1198.27 3471.08,1201.5 3467.02,1201.5L3236.68,1201.5C3232.62,1201.5 3229.33,1198.27 3229.33,1194.28L3229.33,943.946C3229.33,939.958 3232.62,936.72 3236.68,936.72L3467.02,936.72C3471.08,936.72 3474.37,939.958 3474.37,943.946Z" style="fill:white;stroke:black;stroke-width:9.32px;stroke-miterlimit:1.5;"/>
                        </g>
                        <g transform="matrix(1.16895,0,0,1.16895,23817.9,27287.2)">
                            <g transform="matrix(1,0,0,1,-3055.82,-919.156)">
                                <rect x="3259.03" y="1038.65" width="44.536" height="59.824" style="fill:white;stroke:black;stroke-width:2.66px;stroke-miterlimit:1.5;"/>
                            </g>
                            <g transform="matrix(1,0,0,1,0,6)">
                                <g>
                                    <g transform="matrix(1,0,0,1,-3052.89,-922.535)">
                                        <circle cx="3278.36" cy="1071.94" r="20.772" style="fill:white;stroke:black;stroke-width:2.66px;stroke-miterlimit:1.5;"/>
                                    </g>
                                    <g transform="matrix(0.877333,0,0,0.877333,-2650.74,-791.044)">
                                        <circle cx="3278.36" cy="1071.94" r="20.772" style="fill:white;stroke:black;stroke-width:3.03px;stroke-miterlimit:1.5;"/>
                                    </g>
                                </g>
                            </g>
                        </g>
                        <g transform="matrix(1.16895,0,0,1.16895,23817.9,27195.4)">
                            <g transform="matrix(1,0,0,1,-3055.82,-919.156)">
                                <rect x="3259.03" y="1038.65" width="44.536" height="59.824" style="fill:white;stroke:black;stroke-width:2.66px;stroke-miterlimit:1.5;"/>
                            </g>
                            <g transform="matrix(1,0,0,1,0,6)">
                                <g>
                                    <g transform="matrix(1,0,0,1,-3052.89,-922.535)">
                                        <circle cx="3278.36" cy="1071.94" r="20.772" style="fill:white;stroke:black;stroke-width:2.66px;stroke-miterlimit:1.5;"/>
                                    </g>
                                    <g transform="matrix(0.877333,0,0,0.877333,-2650.74,-791.044)">
                                        <circle cx="3278.36" cy="1071.94" r="20.772" style="fill:white;stroke:black;stroke-width:3.03px;stroke-miterlimit:1.5;"/>
                                    </g>
                                </g>
                            </g>
                        </g>
                        <g transform="matrix(1.16895,0,0,1.16895,23817.9,27379.3)">
                            <g transform="matrix(1,0,0,1,-3055.82,-919.156)">
                                <rect x="3259.03" y="1038.65" width="44.536" height="59.824" style="fill:white;stroke:black;stroke-width:2.66px;stroke-miterlimit:1.5;"/>
                            </g>
                            <g transform="matrix(1,0,0,1,0,6)">
                                <g>
                                    <g transform="matrix(1,0,0,1,-3052.89,-922.535)">
                                        <circle cx="3278.36" cy="1071.94" r="20.772" style="fill:white;stroke:black;stroke-width:2.66px;stroke-miterlimit:1.5;"/>
                                    </g>
                                    <g transform="matrix(0.877333,0,0,0.877333,-2650.74,-791.044)">
                                        <circle cx="3278.36" cy="1071.94" r="20.772" style="fill:white;stroke:black;stroke-width:3.03px;stroke-miterlimit:1.5;"/>
                                    </g>
                                </g>
                            </g>
                        </g>
                        <g transform="matrix(1.16895,0,0,1.16895,23892.5,27287.2)">
                            <g transform="matrix(1,0,0,1,-3055.82,-919.156)">
                                <rect x="3259.03" y="1038.65" width="44.536" height="59.824" style="fill:white;stroke:black;stroke-width:2.66px;stroke-miterlimit:1.5;"/>
                            </g>
                            <g transform="matrix(1,0,0,1,0,6)">
                                <g>
                                    <g transform="matrix(1,0,0,1,-3052.89,-922.535)">
                                        <circle cx="3278.36" cy="1071.94" r="20.772" style="fill:white;stroke:black;stroke-width:2.66px;stroke-miterlimit:1.5;"/>
                                    </g>
                                    <g transform="matrix(0.877333,0,0,0.877333,-2650.74,-791.044)">
                                        <circle cx="3278.36" cy="1071.94" r="20.772" style="fill:white;stroke:black;stroke-width:3.03px;stroke-miterlimit:1.5;"/>
                                    </g>
                                </g>
                            </g>
                        </g>
                        <g transform="matrix(1.16895,0,0,1.16895,23892.5,27195)">
                            <g transform="matrix(1,0,0,1,-3055.82,-919.156)">
                                <rect x="3259.03" y="1038.65" width="44.536" height="59.824" style="fill:white;stroke:black;stroke-width:2.66px;stroke-miterlimit:1.5;"/>
                            </g>
                            <g transform="matrix(1,0,0,1,0,6)">
                                <g>
                                    <g transform="matrix(1,0,0,1,-3052.89,-922.535)">
                                        <circle cx="3278.36" cy="1071.94" r="20.772" style="fill:white;stroke:black;stroke-width:2.66px;stroke-miterlimit:1.5;"/>
                                    </g>
                                    <g transform="matrix(0.877333,0,0,0.877333,-2650.74,-791.044)">
                                        <circle cx="3278.36" cy="1071.94" r="20.772" style="fill:white;stroke:black;stroke-width:3.03px;stroke-miterlimit:1.5;"/>
                                    </g>
                                </g>
                            </g>
                        </g>
                        <g transform="matrix(1.16895,0,0,1.16895,23892.5,27379.3)">
                            <g transform="matrix(1,0,0,1,-3055.82,-919.156)">
                                <rect x="3259.03" y="1038.65" width="44.536" height="59.824" style="fill:white;stroke:black;stroke-width:2.66px;stroke-miterlimit:1.5;"/>
                            </g>
                            <g transform="matrix(1,0,0,1,0,6)">
                                <g>
                                    <g transform="matrix(1,0,0,1,-3052.89,-922.535)">
                                        <circle cx="3278.36" cy="1071.94" r="20.772" style="fill:white;stroke:black;stroke-width:2.66px;stroke-miterlimit:1.5;"/>
                                    </g>
                                    <g transform="matrix(0.877333,0,0,0.877333,-2650.74,-791.044)">
                                        <circle cx="3278.36" cy="1071.94" r="20.772" style="fill:white;stroke:black;stroke-width:3.03px;stroke-miterlimit:1.5;"/>
                                    </g>
                                </g>
                            </g>
                        </g>
                        <g transform="matrix(1.16895,0,0,1.16895,23973.2,27287.2)">
                            <g transform="matrix(1,0,0,1,-3055.82,-919.156)">
                                <rect x="3259.03" y="1038.65" width="44.536" height="59.824" style="fill:white;stroke:rgb(13,13,13);stroke-width:2.66px;stroke-miterlimit:1.5;"/>
                            </g>
                            <g transform="matrix(1,0,0,1,0,6)">
                                <g>
                                    <g transform="matrix(1,0,0,1,-3052.89,-922.535)">
                                        <circle cx="3278.36" cy="1071.94" r="20.772" style="fill:white;stroke:rgb(13,13,13);stroke-width:2.66px;stroke-miterlimit:1.5;"/>
                                    </g>
                                    <g transform="matrix(0.877333,0,0,0.877333,-2650.74,-791.044)">
                                        <circle cx="3278.36" cy="1071.94" r="20.772" style="fill:white;stroke:rgb(13,13,13);stroke-width:3.03px;stroke-miterlimit:1.5;"/>
                                    </g>
                                </g>
                            </g>
                        </g>
                        <g transform="matrix(0.318794,0,0,0.424225,17604.7,13492.9)">
                            <path d="M20814,32909.5L20814,32975.8C20814,32979 20810.4,32981.7 20806,32981.7C20801.5,32981.7 20797.9,32979 20797.9,32975.8L20797.9,32909.5C20797.9,32906.2 20801.5,32903.6 20806,32903.6C20810.4,32903.6 20814,32906.2 20814,32909.5Z" style="fill:none;stroke:rgb(13,13,13);stroke-width:8.27px;"/>
                        </g>
                        <g transform="matrix(0.13155,0,0,0.175055,21500.5,21693.6)">
                            <path d="M20814,32909.5L20814,32975.8C20814,32979 20810.4,32981.7 20806,32981.7C20801.5,32981.7 20797.9,32979 20797.9,32975.8L20797.9,32909.5C20797.9,32906.2 20801.5,32903.6 20806,32903.6C20810.4,32903.6 20814,32906.2 20814,32909.5Z" style="fill:rgb(13,13,13);"/>
                        </g>
                        <g transform="matrix(1.16895,0,0,1.16895,23973.2,27195.2)">
                            <g transform="matrix(1,0,0,1,-3055.82,-919.156)">
                                <rect x="3259.03" y="1038.65" width="44.536" height="59.824" style="fill:white;stroke:black;stroke-width:2.66px;stroke-miterlimit:1.5;"/>
                            </g>
                            <g transform="matrix(1,0,0,1,0,6)">
                                <g>
                                    <g transform="matrix(1,0,0,1,-3052.89,-922.535)">
                                        <circle cx="3278.36" cy="1071.94" r="20.772" style="fill:white;stroke:black;stroke-width:2.66px;stroke-miterlimit:1.5;"/>
                                    </g>
                                    <g transform="matrix(0.877333,0,0,0.877333,-2650.74,-791.044)">
                                        <circle cx="3278.36" cy="1071.94" r="20.772" style="fill:white;stroke:black;stroke-width:3.03px;stroke-miterlimit:1.5;"/>
                                    </g>
                                </g>
                            </g>
                        </g>
                        <g transform="matrix(1.16895,0,0,1.16895,20600.4,25922.5)">
                            <g>
                                <g transform="matrix(-0.186086,0.713399,-0.707212,-0.176732,4556.45,-841.722)">
                                    <path d="M3390.68,1167.95L3392.42,1169.44L3391.59,1171.85L3394.75,1174.56L3396.93,1173.3L3398.63,1174.76L3388.83,1180.12L3387.14,1178.67L3390.68,1167.95ZM3390.97,1173.64L3389.57,1177.55L3393.13,1175.49L3390.97,1173.64Z" style="fill:rgb(115,115,115);fill-rule:nonzero;stroke:white;stroke-width:4.35px;stroke-miterlimit:2;"/>
                                    <path d="M3389.63,1166.62L3380.9,1172.31L3378.51,1168.55C3377.91,1167.61 3377.55,1166.87 3377.44,1166.34C3377.32,1165.82 3377.38,1165.29 3377.62,1164.77C3377.86,1164.26 3378.23,1163.83 3378.75,1163.49C3379.4,1163.06 3380.07,1162.91 3380.74,1163.02C3381.42,1163.13 3382.06,1163.54 3382.66,1164.24C3382.64,1163.71 3382.68,1163.23 3382.79,1162.81C3382.89,1162.38 3383.15,1161.74 3383.56,1160.87L3384.57,1158.68L3385.93,1160.81L3384.85,1163.34C3384.47,1164.24 3384.24,1164.83 3384.17,1165.11C3384.1,1165.4 3384.09,1165.65 3384.15,1165.89C3384.2,1166.12 3384.36,1166.44 3384.62,1166.85L3384.85,1167.21L3388.49,1164.84L3389.63,1166.62ZM3383.46,1168.12L3382.62,1166.8C3382.07,1165.94 3381.7,1165.43 3381.49,1165.27C3381.28,1165.1 3381.05,1165.01 3380.8,1165.01C3380.55,1165 3380.29,1165.08 3380.03,1165.25C3379.74,1165.44 3379.55,1165.68 3379.47,1165.95C3379.39,1166.23 3379.42,1166.53 3379.56,1166.85C3379.63,1167.01 3379.9,1167.45 3380.36,1168.17L3381.24,1169.56L3383.46,1168.12Z" style="fill:rgb(115,115,115);fill-rule:nonzero;stroke:white;stroke-width:4.35px;stroke-miterlimit:2;"/>
                                    <path d="M3383.86,1157.11L3373.89,1160.06L3372.65,1155.78C3372.34,1154.7 3372.21,1153.89 3372.24,1153.35C3372.28,1152.81 3372.49,1152.32 3372.86,1151.89C3373.23,1151.46 3373.71,1151.16 3374.3,1150.99C3375.05,1150.77 3375.73,1150.81 3376.35,1151.11C3376.96,1151.41 3377.46,1151.98 3377.85,1152.83C3377.97,1152.31 3378.14,1151.87 3378.37,1151.49C3378.59,1151.12 3379.01,1150.57 3379.65,1149.85L3381.24,1148.05L3381.94,1150.48L3380.2,1152.6C3379.57,1153.35 3379.19,1153.85 3379.04,1154.1C3378.9,1154.35 3378.82,1154.6 3378.81,1154.84C3378.79,1155.07 3378.86,1155.42 3378.99,1155.89L3379.11,1156.31L3383.27,1155.07L3383.86,1157.11ZM3377.52,1156.78L3377.08,1155.27C3376.8,1154.29 3376.58,1153.7 3376.43,1153.48C3376.28,1153.26 3376.08,1153.11 3375.85,1153.03C3375.61,1152.95 3375.34,1152.96 3375.04,1153.05C3374.7,1153.15 3374.46,1153.32 3374.3,1153.56C3374.15,1153.8 3374.09,1154.1 3374.14,1154.44C3374.16,1154.61 3374.29,1155.11 3374.53,1155.94L3374.99,1157.53L3377.52,1156.78Z" style="fill:rgb(115,115,115);fill-rule:nonzero;stroke:white;stroke-width:4.35px;stroke-miterlimit:2;"/>
                                    <path d="M3381.08,1146.33L3370.7,1146.49L3370.58,1138.7L3372.34,1138.67L3372.42,1144.34L3374.73,1144.3L3374.65,1139.03L3376.39,1139L3376.47,1144.28L3379.3,1144.23L3379.21,1138.37L3380.96,1138.34L3381.08,1146.33ZM3370.09,1145.15L3367.97,1143.68L3367.95,1141.81L3370.01,1140.3L3370.04,1141.92L3368.99,1142.76L3370.06,1143.52L3370.09,1145.15Z" style="fill:rgb(115,115,115);fill-rule:nonzero;stroke:white;stroke-width:4.35px;stroke-miterlimit:2;"/>
                                    <path d="M3381.83,1133.72L3373.44,1131.68L3372.72,1134.71L3371.01,1134.3L3372.94,1126.18L3374.65,1126.6L3373.93,1129.62L3382.32,1131.66L3381.83,1133.72Z" style="fill:rgb(115,115,115);fill-rule:nonzero;stroke:white;stroke-width:4.35px;stroke-miterlimit:2;"/>
                                </g>
                                <g transform="matrix(0.695129,0.170681,-0.180209,0.700641,925.16,-330.711)">
                                    <path d="M3530.98,1628.37L3534.06,1630.81C3534.76,1631.36 3535.24,1631.83 3535.52,1632.23C3535.9,1632.76 3536.11,1633.34 3536.17,1633.99C3536.22,1634.63 3536.13,1635.28 3535.88,1635.95C3535.64,1636.63 3535.2,1637.35 3534.58,1638.12C3534.03,1638.81 3533.47,1639.32 3532.9,1639.68C3532.2,1640.12 3531.51,1640.37 3530.82,1640.43C3530.3,1640.48 3529.73,1640.39 3529.11,1640.15C3528.64,1639.98 3528.1,1639.64 3527.47,1639.15L3524.3,1636.64L3530.98,1628.37ZM3531.53,1631.11L3527.11,1636.58L3528.37,1637.58C3528.84,1637.95 3529.2,1638.19 3529.45,1638.3C3529.78,1638.45 3530.1,1638.52 3530.41,1638.5C3530.72,1638.48 3531.09,1638.33 3531.5,1638.05C3531.91,1637.77 3532.38,1637.31 3532.89,1636.67C3533.41,1636.03 3533.75,1635.5 3533.91,1635.07C3534.07,1634.63 3534.13,1634.24 3534.08,1633.89C3534.03,1633.53 3533.87,1633.2 3533.61,1632.88C3533.42,1632.64 3532.98,1632.25 3532.29,1631.7L3531.53,1631.11Z" style="fill:rgb(115,115,115);fill-rule:nonzero;stroke:white;stroke-width:4.45px;stroke-miterlimit:2;"/>
                                    <path d="M3538.36,1638.26L3538.97,1636.35L3539.83,1634.78L3541.79,1635.83L3540.93,1637.4L3539.68,1638.98L3538.36,1638.26Z" style="fill:rgb(115,115,115);fill-rule:nonzero;stroke:white;stroke-width:4.45px;stroke-miterlimit:2;"/>
                                    <path d="M3543.79,1636.99L3545.85,1637.65L3544.05,1643.1C3543.77,1643.97 3543.61,1644.53 3543.58,1644.81C3543.53,1645.25 3543.63,1645.64 3543.88,1646C3544.12,1646.36 3544.54,1646.63 3545.11,1646.81C3545.69,1647 3546.17,1647.02 3546.54,1646.88C3546.92,1646.74 3547.19,1646.51 3547.36,1646.19C3547.54,1645.86 3547.75,1645.3 3548.02,1644.51L3549.85,1638.94L3551.9,1639.6L3550.16,1644.89C3549.76,1646.1 3549.43,1646.93 3549.15,1647.39C3548.88,1647.86 3548.53,1648.21 3548.12,1648.46C3547.71,1648.71 3547.22,1648.85 3546.66,1648.89C3546.09,1648.94 3545.4,1648.83 3544.6,1648.57C3543.63,1648.26 3542.93,1647.91 3542.5,1647.52C3542.07,1647.14 3541.77,1646.72 3541.6,1646.28C3541.42,1645.83 3541.35,1645.39 3541.39,1644.97C3541.44,1644.36 3541.66,1643.48 3542.03,1642.36L3543.79,1636.99Z" style="fill:rgb(115,115,115);fill-rule:nonzero;stroke:white;stroke-width:4.45px;stroke-miterlimit:2;"/>
                                    <path d="M3553.59,1650.64L3554.1,1640.07L3558.64,1640.28C3559.78,1640.34 3560.6,1640.47 3561.11,1640.68C3561.62,1640.9 3562.02,1641.26 3562.31,1641.76C3562.59,1642.26 3562.72,1642.82 3562.69,1643.44C3562.65,1644.24 3562.39,1644.88 3561.89,1645.37C3561.39,1645.87 3560.68,1646.16 3559.73,1646.25C3560.18,1646.54 3560.56,1646.86 3560.84,1647.19C3561.13,1647.53 3561.51,1648.12 3561.99,1648.97L3563.2,1651.09L3560.62,1650.97L3559.17,1648.6C3558.65,1647.75 3558.3,1647.21 3558.1,1646.99C3557.91,1646.77 3557.7,1646.61 3557.48,1646.52C3557.25,1646.43 3556.89,1646.37 3556.4,1646.35L3555.96,1646.33L3555.75,1650.74L3553.59,1650.64ZM3556.04,1644.64L3557.64,1644.72C3558.67,1644.76 3559.32,1644.75 3559.58,1644.68C3559.84,1644.6 3560.05,1644.46 3560.21,1644.26C3560.36,1644.05 3560.45,1643.79 3560.46,1643.48C3560.48,1643.12 3560.4,1642.83 3560.22,1642.6C3560.03,1642.37 3559.77,1642.22 3559.42,1642.15C3559.25,1642.12 3558.73,1642.08 3557.85,1642.04L3556.17,1641.96L3556.04,1644.64Z" style="fill:rgb(115,115,115);fill-rule:nonzero;stroke:white;stroke-width:4.45px;stroke-miterlimit:2;"/>
                                    <path d="M3571.22,1645.96L3570.85,1644.22L3575.41,1643.28L3576.27,1647.41C3575.92,1647.93 3575.35,1648.43 3574.58,1648.93C3573.81,1649.42 3572.99,1649.76 3572.13,1649.93C3571.03,1650.16 3570.03,1650.12 3569.12,1649.84C3568.21,1649.55 3567.46,1649.02 3566.88,1648.26C3566.29,1647.5 3565.89,1646.62 3565.69,1645.63C3565.46,1644.55 3565.49,1643.54 3565.77,1642.61C3566.05,1641.68 3566.59,1640.9 3567.38,1640.27C3567.98,1639.79 3568.78,1639.44 3569.78,1639.24C3571.08,1638.97 3572.15,1639.04 3572.99,1639.43C3573.84,1639.82 3574.46,1640.47 3574.87,1641.38L3572.85,1642.19C3572.6,1641.71 3572.24,1641.37 3571.77,1641.16C3571.3,1640.95 3570.76,1640.9 3570.15,1641.03C3569.23,1641.22 3568.55,1641.66 3568.13,1642.35C3567.7,1643.04 3567.61,1643.95 3567.85,1645.1C3568.11,1646.33 3568.57,1647.19 3569.26,1647.69C3569.94,1648.19 3570.72,1648.36 3571.62,1648.17C3572.06,1648.08 3572.49,1647.9 3572.9,1647.64C3573.31,1647.38 3573.65,1647.09 3573.91,1646.78L3573.64,1645.47L3571.22,1645.96Z" style="fill:rgb(115,115,115);fill-rule:nonzero;stroke:white;stroke-width:4.45px;stroke-miterlimit:2;"/>
                                    <path d="M3581.06,1647.16L3576.25,1637.71L3583.34,1634.19L3584.15,1635.79L3578.99,1638.35L3580.06,1640.45L3584.86,1638.06L3585.66,1639.65L3580.87,1642.04L3582.18,1644.61L3587.51,1641.95L3588.32,1643.55L3581.06,1647.16Z" style="fill:rgb(115,115,115);fill-rule:nonzero;stroke:white;stroke-width:4.45px;stroke-miterlimit:2;"/>
                                    <path d="M3592.22,1641.01L3585.26,1632.97L3586.86,1631.62L3594.83,1634.17L3590.18,1628.8L3591.71,1627.51L3598.66,1635.55L3597.02,1636.94L3589.21,1634.47L3593.74,1639.71L3592.22,1641.01Z" style="fill:rgb(115,115,115);fill-rule:nonzero;stroke:white;stroke-width:4.45px;stroke-miterlimit:2;"/>
                                    <path d="M3602.79,1624.06L3604.53,1622.75C3605.31,1623.67 3605.71,1624.6 3605.74,1625.52C3605.78,1626.45 3605.46,1627.38 3604.8,1628.31C3603.99,1629.45 3602.92,1630.12 3601.6,1630.31C3600.28,1630.5 3598.93,1630.12 3597.56,1629.16C3596.1,1628.15 3595.23,1626.99 3594.95,1625.68C3594.68,1624.38 3594.97,1623.12 3595.83,1621.91C3596.58,1620.85 3597.51,1620.21 3598.61,1619.99C3599.27,1619.85 3600.01,1619.93 3600.85,1620.22L3600.04,1622.24C3599.52,1622.03 3599.01,1621.99 3598.51,1622.14C3598.02,1622.28 3597.61,1622.58 3597.28,1623.05C3596.82,1623.69 3596.68,1624.37 3596.87,1625.09C3597.05,1625.82 3597.66,1626.54 3598.7,1627.27C3599.81,1628.04 3600.74,1628.39 3601.49,1628.32C3602.24,1628.25 3602.83,1627.9 3603.28,1627.27C3603.61,1626.81 3603.74,1626.31 3603.68,1625.76C3603.62,1625.22 3603.33,1624.65 3602.79,1624.06Z" style="fill:rgb(115,115,115);fill-rule:nonzero;stroke:white;stroke-width:4.45px;stroke-miterlimit:2;"/>
                                    <path d="M3609.34,1620.5L3599.35,1616.72L3602.18,1609.39L3603.87,1610.03L3601.81,1615.36L3604.02,1616.2L3605.94,1611.24L3607.63,1611.88L3605.71,1616.84L3608.42,1617.87L3610.56,1612.35L3612.24,1612.99L3609.34,1620.5Z" style="fill:rgb(115,115,115);fill-rule:nonzero;stroke:white;stroke-width:4.45px;stroke-miterlimit:2;"/>
                                </g>
                                <g transform="matrix(1,0,0,1,-2.28864,0.968388)">
                                    <g transform="matrix(0.608229,-0.10285,0.10285,0.608229,917.292,1052.67)">
                                        <circle cx="3420.02" cy="1141.73" r="39" style="fill:none;stroke:rgb(13,13,13);stroke-width:4.33px;stroke-miterlimit:1.5;"/>
                                    </g>
                                    <g transform="matrix(0.620377,-0.104904,0.104242,0.616465,828.622,949.756)">
                                        <g transform="matrix(5.04994,0.859347,-0.839366,4.99532,1762.82,-982.77)">
                                            <path d="M394.43,388.239L398.102,393.258L399.914,387.309L394.43,388.239Z" style="fill:rgb(51,51,51);"/>
                                            <path d="M407.967,385.478L401.749,385.518L405.512,390.469L407.967,385.478Z" style="fill:rgb(51,51,51);"/>
                                            <path d="M402.515,398.11L405.917,392.905L399.712,393.307L402.515,398.11Z" style="fill:rgb(51,51,51);"/>
                                            <path d="M397.358,388.871C397.821,387.417 398.955,386.228 400.449,385.745M405.741,387.482C406.166,388.068 406.466,388.76 406.593,389.525C406.724,390.312 406.657,391.088 406.43,391.8M402.074,395.148C400.924,395.195 399.831,394.818 398.966,394.138" style="fill:none;stroke:rgb(51,51,51);stroke-width:0.83px;stroke-miterlimit:1.5;"/>
                                        </g>
                                    </g>
                                </g>
                            </g>
                            <g transform="matrix(1.05998,0,0,1.05998,-512.548,186.122)">
                                <circle cx="3420.02" cy="1141.73" r="39" style="fill:none;stroke:rgb(13,13,13);stroke-width:2.51px;stroke-miterlimit:1.5;"/>
                            </g>
                        </g>
                    </g>
                </g>
            </g>
            <g transform="matrix(0.0865452,0,0,0.128774,-222.913,-158.138)">
                <path d="M2997.63,1516.35L2977.12,1516.35L2977.12,1409.73C2972.18,1413.58 2965.71,1417.42 2957.7,1421.26C2949.68,1425.1 2942.49,1427.98 2936.1,1429.9L2936.1,1413.73C2947.57,1409.33 2957.6,1404 2966.18,1397.74C2974.77,1391.48 2980.84,1385.41 2984.41,1379.52L2997.63,1379.52L2997.63,1516.35Z" style="fill-rule:nonzero;"/>
            </g>
            <g transform="matrix(0.0865452,0,0,0.128774,204.101,-158.138)">
                <path d="M3028.17,1500.27L3028.17,1516.35L2917.76,1516.35C2917.61,1512.32 2918.41,1508.45 2920.15,1504.73C2922.96,1498.6 2927.46,1492.56 2933.65,1486.61C2939.85,1480.66 2948.79,1473.78 2960.49,1465.97C2978.64,1453.82 2990.91,1444.2 2997.29,1437.11C3003.67,1430.01 3006.86,1423.3 3006.86,1416.98C3006.86,1410.35 3003.95,1404.76 2998.14,1400.2C2992.33,1395.65 2984.76,1393.37 2975.41,1393.37C2965.54,1393.37 2957.64,1395.79 2951.71,1400.62C2945.79,1405.46 2942.79,1412.15 2942.71,1420.7L2921.63,1418.94C2923.08,1406.11 2928.51,1396.33 2937.93,1389.61C2947.35,1382.88 2959.99,1379.52 2975.87,1379.52C2991.9,1379.52 3004.58,1383.15 3013.93,1390.4C3023.27,1397.65 3027.94,1406.63 3027.94,1417.36C3027.94,1422.81 3026.57,1428.17 3023.84,1433.44C3021.1,1438.7 3016.57,1444.25 3010.22,1450.08C3003.88,1455.9 2993.34,1463.89 2978.6,1474.06C2966.3,1482.49 2958.4,1488.2 2954.9,1491.21C2951.41,1494.21 2948.52,1497.23 2946.24,1500.27L3028.17,1500.27Z" style="fill-rule:nonzero;"/>
            </g>
            <g transform="matrix(1,0,0,1,230.669,-3.80059)">
                <g transform="matrix(0.481989,0,0,0.684878,-3466.04,-1096.05)">
                    <g transform="matrix(0.471034,0,0,0.451577,-4691.69,-9110.16)">
                        <path d="M26911,24156.5L26911,24578.2L26406,24578.2L26406,23917.5L26911,23917.5L26911,23917.7C26913,23917.2 26915.1,23916.9 26917.2,23916.9L27053.6,23916.9C27068.2,23916.9 27080.1,23929.3 27080.1,23944.6L27080.1,24129.6C27080.1,24144.9 27068.2,24157.3 27053.6,24157.3L26917.2,24157.3C26915.1,24157.3 26913,24157 26911,24156.5Z" style="fill:rgb(254,255,254);stroke:rgb(128,128,128);stroke-width:7.34px;"/>
                    </g>
                    <g id="path28361" serif:id="path2836" transform="matrix(1.32953,1.87253e-17,-1.87253e-17,-1.17663,7531.22,2217.92)">
                        <path d="M187.282,305.953L182.539,311.981L172.757,311.917L172.757,302.834L167.387,302.834L166.74,305.685L166.223,308.609L165.964,311.46L165.835,314.458L165.964,317.382L166.223,320.379L166.74,323.45L167.387,326.52L172.757,326.52L172.757,318.287L182.539,318.223L187.282,322.217L210.3,322.217L210.3,305.953L187.282,305.953Z" style="fill:white;stroke:rgb(128,128,128);stroke-width:2.71px;stroke-miterlimit:2;"/>
                    </g>
                    <g transform="matrix(0.476334,0.126551,-0.0304643,0.10833,-4087.36,-4074.88)">
                        <rect x="26318.1" y="24237.7" width="315.175" height="79.714" style="fill:rgb(254,255,254);"/>
                    </g>
                    <g transform="matrix(0.476334,0.126551,-0.0304643,0.10833,-4087.36,-4074.88)">
                        <path d="M26636.6,24237.9L26636.6,24317.6C26636.6,24325.7 26635.1,24332.2 26633.3,24332.2L26318.1,24332.2C26317.2,24332.2 26316.3,24330.6 26315.7,24327.8C26315.1,24325 26314.7,24321.1 26314.7,24317.2L26314.7,24237.5C26314.7,24229.4 26316.2,24222.9 26318,24222.9L26633.2,24222.9C26634.1,24222.9 26635,24224.5 26635.6,24227.3C26636.3,24230.1 26636.6,24233.9 26636.6,24237.9ZM26629.9,24252.5L26321.5,24252.5L26321.5,24302.6L26629.9,24302.6L26629.9,24252.5Z" style="fill:rgb(128,128,128);"/>
                    </g>
                    <g transform="matrix(0.689897,0,0,0.272402,-10431.4,-4702.85)">
                        <rect x="26260.4" y="24404.5" width="596.013" height="55.186" style="fill:rgb(254,255,254);"/>
                    </g>
                    <g transform="matrix(0.689897,0,0,0.272402,-10431.4,-4702.85)">
                        <path d="M26858.9,24404.5L26858.9,24459.6C26858.9,24463 26857.8,24465.8 26856.4,24465.8L26260.4,24465.8C26259.1,24465.8 26258,24463 26258,24459.6L26258,24404.5C26258,24401.1 26259.1,24398.3 26260.4,24398.3L26856.4,24398.3C26857.8,24398.3 26858.9,24401.1 26858.9,24404.5ZM26854,24410.6L26262.9,24410.6L26262.9,24453.5L26854,24453.5L26854,24410.6Z" style="fill:rgb(128,128,128);"/>
                    </g>
                    <g transform="matrix(0.488761,0,0,0.476881,-5162.44,-9706.06)">
                        <rect x="26271.5" y="23898" width="127.542" height="213.387" style="fill:none;stroke:rgb(128,128,128);stroke-width:7.01px;"/>
                    </g>
                    <g transform="matrix(0.488761,0,0,0.476881,-5152.8,-9706.06)">
                        <path d="M26321.8,24111.4C26321.8,24111.4 26305.3,24175.5 26380.5,24174.4C26504.6,24172.6 26544.8,24214.4 26536.2,24229.1" style="fill:none;stroke:rgb(128,128,128);stroke-width:7.01px;"/>
                    </g>
                    <g transform="matrix(0.488761,0,0,0.476881,-5156.54,-9708.12)">
                        <rect x="26872.5" y="24355.7" width="127.427" height="137.008" style="fill:rgb(254,255,254);stroke:rgb(128,128,128);stroke-width:7.01px;"/>
                    </g>
                    <g transform="matrix(0.614054,0,0,0.614054,-3855.2,-18380.6)">
                        <path d="M19138,32991.9L19109.9,32991.9L19109.9,32978L19138,32978L19138,32955.2L19126.1,32955.2L19126.1,32938.5L19138,32938.5L19138,32926.1L19145.7,32926.1L19145.7,32938.5L19156.6,32938.5L19156.6,32930.9C19156.6,32923.9 19162.3,32918.2 19169.3,32918.2L19231.6,32918.2C19238.7,32918.2 19244.4,32923.9 19244.4,32930.9L19244.4,32956.4C19244.4,32963.4 19238.7,32969.1 19231.6,32969.1L19169.3,32969.1C19162.3,32969.1 19156.6,32963.4 19156.6,32956.4L19156.6,32955.2L19145.7,32955.2L19145.7,32978L19233.9,32978L19233.9,32991.9L19145.7,32991.9L19145.7,33002.3L19149.4,33002.3L19149.4,33015.5L19134.3,33015.5L19134.3,33002.3L19138,33002.3L19138,32991.9Z" style="fill:none;stroke:rgb(128,128,128);stroke-width:5.5px;"/>
                    </g>
                    <g transform="matrix(0.833005,0,0,1.28133,491.892,2480.83)">
                        <path d="M8783.47,-503.985L8777.13,-503.985L8777.13,-513.843L8783.47,-513.843L8783.47,-532.487L8793.32,-532.487L8793.32,-513.843L8799.66,-513.843L8799.66,-503.985L8793.32,-503.985L8793.32,-469.69L8799.66,-469.69L8799.66,-459.832L8793.32,-459.832L8793.32,-450.879L8789.48,-450.879L8789.48,-442.265L8787.31,-442.265L8787.31,-450.879L8783.47,-450.879L8783.47,-459.832L8777.13,-459.832L8777.13,-469.69L8783.47,-469.69L8783.47,-503.985Z" style="fill:white;stroke:rgb(128,128,128);stroke-width:3.06px;stroke-miterlimit:1.5;"/>
                    </g>
                </g>
                <g transform="matrix(0.563434,0,0,0.962698,-4648.09,-6769.6)">
                    <path d="M8926.79,7172.4L8875.52,7139.44L8672.49,7139.44L8723.76,7172.4L8926.79,7172.4Z" style="fill:rgb(230,230,230);fill-opacity:0.68;stroke:black;stroke-width:2.59px;stroke-miterlimit:1.5;"/>
                </g>
                <g transform="matrix(0.499684,-0.164862,0.128673,0.640223,178.925,-28.9429)">
                    <g>
                        <path d="M29.034,260.683L59.231,252.638L58.498,283.88L29.034,260.683Z" style="fill:rgb(64,64,64);"/>
                        <path d="M60.018,343.113C43.112,341.215 9.041,312.371 46.859,268.353" style="fill:none;stroke:rgb(64,64,64);stroke-width:8.33px;"/>
                    </g>
                </g>
            </g>
        </g>
    </g>
</svg>
