<?xml version="1.0" encoding="UTF-8" standalone="no"?>
<!DOCTYPE svg PUBLIC "-//W3C//DTD SVG 1.1//EN" "http://www.w3.org/Graphics/SVG/1.1/DTD/svg11.dtd">
<svg width="100%" height="100%" viewBox="0 0 1453 473" version="1.1" xmlns="http://www.w3.org/2000/svg" xmlns:xlink="http://www.w3.org/1999/xlink" xml:space="preserve" xmlns:serif="http://www.serif.com/" style="fill-rule:evenodd;clip-rule:evenodd;stroke-linecap:round;stroke-linejoin:round;stroke-miterlimit:10;">
    <g transform="matrix(1,0,0,1,-10147,-2913)">
        <g id="Artboard3" transform="matrix(0.328755,0,0,0.162836,7950.37,2857.86)">
            <rect x="6681.81" y="338.631" width="4418.96" height="2901.34" style="fill:none;"/>
            <g transform="matrix(0.83862,0,0,0.845171,577.007,526.196)">
                <g transform="matrix(2.12106,0,0,4.2823,-47399.5,-156265)">
                    <rect x="26112.8" y="36732" width="555.466" height="429.223" style="fill:none;"/>
                    <clipPath id="_clip1">
                        <rect x="26112.8" y="36732" width="555.466" height="429.223"/>
                    </clipPath>
                    <g clip-path="url(#_clip1)">
                        <g transform="matrix(2.81342,0,0,2.81342,-51536.4,-68052.2)">
                            <g transform="matrix(1,0,0,1,92.77,519.512)">
                                <g transform="matrix(1.13897,0.657588,-0.5,0.866025,14610.4,-13240.7)">
                                    <rect x="27549" y="36801.2" width="241.621" height="54.999" style="fill:rgb(242,242,242);stroke:rgb(13,13,13);stroke-width:0.43px;"/>
                                </g>
                                <g transform="matrix(1.13897,0.657588,-0.5,0.866025,14612,-13230.9)">
                                    <rect x="27549" y="36801.2" width="241.621" height="54.999" style="fill:rgb(204,204,204);stroke:rgb(153,153,153);stroke-width:0.43px;"/>
                                </g>
                            </g>
                            <g transform="matrix(1,0,0,1,92.77,519.512)">
                                <path d="M27587.4,36746C27587.4,36746 27584.9,36750 27589.1,36755.9" style="fill:none;stroke:rgb(153,153,153);stroke-width:0.5px;"/>
                            </g>
                            <g transform="matrix(2.11228,1.21952,-0.966364,1.67379,4461.12,-57730.3)">
                                <g transform="matrix(1,0,0,1,56.2485,-229.776)">
                                    <path d="M27665.2,36796.4L27665.2,36812C27663.2,36816.7 27646.1,36816.8 27644,36812L27644,36796.4C27646.4,36800.1 27662.4,36800.1 27665.2,36796.4Z" style="fill:white;stroke:black;stroke-width:0.8px;"/>
                                </g>
                                <g transform="matrix(1.01231,0,0,0.945282,-311.952,1959.81)">
                                    <ellipse cx="27682.1" cy="36609.6" rx="10.438" ry="3.287" style="fill:white;stroke:black;stroke-width:0.81px;"/>
                                </g>
                            </g>
                            <g transform="matrix(0.866025,0.5,-0.396205,0.686248,18257,-1644.29)">
                                <g transform="matrix(1,0,0,1,56.2485,-229.776)">
                                    <path d="M27665.2,36796.4L27665.2,36812C27663.2,36816.7 27646.1,36816.8 27644,36812L27644,36796.4C27646.4,36800.1 27662.4,36800.1 27665.2,36796.4Z" style="fill:rgb(230,230,230);stroke:rgb(153,153,153);stroke-width:0.56px;"/>
                                </g>
                                <g transform="matrix(1.01231,0,0,0.945282,-311.952,1959.81)">
                                    <ellipse cx="27682.1" cy="36609.6" rx="10.438" ry="3.287" style="fill:rgb(230,230,230);stroke:rgb(153,153,153);stroke-width:0.57px;"/>
                                </g>
                            </g>
                            <g transform="matrix(1,0,0,1,92.77,519.512)">
                                <g transform="matrix(1.13897,0.657588,-0.5,0.866025,14593.2,-13222.5)">
                                    <path d="M27790.7,36801.2L27790.7,36856.2L27549,36856.2L27542.8,36808C27544.8,36804.1 27546.8,36801.6 27549,36801.2L27790.7,36801.2Z" style="fill:white;stroke:rgb(26,26,26);stroke-width:0.43px;"/>
                                </g>
                                <g transform="matrix(1.13897,0.657588,-0.5,0.866025,14582.6,-13220.8)">
                                    <rect x="27549" y="36801.2" width="241.621" height="54.999" style="fill:white;stroke:rgb(26,26,26);stroke-width:0.43px;"/>
                                </g>
                            </g>
                            <g transform="matrix(1,0,0,1,95.6095,519.018)">
                                <g transform="matrix(0.5,-0.866025,0.866025,0.5,-18181.9,42454.6)">
                                    <g>
                                        <path d="M27816.6,36824.4C27816.1,36868.5 27815.8,36912.2 27815.7,36955.2C27815.7,36958.9 27814.2,36960.8 27812.5,36959.8C27809.4,36958 27806.3,36956.1 27803.1,36954.2C27801.4,36953.2 27800,36949.5 27800,36945.8C27799.9,36902.4 27800,36858.3 27800.3,36813.8C27800.4,36809.8 27802,36807.9 27803.7,36809.1C27806.9,36811.2 27810.2,36813.4 27813.5,36815.5C27815.2,36816.7 27816.7,36820.6 27816.6,36824.4Z" style="fill:rgb(242,242,242);stroke:rgb(140,140,140);stroke-width:0.51px;"/>
                                    </g>
                                </g>
                            </g>
                            <g transform="matrix(0.866025,0.5,-0.396205,0.686248,18239.8,-1631.34)">
                                <g transform="matrix(1,0,0,1,56.2485,-229.776)">
                                    <path d="M27665.2,36796.4L27665.2,36812C27663.2,36816.7 27646.1,36816.8 27644,36812L27644,36796.4C27646.4,36800.1 27662.4,36800.1 27665.2,36796.4Z" style="fill:rgb(230,230,230);stroke:rgb(153,153,153);stroke-width:0.56px;"/>
                                </g>
                                <g transform="matrix(1.01231,0,0,0.945282,-311.952,1959.81)">
                                    <ellipse cx="27682.1" cy="36609.6" rx="10.438" ry="3.287" style="fill:rgb(230,230,230);stroke:rgb(153,153,153);stroke-width:0.57px;"/>
                                </g>
                            </g>
                        </g>
                    </g>
                </g>
                <g transform="matrix(3.04178,0,0,6.14116,-14981.6,-2780.85)">
                    <path d="M7669.07,625.944L7619.03,600.072L7623.62,591.328L7673.67,617.2L7681.7,601.898L7697.81,635.24L7661.04,641.246L7669.07,625.944Z"/>
                </g>
            </g>
            <g transform="matrix(1,0,0,1,-2170.65,59.0081)">
                <g transform="matrix(0.806804,0,0,0.806804,1961.67,754.182)">
                    <g transform="matrix(13.739,-2.80296e-15,6.94166e-15,21.98,-370981,-807773)">
                        <path d="M27665.2,36796.4L27665.2,36812C27663.2,36816.7 27646.1,36816.8 27644,36812L27644,36796.4C27646.4,36800.1 27662.4,36800.1 27665.2,36796.4Z" style="fill:white;stroke:black;stroke-width:0.89px;"/>
                    </g>
                    <g transform="matrix(13.9081,-4.20444e-15,6.2475e-15,20.7773,-376039,-759644)">
                        <ellipse cx="27682.1" cy="36609.6" rx="10.438" ry="3.287" style="fill:white;stroke:black;stroke-width:0.9px;"/>
                    </g>
                    <g transform="matrix(10.8577,-4.20444e-15,4.85916e-15,16.2204,-291596,-592798)">
                        <ellipse cx="27682.1" cy="36609.6" rx="10.438" ry="3.287" style="fill:white;stroke:black;stroke-width:1.15px;"/>
                    </g>
                    <g transform="matrix(9.63364,-1.40148e-15,4.51208e-15,14.3917,-257709,-525826)">
                        <path d="M27671.6,36609.6C27671.6,36607.8 27676.3,36606.3 27682.1,36606.3C27687.8,36606.3 27692.5,36607.8 27692.5,36609.6" style="fill:white;stroke:black;stroke-width:1.3px;"/>
                    </g>
                    <g transform="matrix(6.21016,1.82529e-15,3.61633e-15,9.27738,-162942,-338574)">
                        <path d="M27671.6,36609.6C27671.6,36607.8 27676.3,36606.3 27682.1,36606.3C27687.8,36606.3 27692.5,36607.8 27692.5,36609.6" style="fill:white;stroke:black;stroke-width:2.01px;"/>
                    </g>
                    <g transform="matrix(14.4722,29.2186,-14.4722,29.2186,172275,-1.85659e+06)">
                        <path d="M26140.1,37428.8L26140.1,37425.7L26137,37425.7L26137,37424.4L26140.1,37424.4L26140.1,37421.3L26141.4,37421.3L26141.4,37424.4L26144.4,37424.4L26144.4,37425.7L26141.4,37425.7L26141.4,37428.8L26140.1,37428.8Z" style="fill-rule:nonzero;"/>
                    </g>
                </g>
                <g transform="matrix(0.806804,0,0,0.806804,1966.35,630.097)">
                    <g transform="matrix(13.739,-2.80296e-15,6.94166e-15,21.98,-370986,-806579)">
                        <path d="M27665.2,36796.4L27665.2,36812C27663.2,36816.7 27646.1,36816.8 27644,36812L27644,36796.4C27646.4,36800.1 27662.4,36800.1 27665.2,36796.4Z" style="fill:white;stroke:black;stroke-width:0.89px;"/>
                    </g>
                    <g transform="matrix(13.9081,-4.20444e-15,6.2475e-15,20.7773,-376045,-758452)">
                        <ellipse cx="27682.1" cy="36609.6" rx="10.438" ry="3.287" style="fill:white;stroke:black;stroke-width:0.9px;"/>
                    </g>
                    <g transform="matrix(3.12625,0,0,6.31171,-73566.8,-234749)">
                        <path d="M26377.5,37495.3L26385.7,37489.4L26394.9,37502.2C26400.1,37495.8 26409.6,37484.7 26419.1,37475.9C26425.5,37469.8 26432,37464.8 26437.2,37462.7L26441.1,37472C26436.7,37473.8 26431.4,37478.1 26425.9,37483.2C26412.3,37495.9 26398.6,37513.5 26398.6,37513.5C26397.6,37514.8 26396.1,37515.5 26394.5,37515.5C26392.9,37515.4 26391.5,37514.6 26390.5,37513.4L26377.5,37495.3Z" style="fill:rgb(1,0,1);"/>
                    </g>
                </g>
            </g>
            <g transform="matrix(2.65558,0,0,5.06914,-57290.9,-168283)">
                <path d="M24186.1,33403.5L24209.1,33330.6L24217.6,33330.6L24242.1,33403.5L24233,33403.5L24226.1,33381.4L24201.1,33381.4L24194.5,33403.5L24186.1,33403.5ZM24203.4,33373.6L24223.6,33373.6L24217.4,33353.4C24215.5,33347.2 24214.1,33342.1 24213.2,33338.2C24212.4,33342.9 24211.3,33347.6 24209.9,33352.2L24203.4,33373.6Z" style="fill-rule:nonzero;"/>
                <path d="M24257.6,33403.5L24257.6,33339.2L24237.9,33339.2L24237.9,33330.6L24285.3,33330.6L24285.3,33339.2L24265.5,33339.2L24265.5,33403.5L24257.6,33403.5Z" style="fill-rule:nonzero;"/>
                <path d="M24308.6,33403.5L24308.6,33339.2L24288.9,33339.2L24288.9,33330.6L24336.4,33330.6L24336.4,33339.2L24316.6,33339.2L24316.6,33403.5L24308.6,33403.5Z" style="fill-rule:nonzero;"/>
                <path d="M24344.5,33403.5L24344.5,33330.6L24387.7,33330.6L24387.7,33339.2L24352.4,33339.2L24352.4,33361.5L24385.5,33361.5L24385.5,33370.1L24352.4,33370.1L24352.4,33394.9L24389.1,33394.9L24389.1,33403.5L24344.5,33403.5Z" style="fill-rule:nonzero;"/>
                <path d="M24399.8,33403.5L24399.8,33330.6L24407.9,33330.6L24439.4,33388L24439.4,33330.6L24446.9,33330.6L24446.9,33403.5L24438.8,33403.5L24407.4,33346.1L24407.4,33403.5L24399.8,33403.5Z" style="fill-rule:nonzero;"/>
                <path d="M24475.7,33403.5L24475.7,33339.2L24456,33339.2L24456,33330.6L24503.4,33330.6L24503.4,33339.2L24483.6,33339.2L24483.6,33403.5L24475.7,33403.5Z" style="fill-rule:nonzero;"/>
                <rect x="24512.9" y="33330.6" width="7.91" height="72.929" style="fill-rule:nonzero;"/>
                <path d="M24532.4,33368C24532.4,33355.6 24535.1,33346 24540.6,33339.3C24546.1,33332.6 24552.9,33329.3 24561.1,33329.3C24566.3,33329.3 24571.1,33330.8 24575.5,33333.8C24579.8,33336.8 24583.3,33341.1 24585.8,33346.8C24588.3,33352.5 24589.6,33359.2 24589.6,33367.1C24589.6,33377.9 24587.2,33386.7 24582.3,33393.5C24576.8,33401 24569.8,33404.8 24561,33404.8C24552.2,33404.8 24545.1,33400.9 24539.7,33393.2C24534.8,33386.3 24532.4,33377.8 24532.4,33368ZM24540.6,33368.1C24540.6,33377.1 24542.5,33384.1 24546.5,33389.1C24550.5,33394 24555.3,33396.5 24561,33396.5C24566.8,33396.5 24571.6,33394 24575.6,33389C24579.5,33384 24581.5,33376.6 24581.5,33366.9C24581.5,33360.6 24580.4,33355 24578.4,33350.1C24576.9,33346.3 24574.5,33343.2 24571.4,33341C24568.2,33338.7 24564.8,33337.6 24561.1,33337.6C24555.1,33337.6 24550.2,33340 24546.4,33345C24542.5,33350 24540.6,33357.7 24540.6,33368.1Z" style="fill-rule:nonzero;"/>
                <path d="M24599.4,33403.5L24599.4,33330.6L24607.5,33330.6L24639,33388L24639,33330.6L24646.5,33330.6L24646.5,33403.5L24638.4,33403.5L24607,33346.1L24607,33403.5L24599.4,33403.5Z" style="fill-rule:nonzero;"/>
            </g>
        </g>
    </g>
</svg>
