<?xml version="1.0" encoding="UTF-8" standalone="no"?>
<!DOCTYPE svg PUBLIC "-//W3C//DTD SVG 1.1//EN" "http://www.w3.org/Graphics/SVG/1.1/DTD/svg11.dtd">
<svg width="100%" height="100%" viewBox="0 0 1453 473" version="1.1" xmlns="http://www.w3.org/2000/svg" xmlns:xlink="http://www.w3.org/1999/xlink" xml:space="preserve" xmlns:serif="http://www.serif.com/" style="fill-rule:evenodd;clip-rule:evenodd;stroke-linecap:round;stroke-linejoin:round;stroke-miterlimit:10;">
    <g transform="matrix(1,0,0,1,-8491.26,-4281.67)">
        <g id="Artboard3" transform="matrix(0.328755,0,0,0.162836,6294.58,4226.53)">
            <rect x="6681.81" y="338.631" width="4418.96" height="2901.34" style="fill:none;"/>
            <g transform="matrix(0.83862,0,0,0.845171,2962.17,526.196)">
                <g transform="matrix(2.12106,0,0,4.2823,-47399.5,-156265)">
                    <rect x="26112.8" y="36732" width="555.466" height="429.223" style="fill:none;"/>
                    <clipPath id="_clip1">
                        <rect x="26112.8" y="36732" width="555.466" height="429.223"/>
                    </clipPath>
                    <g clip-path="url(#_clip1)">
                        <g transform="matrix(2.81342,0,0,2.81342,-51536.4,-68052.2)">
                            <g transform="matrix(1,0,0,1,92.77,519.512)">
                                <g transform="matrix(1.13897,0.657588,-0.5,0.866025,14610.4,-13240.7)">
                                    <rect x="27549" y="36801.2" width="241.621" height="54.999" style="fill:rgb(242,242,242);stroke:rgb(13,13,13);stroke-width:0.43px;"/>
                                </g>
                                <g transform="matrix(1.13897,0.657588,-0.5,0.866025,14612,-13230.9)">
                                    <rect x="27549" y="36801.2" width="241.621" height="54.999" style="fill:rgb(204,204,204);stroke:rgb(153,153,153);stroke-width:0.43px;"/>
                                </g>
                            </g>
                            <g transform="matrix(1,0,0,1,92.77,519.512)">
                                <path d="M27587.4,36746C27587.4,36746 27584.9,36750 27589.1,36755.9" style="fill:none;stroke:rgb(153,153,153);stroke-width:0.5px;"/>
                            </g>
                            <g transform="matrix(2.11228,1.21952,-0.966364,1.67379,4461.12,-57730.3)">
                                <g transform="matrix(1,0,0,1,56.2485,-229.776)">
                                    <path d="M27665.2,36796.4L27665.2,36812C27663.2,36816.7 27646.1,36816.8 27644,36812L27644,36796.4C27646.4,36800.1 27662.4,36800.1 27665.2,36796.4Z" style="fill:white;stroke:black;stroke-width:0.8px;"/>
                                </g>
                                <g transform="matrix(1.01231,0,0,0.945282,-311.952,1959.81)">
                                    <ellipse cx="27682.1" cy="36609.6" rx="10.438" ry="3.287" style="fill:white;stroke:black;stroke-width:0.81px;"/>
                                </g>
                            </g>
                            <g transform="matrix(0.866025,0.5,-0.396205,0.686248,18257,-1644.29)">
                                <g transform="matrix(1,0,0,1,56.2485,-229.776)">
                                    <path d="M27665.2,36796.4L27665.2,36812C27663.2,36816.7 27646.1,36816.8 27644,36812L27644,36796.4C27646.4,36800.1 27662.4,36800.1 27665.2,36796.4Z" style="fill:rgb(230,230,230);stroke:rgb(153,153,153);stroke-width:0.56px;"/>
                                </g>
                                <g transform="matrix(1.01231,0,0,0.945282,-311.952,1959.81)">
                                    <ellipse cx="27682.1" cy="36609.6" rx="10.438" ry="3.287" style="fill:rgb(230,230,230);stroke:rgb(153,153,153);stroke-width:0.57px;"/>
                                </g>
                            </g>
                            <g transform="matrix(1,0,0,1,92.77,519.512)">
                                <g transform="matrix(1.13897,0.657588,-0.5,0.866025,14593.2,-13222.5)">
                                    <path d="M27790.7,36801.2L27790.7,36856.2L27549,36856.2L27542.8,36808C27544.8,36804.1 27546.8,36801.6 27549,36801.2L27790.7,36801.2Z" style="fill:white;stroke:rgb(26,26,26);stroke-width:0.43px;"/>
                                </g>
                                <g transform="matrix(1.13897,0.657588,-0.5,0.866025,14582.6,-13220.8)">
                                    <rect x="27549" y="36801.2" width="241.621" height="54.999" style="fill:white;stroke:rgb(26,26,26);stroke-width:0.43px;"/>
                                </g>
                            </g>
                            <g transform="matrix(1,0,0,1,95.6095,519.018)">
                                <g transform="matrix(0.5,-0.866025,0.866025,0.5,-18181.9,42454.6)">
                                    <g>
                                        <path d="M27816.6,36824.4C27816.1,36868.5 27815.8,36912.2 27815.7,36955.2C27815.7,36958.9 27814.2,36960.8 27812.5,36959.8C27809.4,36958 27806.3,36956.1 27803.1,36954.2C27801.4,36953.2 27800,36949.5 27800,36945.8C27799.9,36902.3 27800,36858.2 27800.3,36813.8C27800.4,36809.8 27802,36807.9 27803.7,36809.1C27806.9,36811.2 27810.2,36813.4 27813.5,36815.5C27815.2,36816.7 27816.7,36820.6 27816.6,36824.4Z" style="fill:rgb(242,242,242);stroke:rgb(140,140,140);stroke-width:0.51px;"/>
                                    </g>
                                </g>
                            </g>
                            <g transform="matrix(0.866025,0.5,-0.396205,0.686248,18239.8,-1631.34)">
                                <g transform="matrix(1,0,0,1,56.2485,-229.776)">
                                    <path d="M27665.2,36796.4L27665.2,36812C27663.2,36816.7 27646.1,36816.8 27644,36812L27644,36796.4C27646.4,36800.1 27662.4,36800.1 27665.2,36796.4Z" style="fill:rgb(230,230,230);stroke:rgb(153,153,153);stroke-width:0.56px;"/>
                                </g>
                                <g transform="matrix(1.01231,0,0,0.945282,-311.952,1959.81)">
                                    <ellipse cx="27682.1" cy="36609.6" rx="10.438" ry="3.287" style="fill:rgb(230,230,230);stroke:rgb(153,153,153);stroke-width:0.57px;"/>
                                </g>
                            </g>
                        </g>
                    </g>
                </g>
                <g transform="matrix(3.04178,0,0,6.14116,-14981.6,-2780.85)">
                    <g transform="matrix(1.19243,-0,-0,1.18319,6383.45,416.683)">
                        <path d="M1088.74,156.538L1102.25,184.718L1071.41,189.794L1088.74,156.538Z"/>
                        <path d="M1038.11,151.3C1038.11,151.3 1065.53,165.586 1084.51,175.477" style="fill:none;stroke:black;stroke-width:8.33px;stroke-linecap:butt;stroke-miterlimit:1.5;"/>
                    </g>
                </g>
            </g>
            <g transform="matrix(1,0,0,1,214.507,59.0081)">
                <g transform="matrix(0.806804,0,0,0.806804,1961.67,754.182)">
                    <g transform="matrix(13.739,-2.80296e-15,6.94166e-15,21.98,-370981,-807773)">
                        <path d="M27665.2,36796.4L27665.2,36812C27663.2,36816.7 27646.1,36816.8 27644,36812L27644,36796.4C27646.4,36800.1 27662.4,36800.1 27665.2,36796.4Z" style="fill:white;stroke:black;stroke-width:0.89px;"/>
                    </g>
                    <g transform="matrix(13.9081,-4.20444e-15,6.2475e-15,20.7773,-376039,-759644)">
                        <ellipse cx="27682.1" cy="36609.6" rx="10.438" ry="3.287" style="fill:white;stroke:black;stroke-width:0.9px;"/>
                    </g>
                    <g transform="matrix(10.8577,-4.20444e-15,4.85916e-15,16.2204,-291596,-592798)">
                        <ellipse cx="27682.1" cy="36609.6" rx="10.438" ry="3.287" style="fill:white;stroke:black;stroke-width:1.15px;"/>
                    </g>
                    <g transform="matrix(9.63364,-1.40148e-15,4.51208e-15,14.3917,-257709,-525826)">
                        <path d="M27671.6,36609.6C27671.6,36607.8 27676.3,36606.3 27682.1,36606.3C27687.8,36606.3 27692.5,36607.8 27692.5,36609.6" style="fill:white;stroke:black;stroke-width:1.3px;"/>
                    </g>
                    <g transform="matrix(6.21016,1.82529e-15,3.61633e-15,9.27738,-162942,-338574)">
                        <path d="M27671.6,36609.6C27671.6,36607.8 27676.3,36606.3 27682.1,36606.3C27687.8,36606.3 27692.5,36607.8 27692.5,36609.6" style="fill:white;stroke:black;stroke-width:2.01px;"/>
                    </g>
                    <g transform="matrix(14.4722,29.2186,-14.4722,29.2186,172275,-1.85659e+06)">
                        <path d="M26140.1,37428.8L26140.1,37425.7L26137,37425.7L26137,37424.4L26140.1,37424.4L26140.1,37421.3L26141.4,37421.3L26141.4,37424.4L26144.4,37424.4L26144.4,37425.7L26141.4,37425.7L26141.4,37428.8L26140.1,37428.8Z" style="fill-rule:nonzero;"/>
                    </g>
                </g>
                <g transform="matrix(0.806804,0,0,0.806804,1966.35,630.097)">
                    <g transform="matrix(13.739,-2.80296e-15,6.94166e-15,21.98,-370986,-806579)">
                        <path d="M27665.2,36796.4L27665.2,36812C27663.2,36816.7 27646.1,36816.8 27644,36812L27644,36796.4C27646.4,36800.1 27662.4,36800.1 27665.2,36796.4Z" style="fill:white;stroke:black;stroke-width:0.89px;"/>
                    </g>
                    <g transform="matrix(13.9081,-4.20444e-15,6.2475e-15,20.7773,-376045,-758452)">
                        <ellipse cx="27682.1" cy="36609.6" rx="10.438" ry="3.287" style="fill:white;stroke:black;stroke-width:0.9px;"/>
                    </g>
                    <g transform="matrix(3.12625,0,0,6.31171,-73566.8,-234749)">
                        <path d="M26381.6,37492.3L26394.6,37510.4C26394.6,37510.4 26423.2,37473.9 26439.2,37467.3" style="fill:none;stroke:rgb(1,0,1);stroke-width:10.05px;stroke-linecap:butt;"/>
                    </g>
                </g>
            </g>
            <g transform="matrix(3.82031,0,0,7.71298,-22127.6,-12464.3)">
                <g transform="matrix(0.471034,0,0,0.451577,-4691.69,-9110.16)">
                    <path d="M26911,24156.5L26911,24578.2L26406,24578.2L26406,23917.5L26911,23917.5L26911,23917.7C26913,23917.2 26915.1,23916.9 26917.2,23916.9L27053.6,23916.9C27068.2,23916.9 27080.1,23929.3 27080.1,23944.6L27080.1,24129.6C27080.1,24144.9 27068.2,24157.3 27053.6,24157.3L26917.2,24157.3C26915.1,24157.3 26913,24157 26911,24156.5Z" style="fill:rgb(254,255,254);stroke:rgb(89,89,89);stroke-width:5.75px;stroke-linecap:butt;"/>
                </g>
                <g id="path2836" transform="matrix(1.32953,1.87253e-17,-1.87253e-17,-1.17663,7531.22,2217.92)">
                    <path d="M187.282,305.953L182.539,311.981L172.757,311.917L172.757,302.834L167.387,302.834L166.74,305.685L166.223,308.609L165.964,311.46L165.835,314.458L165.964,317.382L166.223,320.379L166.74,323.45L167.387,326.52L172.757,326.52L172.757,318.287L182.539,318.223L187.282,322.217L210.3,322.217L210.3,305.953L187.282,305.953Z" style="fill:white;stroke:rgb(89,89,89);stroke-width:2.11px;stroke-linecap:butt;stroke-miterlimit:2;"/>
                </g>
                <g transform="matrix(1,0,0,1,-601.857,-915.516)">
                    <g transform="matrix(1.17101,0.331593,-0.262758,0.927921,-14382.3,-40524.1)">
                        <path d="M27665.2,36796.4L27665.2,36812C27663.2,36816.7 27646.1,36816.8 27644,36812L27644,36796.4C27646.4,36800.1 27662.4,36800.1 27665.2,36796.4Z" style="fill:white;stroke:black;stroke-width:2.42px;"/>
                    </g>
                    <g transform="matrix(1.18542,0.335674,-0.24838,0.877147,-15388.8,-38614.4)">
                        <ellipse cx="27682.1" cy="36609.6" rx="10.438" ry="3.287" style="fill:white;stroke:black;stroke-width:2.45px;"/>
                    </g>
                </g>
                <g transform="matrix(1.21705,0,9.7727e-16,0.964406,-26071.2,-33719.7)">
                    <path d="M27665.2,36796.4L27665.2,36812C27663.2,36816.7 27646.1,36816.8 27644,36812L27644,36796.4C27646.4,36800.1 27662.4,36800.1 27665.2,36796.4Z" style="fill:white;stroke:black;stroke-width:2.42px;"/>
                </g>
                <g transform="matrix(1.23203,-3.36731e-16,8.9229e-16,0.911636,-26519.3,-31608)">
                    <ellipse cx="27682.1" cy="36609.6" rx="10.438" ry="3.287" style="fill:white;stroke:black;stroke-width:2.45px;"/>
                </g>
                <g transform="matrix(0.476334,0.126551,-0.0304643,0.10833,-4087.36,-4074.88)">
                    <rect x="26318.1" y="24237.7" width="315.175" height="79.714" style="fill:rgb(254,255,254);"/>
                </g>
                <g transform="matrix(0.476334,0.126551,-0.0304643,0.10833,-4087.36,-4074.88)">
                    <path d="M26636.6,24237.9L26636.6,24317.6C26636.6,24325.7 26635.1,24332.2 26633.3,24332.2L26318.1,24332.2C26317.2,24332.2 26316.3,24330.6 26315.7,24327.8C26315.1,24325 26314.7,24321.1 26314.7,24317.2L26314.7,24237.5C26314.7,24229.4 26316.2,24222.9 26318,24222.9L26633.2,24222.9C26634.1,24222.9 26635,24224.5 26635.6,24227.3C26636.3,24230.1 26636.6,24233.9 26636.6,24237.9ZM26629.9,24252.5L26321.5,24252.5L26321.5,24302.6L26629.9,24302.6L26629.9,24252.5Z" style="fill:rgb(26,26,26);"/>
                </g>
                <g transform="matrix(0.689897,0,0,0.272402,-10431.4,-4702.85)">
                    <rect x="26260.4" y="24404.5" width="596.013" height="55.186" style="fill:rgb(254,255,254);"/>
                </g>
                <g transform="matrix(0.689897,0,0,0.272402,-10431.4,-4702.85)">
                    <path d="M26858.9,24404.5L26858.9,24459.6C26858.9,24463 26857.8,24465.8 26856.4,24465.8L26260.4,24465.8C26259.1,24465.8 26258,24463 26258,24459.6L26258,24404.5C26258,24401.1 26259.1,24398.3 26260.4,24398.3L26856.4,24398.3C26857.8,24398.3 26858.9,24401.1 26858.9,24404.5ZM26854,24410.6L26262.9,24410.6L26262.9,24453.5L26854,24453.5L26854,24410.6Z" style="fill:rgb(89,89,89);"/>
                </g>
                <g transform="matrix(0.488761,0,0,0.476881,-5162.44,-9706.06)">
                    <rect x="26271.5" y="23898" width="127.542" height="213.387" style="fill:none;stroke:rgb(89,89,89);stroke-width:5.5px;stroke-linecap:butt;"/>
                </g>
                <g transform="matrix(0.488761,0,0,0.476881,-5152.8,-9706.06)">
                    <path d="M26321.8,24111.4C26321.8,24111.4 26305.3,24175.5 26380.5,24174.4C26504.6,24172.6 26544.8,24214.4 26536.2,24229.1" style="fill:none;stroke:rgb(89,89,89);stroke-width:5.5px;stroke-linecap:butt;"/>
                </g>
                <g transform="matrix(0.488761,0,0,0.476881,-5156.54,-9708.12)">
                    <rect x="26872.5" y="24355.7" width="127.427" height="137.008" style="fill:rgb(254,255,254);stroke:rgb(89,89,89);stroke-width:5.5px;stroke-linecap:butt;"/>
                </g>
                <g transform="matrix(1.16414,0,0,1.16414,-1276.46,1113.94)">
                    <g transform="matrix(0.683951,-0,-0,0.683951,7574.36,469.008)">
                        <path d="M157.47,221.91L180.488,243.047L153.752,259.225L157.47,221.91Z"/>
                        <path d="M68.668,185.235C68.668,185.235 108.826,230.912 160.586,241.064" style="fill:none;stroke:black;stroke-width:8.33px;stroke-linecap:butt;stroke-miterlimit:1.5;"/>
                    </g>
                </g>
                <g transform="matrix(0.614054,0,0,0.614054,-3855.2,-18380.6)">
                    <path d="M19138,32991.9L19109.9,32991.9L19109.9,32978L19138,32978L19138,32955.2L19126.1,32955.2L19126.1,32938.5L19138,32938.5L19138,32926.1L19145.7,32926.1L19145.7,32938.5L19156.6,32938.5L19156.6,32930.9C19156.6,32923.9 19162.3,32918.2 19169.3,32918.2L19231.6,32918.2C19238.7,32918.2 19244.4,32923.9 19244.4,32930.9L19244.4,32956.4C19244.4,32963.4 19238.7,32969.1 19231.6,32969.1L19169.3,32969.1C19162.3,32969.1 19156.6,32963.4 19156.6,32956.4L19156.6,32955.2L19145.7,32955.2L19145.7,32978L19233.9,32978L19233.9,32991.9L19145.7,32991.9L19145.7,33002.3L19149.4,33002.3L19149.4,33015.5L19134.3,33015.5L19134.3,33002.3L19138,33002.3L19138,32991.9Z" style="fill:none;stroke:rgb(89,89,89);stroke-width:4.32px;stroke-linecap:butt;"/>
                </g>
                <g transform="matrix(0.833005,0,0,1.28133,491.892,2480.83)">
                    <path d="M8783.47,-503.985L8777.13,-503.985L8777.13,-513.843L8783.47,-513.843L8783.47,-532.487L8793.32,-532.487L8793.32,-513.843L8799.66,-513.843L8799.66,-503.985L8793.32,-503.985L8793.32,-469.69L8799.66,-469.69L8799.66,-459.832L8793.32,-459.832L8793.32,-450.879L8789.48,-450.879L8789.48,-442.265L8787.31,-442.265L8787.31,-450.879L8783.47,-450.879L8783.47,-459.832L8777.13,-459.832L8777.13,-469.69L8783.47,-469.69L8783.47,-503.985Z" style="fill:white;stroke:rgb(89,89,89);stroke-width:2.46px;stroke-linecap:butt;stroke-miterlimit:1.5;"/>
                </g>
            </g>
            <g transform="matrix(2.65558,0,0,5.06914,-54905.7,-168283)">
                <g transform="matrix(101.882,0,0,101.882,24653.5,33403.5)">
                </g>
                <text x="24186.2px" y="33403.5px" style="font-family:'ArialNarrow', 'Arial', sans-serif;font-stretch:condensed;font-size:101.882px;">A<tspan x="24235.8px 24286.9px " y="33403.5px 33403.5px ">TT</tspan>ENTION</text>
            </g>
        </g>
    </g>
</svg>
