<?xml version="1.0" encoding="UTF-8" standalone="no"?>
<!DOCTYPE svg PUBLIC "-//W3C//DTD SVG 1.1//EN" "http://www.w3.org/Graphics/SVG/1.1/DTD/svg11.dtd">
<svg width="100%" height="100%" viewBox="0 0 1453 473" version="1.1" xmlns="http://www.w3.org/2000/svg" xmlns:xlink="http://www.w3.org/1999/xlink" xml:space="preserve" xmlns:serif="http://www.serif.com/" style="fill-rule:evenodd;clip-rule:evenodd;stroke-linejoin:round;stroke-miterlimit:10;">
    <g transform="matrix(1,0,0,1,-25657.1,-35992.5)">
        <g id="Artboard4" transform="matrix(2.05,0,0,1.6,25657.1,35992.5)">
            <rect x="0" y="0" width="708.661" height="295.276" style="fill:none;"/>
            <g transform="matrix(1.21524,0,0,1.1857,238.583,-36.4065)">
                <g transform="matrix(0.274529,0,0,0.392788,-7141.57,-9352.53)">
                    <rect x="26393.5" y="23924.6" width="481.923" height="554.756" style="fill:rgb(254,255,254);stroke:rgb(217,217,217);stroke-width:5.83px;"/>
                </g>
                <g transform="matrix(0.261968,0,0,0.329798,-6804.64,-7842.98)">
                    <path d="M27080.1,23944.6L27080.1,24129.6C27080.1,24144.9 27068.2,24157.3 27053.6,24157.3L26917.2,24157.3C26902.6,24157.3 26890.7,24144.9 26890.7,24129.6L26890.7,23944.6C26890.7,23929.3 26902.6,23916.9 26917.2,23916.9L27053.6,23916.9C27068.2,23916.9 27080.1,23929.3 27080.1,23944.6Z" style="fill:rgb(254,255,254);stroke:rgb(217,217,217);stroke-width:6.52px;"/>
                </g>
                <g transform="matrix(0.258535,0.107573,-0.0284171,0.112115,-6031.6,-5378.52)">
                    <rect x="26318.1" y="24237.7" width="315.175" height="79.714" style="fill:rgb(254,255,254);stroke:rgb(92,92,92);stroke-width:8.31px;"/>
                </g>
                <g transform="matrix(0.383689,0,0,0.198942,-10007.3,-4632.39)">
                    <rect x="26260.4" y="24404.5" width="596.013" height="55.186" style="fill:rgb(254,255,254);stroke:rgb(217,217,217);stroke-width:5.73px;"/>
                </g>
                <g transform="matrix(0.271826,0,0,0.348278,-7075.12,-8278.38)">
                    <rect x="26271.5" y="23898" width="127.542" height="213.387" style="fill:none;stroke:rgb(217,217,217);stroke-width:6.23px;"/>
                </g>
                <g transform="matrix(0.271826,0,0,0.348278,-7069.75,-8278.38)">
                    <path d="M26321.8,24111.4C26321.8,24111.4 26296,24188.6 26477.5,24194.8C26659,24200.9 26576.8,24220.5 26568.3,24235.2" style="fill:none;stroke:rgb(217,217,217);stroke-width:6.23px;"/>
                </g>
                <g transform="matrix(0.408262,0,0,0.234926,-10980.3,-5596.52)">
                    <rect x="26995.2" y="24355.7" width="21.078" height="45.031" style="fill:none;stroke:rgb(142,180,253);stroke-width:5.31px;"/>
                </g>
                <g transform="matrix(0.271826,0,0,0.348278,-7071.84,-8278.04)">
                    <rect x="26872.5" y="24355.7" width="127.427" height="137.008" style="fill:rgb(254,255,254);stroke:rgb(217,217,217);stroke-width:6.23px;"/>
                </g>
                <g transform="matrix(0.204794,0.44242,-0.594071,0.45219,15755,-28049.3)">
                    <g transform="matrix(0.510676,-0.499642,0.881016,0.303712,26639.2,36034.2)">
                        <path d="M670.733,254.211L679.647,267.045L664.831,272.008L670.733,254.211Z" style="fill:rgb(142,180,253);"/>
                        <path d="M615.62,213.542C615.62,213.542 620.131,245.517 670.155,263.897" style="fill:none;stroke:rgb(142,180,253);stroke-width:8.33px;"/>
                    </g>
                </g>
            </g>
            <g transform="matrix(1,0,0,1,-397.405,0)">
                <g transform="matrix(0.485426,0.061647,-0.0481148,0.621952,-10659.8,-24036.8)">
                    <g transform="matrix(0.995124,-0.0986353,0.0986353,0.995124,26350.2,36035.5)">
                        <path d="M354.088,224.507L339.293,242.685L325.985,223.393L354.088,224.507Z" style="fill:rgb(92,92,92);"/>
                        <path d="M277.816,167.681C277.816,167.681 338.206,163.387 339.888,227.697" style="fill:none;stroke:rgb(92,92,92);stroke-width:12.5px;"/>
                    </g>
                </g>
                <g transform="matrix(1,0,0,1,-73.8384,-10.5331)">
                    <g transform="matrix(0.991157,0,0,1.26992,-25796.9,-45831)">
                        <path d="M26574.8,36140.8C26579.5,36140.8 26601.1,36143.5 26605,36146.1C26614.1,36152.2 26603.2,36163.1 26603.2,36177C26603.2,36197.1 26610.6,36216.6 26594.9,36216.6C26593.4,36216.6 26571.8,36213.2 26570.3,36212.9C26556.8,36210.1 26546.4,36195.1 26546.4,36177C26546.4,36157 26559.1,36140.8 26574.8,36140.8Z" style="fill:none;stroke:rgb(92,92,92);stroke-width:2.05px;"/>
                    </g>
                    <g transform="matrix(0.991157,0,0,1.26992,-25776.9,-45826.9)">
                        <ellipse cx="26574.8" cy="36177" rx="28.387" ry="36.272" style="fill:rgb(254,255,254);stroke:rgb(92,92,92);stroke-width:2.05px;"/>
                    </g>
                    <g transform="matrix(0.512064,0,0,0.719057,-13043.7,-25898.3)">
                        <ellipse cx="26574.8" cy="36177" rx="28.387" ry="36.272" style="fill:rgb(254,255,254);stroke:rgb(92,92,92);stroke-width:3.78px;"/>
                    </g>
                    <g transform="matrix(0.395081,0.653865,-0.510334,0.506198,8470.07,-35577.4)">
                        <path d="M26604.3,36106.8C26619.5,36094.3 26647.8,36125.5 26640.8,36135.5" style="fill:none;stroke:rgb(92,92,92);stroke-width:3.15px;"/>
                    </g>
                    <g transform="matrix(0.365202,0.681785,-0.532125,0.467916,10060.3,-34936.3)">
                        <path d="M26595.1,36106.8C26607.5,36096.2 26645.2,36119.7 26642,36141.6" style="fill:none;stroke:rgb(92,92,92);stroke-width:3.15px;"/>
                    </g>
                    <g transform="matrix(0.31148,0.724229,-0.565252,0.399084,12693.6,-33578.3)">
                        <path d="M26589,36109.4C26601.7,36097.6 26641.1,36113.1 26643.3,36141.6" style="fill:none;stroke:rgb(92,92,92);stroke-width:3.15px;"/>
                    </g>
                </g>
                <g transform="matrix(0.0263044,-1.28081,0.780218,0.0263044,471.402,918.849)">
                    <g transform="matrix(0.980887,-0.182335,0.142311,1.25676,-30672.6,-40508.9)">
                        <path d="M26577.2,36142.6C26581.9,36142.6 26603.7,36142.8 26607.7,36145.4C26616.7,36151.5 26603.2,36163.1 26603.2,36177C26603.2,36197.1 26610.6,36216.6 26594.9,36216.6C26593.4,36216.6 26571.8,36213.2 26570.3,36212.9C26556.8,36210.1 26545.5,36197.1 26548.8,36173.4C26551.4,36154.9 26561.5,36142.6 26577.2,36142.6Z" style="fill:none;stroke:rgb(92,92,92);stroke-width:2.05px;"/>
                    </g>
                    <g transform="matrix(0.899218,-2.69576e-18,-2.10401e-18,1.26992,-23328.3,-45831)">
                        <ellipse cx="26574.8" cy="36177" rx="28.387" ry="36.272" style="fill:rgb(254,255,254);stroke:rgb(92,92,92);stroke-width:2.15px;"/>
                    </g>
                </g>
            </g>
        </g>
    </g>
</svg>
