<?xml version="1.0" encoding="UTF-8" standalone="no"?>
<!DOCTYPE svg PUBLIC "-//W3C//DTD SVG 1.1//EN" "http://www.w3.org/Graphics/SVG/1.1/DTD/svg11.dtd">
<svg width="100%" height="100%" viewBox="0 0 1453 473" version="1.1" xmlns="http://www.w3.org/2000/svg" xmlns:xlink="http://www.w3.org/1999/xlink" xml:space="preserve" xmlns:serif="http://www.serif.com/" style="fill-rule:evenodd;clip-rule:evenodd;stroke-linejoin:round;stroke-miterlimit:1.5;">
    <g transform="matrix(1,0,0,1,-6681,0)">
        <g id="Artboard4" transform="matrix(2.05,0,0,1.6,6681,0)">
            <rect x="0" y="0" width="708.661" height="295.276" style="fill:none;"/>
            <g transform="matrix(2.11031,0,0,2.75074,-51056.7,-75393)">
                <g transform="matrix(1.16895,0,0,1.16895,23973.2,27287.2)">
                    <g transform="matrix(1.05934,0,0,1,-3250.53,-919.156)">
                        <rect x="3259.03" y="1038.65" width="44.536" height="59.824" style="fill:white;stroke:rgb(13,13,13);stroke-width:0.56px;"/>
                    </g>
                    <g transform="matrix(1,0,0,1,0,6)">
                        <g>
                            <g transform="matrix(1,0,0,1,-3052.89,-922.535)">
                                <circle cx="3278.36" cy="1071.94" r="20.772" style="fill:white;stroke:rgb(13,13,13);stroke-width:0.57px;"/>
                            </g>
                            <g transform="matrix(0.866025,-0.491474,0.508674,0.866025,-45.7886,130.831)">
                                <g transform="matrix(0.877333,0,0,0.877333,-2650.74,-791.044)">
                                    <circle cx="3278.36" cy="1071.94" r="20.772" style="fill:white;stroke:rgb(13,13,13);stroke-width:0.65px;"/>
                                </g>
                                <g transform="matrix(0.272717,0,0,0.36291,-5448.09,-11806.6)">
                                    <path d="M20814,32909.5L20814,32975.8C20814,32979 20810.4,32981.7 20806,32981.7C20801.5,32981.7 20797.9,32979 20797.9,32975.8L20797.9,32909.5C20797.9,32906.2 20801.5,32903.6 20806,32903.6C20810.4,32903.6 20814,32906.2 20814,32909.5Z" style="fill:none;stroke:rgb(13,13,13);stroke-width:0.51px;stroke-miterlimit:10;"/>
                                </g>
                                <g transform="matrix(0.112536,0,0,0.149754,-2115.37,-4791.2)">
                                    <path d="M20814,32909.5L20814,32975.8C20814,32979 20810.4,32981.7 20806,32981.7C20801.5,32981.7 20797.9,32979 20797.9,32975.8L20797.9,32909.5C20797.9,32906.2 20801.5,32903.6 20806,32903.6C20810.4,32903.6 20814,32906.2 20814,32909.5Z" style="fill:rgb(13,13,13);"/>
                                </g>
                            </g>
                        </g>
                    </g>
                </g>
                <g transform="matrix(1.13789,0,0,0.872966,24032.8,27316.6)">
                    <g transform="matrix(0.0775015,0,0,0.0992988,-1720.07,-3172.94)">
                        <path d="M24234.1,33403.5L24257.1,33330.6L24265.6,33330.6L24290.1,33403.5L24281,33403.5L24274,33381.4L24249.1,33381.4L24242.5,33403.5L24234.1,33403.5ZM24251.4,33373.6L24271.6,33373.6L24265.4,33353.4C24263.5,33347.2 24262.1,33342.1 24261.2,33338.2C24260.4,33342.9 24259.3,33347.6 24257.9,33352.2L24251.4,33373.6Z" style="fill-rule:nonzero;"/>
                        <path d="M24335.4,33330.6L24343.4,33330.6L24343.4,33372.7C24343.4,33379.8 24342.7,33385.6 24341.3,33390.1C24340,33394.6 24337.4,33398.2 24333.8,33400.8C24330.2,33403.5 24325.6,33404.8 24320,33404.8C24312.1,33404.8 24306.2,33402.4 24302.2,33397.7C24298.3,33393 24296.3,33384.7 24296.3,33372.7L24296.3,33330.6L24304.2,33330.6L24304.2,33372.7C24304.2,33379.3 24304.8,33384.1 24305.8,33387C24306.8,33390 24308.5,33392.2 24310.8,33393.7C24313.2,33395.3 24316,33396.1 24319.4,33396.1C24325,33396.1 24329.1,33394.5 24331.6,33391.3C24334.2,33388.1 24335.4,33381.9 24335.4,33372.7L24335.4,33330.6Z" style="fill-rule:nonzero;"/>
                        <path d="M24372,33403.5L24372,33339.2L24352.3,33339.2L24352.3,33330.6L24399.7,33330.6L24399.7,33339.2L24379.9,33339.2L24379.9,33403.5L24372,33403.5Z" style="fill-rule:nonzero;"/>
                        <path d="M24404,33368C24404,33355.6 24406.8,33346 24412.2,33339.3C24417.7,33332.6 24424.5,33329.3 24432.7,33329.3C24438,33329.3 24442.8,33330.8 24447.1,33333.8C24451.5,33336.8 24454.9,33341.1 24457.4,33346.8C24460,33352.5 24461.2,33359.2 24461.2,33367.1C24461.2,33377.9 24458.8,33386.7 24453.9,33393.5C24448.5,33401 24441.4,33404.8 24432.6,33404.8C24423.8,33404.8 24416.7,33400.9 24411.3,33393.2C24406.5,33386.3 24404,33377.8 24404,33368ZM24412.2,33368.1C24412.2,33377.1 24414.2,33384.1 24418.1,33389.1C24422.1,33394 24426.9,33396.5 24432.6,33396.5C24438.4,33396.5 24443.3,33394 24447.2,33389C24451.1,33384 24453.1,33376.6 24453.1,33366.9C24453.1,33360.6 24452.1,33355 24450,33350.1C24448.5,33346.3 24446.1,33343.2 24443,33341C24439.9,33338.7 24436.5,33337.6 24432.7,33337.6C24426.8,33337.6 24421.9,33340 24418,33345C24414.1,33350 24412.2,33357.7 24412.2,33368.1Z" style="fill-rule:nonzero;"/>
                    </g>
                    <g transform="matrix(0.0775015,0,0,0.0992988,-1693.74,-3173.13)">
                        <path d="M24240.4,33403.5L24240.4,33330.6L24252.3,33330.6L24266.5,33382.2L24269.3,33393C24270,33390.3 24271.1,33386.4 24272.5,33381.3L24286.8,33330.6L24297.5,33330.6L24297.5,33403.5L24289.9,33403.5L24289.9,33342.5L24272.5,33403.5L24265.3,33403.5L24248,33341.5L24248,33403.5L24240.4,33403.5Z" style="fill-rule:nonzero;"/>
                        <path d="M24303.7,33403.5L24326.7,33330.6L24335.2,33330.6L24359.7,33403.5L24350.6,33403.5L24343.6,33381.4L24318.7,33381.4L24312.1,33403.5L24303.7,33403.5ZM24321,33373.6L24341.2,33373.6L24335,33353.4C24333.1,33347.2 24331.7,33342.1 24330.8,33338.2C24330,33342.9 24328.9,33347.6 24327.5,33352.2L24321,33373.6Z" style="fill-rule:nonzero;"/>
                        <rect x="24367.5" y="33330.6" width="7.91" height="72.929" style="fill-rule:nonzero;"/>
                        <path d="M24389,33403.5L24389,33330.6L24397.1,33330.6L24428.5,33388L24428.5,33330.6L24436.1,33330.6L24436.1,33403.5L24428,33403.5L24396.6,33346.1L24396.6,33403.5L24389,33403.5Z" style="fill-rule:nonzero;"/>
                    </g>
                    <g transform="matrix(0.0775015,0,0,0.0992988,-1699.63,-3180.43)">
                        <path d="M24237.5,33367.6C24237.5,33355.3 24239.2,33346 24242.5,33339.7C24245.8,33333.4 24250.6,33330.3 24257.1,33330.3C24262.8,33330.3 24267.3,33332.8 24270.6,33338C24274.5,33344.1 24276.5,33354 24276.5,33367.6C24276.5,33379.7 24274.9,33389 24271.6,33395.3C24268.3,33401.6 24263.4,33404.8 24257,33404.8C24251.3,33404.8 24246.6,33402 24243,33396.4C24239.3,33390.8 24237.5,33381.2 24237.5,33367.6ZM24245,33367.5C24245,33379.4 24246.2,33387.3 24248.4,33391.3C24250.7,33395.4 24253.6,33397.4 24257.2,33397.4C24260.5,33397.4 24263.3,33395.4 24265.6,33391.3C24267.8,33387.2 24269,33379.3 24269,33367.5C24269,33355.6 24267.8,33347.7 24265.6,33343.7C24263.3,33339.7 24260.3,33337.7 24256.7,33337.7C24253.4,33337.7 24250.6,33339.7 24248.4,33343.8C24246.2,33347.9 24245,33355.8 24245,33367.5Z" style="fill-rule:nonzero;"/>
                    </g>
                </g>
            </g>
            <g transform="matrix(1,0,0,1,188.171,7.83984)">
                <g transform="matrix(2.51306,0,0,3.27571,-459.363,-349.598)">
                    <g transform="matrix(1.04238,0,0,1,-3194.88,-919.156)">
                        <rect x="3259.03" y="1038.65" width="44.536" height="59.824" style="fill:white;stroke:black;stroke-width:0.55px;"/>
                    </g>
                    <g transform="matrix(1,0,0,1,0,6)">
                        <g>
                            <g transform="matrix(1,0,0,1,-3052.89,-922.535)">
                                <circle cx="3278.36" cy="1071.94" r="20.772" style="fill:white;stroke:black;stroke-width:0.56px;"/>
                            </g>
                            <g transform="matrix(0.877333,0,0,0.877333,-2650.74,-791.044)">
                                <circle cx="3278.36" cy="1071.94" r="20.772" style="fill:white;stroke:black;stroke-width:0.64px;"/>
                            </g>
                        </g>
                    </g>
                </g>
                <g transform="matrix(0.18959,0,0,0.242913,-4521.77,-8029.32)">
                    <path d="M24240.4,33403.5L24240.4,33330.6L24252.3,33330.6L24266.5,33382.2L24269.3,33393C24270,33390.3 24271.1,33386.4 24272.5,33381.3L24286.8,33330.6L24297.5,33330.6L24297.5,33403.5L24289.9,33403.5L24289.9,33342.5L24272.5,33403.5L24265.3,33403.5L24248,33341.5L24248,33403.5L24240.4,33403.5Z" style="fill-rule:nonzero;"/>
                    <path d="M24303.7,33403.5L24326.7,33330.6L24335.2,33330.6L24359.7,33403.5L24350.6,33403.5L24343.6,33381.4L24318.7,33381.4L24312.1,33403.5L24303.7,33403.5ZM24321,33373.6L24341.2,33373.6L24335,33353.4C24333.1,33347.2 24331.7,33342.1 24330.8,33338.2C24330,33342.9 24328.9,33347.6 24327.5,33352.2L24321,33373.6Z" style="fill-rule:nonzero;"/>
                    <path d="M24365.9,33403.5L24365.9,33330.6L24392.4,33330.6C24398,33330.6 24402.1,33331.3 24404.7,33332.6C24407.3,33334 24409.5,33336.2 24411.2,33339.4C24412.9,33342.6 24413.7,33346.2 24413.7,33350.4C24413.7,33355.9 24412.3,33360.4 24409.4,33363.8C24406.6,33367.2 24402.4,33369.4 24396.9,33370.3C24399.1,33371.6 24400.8,33373 24402,33374.4C24404.3,33377.2 24406.4,33380.3 24408.2,33383.7L24418.7,33403.5L24408.7,33403.5L24400.7,33388.3C24397.7,33382.4 24395.3,33378.4 24393.8,33376.3C24392.2,33374.3 24390.7,33372.9 24389.2,33372.2C24387.7,33371.5 24385.6,33371.1 24383,33371.1L24373.8,33371.1L24373.8,33403.5L24365.9,33403.5ZM24373.8,33362.8L24390.9,33362.8C24394.6,33362.8 24397.4,33362.3 24399.3,33361.4C24401.2,33360.5 24402.8,33359.1 24403.9,33357.2C24405,33355.3 24405.6,33353 24405.6,33350.5C24405.6,33346.8 24404.5,33343.9 24402.3,33341.8C24400.2,33339.7 24397,33338.6 24392.7,33338.6L24373.8,33338.6L24373.8,33362.8Z" style="fill-rule:nonzero;"/>
                    <path d="M24468.7,33377.9L24476.7,33380.4C24474.9,33388.6 24471.8,33394.7 24467.4,33398.7C24463,33402.7 24457.7,33404.8 24451.4,33404.8C24445.9,33404.8 24441.1,33403.4 24437.2,33400.7C24433.3,33398 24430,33393.7 24427.5,33387.7C24425,33381.7 24423.8,33374.7 24423.8,33366.5C24423.8,33358.5 24425,33351.7 24427.5,33346.1C24430,33340.6 24433.4,33336.4 24437.7,33333.6C24442,33330.7 24446.8,33329.3 24452,33329.3C24457.8,33329.3 24462.8,33331.1 24466.9,33334.7C24471.1,33338.3 24474,33343.5 24475.6,33350.5L24467.9,33352.7C24465.2,33342.6 24459.9,33337.6 24451.9,33337.6C24447.9,33337.6 24444.5,33338.6 24441.5,33340.6C24438.6,33342.7 24436.3,33345.8 24434.6,33350.2C24432.8,33354.5 24431.9,33359.9 24431.9,33366.5C24431.9,33376.5 24433.7,33384 24437.2,33389C24440.7,33394 24445.4,33396.5 24451.2,33396.5C24455.6,33396.5 24459.3,33395 24462.4,33391.9C24465.5,33388.8 24467.6,33384.2 24468.7,33377.9Z" style="fill-rule:nonzero;"/>
                    <path d="M24486.5,33403.5L24486.5,33330.6L24494.4,33330.6L24494.4,33360.5L24525.5,33360.5L24525.5,33330.6L24533.4,33330.6L24533.4,33403.5L24525.5,33403.5L24525.5,33369.1L24494.4,33369.1L24494.4,33403.5L24486.5,33403.5Z" style="fill-rule:nonzero;"/>
                    <path d="M24547,33403.5L24547,33330.6L24590.2,33330.6L24590.2,33339.2L24554.9,33339.2L24554.9,33361.5L24588,33361.5L24588,33370.1L24554.9,33370.1L24554.9,33394.9L24591.6,33394.9L24591.6,33403.5L24547,33403.5Z" style="fill-rule:nonzero;"/>
                </g>
            </g>
            <g transform="matrix(0.0871024,0,0,0.136796,-224.348,-180.489)">
                <path d="M2997.63,1516.35L2977.12,1516.35L2977.12,1409.73C2972.18,1413.58 2965.71,1417.42 2957.7,1421.26C2949.68,1425.1 2942.49,1427.98 2936.1,1429.9L2936.1,1413.73C2947.57,1409.33 2957.6,1404 2966.18,1397.74C2974.77,1391.48 2980.84,1385.41 2984.41,1379.52L2997.63,1379.52L2997.63,1516.35Z" style="fill-rule:nonzero;"/>
            </g>
            <g transform="matrix(0.0871024,0,0,0.136796,-16.682,-180.489)">
                <path d="M3028.17,1500.27L3028.17,1516.35L2917.76,1516.35C2917.61,1512.32 2918.41,1508.45 2920.15,1504.73C2922.96,1498.6 2927.46,1492.56 2933.65,1486.61C2939.85,1480.66 2948.79,1473.78 2960.49,1465.97C2978.64,1453.82 2990.91,1444.2 2997.29,1437.11C3003.67,1430.01 3006.86,1423.3 3006.86,1416.98C3006.86,1410.35 3003.95,1404.76 2998.14,1400.2C2992.33,1395.65 2984.76,1393.37 2975.41,1393.37C2965.54,1393.37 2957.64,1395.79 2951.71,1400.62C2945.79,1405.46 2942.79,1412.15 2942.71,1420.7L2921.63,1418.94C2923.08,1406.11 2928.51,1396.33 2937.93,1389.61C2947.35,1382.88 2959.99,1379.52 2975.87,1379.52C2991.9,1379.52 3004.58,1383.15 3013.93,1390.4C3023.27,1397.65 3027.94,1406.63 3027.94,1417.36C3027.94,1422.81 3026.57,1428.17 3023.84,1433.44C3021.1,1438.7 3016.57,1444.25 3010.22,1450.08C3003.88,1455.9 2993.34,1463.89 2978.6,1474.06C2966.3,1482.49 2958.4,1488.2 2954.9,1491.21C2951.41,1494.21 2948.52,1497.23 2946.24,1500.27L3028.17,1500.27Z" style="fill-rule:nonzero;"/>
            </g>
        </g>
    </g>
</svg>
