<?xml version="1.0" encoding="UTF-8" standalone="no"?>
<!DOCTYPE svg PUBLIC "-//W3C//DTD SVG 1.1//EN" "http://www.w3.org/Graphics/SVG/1.1/DTD/svg11.dtd">
<svg width="100%" height="100%" viewBox="0 0 426 296" version="1.1" xmlns="http://www.w3.org/2000/svg" xmlns:xlink="http://www.w3.org/1999/xlink" xml:space="preserve" xmlns:serif="http://www.serif.com/" style="fill-rule:evenodd;clip-rule:evenodd;stroke-linecap:round;stroke-linejoin:round;stroke-miterlimit:1.5;">
    <g transform="matrix(1,0,0,1,-0.727802,-3080.86)">
        <g id="Artboard1_6" transform="matrix(0.6,0,0,1,0.727802,3080.86)">
            <rect x="0" y="0" width="708.661" height="295.276" style="fill:white;"/>
            <clipPath id="_clip1">
                <rect x="0" y="0" width="708.661" height="295.276"/>
            </clipPath>
            <g clip-path="url(#_clip1)">
                <g transform="matrix(3.16059,0,0,1.80595,-363.231,-138.387)">
                    <g transform="matrix(-1.0611,0,0,1.0611,358.241,24.5895)">
                        <path d="M182.316,59.517C182.316,59.517 186.922,65.228 184.435,68.083C181.948,70.939 182.224,74.071 182.224,76.742C182.224,79.414 185.725,80.058 185.725,80.058C185.725,80.058 185.909,86.783 185.08,88.533C184.251,90.283 180.29,106.772 183.053,109.167C183.053,109.167 185.264,108.4 185.08,114.602C184.896,120.804 187.567,123.291 187.567,123.291L182.04,124.12L182.04,132.733L187.014,134.851L187.014,144.017C187.014,144.017 181.948,145.122 181.395,146.78C180.843,148.438 181.395,153.413 181.395,153.413L188.902,156.032" style="fill:none;stroke:rgb(153,153,153);stroke-width:0.42px;"/>
                    </g>
                    <g transform="matrix(1.0611,0,0,1.0611,-51.4025,24.5895)">
                        <path d="M182.316,59.517C182.316,59.517 186.922,65.228 184.435,68.083C181.948,70.939 182.224,74.071 182.224,76.742C182.224,79.414 185.725,80.058 185.725,80.058C185.725,80.058 185.909,86.783 185.08,88.533C184.251,90.283 180.29,106.772 183.053,109.167C183.053,109.167 185.264,108.4 185.08,114.602C184.896,120.804 187.567,123.291 187.567,123.291L182.04,124.12L182.04,132.733L187.014,134.851L187.014,144.017C187.014,144.017 181.948,145.122 181.395,146.78C180.843,148.438 181.395,153.413 181.395,153.413L188.902,156.032" style="fill:none;stroke:rgb(153,153,153);stroke-width:0.42px;"/>
                    </g>
                    <g transform="matrix(1.0611,0,0,1.0611,-51.4025,-365.883)">
                        <path d="M185.955,448.053C185.955,448.053 189.764,448.317 190.33,448.317" style="fill:none;stroke:rgb(153,153,153);stroke-width:0.42px;stroke-linecap:butt;"/>
                    </g>
                    <g transform="matrix(1.0611,0,0,1.0611,-51.4025,-365.883)">
                        <path d="M202.004,477.808C202.004,477.808 192.901,475.746 184.754,478.11" style="fill:none;stroke:rgb(153,153,153);stroke-width:0.42px;stroke-linecap:butt;"/>
                    </g>
                    <g transform="matrix(1.0611,0,0,1.0611,-51.4025,-365.883)">
                        <path d="M185.257,482.988L200.947,483.089" style="fill:none;stroke:rgb(153,153,153);stroke-width:0.42px;stroke-linecap:butt;"/>
                    </g>
                    <g transform="matrix(5.12339e-17,0.836713,-0.882223,5.40206e-17,170.74,-82.787)">
                        <path d="M202.854,-0.584C205.507,12.173 205.434,25.687 202.854,39.896L183.964,39.896C180.609,25.922 180.555,12.421 183.964,-0.584L202.854,-0.584Z" style="fill:white;stroke:rgb(153,153,153);stroke-width:0.52px;"/>
                    </g>
                    <g transform="matrix(1.0611,0,0,1.60233,-52.3788,-62.0769)">
                        <rect x="183.966" y="157.559" width="20.511" height="64.604" style="fill:none;stroke:rgb(153,153,153);stroke-width:0.33px;"/>
                    </g>
                    <g transform="matrix(1,0,0,1.00691,-41.8808,0.56134)">
                        <g transform="matrix(1.0611,0,0,1.0611,-9.6917,-9.36726)">
                            <rect x="203.718" y="198.068" width="21.751" height="18.316" style="fill:none;stroke:rgb(153,153,153);stroke-width:0.42px;"/>
                        </g>
                        <g transform="matrix(1.01856,0,0,1.0611,0.526579,-9.36726)">
                            <rect x="224.896" y="197.352" width="15.311" height="20.32" style="fill:none;stroke:rgb(153,153,153);stroke-width:0.43px;"/>
                        </g>
                        <g transform="matrix(1.36099,0,0,1.0611,-82.5928,-9.36726)">
                            <path d="M245.456,198.748L245.456,215.159C244.07,214.074 242.584,213.703 240.84,215.159L240.84,198.748C242.114,200.199 243.647,200.227 245.456,198.748Z" style="fill:none;stroke:rgb(153,153,153);stroke-width:0.37px;"/>
                        </g>
                        <g transform="matrix(0.757925,0,0,1.0611,64.9233,-9.36726)">
                            <path d="M252.27,194.938C255.02,202.112 254.837,210.697 252.27,219.116L246.116,219.116L246.116,194.938L252.27,194.938Z" style="fill:none;stroke:rgb(153,153,153);stroke-width:0.49px;"/>
                        </g>
                        <g transform="matrix(1.0611,0,0,0.915574,-9.6917,21.3285)">
                            <path d="M300.836,196.69L300.836,218.059C284.908,220.36 269.697,220.395 255.236,218.059L255.236,196.69C271.446,192.167 286.628,192.248 300.836,196.69Z" style="fill:none;stroke:rgb(153,153,153);stroke-width:0.45px;"/>
                        </g>
                        <g transform="matrix(1.0611,0,0,1.0611,-9.6917,-9.36726)">
                            <rect x="251.82" y="200.074" width="3.376" height="14.38" style="fill:none;stroke:rgb(153,153,153);stroke-width:0.42px;"/>
                        </g>
                        <g transform="matrix(1.0611,0,0,1.0611,-9.6917,-9.36726)">
                            <rect x="300.96" y="201.887" width="2.876" height="9.19" style="fill:none;stroke:rgb(153,153,153);stroke-width:0.42px;"/>
                        </g>
                        <g transform="matrix(0.56969,0,0,1.35422,139.618,-69.9596)">
                            <path d="M303.841,210.087L303.895,202.915C303.895,202.915 515.95,196.785 567.266,235.585L562.964,241.275C514.151,204.368 303.841,210.087 303.841,210.087Z" style="fill:none;stroke:rgb(153,153,153);stroke-width:0.44px;stroke-linecap:butt;stroke-miterlimit:2;"/>
                        </g>
                    </g>
                    <g transform="matrix(1.04003,0,0,1.0611,-48.8139,-6.04996)">
                        <path d="M183.493,226.442L176.163,226.442C171.763,222.774 172.735,219.745 176.163,217.009L184.058,217.009L184.058,218.616L205.096,218.616L205.096,217.4L213.151,217.4C216.649,220.136 217.64,223.165 213.151,226.833L205.985,226.833L205.985,227.49C198.388,229.163 190.89,229.17 183.493,227.49L183.493,226.442Z" style="fill:none;stroke:rgb(153,153,153);stroke-width:0.43px;"/>
                    </g>
                    <g transform="matrix(1.0611,0,0,1.0611,-52.4636,1.27286)">
                        <g transform="matrix(1.1336,0,0,1.14931,-25.7828,-39.9344)">
                            <path d="M209.199,214.203C207.092,213.082 205.656,210.863 205.656,208.312C205.656,205.775 207.075,203.568 209.161,202.441L209.161,197.663C211.195,195.854 213.291,195.854 215.448,197.663L215.448,202.42C217.556,203.541 218.992,205.76 218.992,208.312C218.992,210.848 217.573,213.056 215.486,214.183L215.486,219.235C213.329,220.678 211.233,220.678 209.199,219.235L209.199,214.203Z" style="fill:white;stroke:black;stroke-width:0.74px;"/>
                        </g>
                        <g transform="matrix(1,0,0,1,1.92766,-11.2153)">
                            <circle cx="212.979" cy="210.696" r="3.157" style="fill:none;stroke:black;stroke-width:0.85px;"/>
                        </g>
                    </g>
                    <g transform="matrix(1.0611,0,0,1.0611,-52.4636,-5.43717)">
                        <circle cx="177.822" cy="221.533" r="2.533" style="fill:none;stroke:rgb(153,153,153);stroke-width:0.42px;"/>
                    </g>
                    <g transform="matrix(1.0611,0,0,1.0611,-53.871,-790.379)">
                        <rect x="189.256" y="902.81" width="12.237" height="9.264" style="fill:white;stroke:rgb(153,153,153);stroke-width:0.42px;stroke-linecap:butt;"/>
                    </g>
                    <g transform="matrix(1.0611,0,0,1.0611,-52.5472,24.9656)">
                        <g>
                            <g transform="matrix(1,0,0,1,1,0)">
                                <rect x="189.485" y="66.581" width="12.451" height="8.772" style="fill:white;stroke:rgb(153,153,153);stroke-width:0.42px;"/>
                            </g>
                            <g transform="matrix(0.93249,0,0,1,14.3492,0)">
                                <rect x="190.051" y="75.307" width="11.178" height="7.263" style="fill:none;stroke:rgb(153,153,153);stroke-width:0.44px;"/>
                            </g>
                            <g transform="matrix(1,0,0,1,1,-367.989)">
                                <path d="M189.914,448.566C189.914,448.566 188.668,451.319 194.831,451.254L194.831,457.613C194.831,457.613 187.751,459.71 187.357,455.711C186.964,451.712 187.882,449.418 188.078,448.631L189.914,448.566Z" style="fill:white;stroke:rgb(153,153,153);stroke-width:0.42px;stroke-linecap:butt;"/>
                            </g>
                            <g transform="matrix(-1,0,0,1,391.548,-367.989)">
                                <path d="M189.914,448.566C189.914,448.566 188.668,451.319 194.831,451.254L194.831,457.613C194.831,457.613 187.751,459.71 187.357,455.711C186.964,451.712 187.882,449.418 188.078,448.631L189.914,448.566Z" style="fill:white;stroke:rgb(153,153,153);stroke-width:0.42px;stroke-linecap:butt;"/>
                            </g>
                            <g transform="matrix(1,0,0,1,1,-367.989)">
                                <path d="M189.951,458.323C189.951,458.323 185.227,470.133 194.053,470.879C202.879,471.624 201.139,460.436 200.331,458.447L195.669,457.701L189.951,458.323Z" style="fill:rgb(251,251,251);stroke:rgb(153,153,153);stroke-width:0.42px;stroke-linecap:butt;"/>
                            </g>
                            <g transform="matrix(1,0,0,1,1.35588,-367.858)">
                                <circle cx="194.875" cy="464.277" r="1.808" style="fill:none;stroke:rgb(153,153,153);stroke-width:0.42px;stroke-linecap:butt;"/>
                            </g>
                            <g transform="matrix(1.09614,0.374192,-0.374192,1.09614,156.073,-486.266)">
                                <path d="M195.337,461.244L198.498,463.069L198.498,466.72L195.337,468.545L192.176,466.72L192.176,463.069L195.337,461.244Z" style="fill:none;stroke:rgb(153,153,153);stroke-width:0.37px;stroke-linecap:butt;"/>
                            </g>
                            <g transform="matrix(1.02942,0,0,1,-5.40948,0)">
                                <path d="M202.48,29.532L202.48,66.82L189.142,66.82L189.142,29.532C193.626,26.047 198.074,25.933 202.48,29.532Z" style="fill:rgb(251,251,251);stroke:rgb(153,153,153);stroke-width:0.42px;"/>
                            </g>
                        </g>
                    </g>
                    <g transform="matrix(0.804925,0,0,0.804925,0.741952,-469.586)">
                        <g transform="matrix(0.655126,-0,-0,0.68792,141.855,678.59)">
                            <path d="M136.027,198.505L124.29,190.391L137.823,185.87L136.027,198.505Z"/>
                            <path d="M184.838,270.135C184.838,270.135 198.641,204.261 134.398,191.828" style="fill:none;stroke:black;stroke-width:4.25px;stroke-linecap:butt;"/>
                        </g>
                    </g>
                </g>
            </g>
        </g>
    </g>
</svg>
