<?xml version="1.0" encoding="UTF-8" standalone="no"?>
<!DOCTYPE svg PUBLIC "-//W3C//DTD SVG 1.1//EN" "http://www.w3.org/Graphics/SVG/1.1/DTD/svg11.dtd">
<svg width="100%" height="100%" viewBox="0 0 1453 473" version="1.1" xmlns="http://www.w3.org/2000/svg" xmlns:xlink="http://www.w3.org/1999/xlink" xml:space="preserve" xmlns:serif="http://www.serif.com/" style="fill-rule:evenodd;clip-rule:evenodd;stroke-linecap:round;stroke-linejoin:round;stroke-miterlimit:1.5;">
    <g transform="matrix(1,0,0,1,-22062.6,-33653.6)">
        <g id="Artboard4" transform="matrix(2.05,0,0,1.6,22062.6,33653.6)">
            <rect x="0" y="0" width="708.661" height="295.276" style="fill:none;"/>
            <clipPath id="_clip1">
                <rect x="0" y="0" width="708.661" height="295.276"/>
            </clipPath>
            <g clip-path="url(#_clip1)">
                <g transform="matrix(2.86228e-17,-0.625,0.116625,-7.70357e-18,-3373.37,14400.8)">
                    <path d="M22805.1,31783.1L22805.1,32143.1" style="fill:none;"/>
                </g>
                <g transform="matrix(2.86228e-17,-0.625,0.116625,-7.70357e-18,-3373.37,14400.8)">
                    <path d="M22809.3,32038.5L22801,32038.5L22801,31783.1L22809.3,31783.1L22809.3,32038.5ZM22809.3,32038.5L22823.9,32038.5L22805.1,32143.1L22786.4,32038.5L22801,32038.5L22801,32059.4L22809.3,32059.4L22809.3,32038.5Z" style="fill:rgb(64,64,64);"/>
                </g>
                <g transform="matrix(2.86228e-17,-0.625,0.116625,-7.70357e-18,-3373.37,14400.8)">
                    <path d="M22801,32038.5L22801,31783.1L22809.3,31783.1L22809.3,32038.5L22823.9,32038.5L22805.1,32143.1L22786.4,32038.5L22801,32038.5Z" style="fill:rgb(64,64,64);"/>
                </g>
                <g transform="matrix(0.420629,0,0,0.904091,-7836.45,-29188.4)">
                    <path d="M19325.9,32584.2L19325.9,33211.5L18844.5,33211.5L18844.5,32584.2L19325.9,32584.2ZM19324.4,32585L18845.9,32585L18845.9,33210.6L19324.4,33210.6L19324.4,32585Z" style="fill:rgb(128,128,128);"/>
                </g>
                <g transform="matrix(0.420629,0,0,0.904091,-7465.17,-29188.4)">
                    <path d="M19325.9,32584.2L19325.9,33211.5L18844.5,33211.5L18844.5,32584.2L19325.9,32584.2ZM19324.4,32585L18845.9,32585L18845.9,33210.6L19324.4,33210.6L19324.4,32585Z" style="fill:rgb(128,128,128);"/>
                </g>
                <g>
                    <g transform="matrix(-0.65419,0,0,0.83243,208.128,-5.89472)">
                        <path d="M182.316,59.517C182.316,59.517 186.922,65.228 184.435,68.083C181.948,70.939 182.224,74.071 182.224,76.742C182.224,79.414 185.725,80.058 185.725,80.058C185.725,80.058 185.909,86.783 185.08,88.533C184.251,90.283 180.29,106.772 183.053,109.167C183.053,109.167 185.264,108.4 185.08,114.602C184.896,120.804 187.567,123.291 187.567,123.291L182.04,124.12L182.04,132.733L187.014,134.851L187.014,144.017C187.014,144.017 181.948,145.122 181.395,146.78C180.843,148.438 181.395,153.413 181.395,153.413L188.902,156.032" style="fill:none;stroke:rgb(115,115,115);stroke-width:1.11px;"/>
                    </g>
                    <g transform="matrix(0.65419,0,0,1.35958,-44.6875,-24.9982)">
                        <rect x="183.964" y="-0.584" width="18.891" height="40.481" style="fill:none;stroke:rgb(115,115,115);stroke-width:0.82px;"/>
                    </g>
                    <g transform="matrix(0.65419,0,0,0.83243,-44.4264,-5.89472)">
                        <path d="M182.316,59.517C182.316,59.517 186.922,65.228 184.435,68.083C181.948,70.939 182.224,74.071 182.224,76.742C182.224,79.414 185.725,80.058 185.725,80.058C185.725,80.058 185.909,86.783 185.08,88.533C184.251,90.283 180.29,106.772 183.053,109.167C183.053,109.167 185.264,108.4 185.08,114.602C184.896,120.804 187.567,123.291 187.567,123.291L182.04,124.12L182.04,132.733L187.014,134.851L187.014,144.017C187.014,144.017 181.948,145.122 181.395,146.78C180.843,148.438 181.395,153.413 181.395,153.413L188.902,156.032" style="fill:none;stroke:rgb(115,115,115);stroke-width:1.11px;"/>
                    </g>
                    <g transform="matrix(0.65419,0,0,0.83243,-44.4264,-312.22)">
                        <path d="M185.955,448.053C185.955,448.053 189.764,448.317 190.33,448.317" style="fill:none;stroke:rgb(115,115,115);stroke-width:1.11px;stroke-linecap:butt;"/>
                    </g>
                    <g transform="matrix(0.65419,0,0,0.83243,-44.4264,-312.22)">
                        <path d="M202.004,477.808C202.004,477.808 192.901,475.746 184.754,478.11" style="fill:none;stroke:rgb(115,115,115);stroke-width:1.11px;stroke-linecap:butt;"/>
                    </g>
                    <g transform="matrix(0.65419,0,0,0.83243,-44.4264,-312.22)">
                        <path d="M185.257,482.988L200.947,483.089" style="fill:none;stroke:rgb(115,115,115);stroke-width:1.11px;stroke-linecap:butt;"/>
                    </g>
                    <g transform="matrix(3.15869e-17,0.656402,-0.543911,4.23792e-17,92.5299,-90.1315)">
                        <path d="M202.854,-0.584C205.507,12.173 205.434,25.687 202.854,39.896L183.964,39.896C180.609,25.922 180.555,12.421 183.964,-0.584L202.854,-0.584Z" style="fill:white;stroke:rgb(115,115,115);stroke-width:1.37px;"/>
                    </g>
                    <g transform="matrix(0.65419,0,0,1.25703,-45.0283,-73.8845)">
                        <rect x="183.966" y="157.559" width="20.511" height="64.604" style="fill:none;stroke:rgb(115,115,115);stroke-width:0.87px;"/>
                    </g>
                    <g transform="matrix(0.65419,0,0,0.838181,-44.5312,-32.1442)">
                        <rect x="203.718" y="198.068" width="21.751" height="18.316" style="fill:none;stroke:rgb(115,115,115);stroke-width:1.11px;"/>
                    </g>
                    <g transform="matrix(0.627964,0,0,0.838181,-38.2314,-32.1442)">
                        <rect x="224.896" y="197.352" width="15.311" height="20.32" style="fill:none;stroke:rgb(115,115,115);stroke-width:1.13px;"/>
                    </g>
                    <g transform="matrix(0.839084,0,0,0.838181,-89.4764,-32.1442)">
                        <path d="M245.456,198.748L245.456,215.159C244.07,214.074 242.584,213.703 240.84,215.159L240.84,198.748C242.114,200.199 243.647,200.227 245.456,198.748Z" style="fill:none;stroke:rgb(115,115,115);stroke-width:0.96px;"/>
                    </g>
                    <g transform="matrix(0.467279,0,0,0.838181,1.47073,-32.1442)">
                        <path d="M252.27,194.938C255.02,202.112 254.837,210.697 252.27,219.116L246.116,219.116L246.116,194.938L252.27,194.938Z" style="fill:none;stroke:rgb(115,115,115);stroke-width:1.28px;"/>
                    </g>
                    <g transform="matrix(0.65419,0,0,0.723231,-44.5312,-7.89696)">
                        <path d="M300.836,196.69L300.836,218.059C284.908,220.36 269.697,220.395 255.236,218.059L255.236,196.69C260.251,195.291 264.471,194.263 268.873,194.607C272.118,194.861 273.985,197.059 278.747,197.04C281.979,197.027 286.094,194.664 289.515,194.623C293.434,194.576 297.328,195.593 300.836,196.69Z" style="fill:none;stroke:rgb(115,115,115);stroke-width:1.19px;"/>
                    </g>
                    <g transform="matrix(0.65419,0,0,0.838181,-44.5312,-32.1442)">
                        <rect x="251.82" y="200.074" width="3.376" height="14.38" style="fill:none;stroke:rgb(115,115,115);stroke-width:1.11px;"/>
                    </g>
                    <g transform="matrix(0.65419,0,0,0.838181,-44.5312,-32.1442)">
                        <rect x="300.96" y="201.887" width="2.876" height="9.19" style="fill:none;stroke:rgb(115,115,115);stroke-width:1.11px;"/>
                    </g>
                    <g transform="matrix(0.6412,0,0,0.83243,-42.8304,-29.9314)">
                        <path d="M183.493,226.442L176.163,226.442C171.763,222.774 172.735,219.745 176.163,217.009L184.058,217.009L184.058,218.616L205.096,218.616L205.096,217.4L213.151,217.4C216.649,220.136 217.64,223.165 213.151,226.833L205.985,226.833L205.985,227.49C198.388,229.163 190.89,229.17 183.493,227.49L183.493,226.442Z" style="fill:none;stroke:rgb(115,115,115);stroke-width:1.12px;"/>
                    </g>
                    <g transform="matrix(-0.741587,1.16361e-16,-9.14455e-17,-0.956722,252.966,341.163)">
                        <path d="M209.199,214.203C207.092,213.082 205.656,210.863 205.656,208.312C205.656,205.775 207.075,203.568 209.161,202.441L209.161,197.663C211.195,195.854 213.291,195.854 215.448,197.663L215.448,202.42C217.556,203.541 218.992,205.76 218.992,208.312C218.992,210.848 217.573,213.056 215.486,214.183L215.486,219.235C213.329,220.678 211.233,220.678 209.199,219.235L209.199,214.203Z" style="fill:white;stroke:rgb(115,115,115);stroke-width:0.98px;"/>
                    </g>
                    <g transform="matrix(4.00576e-17,0.838181,-0.649701,5.09716e-17,232.399,-36.6479)">
                        <circle cx="212.979" cy="210.696" r="3.157" style="fill:none;stroke:rgb(115,115,115);stroke-width:1.11px;"/>
                    </g>
                    <g transform="matrix(0.65419,0,0,0.83243,-45.0805,-29.4506)">
                        <circle cx="177.822" cy="221.533" r="2.533" style="fill:none;stroke:rgb(115,115,115);stroke-width:1.11px;"/>
                    </g>
                    <g transform="matrix(0.65419,0,0,0.707735,-45.7347,25.7947)">
                        <path d="M207.868,254.136L207.868,271.641C199.173,275.627 190.775,275.88 182.735,271.641L182.735,254.136L207.868,254.136Z" style="fill:white;stroke:rgb(115,115,115);stroke-width:1.2px;stroke-linecap:butt;"/>
                    </g>
                    <g transform="matrix(0.65419,0,0,0.83243,-45.9482,-645.237)">
                        <rect x="189.256" y="902.81" width="12.237" height="9.264" style="fill:white;stroke:rgb(115,115,115);stroke-width:1.11px;stroke-linecap:butt;"/>
                    </g>
                    <g transform="matrix(0.278657,0.830608,-0.64828,0.35703,15696.9,-30189.5)">
                        <g transform="matrix(0.854886,0.358723,-0.356261,0.849019,21866.4,33390.3)">
                            <rect x="189.485" y="66.581" width="12.451" height="8.772" style="fill:white;stroke:rgb(115,115,115);stroke-width:1.11px;"/>
                        </g>
                        <g>
                            <g transform="matrix(0.797172,0.334505,-0.356261,0.849019,21877.8,33395.1)">
                                <rect x="190.051" y="75.307" width="11.178" height="7.263" style="fill:none;stroke:rgb(115,115,115);stroke-width:1.15px;"/>
                            </g>
                            <g transform="matrix(0.854886,0.358723,-0.356261,0.849019,21997.5,33077.9)">
                                <path d="M189.914,448.566C189.914,448.566 188.668,451.319 194.831,451.254L194.831,457.613C194.831,457.613 187.751,459.71 187.357,455.711C186.964,451.712 187.882,449.418 188.078,448.631L189.914,448.566Z" style="fill:white;stroke:rgb(115,115,115);stroke-width:1.11px;stroke-linecap:butt;"/>
                            </g>
                            <g transform="matrix(-0.854886,-0.358723,-0.356261,0.849019,22331.4,33218)">
                                <path d="M189.914,448.566C189.914,448.566 188.668,451.319 194.831,451.254L194.831,457.613C194.831,457.613 187.751,459.71 187.357,455.711C186.964,451.712 187.882,449.418 188.078,448.631L189.914,448.566Z" style="fill:white;stroke:rgb(115,115,115);stroke-width:1.11px;stroke-linecap:butt;"/>
                            </g>
                            <g transform="matrix(0.854886,0.358723,-0.356261,0.849019,21997.5,33077.9)">
                                <path d="M189.951,458.323C189.951,458.323 185.227,470.133 194.053,470.879C202.879,471.624 201.139,460.436 200.331,458.447L195.669,457.701L189.951,458.323Z" style="fill:rgb(251,251,251);stroke:rgb(115,115,115);stroke-width:1.11px;stroke-linecap:butt;"/>
                            </g>
                            <g transform="matrix(0.854886,0.358723,-0.356261,0.849019,21997.8,33078.1)">
                                <circle cx="194.875" cy="464.277" r="1.808" style="fill:none;stroke:rgb(115,115,115);stroke-width:1.11px;stroke-linecap:butt;"/>
                            </g>
                            <g transform="matrix(0.803769,0.710908,-0.710405,0.796417,22172.2,33033.1)">
                                <path d="M195.337,461.244L198.498,463.069L198.498,466.72L195.337,468.545L192.176,466.72L192.176,463.069L195.337,461.244Z" style="fill:none;stroke:rgb(115,115,115);stroke-width:0.96px;stroke-linecap:butt;"/>
                            </g>
                            <g transform="matrix(0.880036,0.369276,-0.356261,0.849019,21860.9,33388)">
                                <path d="M202.48,29.532L202.48,66.82L189.142,66.82L189.142,29.532C193.626,26.047 198.074,25.933 202.48,29.532Z" style="fill:rgb(251,251,251);stroke:rgb(115,115,115);stroke-width:1.1px;"/>
                            </g>
                        </g>
                    </g>
                    <g transform="matrix(0.405308,0,0,0.904091,-8809.34,-30252)">
                        <ellipse cx="22073.9" cy="33618.9" rx="11.818" ry="6.536" style="fill:none;stroke:rgb(115,115,115);stroke-width:0.71px;stroke-linecap:butt;stroke-miterlimit:10;"/>
                    </g>
                    <g transform="matrix(0.355185,0,0,0.792285,-7702.92,-26493.3)">
                        <ellipse cx="22073.9" cy="33618.9" rx="11.818" ry="6.536" style="fill:rgb(64,64,64);"/>
                    </g>
                </g>
                <g transform="matrix(1,0,0,1,371.276,0)">
                    <g transform="matrix(-0.65419,0,0,0.83243,208.128,-5.89472)">
                        <path d="M182.316,59.517C182.316,59.517 186.922,65.228 184.435,68.083C181.948,70.939 182.224,74.071 182.224,76.742C182.224,79.414 185.725,80.058 185.725,80.058C185.725,80.058 185.909,86.783 185.08,88.533C184.251,90.283 180.29,106.772 183.053,109.167C183.053,109.167 185.264,108.4 185.08,114.602C184.896,120.804 187.567,123.291 187.567,123.291L182.04,124.12L182.04,132.733L187.014,134.851L187.014,144.017C187.014,144.017 181.948,145.122 181.395,146.78C180.843,148.438 181.395,153.413 181.395,153.413L188.902,156.032" style="fill:none;stroke:rgb(115,115,115);stroke-width:1.11px;"/>
                    </g>
                    <g transform="matrix(0.65419,0,0,1.35958,-44.6875,-24.9982)">
                        <rect x="183.964" y="-0.584" width="18.891" height="40.481" style="fill:none;stroke:rgb(115,115,115);stroke-width:0.82px;"/>
                    </g>
                    <g transform="matrix(0.65419,0,0,0.83243,-44.4264,-5.89472)">
                        <path d="M182.316,59.517C182.316,59.517 186.922,65.228 184.435,68.083C181.948,70.939 182.224,74.071 182.224,76.742C182.224,79.414 185.725,80.058 185.725,80.058C185.725,80.058 185.909,86.783 185.08,88.533C184.251,90.283 180.29,106.772 183.053,109.167C183.053,109.167 185.264,108.4 185.08,114.602C184.896,120.804 187.567,123.291 187.567,123.291L182.04,124.12L182.04,132.733L187.014,134.851L187.014,144.017C187.014,144.017 181.948,145.122 181.395,146.78C180.843,148.438 181.395,153.413 181.395,153.413L188.902,156.032" style="fill:none;stroke:rgb(115,115,115);stroke-width:1.11px;"/>
                    </g>
                    <g transform="matrix(0.65419,0,0,0.83243,-44.4264,-312.22)">
                        <path d="M185.955,448.053C185.955,448.053 189.764,448.317 190.33,448.317" style="fill:none;stroke:rgb(115,115,115);stroke-width:1.11px;stroke-linecap:butt;"/>
                    </g>
                    <g transform="matrix(0.65419,0,0,0.83243,-44.4264,-312.22)">
                        <path d="M202.004,477.808C202.004,477.808 192.901,475.746 184.754,478.11" style="fill:none;stroke:rgb(115,115,115);stroke-width:1.11px;stroke-linecap:butt;"/>
                    </g>
                    <g transform="matrix(0.65419,0,0,0.83243,-44.4264,-312.22)">
                        <path d="M185.257,482.988L200.947,483.089" style="fill:none;stroke:rgb(115,115,115);stroke-width:1.11px;stroke-linecap:butt;"/>
                    </g>
                    <g transform="matrix(3.15869e-17,0.656402,-0.543911,4.23792e-17,92.5299,-90.1315)">
                        <path d="M202.854,-0.584C205.507,12.173 205.434,25.687 202.854,39.896L183.964,39.896C180.609,25.922 180.555,12.421 183.964,-0.584L202.854,-0.584Z" style="fill:white;stroke:rgb(115,115,115);stroke-width:1.37px;"/>
                    </g>
                    <g transform="matrix(0.65419,0,0,1.25703,-45.0283,-73.8845)">
                        <rect x="183.966" y="157.559" width="20.511" height="64.604" style="fill:none;stroke:rgb(115,115,115);stroke-width:0.87px;"/>
                    </g>
                    <g transform="matrix(0.65419,0,0,0.838181,-44.5312,-32.1442)">
                        <rect x="203.718" y="198.068" width="21.751" height="18.316" style="fill:none;stroke:rgb(115,115,115);stroke-width:1.11px;"/>
                    </g>
                    <g transform="matrix(0.627964,0,0,0.838181,-38.2314,-32.1442)">
                        <rect x="224.896" y="197.352" width="15.311" height="20.32" style="fill:none;stroke:rgb(115,115,115);stroke-width:1.13px;"/>
                    </g>
                    <g transform="matrix(0.839084,0,0,0.838181,-89.4764,-32.1442)">
                        <path d="M245.456,198.748L245.456,215.159C244.07,214.074 242.584,213.703 240.84,215.159L240.84,198.748C242.114,200.199 243.647,200.227 245.456,198.748Z" style="fill:none;stroke:rgb(115,115,115);stroke-width:0.96px;"/>
                    </g>
                    <g transform="matrix(0.467279,0,0,0.838181,1.47073,-32.1442)">
                        <path d="M252.27,194.938C255.02,202.112 254.837,210.697 252.27,219.116L246.116,219.116L246.116,194.938L252.27,194.938Z" style="fill:none;stroke:rgb(115,115,115);stroke-width:1.28px;"/>
                    </g>
                    <g transform="matrix(0.65419,0,0,0.723231,-44.5312,-7.89696)">
                        <path d="M300.836,196.69L300.836,218.059C284.908,220.36 269.697,220.395 255.236,218.059L255.236,196.69C260.251,195.291 264.471,194.263 268.873,194.607C272.118,194.861 273.985,197.059 278.747,197.04C281.979,197.027 286.094,194.664 289.515,194.623C293.434,194.576 297.328,195.593 300.836,196.69Z" style="fill:none;stroke:rgb(115,115,115);stroke-width:1.19px;"/>
                    </g>
                    <g transform="matrix(0.65419,0,0,0.838181,-44.5312,-32.1442)">
                        <rect x="251.82" y="200.074" width="3.376" height="14.38" style="fill:none;stroke:rgb(115,115,115);stroke-width:1.11px;"/>
                    </g>
                    <g transform="matrix(0.65419,0,0,0.838181,-44.5312,-32.1442)">
                        <rect x="300.96" y="201.887" width="2.876" height="9.19" style="fill:none;stroke:rgb(115,115,115);stroke-width:1.11px;"/>
                    </g>
                    <g transform="matrix(0.6412,0,0,0.83243,-42.8304,-29.9314)">
                        <path d="M183.493,226.442L176.163,226.442C171.763,222.774 172.735,219.745 176.163,217.009L184.058,217.009L184.058,218.616L205.096,218.616L205.096,217.4L213.151,217.4C216.649,220.136 217.64,223.165 213.151,226.833L205.985,226.833L205.985,227.49C198.388,229.163 190.89,229.17 183.493,227.49L183.493,226.442Z" style="fill:none;stroke:rgb(115,115,115);stroke-width:1.12px;"/>
                    </g>
                    <g transform="matrix(-0.741587,1.16361e-16,-9.14455e-17,-0.956722,252.966,341.163)">
                        <path d="M209.199,214.203C207.092,213.082 205.656,210.863 205.656,208.312C205.656,205.775 207.075,203.568 209.161,202.441L209.161,197.663C211.195,195.854 213.291,195.854 215.448,197.663L215.448,202.42C217.556,203.541 218.992,205.76 218.992,208.312C218.992,210.848 217.573,213.056 215.486,214.183L215.486,219.235C213.329,220.678 211.233,220.678 209.199,219.235L209.199,214.203Z" style="fill:white;stroke:rgb(115,115,115);stroke-width:0.98px;"/>
                    </g>
                    <g transform="matrix(4.00576e-17,0.838181,-0.649701,5.09716e-17,232.399,-36.6479)">
                        <circle cx="212.979" cy="210.696" r="3.157" style="fill:none;stroke:rgb(115,115,115);stroke-width:1.11px;"/>
                    </g>
                    <g transform="matrix(0.65419,0,0,0.83243,-45.0805,-29.4506)">
                        <circle cx="177.822" cy="221.533" r="2.533" style="fill:none;stroke:rgb(115,115,115);stroke-width:1.11px;"/>
                    </g>
                    <g transform="matrix(0.65419,0,0,0.707735,-45.7347,25.7947)">
                        <path d="M207.868,254.136L207.868,271.641C199.173,275.627 190.775,275.88 182.735,271.641L182.735,254.136L207.868,254.136Z" style="fill:white;stroke:rgb(115,115,115);stroke-width:1.2px;stroke-linecap:butt;"/>
                    </g>
                    <g transform="matrix(0.65419,0,0,0.83243,-45.9482,-645.237)">
                        <rect x="189.256" y="902.81" width="12.237" height="9.264" style="fill:white;stroke:rgb(115,115,115);stroke-width:1.11px;stroke-linecap:butt;"/>
                    </g>
                    <g transform="matrix(0.278657,0.830608,-0.64828,0.35703,15696.9,-30189.5)">
                        <g transform="matrix(0.854886,0.358723,-0.356261,0.849019,21866.4,33390.3)">
                            <rect x="189.485" y="66.581" width="12.451" height="8.772" style="fill:white;stroke:rgb(115,115,115);stroke-width:1.11px;"/>
                        </g>
                        <g>
                            <g transform="matrix(0.797172,0.334505,-0.356261,0.849019,21877.8,33395.1)">
                                <rect x="190.051" y="75.307" width="11.178" height="7.263" style="fill:none;stroke:rgb(115,115,115);stroke-width:1.15px;"/>
                            </g>
                            <g transform="matrix(0.854886,0.358723,-0.356261,0.849019,21997.5,33077.9)">
                                <path d="M189.914,448.566C189.914,448.566 188.668,451.319 194.831,451.254L194.831,457.613C194.831,457.613 187.751,459.71 187.357,455.711C186.964,451.712 187.882,449.418 188.078,448.631L189.914,448.566Z" style="fill:white;stroke:rgb(115,115,115);stroke-width:1.11px;stroke-linecap:butt;"/>
                            </g>
                            <g transform="matrix(-0.854886,-0.358723,-0.356261,0.849019,22331.4,33218)">
                                <path d="M189.914,448.566C189.914,448.566 188.668,451.319 194.831,451.254L194.831,457.613C194.831,457.613 187.751,459.71 187.357,455.711C186.964,451.712 187.882,449.418 188.078,448.631L189.914,448.566Z" style="fill:white;stroke:rgb(115,115,115);stroke-width:1.11px;stroke-linecap:butt;"/>
                            </g>
                            <g transform="matrix(0.854886,0.358723,-0.356261,0.849019,21997.5,33077.9)">
                                <path d="M189.951,458.323C189.951,458.323 185.227,470.133 194.053,470.879C202.879,471.624 201.139,460.436 200.331,458.447L195.669,457.701L189.951,458.323Z" style="fill:rgb(251,251,251);stroke:rgb(115,115,115);stroke-width:1.11px;stroke-linecap:butt;"/>
                            </g>
                            <g transform="matrix(0.854886,0.358723,-0.356261,0.849019,21997.8,33078.1)">
                                <circle cx="194.875" cy="464.277" r="1.808" style="fill:none;stroke:rgb(115,115,115);stroke-width:1.11px;stroke-linecap:butt;"/>
                            </g>
                            <g transform="matrix(0.803769,0.710908,-0.710405,0.796417,22172.2,33033.1)">
                                <path d="M195.337,461.244L198.498,463.069L198.498,466.72L195.337,468.545L192.176,466.72L192.176,463.069L195.337,461.244Z" style="fill:none;stroke:rgb(115,115,115);stroke-width:0.96px;stroke-linecap:butt;"/>
                            </g>
                            <g transform="matrix(0.880036,0.369276,-0.356261,0.849019,21860.9,33388)">
                                <path d="M202.48,29.532L202.48,66.82L189.142,66.82L189.142,29.532C193.626,26.047 198.074,25.933 202.48,29.532Z" style="fill:rgb(251,251,251);stroke:rgb(115,115,115);stroke-width:1.1px;"/>
                            </g>
                        </g>
                    </g>
                    <g transform="matrix(0.405308,0,0,0.904091,-8809.34,-30252)">
                        <ellipse cx="22073.9" cy="33618.9" rx="11.818" ry="6.536" style="fill:none;stroke:rgb(115,115,115);stroke-width:0.71px;stroke-linecap:butt;stroke-miterlimit:10;"/>
                    </g>
                    <g transform="matrix(0.355185,0,0,0.792285,-7702.92,-26493.3)">
                        <ellipse cx="22073.9" cy="33618.9" rx="11.818" ry="6.536" style="fill:rgb(64,64,64);"/>
                    </g>
                </g>
                <g transform="matrix(0.438759,0,0,0.202519,-3.6606,167.831)">
                    <path d="M207.868,254.136L207.868,271.641C199.173,275.627 190.775,275.88 182.735,271.641L182.735,254.136L207.868,254.136Z" style="fill:white;stroke:rgb(115,115,115);stroke-width:2.2px;stroke-linecap:butt;"/>
                </g>
                <g>
                    <g transform="matrix(0.705632,0,0,0.904091,-13276.3,-29189.2)">
                        <path d="M19052.8,32405.4C19052.8,32405.4 19075.6,32417.8 19075.3,32450.8C19075,32494.8 19075.4,32584.5 19075.4,32584.5" style="fill:none;stroke:rgb(140,140,140);stroke-width:2.88px;stroke-linecap:butt;stroke-miterlimit:10;"/>
                    </g>
                    <g transform="matrix(-0.72375,-0.64452,0.491774,-0.906537,-271.617,44855)">
                        <rect x="22205" y="33570.2" width="2.894" height="6.47" style="fill:none;stroke:black;stroke-width:0.47px;stroke-linecap:butt;stroke-miterlimit:10;"/>
                    </g>
                    <g transform="matrix(-0.733679,-0.653361,0.491774,-0.906537,-51.1254,45051.3)">
                        <path d="M22210.7,33571.5L22210.7,33575.8C22209.8,33575.3 22208.9,33575.2 22208,33575.8L22208,33571.5C22208.9,33572 22209.8,33572 22210.7,33571.5Z" style="fill:none;stroke:black;stroke-width:0.46px;stroke-linecap:butt;stroke-miterlimit:10;"/>
                    </g>
                </g>
                <g transform="matrix(0.705632,0,0,0.904091,-12905,-29189.2)">
                    <path d="M19041.4,32441.4C19041.4,32441.4 19074.4,32439.4 19074.2,32472.4C19073.9,32516.3 19075.4,32584.5 19075.4,32584.5" style="fill:none;stroke:rgb(140,140,140);stroke-width:2.88px;stroke-linecap:butt;stroke-miterlimit:10;"/>
                </g>
                <g transform="matrix(-0.881398,-1.11022e-16,1.11022e-16,-1.104,20102.5,37206.1)">
                    <rect x="22205" y="33570.2" width="2.894" height="6.47" style="fill:none;stroke:black;stroke-width:0.47px;stroke-linecap:butt;stroke-miterlimit:10;"/>
                </g>
                <g transform="matrix(-0.89349,-2.22045e-16,1.11022e-16,-1.104,20371,37206.1)">
                    <path d="M22210.7,33571.5L22210.7,33575.8C22209.8,33575.3 22208.9,33575.2 22208,33575.8L22208,33571.5C22208.9,33572 22209.8,33572 22210.7,33571.5Z" style="fill:none;stroke:black;stroke-width:0.46px;stroke-linecap:butt;stroke-miterlimit:10;"/>
                </g>
            </g>
        </g>
    </g>
</svg>
