<?xml version="1.0" encoding="UTF-8" standalone="no"?>
<!DOCTYPE svg PUBLIC "-//W3C//DTD SVG 1.1//EN" "http://www.w3.org/Graphics/SVG/1.1/DTD/svg11.dtd">
<svg width="100%" height="100%" viewBox="0 0 1453 473" version="1.1" xmlns="http://www.w3.org/2000/svg" xmlns:xlink="http://www.w3.org/1999/xlink" xml:space="preserve" xmlns:serif="http://www.serif.com/" style="fill-rule:evenodd;clip-rule:evenodd;stroke-linecap:round;stroke-linejoin:round;stroke-miterlimit:10;">
    <g transform="matrix(1,0,0,1,-22062.6,-31712.4)">
        <g id="Artboard4" transform="matrix(2.05,0,0,1.6,22062.6,31712.4)">
            <rect x="0" y="0" width="708.661" height="295.276" style="fill:none;"/>
            <g transform="matrix(1,0,0,1,-3.66622,-52.9308)">
                <g transform="matrix(0.623769,0,0,0.556396,-12872.7,-7120.23)">
                    <path d="M21076.6,13118.1L21076.6,13253.3C21076.6,13253.8 21076.3,13254.3 21075.9,13254.3L21028.6,13254.3C21028.2,13254.3 21027.9,13253.8 21027.9,13253.3L21027.9,13118.1C21027.9,13117.6 21028.2,13117.2 21028.6,13117.2L21075.9,13117.2C21076.3,13117.2 21076.6,13117.6 21076.6,13118.1ZM21075.3,13119L21029.2,13119L21029.2,13252.4L21075.3,13252.4L21075.3,13119Z"/>
                </g>
                <g transform="matrix(5.55112e-17,0.799336,-0.625192,0.00097824,8475.2,-16641.7)">
                    <path d="M21050.9,13121.9C21061.6,13121.9 21070.2,13130.6 21070.2,13141.2C21070.2,13151.9 21061.6,13160.6 21050.9,13160.6C21040.2,13160.6 21031.5,13151.9 21031.5,13141.2C21031.5,13130.6 21040.2,13121.9 21050.9,13121.9ZM21050.9,13123.2C21040.9,13123.2 21032.8,13131.3 21032.8,13141.2C21032.8,13151.2 21040.9,13159.3 21050.9,13159.3C21060.8,13159.3 21068.9,13151.2 21068.9,13141.2C21068.9,13131.3 21060.8,13123.2 21050.9,13123.2Z"/>
                </g>
                <g transform="matrix(5.55112e-17,0.799336,-0.625192,0.00097824,8474.27,-16642.6)">
                    <circle cx="21052" cy="13131.2" r="2.77"/>
                </g>
                <g transform="matrix(5.55112e-17,0.799336,-0.625192,0.00097824,8474.23,-16606.2)">
                    <circle cx="21052" cy="13131.2" r="2.77"/>
                </g>
                <g transform="matrix(5.55112e-17,0.799336,-0.625192,0.00097824,8463.55,-16642.6)">
                    <circle cx="21052" cy="13131.2" r="2.77"/>
                </g>
                <g transform="matrix(5.55112e-17,0.799336,-0.625192,0.00097824,8463.52,-16606.2)">
                    <circle cx="21052" cy="13131.2" r="2.77"/>
                </g>
                <g transform="matrix(5.55112e-17,0.799336,-0.625192,0.00097824,8468.91,-16651.6)">
                    <circle cx="21052" cy="13131.2" r="2.77" style="fill:rgb(102,102,102);"/>
                </g>
                <g transform="matrix(5.55112e-17,0.799336,-0.625192,0.00097824,8468.88,-16615.2)">
                    <circle cx="21052" cy="13131.2" r="2.77" style="fill:rgb(102,102,102);"/>
                </g>
                <g transform="matrix(5.55112e-17,0.799336,-0.625192,0.00097824,8475.2,-16605.3)">
                    <path d="M21050.9,13121.9C21061.6,13121.9 21070.2,13130.6 21070.2,13141.2C21070.2,13151.9 21061.6,13160.6 21050.9,13160.6C21040.2,13160.6 21031.5,13151.9 21031.5,13141.2C21031.5,13130.6 21040.2,13121.9 21050.9,13121.9ZM21050.9,13123.2C21040.9,13123.2 21032.8,13131.3 21032.8,13141.2C21032.8,13151.2 21040.9,13159.3 21050.9,13159.3C21060.8,13159.3 21068.9,13151.2 21068.9,13141.2C21068.9,13131.3 21060.8,13123.2 21050.9,13123.2Z"/>
                </g>
            </g>
            <g transform="matrix(1,0,0,1,72.7271,139.094)">
                <g transform="matrix(0.487805,0,0,0.625,-10762.2,-18377.6)">
                    <path d="M22386.9,29537.2C22388,29538.3 22388.5,29539.5 22388.5,29540.6C22388.5,29541.7 22388,29542.9 22386.9,29544C22386.6,29544.3 22386.3,29544.5 22385.9,29544.5L22371.2,29544.5C22370.4,29544.5 22369.7,29543.8 22369.7,29543L22369.7,29538.2C22369.7,29537.4 22370.4,29536.7 22371.2,29536.7L22385.9,29536.7C22386.2,29536.7 22386.6,29536.9 22386.9,29537.2ZM22385.2,29539.6L22372.6,29539.6L22372.6,29541.6L22385.2,29541.6C22385.4,29541.3 22385.6,29540.9 22385.6,29540.6C22385.6,29540.3 22385.4,29540 22385.2,29539.6Z"/>
                </g>
                <g transform="matrix(0.487805,0,0,0.625,-10762.2,-18371.7)">
                    <path d="M22386.9,29537.2C22388,29538.3 22388.5,29539.5 22388.5,29540.6C22388.5,29541.7 22388,29542.9 22386.9,29544C22386.6,29544.3 22386.3,29544.5 22385.9,29544.5L22371.2,29544.5C22370.4,29544.5 22369.7,29543.8 22369.7,29543L22369.7,29538.2C22369.7,29537.4 22370.4,29536.7 22371.2,29536.7L22385.9,29536.7C22386.2,29536.7 22386.6,29536.9 22386.9,29537.2ZM22385.2,29539.6L22372.6,29539.6L22372.6,29541.6L22385.2,29541.6C22385.4,29541.3 22385.6,29540.9 22385.6,29540.6C22385.6,29540.3 22385.4,29540 22385.2,29539.6Z"/>
                </g>
                <g transform="matrix(0.319197,0,0,0.625,-6983.28,-18384.5)">
                    <path d="M22363,29572.7L22335.5,29572.7L22335.5,29539.7L22363,29539.7C22356.1,29550 22357.1,29562.9 22363,29572.7Z" style="fill:rgb(252,252,252);"/>
                </g>
                <g transform="matrix(0.319197,0,0,0.625,-6983.28,-18384.5)">
                    <path d="M22363,29574.2L22335.5,29574.2C22334.3,29574.2 22333.3,29573.5 22333.3,29572.7L22333.3,29539.7C22333.3,29538.9 22334.3,29538.2 22335.5,29538.2L22363,29538.2C22363.7,29538.2 22364.4,29538.5 22364.8,29538.9C22365.2,29539.3 22365.3,29539.8 22365,29540.3C22358.4,29550.2 22359.3,29562.7 22365,29572.2C22365.3,29572.6 22365.2,29573.1 22364.8,29573.5C22364.4,29573.9 22363.7,29574.2 22363,29574.2ZM22359.8,29571.3C22355,29562.1 22354.4,29550.7 22359.7,29541.1L22337.8,29541.1L22337.8,29571.3L22359.8,29571.3Z"/>
                </g>
                <g transform="matrix(0.487805,0,0,0.625,-10756.3,-18381.2)">
                    <rect x="22331.4" y="29534.3" width="18.519" height="12.465" style="fill:rgb(252,252,252);"/>
                </g>
                <g transform="matrix(0.487805,0,0,0.625,-10756.3,-18381.2)">
                    <path d="M22351.4,29534.3L22351.4,29546.8C22351.4,29547.6 22350.7,29548.3 22349.9,29548.3L22331.4,29548.3C22330.6,29548.3 22330,29547.6 22330,29546.8L22330,29534.3C22330,29533.5 22330.6,29532.9 22331.4,29532.9L22349.9,29532.9C22350.7,29532.9 22351.4,29533.5 22351.4,29534.3ZM22348.5,29535.8L22332.9,29535.8L22332.9,29545.4L22348.5,29545.4L22348.5,29535.8Z"/>
                </g>
                <g transform="matrix(0.487805,0,0,0.625,-10756.3,-18377.6)">
                    <path d="M22331.5,29540.9L22334.4,29541.3C22334.4,29541.3 22333,29549.3 22338.5,29554C22340.8,29556.1 22344.5,29557.5 22350,29557.5L22350,29560.4C22343.5,29560.4 22339.3,29558.7 22336.5,29556.2C22330,29550.5 22331.5,29540.9 22331.5,29540.9Z"/>
                </g>
            </g>
            <g transform="matrix(1,0,0,1,8.78049,0)">
                <g transform="matrix(0.153897,0,0,0.197181,-1448.16,-2421.86)">
                    <g transform="matrix(3.16968,-0,-0,3.16968,9352.86,12282.4)">
                        <path d="M1023.7,201.304L1019.08,205.513L1016.33,199.9L1023.7,201.304Z" style="fill:rgb(115,115,115);"/>
                        <path d="M1018.83,191.611L1016.59,198.456L1020.79,196.54C1020.79,196.54 1020.29,199.171 1019.83,201.584" style="fill:none;stroke:rgb(115,115,115);stroke-width:1.67px;"/>
                    </g>
                </g>
                <g transform="matrix(0.176641,0,0,0.197181,-1740.2,-2422.55)">
                    <path d="M12617.6,12862.9L12658.6,12944.9L12576.6,12944.9L12617.6,12862.9Z" style="fill:none;stroke:rgb(115,115,115);stroke-width:4.91px;stroke-linecap:butt;stroke-miterlimit:1.5;"/>
                </g>
                <g transform="matrix(0.228564,0,0,0.197181,-2545.16,-2441.08)">
                    <rect x="13470.8" y="12942.1" width="10.763" height="132.747" style="fill:none;stroke:rgb(115,115,115);stroke-width:4.17px;stroke-linecap:butt;stroke-miterlimit:1.5;"/>
                </g>
                <g transform="matrix(0.153897,0,0,0.197181,-1538.54,-2441.08)">
                    <rect x="13498.8" y="12951.8" width="17.221" height="113.732" style="fill:none;stroke:rgb(115,115,115);stroke-width:5.28px;stroke-linecap:butt;stroke-miterlimit:1.5;"/>
                </g>
                <g transform="matrix(-0.186447,0,0,0.105893,3064.53,-1255.01)">
                    <rect x="13517.2" y="12991.1" width="13.633" height="25.832" style="fill:none;stroke:rgb(115,115,115);stroke-width:5.64px;stroke-linecap:butt;stroke-miterlimit:1.5;"/>
                </g>
                <g transform="matrix(-0.186447,0,0,0.0815502,3064.53,-936.042)">
                    <path d="M13530.9,12991.1L13530.9,13016.9C13526.7,13020.3 13522.6,13023 13517.9,13015L13517.2,12991.1L13530.9,12991.1Z" style="fill:none;stroke:rgb(115,115,115);stroke-width:5.84px;stroke-linecap:butt;stroke-miterlimit:1.5;"/>
                </g>
                <g transform="matrix(0.153897,0,0,0.197181,-1538.54,-2441.08)">
                    <path d="M13517.2,12976L13533.6,12992.4L13517.2,12992.4L13517.2,12976Z" style="fill:none;stroke:rgb(115,115,115);stroke-width:5.28px;stroke-linecap:butt;stroke-miterlimit:1.5;"/>
                </g>
                <g transform="matrix(0.153897,0,0,0.197181,-1538.54,-2441.08)">
                    <path d="M13499.1,12948.2C13508.4,12990 13508,13029.2 13499.1,13066.2L13482.3,13066.2L13482.3,12948.2L13499.1,12948.2Z" style="fill:none;stroke:rgb(115,115,115);stroke-width:5.28px;stroke-linecap:butt;stroke-miterlimit:1.5;"/>
                </g>
                <g transform="matrix(0.153897,0,0,0.197181,-1527.83,-2442.71)">
                    <path d="M13306.9,12686.9L13368.4,12756L13368.8,13270.2L13301.6,13344.4L12911,13345.6L12839.1,13265.5L12840.2,12757.8L12921.2,12685.8L13306.9,12686.9Z" style="fill:none;stroke:rgb(115,115,115);stroke-width:5.28px;stroke-linecap:butt;stroke-miterlimit:1.5;"/>
                </g>
                <g transform="matrix(0.153897,0,0,0.197181,-1284.86,-3663.1)">
                    <circle cx="11278.9" cy="18884.8" r="18.998" style="fill:none;stroke:rgb(115,115,115);stroke-width:5.28px;"/>
                </g>
                <g transform="matrix(0.153897,0,0,0.197181,-1284.86,-3663.1)">
                    <ellipse cx="11769.3" cy="18886.1" rx="13.743" ry="16.491" style="fill:none;stroke:rgb(115,115,115);stroke-width:5.28px;"/>
                </g>
                <g transform="matrix(0.153897,0,0,0.197181,-1285.17,-3665.5)">
                    <ellipse cx="11274.3" cy="19528.7" rx="15.128" ry="16.535" style="fill:none;stroke:rgb(115,115,115);stroke-width:5.28px;"/>
                </g>
                <g transform="matrix(0.153897,0,0,0.197181,-1207.43,-3665.5)">
                    <ellipse cx="11274.3" cy="19528.7" rx="15.128" ry="16.535" style="fill:none;stroke:rgb(115,115,115);stroke-width:5.28px;"/>
                </g>
                <g transform="matrix(0.343319,0,0,0.439878,-649.088,-240.511)">
                    <text x="3275.76px" y="900.443px" style="font-family:'ArialNarrow', 'Arial', sans-serif;font-stretch:condensed;font-size:8.333px;">COFFRET<tspan x="3307.9px 3309.8px " y="900.443px 900.443px "> D</tspan>&apos;ALIMENT<tspan x="3345.16px 3349.21px 3353.39px " y="900.443px 900.443px 900.443px ">ATI</tspan>ON</text>
                    <g transform="matrix(8.33333,0,0,8.33333,3371.65,908.776)">
                    </g>
                    <text x="3269.64px" y="908.776px" style="font-family:'ArialNarrow', 'Arial', sans-serif;font-stretch:condensed;font-size:8.333px;">ET<tspan x="3278.26px 3280.16px " y="908.776px 908.776px "> D</tspan>E SECURITÉ ELECTRIQUE</text>
                </g>
                <g transform="matrix(0.943628,0,0,1.20902,-866.069,-1722.02)">
                    <rect x="1415.83" y="1547.53" width="43.634" height="12.121" style="fill:none;stroke:rgb(115,115,115);stroke-width:0.86px;stroke-miterlimit:1.5;"/>
                </g>
                <g transform="matrix(0.153897,0,0,0.197181,-1295.53,-3672.97)">
                    <rect x="11408.9" y="19136.9" width="46.2" height="175.561" style="fill:none;stroke:rgb(115,115,115);stroke-width:5.28px;"/>
                </g>
                <g transform="matrix(0.153897,0,0,0.197181,-1284.86,-3663.1)">
                    <rect x="11680.4" y="19132.3" width="47.846" height="137.347" style="fill:none;stroke:rgb(115,115,115);stroke-width:5.28px;"/>
                </g>
                <g transform="matrix(0.184869,0,0,0.197181,-1648.12,-3663.1)">
                    <rect x="11728.9" y="19157.6" width="50.661" height="83.872" style="fill:none;stroke:rgb(115,115,115);stroke-width:4.78px;"/>
                </g>
                <g transform="matrix(0.153897,0,0,0.197181,-1284.86,-3663.1)">
                    <path d="M11704.1,19132.8C11704.1,19132.8 11701.3,19110.9 11723.8,19105.3C11746.3,19099.6 11781.8,19119.5 11790.2,19130.8" style="fill:none;stroke:rgb(115,115,115);stroke-width:5.28px;stroke-linecap:butt;"/>
                </g>
                <g transform="matrix(0.162011,0,0,0.19418,-1377.85,-3604.41)">
                    <path d="M11797.4,18861.9L11797.4,19525.1C11797.4,19541.4 11785,19554.7 11769.7,19554.7L11272,19554.7C11256.8,19554.7 11244.4,19541.4 11244.4,19525.1L11244.4,18861.9C11244.4,18845.6 11256.8,18832.4 11272,18832.4L11769.7,18832.4C11785,18832.4 11797.4,18845.6 11797.4,18861.9Z" style="fill:none;stroke:rgb(115,115,115);stroke-width:9.07px;"/>
                </g>
            </g>
            <g transform="matrix(1,0,0,1,-351.955,0)">
                <g transform="matrix(0.153897,0,0,0.197181,-1448.16,-2421.86)">
                    <g transform="matrix(3.16968,-0,-0,3.16968,11696.9,12282.4)">
                        <path d="M284.191,201.304L279.571,205.513L276.824,199.9L284.191,201.304Z" style="fill:rgb(115,115,115);"/>
                        <path d="M279.324,191.611L277.081,198.456L281.282,196.54C281.282,196.54 280.78,199.171 280.32,201.584" style="fill:none;stroke:rgb(115,115,115);stroke-width:1.67px;"/>
                    </g>
                </g>
                <g transform="matrix(0.176641,0,0,0.197181,-1740.2,-2422.55)">
                    <path d="M12617.6,12862.9L12658.6,12944.9L12576.6,12944.9L12617.6,12862.9Z" style="fill:none;stroke:rgb(115,115,115);stroke-width:4.91px;stroke-linecap:butt;stroke-miterlimit:1.5;"/>
                </g>
                <g transform="matrix(0.228564,0,0,0.197181,-2545.16,-2441.08)">
                    <rect x="13470.8" y="12942.1" width="10.763" height="132.747" style="fill:none;stroke:rgb(115,115,115);stroke-width:4.17px;stroke-linecap:butt;stroke-miterlimit:1.5;"/>
                </g>
                <g transform="matrix(0.153897,0,0,0.197181,-1538.54,-2441.08)">
                    <rect x="13498.8" y="12951.8" width="17.221" height="113.732" style="fill:none;stroke:rgb(115,115,115);stroke-width:5.28px;stroke-linecap:butt;stroke-miterlimit:1.5;"/>
                </g>
                <g transform="matrix(-0.186447,0,0,0.105893,3064.53,-1255.01)">
                    <rect x="13517.2" y="12991.1" width="13.633" height="25.832" style="fill:none;stroke:rgb(115,115,115);stroke-width:5.64px;stroke-linecap:butt;stroke-miterlimit:1.5;"/>
                </g>
                <g transform="matrix(-0.186447,0,0,0.0815502,3064.53,-936.042)">
                    <path d="M13530.9,12991.1L13530.9,13016.9C13526.7,13020.3 13522.6,13023 13517.9,13015L13517.2,12991.1L13530.9,12991.1Z" style="fill:none;stroke:rgb(115,115,115);stroke-width:5.84px;stroke-linecap:butt;stroke-miterlimit:1.5;"/>
                </g>
                <g transform="matrix(0.153897,0,0,0.197181,-1538.54,-2441.08)">
                    <path d="M13517.2,12976L13533.6,12992.4L13517.2,12992.4L13517.2,12976Z" style="fill:none;stroke:rgb(115,115,115);stroke-width:5.28px;stroke-linecap:butt;stroke-miterlimit:1.5;"/>
                </g>
                <g transform="matrix(0.153897,0,0,0.197181,-1538.54,-2441.08)">
                    <path d="M13499.1,12948.2C13508.4,12990 13508,13029.2 13499.1,13066.2L13482.3,13066.2L13482.3,12948.2L13499.1,12948.2Z" style="fill:none;stroke:rgb(115,115,115);stroke-width:5.28px;stroke-linecap:butt;stroke-miterlimit:1.5;"/>
                </g>
                <g transform="matrix(0.153897,0,0,0.197181,-1527.83,-2442.71)">
                    <path d="M13306.9,12686.9L13368.4,12756L13368.8,13270.2L13301.6,13344.4L12911,13345.6L12839.1,13265.5L12840.2,12757.8L12921.2,12685.8L13306.9,12686.9Z" style="fill:none;stroke:rgb(115,115,115);stroke-width:5.28px;stroke-linecap:butt;stroke-miterlimit:1.5;"/>
                </g>
                <g transform="matrix(0.153897,0,0,0.197181,-1284.86,-3663.1)">
                    <circle cx="11278.9" cy="18884.8" r="18.998" style="fill:none;stroke:rgb(115,115,115);stroke-width:5.28px;"/>
                </g>
                <g transform="matrix(0.153897,0,0,0.197181,-1284.86,-3663.1)">
                    <ellipse cx="11769.3" cy="18886.1" rx="13.743" ry="16.491" style="fill:none;stroke:rgb(115,115,115);stroke-width:5.28px;"/>
                </g>
                <g transform="matrix(0.153897,0,0,0.197181,-1285.17,-3665.5)">
                    <ellipse cx="11274.3" cy="19528.7" rx="15.128" ry="16.535" style="fill:none;stroke:rgb(115,115,115);stroke-width:5.28px;"/>
                </g>
                <g transform="matrix(0.153897,0,0,0.197181,-1207.43,-3665.5)">
                    <ellipse cx="11274.3" cy="19528.7" rx="15.128" ry="16.535" style="fill:none;stroke:rgb(115,115,115);stroke-width:5.28px;"/>
                </g>
                <g transform="matrix(0.343319,0,0,0.439878,-649.088,-240.511)">
                    <text x="3275.76px" y="900.443px" style="font-family:'ArialNarrow', 'Arial', sans-serif;font-stretch:condensed;font-size:8.333px;">COFFRET<tspan x="3307.9px 3309.8px " y="900.443px 900.443px "> D</tspan>&apos;ALIMENT<tspan x="3345.16px 3349.21px 3353.39px " y="900.443px 900.443px 900.443px ">ATI</tspan>ON</text>
                    <g transform="matrix(8.33333,0,0,8.33333,3371.65,908.776)">
                    </g>
                    <text x="3269.64px" y="908.776px" style="font-family:'ArialNarrow', 'Arial', sans-serif;font-stretch:condensed;font-size:8.333px;">ET<tspan x="3278.26px 3280.16px " y="908.776px 908.776px "> D</tspan>E SECURITÉ ELECTRIQUE</text>
                </g>
                <g transform="matrix(0.943628,0,0,1.20902,-866.069,-1722.02)">
                    <rect x="1415.83" y="1547.53" width="43.634" height="12.121" style="fill:none;stroke:rgb(115,115,115);stroke-width:0.86px;stroke-miterlimit:1.5;"/>
                </g>
                <g transform="matrix(0.153897,0,0,0.197181,-1295.53,-3672.97)">
                    <rect x="11408.9" y="19136.9" width="46.2" height="175.561" style="fill:none;stroke:rgb(115,115,115);stroke-width:5.28px;"/>
                </g>
                <g transform="matrix(0.153897,0,0,0.197181,-1284.86,-3663.1)">
                    <rect x="11680.4" y="19132.3" width="47.846" height="137.347" style="fill:none;stroke:rgb(115,115,115);stroke-width:5.28px;"/>
                </g>
                <g transform="matrix(0.184869,0,0,0.197181,-1648.12,-3663.1)">
                    <rect x="11728.9" y="19157.6" width="50.661" height="83.872" style="fill:none;stroke:rgb(115,115,115);stroke-width:4.78px;"/>
                </g>
                <g transform="matrix(0.153897,0,0,0.197181,-1284.86,-3663.1)">
                    <path d="M11704.1,19132.8C11704.1,19132.8 11701.3,19110.9 11723.8,19105.3C11746.3,19099.6 11781.8,19119.5 11790.2,19130.8" style="fill:none;stroke:rgb(115,115,115);stroke-width:5.28px;stroke-linecap:butt;"/>
                </g>
                <g transform="matrix(0.162011,0,0,0.19418,-1377.85,-3604.41)">
                    <path d="M11797.4,18861.9L11797.4,19525.1C11797.4,19541.4 11785,19554.7 11769.7,19554.7L11272,19554.7C11256.8,19554.7 11244.4,19541.4 11244.4,19525.1L11244.4,18861.9C11244.4,18845.6 11256.8,18832.4 11272,18832.4L11769.7,18832.4C11785,18832.4 11797.4,18845.6 11797.4,18861.9Z" style="fill:none;stroke:rgb(115,115,115);stroke-width:9.07px;"/>
                </g>
            </g>
            <g transform="matrix(1,0,0,1,20.0956,-52.9448)">
                <g transform="matrix(0.626646,0,0,0.557598,-12621.5,-7136.07)">
                    <path d="M21076.6,13118.1L21076.6,13253.3C21076.6,13253.8 21076.3,13254.3 21075.9,13254.3L21028.6,13254.3C21028.2,13254.3 21027.9,13253.8 21027.9,13253.3L21027.9,13118.1C21027.9,13117.6 21028.2,13117.2 21028.6,13117.2L21075.9,13117.2C21076.3,13117.2 21076.6,13117.6 21076.6,13118.1ZM21075.3,13119L21029.2,13119L21029.2,13252.4L21075.3,13252.4L21075.3,13119Z"/>
                </g>
                <g transform="matrix(3.8371e-17,0.80289,-0.626646,4.91628e-17,8806.12,-16703.7)">
                    <path d="M21050.9,13121.9C21061.6,13121.9 21070.2,13130.6 21070.2,13141.2C21070.2,13151.9 21061.6,13160.6 21050.9,13160.6C21040.2,13160.6 21031.5,13151.9 21031.5,13141.2C21031.5,13130.6 21040.2,13121.9 21050.9,13121.9ZM21050.9,13123.2C21040.9,13123.2 21032.8,13131.3 21032.8,13141.2C21032.8,13151.2 21040.9,13159.3 21050.9,13159.3C21060.8,13159.3 21068.9,13151.2 21068.9,13141.2C21068.9,13131.3 21060.8,13123.2 21050.9,13123.2Z"/>
                </g>
                <g transform="matrix(3.8371e-17,0.80289,-0.626646,4.91628e-17,8805.19,-16704.6)">
                    <circle cx="21052" cy="13131.2" r="2.77"/>
                </g>
                <g transform="matrix(3.8371e-17,0.80289,-0.626646,4.91628e-17,8794.45,-16704.6)">
                    <circle cx="21052" cy="13131.2" r="2.77"/>
                </g>
                <g transform="matrix(3.8371e-17,0.80289,-0.626646,4.91628e-17,8799.82,-16713.7)">
                    <circle cx="21052" cy="13131.2" r="2.77" style="fill:rgb(128,128,128);"/>
                </g>
                <g transform="matrix(0.626646,0,0,0.80289,-12620.2,-10316.6)">
                    <path d="M21050.9,13121.9C21061.6,13121.9 21070.2,13130.6 21070.2,13141.2C21070.2,13151.9 21061.6,13160.6 21050.9,13160.6C21040.2,13160.6 21031.5,13151.9 21031.5,13141.2C21031.5,13130.6 21040.2,13121.9 21050.9,13121.9ZM21050.9,13123.2C21040.9,13123.2 21032.8,13131.3 21032.8,13141.2C21032.8,13151.2 21040.9,13159.3 21050.9,13159.3C21060.8,13159.3 21068.9,13151.2 21068.9,13141.2C21068.9,13131.3 21060.8,13123.2 21050.9,13123.2Z"/>
                </g>
                <g transform="matrix(0.692065,0,0,0.886708,-13997.1,-11458.5)">
                    <path d="M21050.5,13172.6C21058.3,13172.6 21064.6,13178.9 21064.6,13186.7C21064.6,13194.5 21058.3,13200.9 21050.5,13200.9C21042.7,13200.9 21036.3,13194.5 21036.3,13186.7C21036.3,13178.9 21042.7,13172.6 21050.5,13172.6ZM21050.5,13174.6C21043.8,13174.6 21038.4,13180.1 21038.4,13186.7C21038.4,13193.4 21043.8,13198.8 21050.5,13198.8C21057.2,13198.8 21062.6,13193.4 21062.6,13186.7C21062.6,13180.1 21057.2,13174.6 21050.5,13174.6Z"/>
                </g>
                <g transform="matrix(0.626646,0,0,0.726907,-12623.2,-9346.81)">
                    <path d="M21060.2,13180.2L21060.2,13200.7C21057.2,13202.3 21054.2,13202.1 21051.2,13200.7L21051.2,13180.2L21060.2,13180.2Z" style="fill:white;"/>
                </g>
                <g transform="matrix(0.626646,0,0,0.726907,-12623.2,-9346.81)">
                    <path d="M21061.3,13180.2L21061.3,13200.7C21061.3,13201.2 21061,13201.6 21060.7,13201.8C21057.4,13203.6 21054.1,13203.4 21050.8,13201.9C21050.3,13201.7 21050.1,13201.2 21050.1,13200.7L21050.1,13180.2C21050.1,13179.5 21050.6,13179 21051.2,13179L21060.2,13179C21060.8,13179 21061.3,13179.5 21061.3,13180.2ZM21059,13181.5L21052.3,13181.5L21052.3,13199.9C21054.6,13200.8 21056.8,13200.9 21059,13199.9L21059,13181.5Z"/>
                </g>
            </g>
            <g transform="matrix(0.0372951,0,0,0.203346,145.293,52.9278)">
                <path d="M1724.8,812.223L1719.27,842.971C1125.43,837.076 893.937,854.932 778.133,879.987C731.388,890.101 705.007,901.214 679.265,911.586C642.197,926.523 605.629,940.148 539.648,950.334C475.342,960.261 381.526,967.196 224.903,967.196C-30.682,967.196 -180.805,935.643 -268.879,891.4C-389.032,831.041 -385.683,745.179 -390.53,692.709L-259.593,692.041C-255.777,733.359 -259.802,796.661 -195.247,849.614C-137.239,897.197 -21.822,936.42 224.903,936.42C345.216,936.42 418.34,932.238 467.738,924.612C515.461,917.244 539.32,906.885 566.132,896.082C597.879,883.29 631.771,869.82 689.423,857.347C817.218,829.697 1069.47,805.717 1724.8,812.223Z"/>
            </g>
            <g transform="matrix(0.0372951,0,0,0.203346,505.54,52.9278)">
                <path d="M2218.81,706.745L2349.39,704.385C2371.06,770.601 2209.4,811.091 1952.35,834.953C1604.12,867.279 1071.17,867.793 647.914,867.793C42.238,867.793 -382.11,783.853 -390.53,692.709L-259.593,692.041C-256.816,722.109 -196.704,750.705 -95.172,774.367C66.237,811.984 330.273,837.017 647.914,837.017C1055.42,837.017 1568.96,837.453 1904.24,806.329C2102.89,787.888 2235.56,757.919 2218.81,706.745Z"/>
            </g>
            <g transform="matrix(2.86228e-17,-0.625,0.116625,-7.70357e-18,-3373.37,14400.8)">
                <path d="M22805.1,31783.1L22805.1,32143.1" style="fill:none;"/>
            </g>
            <g transform="matrix(2.86228e-17,-0.625,0.116625,-7.70357e-18,-3373.37,14400.8)">
                <path d="M22809.3,32038.5L22801,32038.5L22801,31783.1L22809.3,31783.1L22809.3,32038.5ZM22809.3,32038.5L22823.9,32038.5L22805.1,32143.1L22786.4,32038.5L22801,32038.5L22801,32059.4L22809.3,32059.4L22809.3,32038.5Z" style="fill:rgb(64,64,64);"/>
            </g>
            <g transform="matrix(2.86228e-17,-0.625,0.116625,-7.70357e-18,-3373.37,14400.8)">
                <path d="M22801,32038.5L22801,31783.1L22809.3,31783.1L22809.3,32038.5L22823.9,32038.5L22805.1,32143.1L22786.4,32038.5L22801,32038.5Z" style="fill:rgb(64,64,64);"/>
            </g>
        </g>
        <g transform="matrix(5.86767e-17,-1,0.239082,-1.23257e-17,15153.8,54486.4)">
            <path d="M22805.1,31783.1L22805.1,32143.1" style="fill:none;"/>
            <g transform="matrix(-5.15544e-17,4.18267,-1,2.45425e-16,22773.9,28897)">
                <path d="M751.071,-49.941L776.071,-31.191L751.071,-12.441L751.071,-49.941Z" style="fill:rgb(64,64,64);"/>
                <path d="M690,-31.191L756.071,-31.191" style="fill:none;stroke:rgb(64,64,64);stroke-width:8.33px;stroke-linecap:butt;"/>
            </g>
        </g>
    </g>
</svg>
