<?xml version="1.0" encoding="UTF-8" standalone="no"?>
<!DOCTYPE svg PUBLIC "-//W3C//DTD SVG 1.1//EN" "http://www.w3.org/Graphics/SVG/1.1/DTD/svg11.dtd">
<svg width="100%" height="100%" viewBox="0 0 1453 473" version="1.1" xmlns="http://www.w3.org/2000/svg" xmlns:xlink="http://www.w3.org/1999/xlink" xml:space="preserve" xmlns:serif="http://www.serif.com/" style="fill-rule:evenodd;clip-rule:evenodd;stroke-linejoin:round;stroke-miterlimit:1.5;">
    <g transform="matrix(1,0,0,1,-23846.3,-33353.4)">
        <g id="Artboard4" transform="matrix(2.05,0,0,1.6,23846.3,33353.4)">
            <rect x="0" y="0" width="708.661" height="295.276" style="fill:none;"/>
            <clipPath id="_clip1">
                <rect x="0" y="0" width="708.661" height="295.276"/>
            </clipPath>
            <g clip-path="url(#_clip1)">
                <g transform="matrix(2.86228e-17,-0.625,0.116625,-7.70357e-18,-3379.53,14400.8)">
                    <path d="M22801,32038.5L22801,31783.1L22809.3,31783.1L22809.3,32038.5L22823.9,32038.5L22805.1,32143.1L22786.4,32038.5L22801,32038.5Z" style="fill:rgb(64,64,64);"/>
                </g>
                <g transform="matrix(0.878818,0,0,1.14552,-21077.3,-31263)">
                    <g>
                        <g transform="matrix(1.16895,0,0,1.16895,20245.8,26222.9)">
                            <path d="M3474.37,943.946L3474.37,1194.28C3474.37,1198.27 3471.08,1201.5 3467.02,1201.5L3236.68,1201.5C3232.62,1201.5 3229.33,1198.27 3229.33,1194.28L3229.33,943.946C3229.33,939.958 3232.62,936.72 3236.68,936.72L3467.02,936.72C3471.08,936.72 3474.37,939.958 3474.37,943.946Z" style="fill:white;stroke:rgb(140,140,140);stroke-width:1.37px;"/>
                        </g>
                        <g transform="matrix(1.16895,0,0,1.16895,23817.9,27287.2)">
                            <g transform="matrix(1.04238,0,0,1,-3194.88,-919.156)">
                                <rect x="3259.03" y="1038.65" width="44.536" height="59.824" style="fill:white;stroke:black;stroke-width:1.34px;"/>
                            </g>
                            <g transform="matrix(1,0,0,1,0,6)">
                                <g>
                                    <g transform="matrix(1,0,0,1,-3052.89,-922.535)">
                                        <circle cx="3278.36" cy="1071.94" r="20.772" style="fill:white;stroke:black;stroke-width:1.37px;"/>
                                    </g>
                                    <g transform="matrix(0.877333,0,0,0.877333,-2650.74,-791.044)">
                                        <circle cx="3278.36" cy="1071.94" r="20.772" style="fill:white;stroke:black;stroke-width:1.56px;"/>
                                    </g>
                                </g>
                            </g>
                        </g>
                        <g transform="matrix(0.0881883,0,0,0.0866845,21928.2,24546.7)">
                            <g transform="matrix(101.882,0,0,101.882,24596.1,33403.5)">
                            </g>
                            <text x="24234.2px" y="33403.5px" style="font-family:'ArialNarrow', 'Arial', sans-serif;font-stretch:condensed;font-size:101.882px;">MARCHE</text>
                        </g>
                        <g transform="matrix(1.16895,0,0,1.16895,23817.9,27195.4)">
                            <g transform="matrix(1,0,0,1,-3055.82,-919.156)">
                                <rect x="3259.03" y="1038.65" width="44.536" height="59.824" style="fill:white;stroke:rgb(140,140,140);stroke-width:0.39px;"/>
                            </g>
                            <g transform="matrix(1,0,0,1,0,6)">
                                <g>
                                    <g transform="matrix(1,0,0,1,-3052.89,-922.535)">
                                        <circle cx="3278.36" cy="1071.94" r="20.772" style="fill:white;stroke:rgb(140,140,140);stroke-width:0.39px;"/>
                                    </g>
                                    <g transform="matrix(0.877333,0,0,0.877333,-2650.74,-791.044)">
                                        <circle cx="3278.36" cy="1071.94" r="20.772" style="fill:white;stroke:rgb(140,140,140);stroke-width:0.45px;"/>
                                    </g>
                                </g>
                            </g>
                        </g>
                        <g transform="matrix(1.16895,0,0,1.16895,23817.9,27379.3)">
                            <g transform="matrix(1,0,0,1,-3055.82,-919.156)">
                                <rect x="3259.03" y="1038.65" width="44.536" height="59.824" style="fill:white;stroke:rgb(140,140,140);stroke-width:0.39px;"/>
                            </g>
                            <g transform="matrix(1,0,0,1,0,6)">
                                <g>
                                    <g transform="matrix(1,0,0,1,-3052.89,-922.535)">
                                        <circle cx="3278.36" cy="1071.94" r="20.772" style="fill:white;stroke:rgb(140,140,140);stroke-width:0.39px;"/>
                                    </g>
                                    <g transform="matrix(0.877333,0,0,0.877333,-2650.74,-791.044)">
                                        <circle cx="3278.36" cy="1071.94" r="20.772" style="fill:white;stroke:rgb(140,140,140);stroke-width:0.45px;"/>
                                    </g>
                                </g>
                            </g>
                        </g>
                        <g transform="matrix(1.16895,0,0,1.16895,23892.5,27287.2)">
                            <g transform="matrix(1,0,0,1,-3055.82,-919.156)">
                                <rect x="3259.03" y="1038.65" width="44.536" height="59.824" style="fill:white;stroke:rgb(140,140,140);stroke-width:0.39px;"/>
                            </g>
                            <g transform="matrix(1,0,0,1,0,6)">
                                <g>
                                    <g transform="matrix(1,0,0,1,-3052.89,-922.535)">
                                        <circle cx="3278.36" cy="1071.94" r="20.772" style="fill:white;stroke:rgb(140,140,140);stroke-width:0.39px;"/>
                                    </g>
                                    <g transform="matrix(0.877333,0,0,0.877333,-2650.74,-791.044)">
                                        <circle cx="3278.36" cy="1071.94" r="20.772" style="fill:white;stroke:rgb(140,140,140);stroke-width:0.45px;"/>
                                    </g>
                                </g>
                            </g>
                        </g>
                        <g transform="matrix(1.16895,0,0,1.16895,23892.5,27195)">
                            <g transform="matrix(1,0,0,1,-3055.82,-919.156)">
                                <rect x="3259.03" y="1038.65" width="44.536" height="59.824" style="fill:white;stroke:rgb(140,140,140);stroke-width:0.39px;"/>
                            </g>
                            <g transform="matrix(1,0,0,1,0,6)">
                                <g>
                                    <g transform="matrix(1,0,0,1,-3052.89,-922.535)">
                                        <circle cx="3278.36" cy="1071.94" r="20.772" style="fill:white;stroke:rgb(140,140,140);stroke-width:0.39px;"/>
                                    </g>
                                    <g transform="matrix(0.877333,0,0,0.877333,-2650.74,-791.044)">
                                        <circle cx="3278.36" cy="1071.94" r="20.772" style="fill:white;stroke:rgb(140,140,140);stroke-width:0.45px;"/>
                                    </g>
                                </g>
                            </g>
                        </g>
                        <g transform="matrix(1.16895,0,0,1.16895,23892.5,27379.3)">
                            <g transform="matrix(1,0,0,1,-3055.82,-919.156)">
                                <rect x="3259.03" y="1038.65" width="44.536" height="59.824" style="fill:white;stroke:rgb(140,140,140);stroke-width:0.39px;"/>
                            </g>
                            <g transform="matrix(1,0,0,1,0,6)">
                                <g>
                                    <g transform="matrix(1,0,0,1,-3052.89,-922.535)">
                                        <circle cx="3278.36" cy="1071.94" r="20.772" style="fill:white;stroke:rgb(140,140,140);stroke-width:0.39px;"/>
                                    </g>
                                    <g transform="matrix(0.877333,0,0,0.877333,-2650.74,-791.044)">
                                        <circle cx="3278.36" cy="1071.94" r="20.772" style="fill:white;stroke:rgb(140,140,140);stroke-width:0.45px;"/>
                                    </g>
                                </g>
                            </g>
                        </g>
                        <g>
                            <g transform="matrix(1.16895,0,0,1.16895,23973.2,27287.2)">
                                <g transform="matrix(0.988705,0,0,1,-3018.76,-919.156)">
                                    <rect x="3259.03" y="1038.65" width="44.536" height="59.824" style="fill:white;stroke:rgb(13,13,13);stroke-width:0.39px;"/>
                                </g>
                                <g transform="matrix(1,0,0,1,0,6)">
                                    <g>
                                        <g transform="matrix(1,0,0,1,-3052.89,-922.535)">
                                            <circle cx="3278.36" cy="1071.94" r="20.772" style="fill:white;stroke:rgb(13,13,13);stroke-width:0.39px;"/>
                                        </g>
                                        <g transform="matrix(0.759793,-0.431186,0.446277,0.759793,-2743.78,748.535)">
                                            <circle cx="3278.36" cy="1071.94" r="20.772" style="fill:white;stroke:rgb(13,13,13);stroke-width:0.45px;"/>
                                        </g>
                                    </g>
                                </g>
                            </g>
                            <g transform="matrix(1.13789,0,0,0.872966,24032.8,27316.6)">
                                <g transform="matrix(0.0775015,0,0,0.0992988,-1720.07,-3172.94)">
                                    <g transform="matrix(101.882,0,0,101.882,24464.8,33403.5)">
                                    </g>
                                    <text x="24234.2px" y="33403.5px" style="font-family:'ArialNarrow', 'Arial', sans-serif;font-stretch:condensed;font-size:101.882px;">AUT<tspan x="24399.8px " y="33403.5px ">O</tspan></text>
                                </g>
                                <g transform="matrix(0.0775015,0,0,0.0992988,-1693.74,-3173.13)">
                                    <g transform="matrix(101.882,0,0,101.882,24443,33403.5)">
                                    </g>
                                    <text x="24234.2px" y="33403.5px" style="font-family:'ArialNarrow', 'Arial', sans-serif;font-stretch:condensed;font-size:101.882px;">MAIN</text>
                                </g>
                                <g transform="matrix(0.0775015,0,0,0.0992988,-1699.63,-3180.43)">
                                    <g transform="matrix(101.882,0,0,101.882,24280.7,33403.5)">
                                    </g>
                                    <text x="24234.2px" y="33403.5px" style="font-family:'ArialNarrow', 'Arial', sans-serif;font-stretch:condensed;font-size:101.882px;">0</text>
                                </g>
                            </g>
                        </g>
                        <g transform="matrix(0.276084,-0.156679,0.215792,0.367389,11384,18624.8)">
                            <path d="M20814,32909.5L20814,32975.8C20814,32979 20810.4,32981.7 20806,32981.7C20801.5,32981.7 20797.9,32979 20797.9,32975.8L20797.9,32909.5C20797.9,32906.2 20801.5,32903.6 20806,32903.6C20810.4,32903.6 20814,32906.2 20814,32909.5Z" style="fill:none;stroke:rgb(13,13,13);stroke-width:1.22px;stroke-miterlimit:10;"/>
                        </g>
                        <g transform="matrix(0.113925,-0.0646531,0.0890462,0.151602,18929.3,23812.1)">
                            <path d="M20814,32909.5L20814,32975.8C20814,32979 20810.4,32981.7 20806,32981.7C20801.5,32981.7 20797.9,32979 20797.9,32975.8L20797.9,32909.5C20797.9,32906.2 20801.5,32903.6 20806,32903.6C20810.4,32903.6 20814,32906.2 20814,32909.5Z" style="fill:rgb(13,13,13);"/>
                        </g>
                        <g transform="matrix(1.16895,0,0,1.16895,23973.2,27195.2)">
                            <g transform="matrix(1,0,0,1,-3055.82,-919.156)">
                                <rect x="3259.03" y="1038.65" width="44.536" height="59.824" style="fill:white;stroke:rgb(140,140,140);stroke-width:0.39px;"/>
                            </g>
                            <g transform="matrix(1,0,0,1,0,6)">
                                <g>
                                    <g transform="matrix(1,0,0,1,-3052.89,-922.535)">
                                        <circle cx="3278.36" cy="1071.94" r="20.772" style="fill:white;stroke:rgb(140,140,140);stroke-width:0.39px;"/>
                                    </g>
                                    <g transform="matrix(0.877333,0,0,0.877333,-2650.74,-791.044)">
                                        <circle cx="3278.36" cy="1071.94" r="20.772" style="fill:white;stroke:rgb(140,140,140);stroke-width:0.45px;"/>
                                    </g>
                                </g>
                            </g>
                        </g>
                        <g transform="matrix(1.16895,0,0,1.16895,20600.4,25922.5)">
                            <g>
                                <g transform="matrix(-0.186086,0.713399,-0.707212,-0.176732,4556.45,-841.722)">
                                    <path d="M3390.68,1167.95L3392.42,1169.44L3391.59,1171.85L3394.75,1174.56L3396.93,1173.3L3398.63,1174.76L3388.83,1180.12L3387.14,1178.67L3390.68,1167.95ZM3390.97,1173.64L3389.57,1177.55L3393.13,1175.49L3390.97,1173.64Z" style="fill:rgb(140,140,140);fill-rule:nonzero;stroke:white;stroke-width:0.64px;stroke-miterlimit:2;"/>
                                    <path d="M3389.63,1166.62L3380.9,1172.31L3378.51,1168.55C3377.91,1167.61 3377.55,1166.87 3377.44,1166.34C3377.32,1165.82 3377.38,1165.29 3377.62,1164.77C3377.86,1164.26 3378.23,1163.83 3378.75,1163.49C3379.4,1163.06 3380.07,1162.91 3380.74,1163.02C3381.42,1163.13 3382.06,1163.54 3382.66,1164.24C3382.64,1163.71 3382.68,1163.23 3382.79,1162.81C3382.89,1162.38 3383.15,1161.74 3383.56,1160.87L3384.57,1158.68L3385.93,1160.81L3384.85,1163.34C3384.47,1164.24 3384.24,1164.83 3384.17,1165.11C3384.1,1165.4 3384.09,1165.65 3384.15,1165.89C3384.2,1166.12 3384.36,1166.44 3384.62,1166.85L3384.85,1167.21L3388.49,1164.84L3389.63,1166.62ZM3383.46,1168.12L3382.62,1166.8C3382.07,1165.94 3381.7,1165.43 3381.49,1165.27C3381.28,1165.1 3381.05,1165.01 3380.8,1165.01C3380.55,1165 3380.29,1165.08 3380.03,1165.25C3379.74,1165.44 3379.55,1165.68 3379.47,1165.95C3379.39,1166.23 3379.42,1166.53 3379.56,1166.85C3379.63,1167.01 3379.9,1167.45 3380.36,1168.17L3381.24,1169.56L3383.46,1168.12Z" style="fill:rgb(140,140,140);fill-rule:nonzero;stroke:white;stroke-width:0.64px;stroke-miterlimit:2;"/>
                                    <path d="M3383.86,1157.11L3373.89,1160.06L3372.65,1155.78C3372.34,1154.7 3372.21,1153.89 3372.24,1153.35C3372.28,1152.81 3372.49,1152.32 3372.86,1151.89C3373.23,1151.46 3373.71,1151.16 3374.3,1150.99C3375.05,1150.77 3375.73,1150.81 3376.35,1151.11C3376.96,1151.41 3377.46,1151.98 3377.85,1152.83C3377.97,1152.31 3378.14,1151.87 3378.37,1151.49C3378.59,1151.12 3379.01,1150.57 3379.65,1149.85L3381.24,1148.05L3381.94,1150.48L3380.2,1152.6C3379.57,1153.35 3379.19,1153.85 3379.04,1154.1C3378.9,1154.35 3378.82,1154.6 3378.81,1154.84C3378.79,1155.07 3378.86,1155.42 3378.99,1155.89L3379.11,1156.31L3383.27,1155.07L3383.86,1157.11ZM3377.52,1156.78L3377.08,1155.27C3376.8,1154.29 3376.58,1153.7 3376.43,1153.48C3376.28,1153.26 3376.08,1153.11 3375.85,1153.03C3375.61,1152.95 3375.34,1152.96 3375.04,1153.05C3374.7,1153.15 3374.46,1153.32 3374.3,1153.56C3374.15,1153.8 3374.09,1154.1 3374.14,1154.44C3374.16,1154.61 3374.29,1155.11 3374.53,1155.94L3374.99,1157.53L3377.52,1156.78Z" style="fill:rgb(140,140,140);fill-rule:nonzero;stroke:white;stroke-width:0.64px;stroke-miterlimit:2;"/>
                                    <path d="M3381.08,1146.33L3370.7,1146.49L3370.58,1138.7L3372.34,1138.67L3372.42,1144.34L3374.73,1144.3L3374.65,1139.03L3376.39,1139L3376.47,1144.28L3379.3,1144.23L3379.21,1138.37L3380.96,1138.34L3381.08,1146.33ZM3370.09,1145.15L3367.97,1143.68L3367.95,1141.81L3370.01,1140.3L3370.04,1141.92L3368.99,1142.76L3370.06,1143.52L3370.09,1145.15Z" style="fill:rgb(140,140,140);fill-rule:nonzero;stroke:white;stroke-width:0.64px;stroke-miterlimit:2;"/>
                                    <path d="M3381.83,1133.72L3373.44,1131.68L3372.72,1134.71L3371.01,1134.3L3372.94,1126.18L3374.65,1126.6L3373.93,1129.62L3382.32,1131.66L3381.83,1133.72Z" style="fill:rgb(140,140,140);fill-rule:nonzero;stroke:white;stroke-width:0.64px;stroke-miterlimit:2;"/>
                                </g>
                                <g transform="matrix(1,0,0,1,-2.28864,0.968388)">
                                    <g transform="matrix(0.608229,-0.10285,0.10285,0.608229,917.292,1052.67)">
                                        <circle cx="3420.02" cy="1141.73" r="39" style="fill:none;stroke:rgb(140,140,140);stroke-width:0.64px;"/>
                                    </g>
                                    <g transform="matrix(0.620377,-0.104904,0.104242,0.616465,828.622,949.756)">
                                        <g transform="matrix(0.744134,0.126629,-0.123685,0.736085,3182.32,899.15)">
                                            <path d="M428.599,499.088L433.968,502.227L433.257,496.049L428.599,499.088Z" style="fill:rgb(140,140,140);"/>
                                            <path d="M464.375,447.122L458.717,449.701L464.175,452.68L464.375,447.122Z" style="fill:rgb(140,140,140);"/>
                                            <path d="M485.985,505.97L486.999,499.835L481.483,502.704L485.985,505.97Z" style="fill:rgb(140,140,140);"/>
                                            <path d="M431.536,498.5C429.742,495.289 428.461,491.714 427.821,487.866C425.121,471.624 434.796,456.122 449.893,451.245M463.163,449.861C470.06,450.595 476.444,453.565 481.447,458.146C486.635,462.896 490.337,469.378 491.587,476.897C492.475,482.239 492.024,487.502 490.482,492.332M484.387,503.437C479.621,509.154 472.909,513.263 465.061,514.613C455.768,516.212 446.728,513.623 439.831,508.204" style="fill:none;stroke:rgb(140,140,140);stroke-width:0.83px;"/>
                                        </g>
                                    </g>
                                </g>
                            </g>
                            <g transform="matrix(1.05998,0,0,1.05998,-512.548,186.122)">
                                <circle cx="3420.02" cy="1141.73" r="39" style="fill:none;stroke:rgb(140,140,140);stroke-width:0.37px;"/>
                            </g>
                        </g>
                    </g>
                </g>
                <g transform="matrix(0.878818,0,0,1.14552,-20697.8,-31263)">
                    <g>
                        <g transform="matrix(1.16895,0,0,1.16895,20245.8,26222.9)">
                            <path d="M3474.37,943.946L3474.37,1194.28C3474.37,1198.27 3471.08,1201.5 3467.02,1201.5L3236.68,1201.5C3232.62,1201.5 3229.33,1198.27 3229.33,1194.28L3229.33,943.946C3229.33,939.958 3232.62,936.72 3236.68,936.72L3467.02,936.72C3471.08,936.72 3474.37,939.958 3474.37,943.946Z" style="fill:white;stroke:rgb(140,140,140);stroke-width:1.37px;"/>
                        </g>
                        <g transform="matrix(1.16895,0,0,1.16895,23817.9,27287.2)">
                            <g transform="matrix(1.04238,0,0,1,-3194.88,-919.156)">
                                <rect x="3259.03" y="1038.65" width="44.536" height="59.824" style="fill:white;stroke:black;stroke-width:1.34px;"/>
                            </g>
                            <g transform="matrix(1,0,0,1,0,6)">
                                <g>
                                    <g transform="matrix(1,0,0,1,-3052.89,-922.535)">
                                        <circle cx="3278.36" cy="1071.94" r="20.772" style="fill:white;stroke:black;stroke-width:1.37px;"/>
                                    </g>
                                    <g transform="matrix(0.877333,0,0,0.877333,-2650.74,-791.044)">
                                        <circle cx="3278.36" cy="1071.94" r="20.772" style="fill:rgb(153,153,153);stroke:black;stroke-width:1.56px;"/>
                                    </g>
                                </g>
                            </g>
                        </g>
                        <g transform="matrix(0.0881883,0,0,0.0866845,21928.2,24546.7)">
                            <g transform="matrix(101.882,0,0,101.882,24596.1,33403.5)">
                            </g>
                            <text x="24234.2px" y="33403.5px" style="font-family:'ArialNarrow', 'Arial', sans-serif;font-stretch:condensed;font-size:101.882px;">MARCHE</text>
                        </g>
                        <g transform="matrix(1.16895,0,0,1.16895,23817.9,27195.4)">
                            <g transform="matrix(1,0,0,1,-3055.82,-919.156)">
                                <rect x="3259.03" y="1038.65" width="44.536" height="59.824" style="fill:white;stroke:rgb(140,140,140);stroke-width:0.39px;"/>
                            </g>
                            <g transform="matrix(1,0,0,1,0,6)">
                                <g>
                                    <g transform="matrix(1,0,0,1,-3052.89,-922.535)">
                                        <circle cx="3278.36" cy="1071.94" r="20.772" style="fill:white;stroke:rgb(140,140,140);stroke-width:0.39px;"/>
                                    </g>
                                    <g transform="matrix(0.877333,0,0,0.877333,-2650.74,-791.044)">
                                        <circle cx="3278.36" cy="1071.94" r="20.772" style="fill:white;stroke:rgb(140,140,140);stroke-width:0.45px;"/>
                                    </g>
                                </g>
                            </g>
                        </g>
                        <g transform="matrix(1.16895,0,0,1.16895,23817.9,27379.3)">
                            <g transform="matrix(1,0,0,1,-3055.82,-919.156)">
                                <rect x="3259.03" y="1038.65" width="44.536" height="59.824" style="fill:white;stroke:rgb(140,140,140);stroke-width:0.39px;"/>
                            </g>
                            <g transform="matrix(1,0,0,1,0,6)">
                                <g>
                                    <g transform="matrix(1,0,0,1,-3052.89,-922.535)">
                                        <circle cx="3278.36" cy="1071.94" r="20.772" style="fill:white;stroke:rgb(140,140,140);stroke-width:0.39px;"/>
                                    </g>
                                    <g transform="matrix(0.877333,0,0,0.877333,-2650.74,-791.044)">
                                        <circle cx="3278.36" cy="1071.94" r="20.772" style="fill:white;stroke:rgb(140,140,140);stroke-width:0.45px;"/>
                                    </g>
                                </g>
                            </g>
                        </g>
                        <g transform="matrix(1.16895,0,0,1.16895,23892.5,27287.2)">
                            <g transform="matrix(1,0,0,1,-3055.82,-919.156)">
                                <rect x="3259.03" y="1038.65" width="44.536" height="59.824" style="fill:white;stroke:rgb(140,140,140);stroke-width:0.39px;"/>
                            </g>
                            <g transform="matrix(1,0,0,1,0,6)">
                                <g>
                                    <g transform="matrix(1,0,0,1,-3052.89,-922.535)">
                                        <circle cx="3278.36" cy="1071.94" r="20.772" style="fill:white;stroke:rgb(140,140,140);stroke-width:0.39px;"/>
                                    </g>
                                    <g transform="matrix(0.877333,0,0,0.877333,-2650.74,-791.044)">
                                        <circle cx="3278.36" cy="1071.94" r="20.772" style="fill:white;stroke:rgb(140,140,140);stroke-width:0.45px;"/>
                                    </g>
                                </g>
                            </g>
                        </g>
                        <g transform="matrix(1.16895,0,0,1.16895,23892.5,27195)">
                            <g transform="matrix(1,0,0,1,-3055.82,-919.156)">
                                <rect x="3259.03" y="1038.65" width="44.536" height="59.824" style="fill:white;stroke:rgb(140,140,140);stroke-width:0.39px;"/>
                            </g>
                            <g transform="matrix(1,0,0,1,0,6)">
                                <g>
                                    <g transform="matrix(1,0,0,1,-3052.89,-922.535)">
                                        <circle cx="3278.36" cy="1071.94" r="20.772" style="fill:white;stroke:rgb(140,140,140);stroke-width:0.39px;"/>
                                    </g>
                                    <g transform="matrix(0.877333,0,0,0.877333,-2650.74,-791.044)">
                                        <circle cx="3278.36" cy="1071.94" r="20.772" style="fill:white;stroke:rgb(140,140,140);stroke-width:0.45px;"/>
                                    </g>
                                </g>
                            </g>
                        </g>
                        <g transform="matrix(1.16895,0,0,1.16895,23892.5,27379.3)">
                            <g transform="matrix(1,0,0,1,-3055.82,-919.156)">
                                <rect x="3259.03" y="1038.65" width="44.536" height="59.824" style="fill:white;stroke:rgb(140,140,140);stroke-width:0.39px;"/>
                            </g>
                            <g transform="matrix(1,0,0,1,0,6)">
                                <g>
                                    <g transform="matrix(1,0,0,1,-3052.89,-922.535)">
                                        <circle cx="3278.36" cy="1071.94" r="20.772" style="fill:white;stroke:rgb(140,140,140);stroke-width:0.39px;"/>
                                    </g>
                                    <g transform="matrix(0.877333,0,0,0.877333,-2650.74,-791.044)">
                                        <circle cx="3278.36" cy="1071.94" r="20.772" style="fill:white;stroke:rgb(140,140,140);stroke-width:0.45px;"/>
                                    </g>
                                </g>
                            </g>
                        </g>
                        <g>
                            <g transform="matrix(1.16895,0,0,1.16895,23973.2,27287.2)">
                                <g transform="matrix(0.988705,0,0,1,-3018.76,-919.156)">
                                    <rect x="3259.03" y="1038.65" width="44.536" height="59.824" style="fill:white;stroke:rgb(13,13,13);stroke-width:0.39px;"/>
                                </g>
                                <g transform="matrix(1,0,0,1,0,6)">
                                    <g>
                                        <g transform="matrix(1,0,0,1,-3052.89,-922.535)">
                                            <circle cx="3278.36" cy="1071.94" r="20.772" style="fill:white;stroke:rgb(13,13,13);stroke-width:0.39px;"/>
                                        </g>
                                        <g transform="matrix(0.759793,-0.431186,0.446277,0.759793,-2743.78,748.535)">
                                            <circle cx="3278.36" cy="1071.94" r="20.772" style="fill:white;stroke:rgb(13,13,13);stroke-width:0.45px;"/>
                                        </g>
                                    </g>
                                </g>
                            </g>
                            <g transform="matrix(1.13789,0,0,0.872966,24032.8,27316.6)">
                                <g transform="matrix(0.0775015,0,0,0.0992988,-1720.07,-3172.94)">
                                    <g transform="matrix(101.882,0,0,101.882,24464.8,33403.5)">
                                    </g>
                                    <text x="24234.2px" y="33403.5px" style="font-family:'ArialNarrow', 'Arial', sans-serif;font-stretch:condensed;font-size:101.882px;">AUT<tspan x="24399.8px " y="33403.5px ">O</tspan></text>
                                </g>
                                <g transform="matrix(0.0775015,0,0,0.0992988,-1693.74,-3173.13)">
                                    <g transform="matrix(101.882,0,0,101.882,24443,33403.5)">
                                    </g>
                                    <text x="24234.2px" y="33403.5px" style="font-family:'ArialNarrow', 'Arial', sans-serif;font-stretch:condensed;font-size:101.882px;">MAIN</text>
                                </g>
                                <g transform="matrix(0.0775015,0,0,0.0992988,-1699.63,-3180.43)">
                                    <g transform="matrix(101.882,0,0,101.882,24280.7,33403.5)">
                                    </g>
                                    <text x="24234.2px" y="33403.5px" style="font-family:'ArialNarrow', 'Arial', sans-serif;font-stretch:condensed;font-size:101.882px;">0</text>
                                </g>
                            </g>
                        </g>
                        <g transform="matrix(0.276084,-0.156679,0.215792,0.367389,11384,18624.8)">
                            <path d="M20814,32909.5L20814,32975.8C20814,32979 20810.4,32981.7 20806,32981.7C20801.5,32981.7 20797.9,32979 20797.9,32975.8L20797.9,32909.5C20797.9,32906.2 20801.5,32903.6 20806,32903.6C20810.4,32903.6 20814,32906.2 20814,32909.5Z" style="fill:none;stroke:rgb(13,13,13);stroke-width:1.22px;stroke-miterlimit:10;"/>
                        </g>
                        <g transform="matrix(0.113925,-0.0646531,0.0890462,0.151602,18929.3,23812.1)">
                            <path d="M20814,32909.5L20814,32975.8C20814,32979 20810.4,32981.7 20806,32981.7C20801.5,32981.7 20797.9,32979 20797.9,32975.8L20797.9,32909.5C20797.9,32906.2 20801.5,32903.6 20806,32903.6C20810.4,32903.6 20814,32906.2 20814,32909.5Z" style="fill:rgb(13,13,13);"/>
                        </g>
                        <g transform="matrix(1.16895,0,0,1.16895,23973.2,27195.2)">
                            <g transform="matrix(1,0,0,1,-3055.82,-919.156)">
                                <rect x="3259.03" y="1038.65" width="44.536" height="59.824" style="fill:white;stroke:rgb(140,140,140);stroke-width:0.39px;"/>
                            </g>
                            <g transform="matrix(1,0,0,1,0,6)">
                                <g>
                                    <g transform="matrix(1,0,0,1,-3052.89,-922.535)">
                                        <circle cx="3278.36" cy="1071.94" r="20.772" style="fill:white;stroke:rgb(140,140,140);stroke-width:0.39px;"/>
                                    </g>
                                    <g transform="matrix(0.877333,0,0,0.877333,-2650.74,-791.044)">
                                        <circle cx="3278.36" cy="1071.94" r="20.772" style="fill:white;stroke:rgb(140,140,140);stroke-width:0.45px;"/>
                                    </g>
                                </g>
                            </g>
                        </g>
                        <g transform="matrix(1.16895,0,0,1.16895,20600.4,25922.5)">
                            <g>
                                <g transform="matrix(-0.186086,0.713399,-0.707212,-0.176732,4556.45,-841.722)">
                                    <path d="M3390.68,1167.95L3392.42,1169.44L3391.59,1171.85L3394.75,1174.56L3396.93,1173.3L3398.63,1174.76L3388.83,1180.12L3387.14,1178.67L3390.68,1167.95ZM3390.97,1173.64L3389.57,1177.55L3393.13,1175.49L3390.97,1173.64Z" style="fill:rgb(140,140,140);fill-rule:nonzero;stroke:white;stroke-width:0.64px;stroke-miterlimit:2;"/>
                                    <path d="M3389.63,1166.62L3380.9,1172.31L3378.51,1168.55C3377.91,1167.61 3377.55,1166.87 3377.44,1166.34C3377.32,1165.82 3377.38,1165.29 3377.62,1164.77C3377.86,1164.26 3378.23,1163.83 3378.75,1163.49C3379.4,1163.06 3380.07,1162.91 3380.74,1163.02C3381.42,1163.13 3382.06,1163.54 3382.66,1164.24C3382.64,1163.71 3382.68,1163.23 3382.79,1162.81C3382.89,1162.38 3383.15,1161.74 3383.56,1160.87L3384.57,1158.68L3385.93,1160.81L3384.85,1163.34C3384.47,1164.24 3384.24,1164.83 3384.17,1165.11C3384.1,1165.4 3384.09,1165.65 3384.15,1165.89C3384.2,1166.12 3384.36,1166.44 3384.62,1166.85L3384.85,1167.21L3388.49,1164.84L3389.63,1166.62ZM3383.46,1168.12L3382.62,1166.8C3382.07,1165.94 3381.7,1165.43 3381.49,1165.27C3381.28,1165.1 3381.05,1165.01 3380.8,1165.01C3380.55,1165 3380.29,1165.08 3380.03,1165.25C3379.74,1165.44 3379.55,1165.68 3379.47,1165.95C3379.39,1166.23 3379.42,1166.53 3379.56,1166.85C3379.63,1167.01 3379.9,1167.45 3380.36,1168.17L3381.24,1169.56L3383.46,1168.12Z" style="fill:rgb(140,140,140);fill-rule:nonzero;stroke:white;stroke-width:0.64px;stroke-miterlimit:2;"/>
                                    <path d="M3383.86,1157.11L3373.89,1160.06L3372.65,1155.78C3372.34,1154.7 3372.21,1153.89 3372.24,1153.35C3372.28,1152.81 3372.49,1152.32 3372.86,1151.89C3373.23,1151.46 3373.71,1151.16 3374.3,1150.99C3375.05,1150.77 3375.73,1150.81 3376.35,1151.11C3376.96,1151.41 3377.46,1151.98 3377.85,1152.83C3377.97,1152.31 3378.14,1151.87 3378.37,1151.49C3378.59,1151.12 3379.01,1150.57 3379.65,1149.85L3381.24,1148.05L3381.94,1150.48L3380.2,1152.6C3379.57,1153.35 3379.19,1153.85 3379.04,1154.1C3378.9,1154.35 3378.82,1154.6 3378.81,1154.84C3378.79,1155.07 3378.86,1155.42 3378.99,1155.89L3379.11,1156.31L3383.27,1155.07L3383.86,1157.11ZM3377.52,1156.78L3377.08,1155.27C3376.8,1154.29 3376.58,1153.7 3376.43,1153.48C3376.28,1153.26 3376.08,1153.11 3375.85,1153.03C3375.61,1152.95 3375.34,1152.96 3375.04,1153.05C3374.7,1153.15 3374.46,1153.32 3374.3,1153.56C3374.15,1153.8 3374.09,1154.1 3374.14,1154.44C3374.16,1154.61 3374.29,1155.11 3374.53,1155.94L3374.99,1157.53L3377.52,1156.78Z" style="fill:rgb(140,140,140);fill-rule:nonzero;stroke:white;stroke-width:0.64px;stroke-miterlimit:2;"/>
                                    <path d="M3381.08,1146.33L3370.7,1146.49L3370.58,1138.7L3372.34,1138.67L3372.42,1144.34L3374.73,1144.3L3374.65,1139.03L3376.39,1139L3376.47,1144.28L3379.3,1144.23L3379.21,1138.37L3380.96,1138.34L3381.08,1146.33ZM3370.09,1145.15L3367.97,1143.68L3367.95,1141.81L3370.01,1140.3L3370.04,1141.92L3368.99,1142.76L3370.06,1143.52L3370.09,1145.15Z" style="fill:rgb(140,140,140);fill-rule:nonzero;stroke:white;stroke-width:0.64px;stroke-miterlimit:2;"/>
                                    <path d="M3381.83,1133.72L3373.44,1131.68L3372.72,1134.71L3371.01,1134.3L3372.94,1126.18L3374.65,1126.6L3373.93,1129.62L3382.32,1131.66L3381.83,1133.72Z" style="fill:rgb(140,140,140);fill-rule:nonzero;stroke:white;stroke-width:0.64px;stroke-miterlimit:2;"/>
                                </g>
                                <g transform="matrix(1,0,0,1,-2.28864,0.968388)">
                                    <g transform="matrix(0.608229,-0.10285,0.10285,0.608229,917.292,1052.67)">
                                        <circle cx="3420.02" cy="1141.73" r="39" style="fill:none;stroke:rgb(140,140,140);stroke-width:0.64px;"/>
                                    </g>
                                    <g transform="matrix(0.620377,-0.104904,0.104242,0.616465,828.622,949.756)">
                                        <g transform="matrix(0.744134,0.126629,-0.123685,0.736085,2603.33,800.624)">
                                            <path d="M1206.67,499.088L1212.04,502.227L1211.33,496.049L1206.67,499.088Z" style="fill:rgb(140,140,140);"/>
                                            <path d="M1242.45,447.122L1236.79,449.701L1242.25,452.68L1242.45,447.122Z" style="fill:rgb(140,140,140);"/>
                                            <path d="M1264.06,505.97L1265.07,499.835L1259.56,502.704L1264.06,505.97Z" style="fill:rgb(140,140,140);"/>
                                            <path d="M1209.61,498.5C1207.81,495.289 1206.53,491.714 1205.89,487.866C1203.19,471.624 1212.87,456.122 1227.96,451.245M1241.24,449.861C1248.13,450.595 1254.52,453.565 1259.52,458.146C1264.71,462.896 1268.41,469.378 1269.66,476.897C1270.55,482.239 1270.1,487.502 1268.55,492.332M1262.46,503.437C1257.69,509.154 1250.98,513.263 1243.13,514.613C1233.84,516.212 1224.8,513.623 1217.9,508.204" style="fill:none;stroke:rgb(140,140,140);stroke-width:0.83px;"/>
                                        </g>
                                    </g>
                                </g>
                            </g>
                            <g transform="matrix(1.05998,0,0,1.05998,-512.548,186.122)">
                                <circle cx="3420.02" cy="1141.73" r="39" style="fill:none;stroke:rgb(140,140,140);stroke-width:0.37px;"/>
                            </g>
                        </g>
                    </g>
                </g>
            </g>
        </g>
    </g>
</svg>
