<?xml version="1.0" encoding="UTF-8" standalone="no"?>
<!DOCTYPE svg PUBLIC "-//W3C//DTD SVG 1.1//EN" "http://www.w3.org/Graphics/SVG/1.1/DTD/svg11.dtd">
<svg width="100%" height="100%" viewBox="0 0 426 355" version="1.1" xmlns="http://www.w3.org/2000/svg" xmlns:xlink="http://www.w3.org/1999/xlink" xml:space="preserve" xmlns:serif="http://www.serif.com/" style="fill-rule:evenodd;clip-rule:evenodd;stroke-linejoin:round;stroke-miterlimit:1.5;">
    <g transform="matrix(1,0,0,1,0,-3513.87)">
        <g id="Artboard4" transform="matrix(0.6,0,0,1.2,0,3513.87)">
            <rect x="0" y="0" width="708.661" height="295.276" style="fill:white;"/>
            <g transform="matrix(1.94825,0,0,0.974127,-6097.36,-895.796)">
                <path d="M3474.37,944.072L3474.37,1194.15C3474.37,1198.21 3471.08,1201.5 3467.02,1201.5L3236.68,1201.5C3232.62,1201.5 3229.33,1198.21 3229.33,1194.15L3229.33,944.072C3229.33,940.014 3232.62,936.72 3236.68,936.72L3467.02,936.72C3471.08,936.72 3474.37,940.014 3474.37,944.072Z" style="fill:white;stroke:black;stroke-width:0.71px;"/>
            </g>
            <g transform="matrix(1.94825,0,0,0.974127,-143.846,-8.82272)">
                <g transform="matrix(1,0,0,1,-3055.82,-919.156)">
                    <rect x="3259.03" y="1038.65" width="44.536" height="59.824" style="fill:white;stroke:rgb(140,140,140);stroke-width:0.71px;"/>
                </g>
                <g transform="matrix(1,0,0,1,0,6)">
                    <g>
                        <g transform="matrix(1,0,0,1,-3052.89,-922.535)">
                            <circle cx="3278.36" cy="1071.94" r="20.772" style="fill:white;stroke:rgb(140,140,140);stroke-width:0.71px;"/>
                        </g>
                        <g transform="matrix(0.877333,0,0,0.877333,-2650.74,-791.044)">
                            <circle cx="3278.36" cy="1071.94" r="20.772" style="fill:white;stroke:rgb(140,140,140);stroke-width:0.81px;"/>
                        </g>
                    </g>
                </g>
            </g>
            <g transform="matrix(1.94825,0,0,0.974127,-143.846,67.8612)">
                <g transform="matrix(1,0,0,1,-3055.82,-919.156)">
                    <rect x="3259.03" y="1038.65" width="44.536" height="59.824" style="fill:white;stroke:rgb(140,140,140);stroke-width:0.71px;"/>
                </g>
                <g transform="matrix(1,0,0,1,0,6)">
                    <g>
                        <g transform="matrix(1,0,0,1,-3052.89,-922.535)">
                            <circle cx="3278.36" cy="1071.94" r="20.772" style="fill:white;stroke:rgb(140,140,140);stroke-width:0.71px;"/>
                        </g>
                        <g transform="matrix(0.877333,0,0,0.877333,-2650.74,-791.044)">
                            <circle cx="3278.36" cy="1071.94" r="20.772" style="fill:white;stroke:rgb(140,140,140);stroke-width:0.81px;"/>
                        </g>
                    </g>
                </g>
            </g>
            <g transform="matrix(1.94825,0,0,0.974127,-19.44,-8.82272)">
                <g transform="matrix(1,0,0,1,-3055.82,-919.156)">
                    <rect x="3259.03" y="1038.65" width="44.536" height="59.824" style="fill:white;stroke:rgb(140,140,140);stroke-width:0.71px;"/>
                </g>
                <g transform="matrix(1,0,0,1,0,6)">
                    <g>
                        <g transform="matrix(1,0,0,1,-3052.89,-922.535)">
                            <circle cx="3278.36" cy="1071.94" r="20.772" style="fill:white;stroke:rgb(140,140,140);stroke-width:0.71px;"/>
                        </g>
                        <g transform="matrix(0.877333,0,0,0.877333,-2650.74,-791.044)">
                            <circle cx="3278.36" cy="1071.94" r="20.772" style="fill:white;stroke:rgb(140,140,140);stroke-width:0.81px;"/>
                        </g>
                    </g>
                </g>
            </g>
            <g transform="matrix(1.94825,0,0,0.974127,-19.44,67.8612)">
                <g transform="matrix(1,0,0,1,-3055.82,-919.156)">
                    <rect x="3259.03" y="1038.65" width="44.536" height="59.824" style="fill:white;stroke:rgb(140,140,140);stroke-width:0.71px;"/>
                </g>
                <g transform="matrix(1,0,0,1,0,6)">
                    <g>
                        <g transform="matrix(1,0,0,1,-3052.89,-922.535)">
                            <circle cx="3278.36" cy="1071.94" r="20.772" style="fill:white;stroke:rgb(140,140,140);stroke-width:0.71px;"/>
                        </g>
                        <g transform="matrix(0.877333,0,0,0.877333,-2650.74,-791.044)">
                            <circle cx="3278.36" cy="1071.94" r="20.772" style="fill:white;stroke:rgb(140,140,140);stroke-width:0.81px;"/>
                        </g>
                    </g>
                </g>
            </g>
            <g transform="matrix(1.94825,0,0,0.974127,-5972.96,-980.882)">
                <rect x="3259.03" y="1038.65" width="44.536" height="59.824" style="fill:white;stroke:rgb(140,140,140);stroke-width:0.71px;"/>
            </g>
            <g transform="matrix(1.94825,0,0,0.974127,115.048,-8.82272)">
                <g transform="matrix(1,0,0,1,-3055.82,-919.156)">
                    <rect x="3259.03" y="1038.65" width="44.536" height="59.824" style="fill:white;stroke:rgb(140,140,140);stroke-width:0.71px;"/>
                </g>
                <g transform="matrix(1,0,0,1,0,6)">
                    <g>
                        <g transform="matrix(1,0,0,1,-3052.89,-922.535)">
                            <circle cx="3278.36" cy="1071.94" r="20.772" style="fill:white;stroke:rgb(140,140,140);stroke-width:0.71px;"/>
                        </g>
                        <g transform="matrix(0.877333,0,0,0.877333,-2650.74,-791.044)">
                            <circle cx="3278.36" cy="1071.94" r="20.772" style="fill:white;stroke:rgb(140,140,140);stroke-width:0.81px;"/>
                        </g>
                    </g>
                </g>
            </g>
            <g transform="matrix(1.94825,0,0,0.974127,115.048,-85.5067)">
                <g transform="matrix(1,0,0,1,-3055.82,-919.156)">
                    <rect x="3259.03" y="1038.65" width="44.536" height="59.824" style="fill:white;stroke:rgb(140,140,140);stroke-width:0.71px;"/>
                </g>
                <g transform="matrix(1,0,0,1,0,6)">
                    <g>
                        <g transform="matrix(1,0,0,1,-3052.89,-922.535)">
                            <circle cx="3278.36" cy="1071.94" r="20.772" style="fill:white;stroke:rgb(140,140,140);stroke-width:0.71px;"/>
                        </g>
                        <g transform="matrix(0.877333,0,0,0.877333,-2650.74,-791.044)">
                            <circle cx="3278.36" cy="1071.94" r="20.772" style="fill:white;stroke:rgb(140,140,140);stroke-width:0.81px;"/>
                        </g>
                    </g>
                </g>
            </g>
            <g transform="matrix(1.94825,0,0,0.974127,-19.44,-79.6619)">
                <g>
                    <g transform="matrix(1,0,0,1,-3052.89,-922.535)">
                        <circle cx="3278.36" cy="1071.94" r="20.772" style="fill:none;stroke:rgb(140,140,140);stroke-width:0.71px;"/>
                    </g>
                    <g transform="matrix(0.877333,0,0,0.877333,-2650.74,-791.044)">
                        <circle cx="3278.36" cy="1071.94" r="20.772" style="fill:none;stroke:rgb(140,140,140);stroke-width:0.81px;"/>
                    </g>
                </g>
            </g>
            <g transform="matrix(1.94825,0,0,0.974127,-143.846,-85.5067)">
                <g transform="matrix(0.933367,0,0,0.933367,15.9822,18.6167)">
                    <g>
                        <g transform="matrix(1,0,0,1,-3052.89,-922.535)">
                            <circle cx="3278.36" cy="1071.94" r="20.772" style="fill:rgb(230,230,230);stroke:black;stroke-width:1.15px;"/>
                        </g>
                        <g transform="matrix(0.877333,0,0,0.877333,-2650.74,-791.044)">
                            <circle cx="3278.36" cy="1071.94" r="20.772" style="fill:rgb(230,230,230);stroke:black;stroke-width:1.31px;"/>
                        </g>
                    </g>
                </g>
                <g transform="matrix(1,0,0,1,-3055.82,-919.156)">
                    <rect x="3259.03" y="1038.65" width="44.536" height="59.824" style="fill:none;stroke:black;stroke-width:1.07px;"/>
                </g>
            </g>
            <g transform="matrix(1.94825,0,0,0.974127,-5506.33,-1146.12)">
                <g>
                    <g transform="matrix(-0.215919,0.827769,-0.829988,-0.207414,4792.7,-1194.58)">
                        <g transform="matrix(-0.762861,-0.646562,0.646562,-0.762861,5234.56,4248.36)">
                            <text x="3396.58px" y="1164.25px" style="font-family:'Arial-BoldMT', 'Arial', sans-serif;font-weight:700;font-size:12.5px;fill:rgb(115,115,115);stroke:white;stroke-width:1px;stroke-miterlimit:2;">A</text>
                        </g>
                        <g transform="matrix(-0.54169,-0.840578,0.840578,-0.54169,4251.38,4634.23)">
                            <text x="3389.27px" y="1158.12px" style="font-family:'Arial-BoldMT', 'Arial', sans-serif;font-weight:700;font-size:12.5px;fill:rgb(115,115,115);stroke:white;stroke-width:1px;stroke-miterlimit:2;">R</text>
                        </g>
                        <g transform="matrix(-0.280857,-0.95975,0.95975,-0.280857,3230.28,4720.77)">
                            <text x="3384px" y="1150.15px" style="font-family:'Arial-BoldMT', 'Arial', sans-serif;font-weight:700;font-size:12.5px;fill:rgb(115,115,115);stroke:white;stroke-width:1px;stroke-miterlimit:2;">R</text>
                        </g>
                        <g transform="matrix(-0.0152345,-0.999884,0.999884,-0.0152345,2291.73,4539.09)">
                            <text x="3381.31px" y="1141.01px" style="font-family:'Arial-BoldMT', 'Arial', sans-serif;font-weight:700;font-size:12.5px;fill:rgb(115,115,115);stroke:white;stroke-width:1.01px;stroke-miterlimit:2;">Ê</text>
                        </g>
                        <g transform="matrix(0.233737,-0.9723,0.9723,0.233737,1489.89,4154.89)">
                            <text x="3381.2px" y="1132.19px" style="font-family:'Arial-BoldMT', 'Arial', sans-serif;font-weight:700;font-size:12.5px;fill:rgb(115,115,115);stroke:white;stroke-width:1px;stroke-miterlimit:2;">T</text>
                        </g>
                    </g>
                    <g transform="matrix(0.830789,0.203991,-0.213108,0.828551,500.131,-645.041)">
                        <g transform="matrix(0.780901,0.624655,-0.624655,0.780901,1784.34,-1843.91)">
                            <text x="3520.9px" y="1621.64px" style="font-family:'Arial-BoldMT', 'Arial', sans-serif;font-weight:700;font-size:12.5px;fill:rgb(115,115,115);stroke:white;stroke-width:1px;stroke-miterlimit:2;">D</text>
                        </g>
                        <g transform="matrix(0.879025,0.476775,-0.476775,0.879025,1203.38,-1485.93)">
                            <text x="3529.79px" y="1628.37px" style="font-family:'Arial-BoldMT', 'Arial', sans-serif;font-weight:700;font-size:12.5px;fill:rgb(115,115,115);stroke:white;stroke-width:1px;stroke-miterlimit:2;">&apos;</text>
                        </g>
                        <g transform="matrix(0.950803,0.309796,-0.309796,0.950803,679.079,-1014.6)">
                            <text x="3534.25px" y="1630.8px" style="font-family:'Arial-BoldMT', 'Arial', sans-serif;font-weight:700;font-size:12.5px;fill:rgb(115,115,115);stroke:white;stroke-width:1px;stroke-miterlimit:2;">U</text>
                        </g>
                        <g transform="matrix(0.998884,0.0472373,-0.0472373,0.998884,81.149,-165.629)">
                            <text x="3545.15px" y="1634.13px" style="font-family:'Arial-BoldMT', 'Arial', sans-serif;font-weight:700;font-size:12.5px;fill:rgb(115,115,115);stroke:white;stroke-width:1.01px;stroke-miterlimit:2;">R</text>
                        </g>
                        <g transform="matrix(0.979313,-0.202349,0.202349,0.979313,-257.176,753.425)">
                            <text x="3556.51px" y="1634.52px" style="font-family:'Arial-BoldMT', 'Arial', sans-serif;font-weight:700;font-size:12.5px;fill:rgb(115,115,115);stroke:white;stroke-width:1.01px;stroke-miterlimit:2;">G</text>
                        </g>
                        <g transform="matrix(0.893346,-0.449369,0.449369,0.893346,-352.714,1777.4)">
                            <text x="3568.26px" y="1631.75px" style="font-family:'Arial-BoldMT', 'Arial', sans-serif;font-weight:700;font-size:12.5px;fill:rgb(115,115,115);stroke:white;stroke-width:1px;stroke-miterlimit:2;">E</text>
                        </g>
                        <g transform="matrix(0.759692,-0.650283,0.650283,0.759692,-198.164,2717.32)">
                            <text x="3577.73px" y="1626.78px" style="font-family:'Arial-BoldMT', 'Arial', sans-serif;font-weight:700;font-size:12.5px;fill:rgb(115,115,115);stroke:white;stroke-width:1px;stroke-miterlimit:2;">N</text>
                        </g>
                        <g transform="matrix(0.574966,-0.818177,0.818177,0.574966,199.362,3622.18)">
                            <text x="3586.2px" y="1619.21px" style="font-family:'Arial-BoldMT', 'Arial', sans-serif;font-weight:700;font-size:12.5px;fill:rgb(115,115,115);stroke:white;stroke-width:1px;stroke-miterlimit:2;">C</text>
                        </g>
                        <g transform="matrix(0.357676,-0.933846,0.933846,0.357676,804.159,4388.64)">
                            <text x="3592.52px" y="1609.75px" style="font-family:'Arial-BoldMT', 'Arial', sans-serif;font-weight:700;font-size:12.5px;fill:rgb(115,115,115);stroke:white;stroke-width:1px;stroke-miterlimit:2;">E</text>
                        </g>
                    </g>
                    <g transform="matrix(1,0,0,1,-2.28864,0.968388)">
                        <g transform="matrix(0.608229,-0.10285,0.10285,0.608229,917.292,1052.67)">
                            <circle cx="3420.02" cy="1141.73" r="39" style="fill:none;stroke:rgb(115,115,115);stroke-width:1.16px;"/>
                        </g>
                        <g transform="matrix(0.620377,-0.104904,0.104242,0.616465,828.622,949.756)">
                            <g transform="matrix(1.34061,0.228132,-0.226694,1.34912,3074.31,889.496)">
                                <path d="M315.175,264.33L320.382,267.73L319.977,261.525L315.175,264.33Z" style="fill:rgb(115,115,115);"/>
                                <path d="M339.911,236.807L334.119,239.071L339.406,242.346L339.911,236.807Z" style="fill:rgb(115,115,115);"/>
                                <path d="M348.413,272.482L349.818,266.425L344.129,268.935L348.413,272.482Z" style="fill:rgb(115,115,115);"/>
                                <path d="M318.137,263.888C317.603,262.633 317.207,261.297 316.97,259.895C315.472,251.033 320.842,242.575 329.222,239.914M338.55,239.475C341.621,240.148 344.441,241.613 346.736,243.679C349.616,246.271 351.671,249.807 352.365,253.91C352.858,256.825 352.607,259.696 351.751,262.331M346.981,269.852C344.483,272.204 341.282,273.872 337.641,274.488C332.483,275.36 327.465,273.948 323.636,270.991" style="fill:none;stroke:rgb(115,115,115);stroke-width:0.83px;"/>
                            </g>
                        </g>
                    </g>
                </g>
                <g transform="matrix(1.05998,0,0,1.05998,-512.548,186.122)">
                    <circle cx="3420.02" cy="1141.73" r="39" style="fill:none;stroke:rgb(115,115,115);stroke-width:0.67px;"/>
                </g>
            </g>
            <g transform="matrix(1.94825,0,0,0.974127,-6175.57,-838.405)">
                <text x="3314.71px" y="900.443px" style="font-family:'Arial-BoldMT', 'Arial', sans-serif;font-weight:700;font-size:8.333px;">E<tspan x="3320.56px " y="900.443px ">N</tspan></text>
                <g transform="matrix(8.33333,0,0,8.33333,3339.89,909.049)">
                </g>
                <text x="3301.55px" y="909.049px" style="font-family:'Arial-BoldMT', 'Arial', sans-serif;font-weight:700;font-size:8.333px;">S<tspan x="3307.4px 3313.25px 3319.41px 3325.27px 3327.87px 3334.18px " y="909.049px 909.049px 909.049px 909.049px 909.049px 909.049px ">ERVICE</tspan></text>
            </g>
            <g transform="matrix(0.682063,0,0,0.341031,-4699.06,318.52)">
                <path d="M6924.16,-435.689C6924.16,-435.689 6958.15,-464.098 6962.94,-491.7C6974.68,-559.426 6995.73,-659.599 7043.27,-674.016C7058.08,-678.508 7061.07,-680.285 7070.04,-666.789C7076.65,-656.83 7092.62,-703.511 7117.73,-696.364C7132.06,-692.285 7133.62,-687.122 7136.58,-678.989C7139.54,-670.856 7169.54,-718.7 7193.88,-679.359C7206.58,-658.826 7188.65,-648.847 7211.99,-654.22C7246.86,-662.242 7323.83,-768.287 7341.02,-752.187C7367.24,-727.615 7294.81,-644.608 7272.62,-619.47C7250.44,-594.331 7238.98,-574.368 7244.53,-569.932C7250.07,-565.496 7284.16,-600.958 7289.63,-573.629C7291.46,-564.471 7277.69,-555.194 7280.02,-531.854C7283.52,-496.783 7246.6,-427.596 7140.28,-393.592C7126.91,-389.319 7079.28,-355.106 7076.7,-336.991C7074.11,-318.877 6880.87,-307.406 6924.16,-435.689Z" style="fill:white;stroke:rgb(115,115,115);stroke-width:3.05px;"/>
            </g>
            <g transform="matrix(1.94825,0,0,0.974127,-124.42,16.2647)">
                <g transform="matrix(1.34243,0,0,1.34243,-4633.43,-1287.5)">
                    <path d="M3628.14,986.107L3638.25,976" style="fill:none;stroke:rgb(179,179,179);stroke-width:2.66px;stroke-linecap:round;"/>
                </g>
                <g transform="matrix(1.26408,0.451917,-0.451917,1.26408,-3899.24,-2841.96)">
                    <path d="M3628.14,986.107L3638.25,976" style="fill:none;stroke:rgb(179,179,179);stroke-width:2.66px;stroke-linecap:round;"/>
                </g>
                <g transform="matrix(1.03268,0.857723,-0.857723,1.03268,-2657.06,-4077.33)">
                    <path d="M3628.14,986.107L3638.25,976" style="fill:none;stroke:rgb(179,179,179);stroke-width:2.66px;stroke-linecap:round;"/>
                </g>
                <g transform="matrix(0.671882,1.16219,-1.16219,0.671882,-1047.25,-4816.52)">
                    <path d="M3628.14,986.107L3638.25,976" style="fill:none;stroke:rgb(179,179,179);stroke-width:2.66px;stroke-linecap:round;"/>
                </g>
            </g>
        </g>
    </g>
</svg>
