<?xml version="1.0" encoding="UTF-8" standalone="no"?>
<!DOCTYPE svg PUBLIC "-//W3C//DTD SVG 1.1//EN" "http://www.w3.org/Graphics/SVG/1.1/DTD/svg11.dtd">
<svg width="100%" height="100%" viewBox="0 0 1453 473" version="1.1" xmlns="http://www.w3.org/2000/svg" xmlns:xlink="http://www.w3.org/1999/xlink" xml:space="preserve" xmlns:serif="http://www.serif.com/" style="fill-rule:evenodd;clip-rule:evenodd;stroke-linejoin:round;stroke-miterlimit:2;">
    <g transform="matrix(1,0,0,1,-23846.3,-35620.3)">
        <g id="Artboard4" transform="matrix(2.05,0,0,1.6,23846.3,35620.3)">
            <rect x="0" y="0" width="708.661" height="295.276" style="fill:none;"/>
            <g transform="matrix(2.86228e-17,-0.625,0.116625,-7.70357e-18,-3373.37,14400.8)">
                <path d="M22801,32038.5L22801,31783.1L22809.3,31783.1L22809.3,32038.5L22823.9,32038.5L22805.1,32143.1L22786.4,32038.5L22801,32038.5Z" style="fill:rgb(64,64,64);"/>
            </g>
            <g transform="matrix(0.584924,0,0,0.625,-13955.6,-21658.2)">
                <rect x="23904.5" y="34718.9" width="453.988" height="341.005" style="fill:none;"/>
                <clipPath id="_clip1">
                    <rect x="23904.5" y="34718.9" width="453.988" height="341.005"/>
                </clipPath>
                <g clip-path="url(#_clip1)">
                    <g transform="matrix(2.05202,0,0,1.92044,23406.3,34575.7)">
                        <g id="path3124" transform="matrix(0.854931,0,0,-1.09538,-11.1189,423.534)">
                            <path d="M279.526,256.166L279.526,251.195L297.51,251.195L297.51,247.32L344.077,247.32L344.077,251.195L329.602,251.195L329.602,256.604L279.38,256.604L279.526,256.166Z" style="fill:rgb(191,191,191);stroke:rgb(191,191,191);stroke-width:0.48px;"/>
                        </g>
                        <g transform="matrix(0.487805,0,0,0.625,-9059.86,-20515.3)">
                            <g id="path852" transform="matrix(1.75261,0,0,-1.75261,18549.9,33502.2)">
                                <rect x="409.705" y="269.833" width="6.799" height="8.042" style="fill:rgb(240,240,240);stroke:black;stroke-width:1.58px;"/>
                            </g>
                            <g id="path8521" serif:id="path852" transform="matrix(1.75261,0,0,-1.75261,18476.7,33502.2)">
                                <rect x="409.705" y="269.833" width="6.799" height="8.042" style="fill:rgb(240,240,240);stroke:black;stroke-width:1.58px;"/>
                            </g>
                            <g id="path856" transform="matrix(1.75261,0,0,-1.75261,18549.9,33502.2)">
                                <rect x="408.025" y="247.829" width="10.161" height="22.225" style="fill:rgb(240,240,240);stroke:black;stroke-width:1.58px;"/>
                            </g>
                            <g id="path8561" serif:id="path856" transform="matrix(1.75261,0,0,-1.75261,18476.7,33502.2)">
                                <rect x="408.025" y="247.829" width="10.161" height="22.225" style="fill:rgb(240,240,240);stroke:black;stroke-width:1.58px;"/>
                            </g>
                        </g>
                        <g transform="matrix(0.487805,0,0,0.625,-9059.86,-20515.3)">
                            <g id="path8522" serif:id="path852" transform="matrix(1.75261,0,0,-1.75261,18580.8,33502.2)">
                                <rect x="409.705" y="269.833" width="6.799" height="8.042" style="fill:rgb(240,240,240);stroke:black;stroke-width:1.58px;"/>
                            </g>
                            <g id="path8562" serif:id="path856" transform="matrix(1.75261,0,0,-1.75261,18580.8,33502.2)">
                                <rect x="408.025" y="247.829" width="10.161" height="22.225" style="fill:rgb(240,240,240);stroke:black;stroke-width:1.58px;"/>
                            </g>
                        </g>
                        <g transform="matrix(0.487805,0,0,0.625,-8988.84,-20515.3)">
                            <g id="path8523" serif:id="path852" transform="matrix(1.75261,0,0,-1.75261,18580.8,33502.2)">
                                <rect x="409.705" y="269.833" width="6.799" height="8.042" style="fill:rgb(240,240,240);stroke:black;stroke-width:1.58px;"/>
                            </g>
                            <g id="path8563" serif:id="path856" transform="matrix(1.75261,0,0,-1.75261,18580.8,33502.2)">
                                <rect x="408.025" y="247.829" width="10.161" height="22.225" style="fill:rgb(240,240,240);stroke:black;stroke-width:1.58px;"/>
                            </g>
                        </g>
                        <g transform="matrix(0.487805,0,0,0.625,-8972.43,-20515.3)">
                            <g id="path8524" serif:id="path852" transform="matrix(1.75261,0,0,-1.75261,18580.8,33502.2)">
                                <rect x="409.705" y="269.833" width="6.799" height="8.042" style="fill:rgb(240,240,240);stroke:black;stroke-width:1.58px;"/>
                            </g>
                            <g id="path8564" serif:id="path856" transform="matrix(1.75261,0,0,-1.75261,18580.8,33502.2)">
                                <rect x="408.025" y="247.829" width="10.161" height="22.225" style="fill:rgb(240,240,240);stroke:black;stroke-width:1.58px;"/>
                            </g>
                        </g>
                        <g transform="matrix(0.487805,0,0,0.625,-9055.76,-20515.3)">
                            <g id="path1074" transform="matrix(-1.75261,-2.14633e-16,-2.14633e-16,1.75261,19645.6,32666.7)">
                                <rect x="91.092" y="224.219" width="59.214" height="28.292" style="fill:white;stroke:rgb(140,140,140);stroke-width:0.48px;"/>
                            </g>
                            <g id="path1078" transform="matrix(-1.75261,-2.14633e-16,-2.14633e-16,1.75261,19645.6,32666.7)">
                                <path d="M106.333,248.053C111.48,248.053 115.653,243.879 115.653,238.731C115.653,233.584 111.48,229.41 106.333,229.41C101.186,229.41 97.012,233.584 97.012,238.731C97.012,243.879 101.186,248.053 106.333,248.053" style="fill:white;stroke:rgb(115,115,115);stroke-width:0.48px;"/>
                            </g>
                            <g id="path1082" transform="matrix(-1.75261,-2.14633e-16,-2.14633e-16,1.75261,19645.4,32666.4)">
                                <path d="M106.186,244.032C109.032,244.032 111.34,241.724 111.34,238.878C111.34,236.032 109.032,233.724 106.186,233.724C103.34,233.724 101.032,236.032 101.032,238.878C101.032,241.724 103.34,244.032 106.186,244.032" style="fill:white;stroke:rgb(140,140,140);stroke-width:0.48px;"/>
                            </g>
                            <g id="path1086" transform="matrix(-1.75261,-2.14633e-16,-2.14633e-16,1.75261,19645.6,32666.7)">
                                <path d="M127.492,240.158C128.26,240.158 128.881,239.536 128.881,238.769C128.881,238.002 128.26,237.38 127.492,237.38C126.725,237.38 126.104,238.002 126.104,238.769C126.104,239.536 126.725,240.158 127.492,240.158" style="fill:white;stroke:rgb(115,115,115);stroke-width:0.48px;"/>
                            </g>
                            <g id="path1090" transform="matrix(-1.75261,-2.14633e-16,-2.14633e-16,1.75261,19645.6,32666.7)">
                                <path d="M141.599,240.158C142.366,240.158 142.988,239.536 142.988,238.769C142.988,238.002 142.366,237.38 141.599,237.38C140.832,237.38 140.21,238.002 140.21,238.769C140.21,239.536 140.832,240.158 141.599,240.158" style="fill:white;stroke:rgb(115,115,115);stroke-width:0.48px;"/>
                            </g>
                        </g>
                        <g id="path2614" transform="matrix(0.854931,0,0,-1.09538,-11.1189,423.534)">
                            <path d="M150.224,227.221L464.569,227.221" style="fill:none;fill-rule:nonzero;stroke:rgb(191,191,191);stroke-width:0.22px;stroke-linejoin:miter;stroke-miterlimit:10;"/>
                        </g>
                        <g id="path2622" transform="matrix(0.854931,0,0,-1.09538,-11.1189,423.534)">
                            <path d="M150.224,247.321L464.13,247.321" style="fill:none;fill-rule:nonzero;stroke:rgb(191,191,191);stroke-width:0.22px;stroke-linejoin:miter;stroke-miterlimit:10;"/>
                        </g>
                        <g id="path2628" transform="matrix(0.854931,0,0,-1.09538,-11.1189,423.534)">
                            <path d="M422.132,227.075L422.132,166.177" style="fill:none;fill-rule:nonzero;stroke:rgb(204,204,204);stroke-width:0.22px;stroke-linejoin:miter;stroke-miterlimit:10;"/>
                        </g>
                        <g id="path2644" transform="matrix(0.842638,0,0,-1.09538,-6.45074,423.534)">
                            <path d="M185.967,185.85L422.676,185.85" style="fill:none;fill-rule:nonzero;stroke:rgb(191,191,191);stroke-width:0.22px;stroke-linejoin:miter;stroke-miterlimit:10;"/>
                        </g>
                        <g id="path2702" transform="matrix(1.00686,2.38386e-17,-1.86057e-17,-1.09538,-70.7435,423.534)">
                            <rect x="392.456" y="256.604" width="124.568" height="5.556" style="fill:rgb(153,153,153);"/>
                        </g>
                        <g id="path2950" transform="matrix(0.854931,0,0,-1.09538,-11.1189,423.534)">
                            <rect x="300.87" y="231.53" width="6.799" height="15.645" style="fill:white;stroke:rgb(191,191,191);stroke-width:0.48px;"/>
                        </g>
                        <g id="path2970" transform="matrix(2.10462,1.62612e-16,-1.26917e-16,-1.36872,-386.382,497.47)">
                            <rect x="300.285" y="266.398" width="4.24" height="4.094" style="fill:none;stroke:rgb(191,191,191);stroke-width:0.24px;"/>
                        </g>
                        <g id="path2984" transform="matrix(0.854931,0,0,-1.09538,-11.1189,423.534)">
                            <rect x="335.808" y="242.79" width="3.801" height="4.533" style="fill:rgb(191,191,191);stroke:rgb(191,191,191);stroke-width:0.48px;"/>
                        </g>
                        <g id="path3130" transform="matrix(0.854931,0,0,-1.09538,-11.1189,423.534)">
                            <rect x="265.492" y="234.895" width="61.114" height="4.167" style="fill:rgb(191,191,191);stroke:rgb(191,191,191);stroke-width:0.48px;"/>
                        </g>
                        <g id="path3134" transform="matrix(0.854931,0,0,-1.09538,-11.1189,423.534)">
                            <rect x="242.029" y="185.918" width="140.505" height="28.365" style="fill:rgb(224,224,224);"/>
                        </g>
                        <g id="path3136" transform="matrix(0.854931,0,0,-1.09538,-17.906,423.534)">
                            <path d="M242.029,214.576L241.956,214.576L241.883,214.503L241.81,214.503L241.81,214.43L241.737,214.356L241.737,185.845L241.81,185.772L241.81,185.698L241.883,185.698L241.956,185.625L382.607,185.625L382.68,185.698L382.753,185.698L382.753,185.772L382.827,185.845L382.827,214.356L382.753,214.43L382.753,214.503L382.68,214.503L382.607,214.576L242.029,214.576L242.029,213.991L382.534,213.991L382.242,214.283L382.242,185.918L382.534,186.21L242.029,186.21L242.322,185.918L242.322,214.283L242.029,213.991L242.029,214.576Z" style="fill:rgb(191,191,191);"/>
                        </g>
                        <g id="path3138" transform="matrix(0.854931,0,0,-1.09538,-17.906,423.534)">
                            <rect x="241.591" y="207.267" width="141.016" height="0.585" style="fill:rgb(191,191,191);"/>
                        </g>
                        <g transform="matrix(0.487805,0,0,0.625,-9059.86,-20515.3)">
                            <rect x="19036.4" y="33137.7" width="95.375" height="29.565" style="fill:rgb(179,179,179);"/>
                            <path d="M19131.8,33137.7L19131.8,33167.2L19036.4,33167.2L19036.4,33137.7L19131.8,33137.7ZM19129.4,33140.1L19038.9,33140.1L19038.9,33164.8L19129.4,33164.8L19129.4,33140.1Z" style="fill:rgb(179,179,179);"/>
                        </g>
                        <g transform="matrix(0.487805,0,0,0.625,-9059.72,-20516.8)">
                            <path d="M19159.2,33083.6L19159.2,33096C19147.4,33103.3 19134.8,33103.7 19121.4,33096L19121.4,33083.6C19135,33076.7 19147.5,33076.9 19159.2,33083.6Z" style="fill:rgb(252,252,252);"/>
                            <path d="M19159.2,33083.6L19159.2,33096C19147.4,33103.3 19134.8,33103.7 19121.4,33096L19121.4,33083.6C19135,33076.7 19147.5,33076.9 19159.2,33083.6ZM19158.1,33084.2C19147.1,33078.1 19135.2,33077.9 19122.5,33084.2L19122.5,33095.4C19135.1,33102.5 19147,33102.1 19158.1,33095.5L19158.1,33084.2Z" style="fill:rgb(191,191,191);"/>
                        </g>
                        <g transform="matrix(0.487805,0,0,0.622234,-9059.86,-20424.8)">
                            <rect x="19060" y="33097.2" width="44.264" height="30.781" style="fill:rgb(204,204,204);"/>
                            <path d="M19104.2,33097.2L19104.2,33128L19060,33128L19060,33097.2L19104.2,33097.2ZM19103.2,33098.3L19061,33098.3L19061,33127L19103.2,33127L19103.2,33098.3Z" style="fill:rgb(204,204,204);"/>
                        </g>
                        <g transform="matrix(0.202692,0,0,0.264204,-4504.99,-7099.76)">
                            <g>
                                <g transform="matrix(1.16895,0,0,1.16895,20245.8,26222.9)">
                                    <path d="M3474.37,943.946L3474.37,1194.28C3474.37,1198.27 3471.08,1201.5 3467.02,1201.5L3236.68,1201.5C3232.62,1201.5 3229.33,1198.27 3229.33,1194.28L3229.33,943.946C3229.33,939.958 3232.62,936.72 3236.68,936.72L3467.02,936.72C3471.08,936.72 3474.37,939.958 3474.37,943.946Z" style="fill:white;stroke:rgb(191,191,191);stroke-width:4.96px;stroke-miterlimit:1.5;"/>
                                </g>
                                <g transform="matrix(1.16895,0,0,1.16895,23817.9,27287.2)">
                                    <g transform="matrix(1,0,0,1,-3055.82,-919.156)">
                                        <rect x="3259.03" y="1038.65" width="44.536" height="59.824" style="fill:white;stroke:rgb(191,191,191);stroke-width:1.42px;stroke-miterlimit:1.5;"/>
                                    </g>
                                    <g transform="matrix(1,0,0,1,0,6)">
                                        <g>
                                            <g transform="matrix(1,0,0,1,-3052.89,-922.535)">
                                                <circle cx="3278.36" cy="1071.94" r="20.772" style="fill:white;stroke:rgb(191,191,191);stroke-width:1.42px;stroke-miterlimit:1.5;"/>
                                            </g>
                                            <g transform="matrix(0.877333,0,0,0.877333,-2650.74,-791.044)">
                                                <circle cx="3278.36" cy="1071.94" r="20.772" style="fill:white;stroke:rgb(191,191,191);stroke-width:1.62px;stroke-miterlimit:1.5;"/>
                                            </g>
                                        </g>
                                    </g>
                                </g>
                                <g transform="matrix(1.16895,0,0,1.16895,23817.9,27195.4)">
                                    <g transform="matrix(1,0,0,1,-3055.82,-919.156)">
                                        <rect x="3259.03" y="1038.65" width="44.536" height="59.824" style="fill:white;stroke:rgb(191,191,191);stroke-width:1.42px;stroke-miterlimit:1.5;"/>
                                    </g>
                                    <g transform="matrix(1,0,0,1,0,6)">
                                        <g>
                                            <g transform="matrix(1,0,0,1,-3052.89,-922.535)">
                                                <circle cx="3278.36" cy="1071.94" r="20.772" style="fill:white;stroke:rgb(191,191,191);stroke-width:1.42px;stroke-miterlimit:1.5;"/>
                                            </g>
                                            <g transform="matrix(0.877333,0,0,0.877333,-2650.74,-791.044)">
                                                <circle cx="3278.36" cy="1071.94" r="20.772" style="fill:white;stroke:rgb(191,191,191);stroke-width:1.62px;stroke-miterlimit:1.5;"/>
                                            </g>
                                        </g>
                                    </g>
                                </g>
                                <g transform="matrix(1.16895,0,0,1.16895,23817.9,27379.3)">
                                    <g transform="matrix(1,0,0,1,-3055.82,-919.156)">
                                        <rect x="3259.03" y="1038.65" width="44.536" height="59.824" style="fill:white;stroke:rgb(191,191,191);stroke-width:1.42px;stroke-miterlimit:1.5;"/>
                                    </g>
                                    <g transform="matrix(1,0,0,1,0,6)">
                                        <g>
                                            <g transform="matrix(1,0,0,1,-3052.89,-922.535)">
                                                <circle cx="3278.36" cy="1071.94" r="20.772" style="fill:white;stroke:rgb(191,191,191);stroke-width:1.42px;stroke-miterlimit:1.5;"/>
                                            </g>
                                            <g transform="matrix(0.877333,0,0,0.877333,-2650.74,-791.044)">
                                                <circle cx="3278.36" cy="1071.94" r="20.772" style="fill:white;stroke:rgb(191,191,191);stroke-width:1.62px;stroke-miterlimit:1.5;"/>
                                            </g>
                                        </g>
                                    </g>
                                </g>
                                <g transform="matrix(1.16895,0,0,1.16895,23892.5,27287.2)">
                                    <g transform="matrix(1,0,0,1,-3055.82,-919.156)">
                                        <rect x="3259.03" y="1038.65" width="44.536" height="59.824" style="fill:white;stroke:rgb(191,191,191);stroke-width:1.42px;stroke-miterlimit:1.5;"/>
                                    </g>
                                    <g transform="matrix(1,0,0,1,0,6)">
                                        <g>
                                            <g transform="matrix(1,0,0,1,-3052.89,-922.535)">
                                                <circle cx="3278.36" cy="1071.94" r="20.772" style="fill:white;stroke:rgb(191,191,191);stroke-width:1.42px;stroke-miterlimit:1.5;"/>
                                            </g>
                                            <g transform="matrix(0.877333,0,0,0.877333,-2650.74,-791.044)">
                                                <circle cx="3278.36" cy="1071.94" r="20.772" style="fill:white;stroke:rgb(191,191,191);stroke-width:1.62px;stroke-miterlimit:1.5;"/>
                                            </g>
                                        </g>
                                    </g>
                                </g>
                                <g transform="matrix(1.16895,0,0,1.16895,23892.5,27195)">
                                    <g transform="matrix(1,0,0,1,-3055.82,-919.156)">
                                        <rect x="3259.03" y="1038.65" width="44.536" height="59.824" style="fill:white;stroke:rgb(191,191,191);stroke-width:1.42px;stroke-miterlimit:1.5;"/>
                                    </g>
                                    <g transform="matrix(1,0,0,1,0,6)">
                                        <g>
                                            <g transform="matrix(1,0,0,1,-3052.89,-922.535)">
                                                <circle cx="3278.36" cy="1071.94" r="20.772" style="fill:white;stroke:rgb(191,191,191);stroke-width:1.42px;stroke-miterlimit:1.5;"/>
                                            </g>
                                            <g transform="matrix(0.877333,0,0,0.877333,-2650.74,-791.044)">
                                                <circle cx="3278.36" cy="1071.94" r="20.772" style="fill:white;stroke:rgb(191,191,191);stroke-width:1.62px;stroke-miterlimit:1.5;"/>
                                            </g>
                                        </g>
                                    </g>
                                </g>
                                <g transform="matrix(1.16895,0,0,1.16895,23892.5,27379.3)">
                                    <g transform="matrix(1,0,0,1,-3055.82,-919.156)">
                                        <rect x="3259.03" y="1038.65" width="44.536" height="59.824" style="fill:white;stroke:rgb(191,191,191);stroke-width:1.42px;stroke-miterlimit:1.5;"/>
                                    </g>
                                    <g transform="matrix(1,0,0,1,0,6)">
                                        <g>
                                            <g transform="matrix(1,0,0,1,-3052.89,-922.535)">
                                                <circle cx="3278.36" cy="1071.94" r="20.772" style="fill:white;stroke:rgb(191,191,191);stroke-width:1.42px;stroke-miterlimit:1.5;"/>
                                            </g>
                                            <g transform="matrix(0.877333,0,0,0.877333,-2650.74,-791.044)">
                                                <circle cx="3278.36" cy="1071.94" r="20.772" style="fill:white;stroke:rgb(191,191,191);stroke-width:1.62px;stroke-miterlimit:1.5;"/>
                                            </g>
                                        </g>
                                    </g>
                                </g>
                                <g transform="matrix(1.16895,0,0,1.16895,23973.2,27287.2)">
                                    <g transform="matrix(1,0,0,1,-3055.82,-919.156)">
                                        <rect x="3259.03" y="1038.65" width="44.536" height="59.824" style="fill:white;stroke:rgb(191,191,191);stroke-width:1.42px;stroke-miterlimit:1.5;"/>
                                    </g>
                                    <g transform="matrix(1,0,0,1,0,6)">
                                        <g>
                                            <g transform="matrix(1,0,0,1,-3052.89,-922.535)">
                                                <circle cx="3278.36" cy="1071.94" r="20.772" style="fill:white;stroke:rgb(191,191,191);stroke-width:1.42px;stroke-miterlimit:1.5;"/>
                                            </g>
                                            <g transform="matrix(0.877333,0,0,0.877333,-2650.74,-791.044)">
                                                <circle cx="3278.36" cy="1071.94" r="20.772" style="fill:white;stroke:rgb(191,191,191);stroke-width:1.62px;stroke-miterlimit:1.5;"/>
                                            </g>
                                        </g>
                                    </g>
                                </g>
                                <g transform="matrix(0.318794,0,0,0.424225,17604.7,13492.9)">
                                    <path d="M20814,32909.5L20814,32975.8C20814,32979 20810.4,32981.7 20806,32981.7C20801.5,32981.7 20797.9,32979 20797.9,32975.8L20797.9,32909.5C20797.9,32906.2 20801.5,32903.6 20806,32903.6C20810.4,32903.6 20814,32906.2 20814,32909.5Z" style="fill:none;stroke:rgb(191,191,191);stroke-width:4.4px;stroke-miterlimit:10;"/>
                                </g>
                                <g transform="matrix(0.13155,0,0,0.175055,21500.5,21693.6)">
                                    <path d="M20814,32909.5L20814,32975.8C20814,32979 20810.4,32981.7 20806,32981.7C20801.5,32981.7 20797.9,32979 20797.9,32975.8L20797.9,32909.5C20797.9,32906.2 20801.5,32903.6 20806,32903.6C20810.4,32903.6 20814,32906.2 20814,32909.5Z" style="fill:rgb(191,191,191);"/>
                                </g>
                                <g transform="matrix(1.16895,0,0,1.16895,23973.2,27195.2)">
                                    <g transform="matrix(1,0,0,1,-3055.82,-919.156)">
                                        <rect x="3259.03" y="1038.65" width="44.536" height="59.824" style="fill:white;stroke:rgb(191,191,191);stroke-width:1.42px;stroke-miterlimit:1.5;"/>
                                    </g>
                                    <g transform="matrix(1,0,0,1,0,6)">
                                        <g>
                                            <g transform="matrix(1,0,0,1,-3052.89,-922.535)">
                                                <circle cx="3278.36" cy="1071.94" r="20.772" style="fill:white;stroke:rgb(191,191,191);stroke-width:1.42px;stroke-miterlimit:1.5;"/>
                                            </g>
                                            <g transform="matrix(0.877333,0,0,0.877333,-2650.74,-791.044)">
                                                <circle cx="3278.36" cy="1071.94" r="20.772" style="fill:white;stroke:rgb(191,191,191);stroke-width:1.62px;stroke-miterlimit:1.5;"/>
                                            </g>
                                        </g>
                                    </g>
                                </g>
                                <g transform="matrix(1.16895,0,0,1.16895,20600.4,25922.5)">
                                    <g>
                                        <g transform="matrix(-0.186086,0.713399,-0.707212,-0.176732,4556.45,-841.722)">
                                            <path d="M3390.68,1167.95L3392.42,1169.44L3391.59,1171.85L3394.75,1174.56L3396.93,1173.3L3398.63,1174.76L3388.83,1180.12L3387.14,1178.67L3390.68,1167.95ZM3390.97,1173.64L3389.57,1177.55L3393.13,1175.49L3390.97,1173.64Z" style="fill:rgb(115,115,115);fill-rule:nonzero;stroke:white;stroke-width:2.32px;"/>
                                            <path d="M3389.63,1166.62L3380.9,1172.31L3378.51,1168.55C3377.91,1167.61 3377.55,1166.87 3377.44,1166.34C3377.32,1165.82 3377.38,1165.29 3377.62,1164.77C3377.86,1164.26 3378.23,1163.83 3378.75,1163.49C3379.4,1163.06 3380.07,1162.91 3380.74,1163.02C3381.42,1163.13 3382.06,1163.54 3382.66,1164.24C3382.64,1163.71 3382.68,1163.23 3382.79,1162.81C3382.89,1162.38 3383.15,1161.74 3383.56,1160.87L3384.57,1158.68L3385.93,1160.81L3384.85,1163.34C3384.47,1164.24 3384.24,1164.83 3384.17,1165.11C3384.1,1165.4 3384.09,1165.65 3384.15,1165.89C3384.2,1166.12 3384.36,1166.44 3384.62,1166.85L3384.85,1167.21L3388.49,1164.84L3389.63,1166.62ZM3383.46,1168.12L3382.62,1166.8C3382.07,1165.94 3381.7,1165.43 3381.49,1165.27C3381.28,1165.1 3381.05,1165.01 3380.8,1165.01C3380.55,1165 3380.29,1165.08 3380.03,1165.25C3379.74,1165.44 3379.55,1165.68 3379.47,1165.95C3379.39,1166.23 3379.42,1166.53 3379.56,1166.85C3379.63,1167.01 3379.9,1167.45 3380.36,1168.17L3381.24,1169.56L3383.46,1168.12Z" style="fill:rgb(115,115,115);fill-rule:nonzero;stroke:white;stroke-width:2.32px;"/>
                                            <path d="M3383.86,1157.11L3373.89,1160.06L3372.65,1155.78C3372.34,1154.7 3372.21,1153.89 3372.24,1153.35C3372.28,1152.81 3372.49,1152.32 3372.86,1151.89C3373.23,1151.46 3373.71,1151.16 3374.3,1150.99C3375.05,1150.77 3375.73,1150.81 3376.35,1151.11C3376.96,1151.41 3377.46,1151.98 3377.85,1152.83C3377.97,1152.31 3378.14,1151.87 3378.37,1151.49C3378.59,1151.12 3379.01,1150.57 3379.65,1149.85L3381.24,1148.05L3381.94,1150.48L3380.2,1152.6C3379.57,1153.35 3379.19,1153.85 3379.04,1154.1C3378.9,1154.35 3378.82,1154.6 3378.81,1154.84C3378.79,1155.07 3378.86,1155.42 3378.99,1155.89L3379.11,1156.31L3383.27,1155.07L3383.86,1157.11ZM3377.52,1156.78L3377.08,1155.27C3376.8,1154.29 3376.58,1153.7 3376.43,1153.48C3376.28,1153.26 3376.08,1153.11 3375.85,1153.03C3375.61,1152.95 3375.34,1152.96 3375.04,1153.05C3374.7,1153.15 3374.46,1153.32 3374.3,1153.56C3374.15,1153.8 3374.09,1154.1 3374.14,1154.44C3374.16,1154.61 3374.29,1155.11 3374.53,1155.94L3374.99,1157.53L3377.52,1156.78Z" style="fill:rgb(115,115,115);fill-rule:nonzero;stroke:white;stroke-width:2.32px;"/>
                                            <path d="M3381.08,1146.33L3370.7,1146.49L3370.58,1138.7L3372.34,1138.67L3372.42,1144.34L3374.73,1144.3L3374.65,1139.03L3376.39,1139L3376.47,1144.28L3379.3,1144.23L3379.21,1138.37L3380.96,1138.34L3381.08,1146.33ZM3370.09,1145.15L3367.97,1143.68L3367.95,1141.81L3370.01,1140.3L3370.04,1141.92L3368.99,1142.76L3370.06,1143.52L3370.09,1145.15Z" style="fill:rgb(115,115,115);fill-rule:nonzero;stroke:white;stroke-width:2.32px;"/>
                                            <path d="M3381.83,1133.72L3373.44,1131.68L3372.72,1134.71L3371.01,1134.3L3372.94,1126.18L3374.65,1126.6L3373.93,1129.62L3382.32,1131.66L3381.83,1133.72Z" style="fill:rgb(115,115,115);fill-rule:nonzero;stroke:white;stroke-width:2.32px;"/>
                                        </g>
                                        <g transform="matrix(0.695129,0.170681,-0.180209,0.700641,925.16,-330.711)">
                                            <path d="M3530.98,1628.37L3534.06,1630.81C3534.76,1631.36 3535.24,1631.83 3535.52,1632.23C3535.9,1632.76 3536.11,1633.34 3536.17,1633.99C3536.22,1634.63 3536.13,1635.28 3535.88,1635.95C3535.64,1636.63 3535.2,1637.35 3534.58,1638.12C3534.03,1638.81 3533.47,1639.32 3532.9,1639.68C3532.2,1640.12 3531.51,1640.37 3530.82,1640.43C3530.3,1640.48 3529.73,1640.39 3529.11,1640.15C3528.64,1639.98 3528.1,1639.64 3527.47,1639.15L3524.3,1636.64L3530.98,1628.37ZM3531.53,1631.11L3527.11,1636.58L3528.37,1637.58C3528.84,1637.95 3529.2,1638.19 3529.45,1638.3C3529.78,1638.45 3530.1,1638.52 3530.41,1638.5C3530.72,1638.48 3531.09,1638.33 3531.5,1638.05C3531.91,1637.77 3532.38,1637.31 3532.89,1636.67C3533.41,1636.03 3533.75,1635.5 3533.91,1635.07C3534.07,1634.63 3534.13,1634.24 3534.08,1633.89C3534.03,1633.53 3533.87,1633.2 3533.61,1632.88C3533.42,1632.64 3532.98,1632.25 3532.29,1631.7L3531.53,1631.11Z" style="fill:rgb(115,115,115);fill-rule:nonzero;stroke:white;stroke-width:2.37px;"/>
                                            <path d="M3538.36,1638.26L3538.97,1636.35L3539.83,1634.78L3541.79,1635.83L3540.93,1637.4L3539.68,1638.98L3538.36,1638.26Z" style="fill:rgb(115,115,115);fill-rule:nonzero;stroke:white;stroke-width:2.37px;"/>
                                            <path d="M3543.79,1636.99L3545.85,1637.65L3544.05,1643.1C3543.77,1643.97 3543.61,1644.53 3543.58,1644.81C3543.53,1645.25 3543.63,1645.64 3543.88,1646C3544.12,1646.36 3544.54,1646.63 3545.11,1646.81C3545.69,1647 3546.17,1647.02 3546.54,1646.88C3546.92,1646.74 3547.19,1646.51 3547.36,1646.19C3547.54,1645.86 3547.75,1645.3 3548.02,1644.51L3549.85,1638.94L3551.9,1639.6L3550.16,1644.89C3549.76,1646.1 3549.43,1646.93 3549.15,1647.39C3548.88,1647.86 3548.53,1648.21 3548.12,1648.46C3547.71,1648.71 3547.22,1648.85 3546.66,1648.89C3546.09,1648.94 3545.4,1648.83 3544.6,1648.57C3543.63,1648.26 3542.93,1647.91 3542.5,1647.52C3542.07,1647.14 3541.77,1646.72 3541.6,1646.28C3541.42,1645.83 3541.35,1645.39 3541.39,1644.97C3541.44,1644.36 3541.66,1643.48 3542.03,1642.36L3543.79,1636.99Z" style="fill:rgb(115,115,115);fill-rule:nonzero;stroke:white;stroke-width:2.37px;"/>
                                            <path d="M3553.59,1650.64L3554.1,1640.07L3558.64,1640.28C3559.78,1640.34 3560.6,1640.47 3561.11,1640.68C3561.62,1640.9 3562.02,1641.26 3562.31,1641.76C3562.59,1642.26 3562.72,1642.82 3562.69,1643.44C3562.65,1644.24 3562.39,1644.88 3561.89,1645.37C3561.39,1645.87 3560.68,1646.16 3559.73,1646.25C3560.18,1646.54 3560.56,1646.86 3560.84,1647.19C3561.13,1647.53 3561.51,1648.12 3561.99,1648.97L3563.2,1651.09L3560.62,1650.97L3559.17,1648.6C3558.65,1647.75 3558.3,1647.21 3558.1,1646.99C3557.91,1646.77 3557.7,1646.61 3557.48,1646.52C3557.25,1646.43 3556.89,1646.37 3556.4,1646.35L3555.96,1646.33L3555.75,1650.74L3553.59,1650.64ZM3556.04,1644.64L3557.64,1644.72C3558.67,1644.76 3559.32,1644.75 3559.58,1644.68C3559.84,1644.6 3560.05,1644.46 3560.21,1644.26C3560.36,1644.05 3560.45,1643.79 3560.46,1643.48C3560.48,1643.12 3560.4,1642.83 3560.22,1642.6C3560.03,1642.37 3559.77,1642.22 3559.42,1642.15C3559.25,1642.12 3558.73,1642.08 3557.85,1642.04L3556.17,1641.96L3556.04,1644.64Z" style="fill:rgb(115,115,115);fill-rule:nonzero;stroke:white;stroke-width:2.37px;"/>
                                            <path d="M3571.22,1645.96L3570.85,1644.22L3575.41,1643.28L3576.27,1647.41C3575.92,1647.93 3575.35,1648.43 3574.58,1648.93C3573.81,1649.42 3572.99,1649.76 3572.13,1649.93C3571.03,1650.16 3570.03,1650.12 3569.12,1649.84C3568.21,1649.55 3567.46,1649.02 3566.88,1648.26C3566.29,1647.5 3565.89,1646.62 3565.69,1645.63C3565.46,1644.55 3565.49,1643.54 3565.77,1642.61C3566.05,1641.68 3566.59,1640.9 3567.38,1640.27C3567.98,1639.79 3568.78,1639.44 3569.78,1639.24C3571.08,1638.97 3572.15,1639.04 3572.99,1639.43C3573.84,1639.82 3574.46,1640.47 3574.87,1641.38L3572.85,1642.19C3572.6,1641.71 3572.24,1641.37 3571.77,1641.16C3571.3,1640.95 3570.76,1640.9 3570.15,1641.03C3569.23,1641.22 3568.55,1641.66 3568.13,1642.35C3567.7,1643.04 3567.61,1643.95 3567.85,1645.1C3568.11,1646.33 3568.57,1647.19 3569.26,1647.69C3569.94,1648.19 3570.72,1648.36 3571.62,1648.17C3572.06,1648.08 3572.49,1647.9 3572.9,1647.64C3573.31,1647.38 3573.65,1647.09 3573.91,1646.78L3573.64,1645.47L3571.22,1645.96Z" style="fill:rgb(115,115,115);fill-rule:nonzero;stroke:white;stroke-width:2.37px;"/>
                                            <path d="M3581.06,1647.16L3576.25,1637.71L3583.34,1634.19L3584.15,1635.79L3578.99,1638.35L3580.06,1640.45L3584.86,1638.06L3585.66,1639.65L3580.87,1642.04L3582.18,1644.61L3587.51,1641.95L3588.32,1643.55L3581.06,1647.16Z" style="fill:rgb(115,115,115);fill-rule:nonzero;stroke:white;stroke-width:2.37px;"/>
                                            <path d="M3592.22,1641.01L3585.26,1632.97L3586.86,1631.62L3594.83,1634.17L3590.18,1628.8L3591.71,1627.51L3598.66,1635.55L3597.02,1636.94L3589.21,1634.47L3593.74,1639.71L3592.22,1641.01Z" style="fill:rgb(115,115,115);fill-rule:nonzero;stroke:white;stroke-width:2.37px;"/>
                                            <path d="M3602.79,1624.06L3604.53,1622.75C3605.31,1623.67 3605.71,1624.6 3605.74,1625.52C3605.78,1626.45 3605.46,1627.38 3604.8,1628.31C3603.99,1629.45 3602.92,1630.12 3601.6,1630.31C3600.28,1630.5 3598.93,1630.12 3597.56,1629.16C3596.1,1628.15 3595.23,1626.99 3594.95,1625.68C3594.68,1624.38 3594.97,1623.12 3595.83,1621.91C3596.58,1620.85 3597.51,1620.21 3598.61,1619.99C3599.27,1619.85 3600.01,1619.93 3600.85,1620.22L3600.04,1622.24C3599.52,1622.03 3599.01,1621.99 3598.51,1622.14C3598.02,1622.28 3597.61,1622.58 3597.28,1623.05C3596.82,1623.69 3596.68,1624.37 3596.87,1625.09C3597.05,1625.82 3597.66,1626.54 3598.7,1627.27C3599.81,1628.04 3600.74,1628.39 3601.49,1628.32C3602.24,1628.25 3602.83,1627.9 3603.28,1627.27C3603.61,1626.81 3603.74,1626.31 3603.68,1625.76C3603.62,1625.22 3603.33,1624.65 3602.79,1624.06Z" style="fill:rgb(115,115,115);fill-rule:nonzero;stroke:white;stroke-width:2.37px;"/>
                                            <path d="M3609.34,1620.5L3599.35,1616.72L3602.18,1609.39L3603.87,1610.03L3601.81,1615.36L3604.02,1616.2L3605.94,1611.24L3607.63,1611.88L3605.71,1616.84L3608.42,1617.87L3610.56,1612.35L3612.24,1612.99L3609.34,1620.5Z" style="fill:rgb(115,115,115);fill-rule:nonzero;stroke:white;stroke-width:2.37px;"/>
                                        </g>
                                        <g transform="matrix(1,0,0,1,-2.28864,0.968388)">
                                            <g transform="matrix(0.608229,-0.10285,0.10285,0.608229,917.292,1052.67)">
                                                <circle cx="3420.02" cy="1141.73" r="39" style="fill:none;stroke:rgb(191,191,191);stroke-width:2.3px;stroke-miterlimit:1.5;"/>
                                            </g>
                                            <g transform="matrix(0.620377,-0.104904,0.104242,0.616465,828.622,949.756)">
                                                <g transform="matrix(2.68802,0.457421,-0.446785,2.65895,2344.54,386.749)">
                                                    <path d="M449.566,270.205L454.283,274.258L454.695,268.053L449.566,270.205Z" style="fill:rgb(191,191,191);"/>
                                                    <path d="M467.171,258.225L461.134,259.717L465.949,263.651L467.171,258.225Z" style="fill:rgb(191,191,191);"/>
                                                    <path d="M466.868,279.45L468.964,273.595L463.022,275.431L466.868,279.45Z" style="fill:rgb(191,191,191);"/>
                                                    <path d="M452.561,270.155C451.884,265.705 454.551,261.481 458.691,260.144M465.475,260.694C466.182,261.058 466.839,261.516 467.427,262.055C468.863,263.369 469.888,265.164 470.234,267.245C470.479,268.724 470.355,270.181 469.928,271.518M465.749,276.671C464.883,277.159 463.922,277.509 462.89,277.687C460.318,278.129 457.815,277.413 455.906,275.912" style="fill:none;stroke:rgb(191,191,191);stroke-width:0.83px;stroke-miterlimit:1.5;"/>
                                                </g>
                                            </g>
                                        </g>
                                    </g>
                                    <g transform="matrix(1.05998,0,0,1.05998,-512.548,186.122)">
                                        <circle cx="3420.02" cy="1141.73" r="39" style="fill:none;stroke:rgb(191,191,191);stroke-width:1.34px;stroke-miterlimit:1.5;"/>
                                    </g>
                                </g>
                            </g>
                        </g>
                        <g transform="matrix(0.487805,0,0,0.625,-9047.12,-15720)">
                            <rect x="18925" y="25363.9" width="264.684" height="15.861" style="fill:white;stroke:rgb(191,191,191);stroke-width:2.43px;stroke-linecap:round;stroke-miterlimit:10;"/>
                        </g>
                        <g id="path2636" transform="matrix(0.854931,0,0,-1.09538,-10.8465,423.534)">
                            <rect x="421.839" y="166.184" width="20.469" height="20.397" style="fill:none;stroke:rgb(128,128,128);stroke-width:0.48px;"/>
                        </g>
                    </g>
                </g>
            </g>
            <g transform="matrix(0.584924,0,0,0.625,-13565.8,-21658.2)">
                <rect x="23904.5" y="34718.9" width="453.988" height="341.005" style="fill:none;"/>
                <clipPath id="_clip2">
                    <rect x="23904.5" y="34718.9" width="453.988" height="341.005"/>
                </clipPath>
                <g clip-path="url(#_clip2)">
                    <g transform="matrix(2.05202,0,0,1.92044,23406.3,34575.7)">
                        <g id="path31241" serif:id="path3124" transform="matrix(0.854931,0,0,-1.09538,-11.1189,423.534)">
                            <path d="M279.526,256.166L279.526,251.195L297.51,251.195L297.51,247.32L344.077,247.32L344.077,251.195L329.602,251.195L329.602,256.604L279.38,256.604L279.526,256.166Z" style="fill:rgb(191,191,191);stroke:rgb(191,191,191);stroke-width:0.48px;"/>
                        </g>
                        <g id="path2944" transform="matrix(0.534925,-1.20223e-14,6.39265e-15,-99.0731,52.8018,27699.1)">
                            <path d="M200.366,277.363L200.366,278.386L221.42,278.386L221.42,277.363L200.366,277.363ZM201.126,277.368L220.66,277.368L220.66,278.381L201.126,278.381L201.126,277.368Z" style="fill:rgb(204,204,204);"/>
                        </g>
                        <g transform="matrix(0.487805,0,0,0.625,-9059.86,-20515.3)">
                            <g id="path8525" serif:id="path852" transform="matrix(1.75261,0,0,-1.75261,18549.9,33502.2)">
                                <rect x="409.705" y="269.833" width="6.799" height="8.042" style="fill:rgb(240,240,240);stroke:black;stroke-width:1.58px;"/>
                            </g>
                            <g id="path8526" serif:id="path852" transform="matrix(1.75261,0,0,-1.75261,18476.7,33502.2)">
                                <rect x="409.705" y="269.833" width="6.799" height="8.042" style="fill:rgb(240,240,240);stroke:black;stroke-width:1.58px;"/>
                            </g>
                            <g id="path8565" serif:id="path856" transform="matrix(1.75261,0,0,-1.75261,18549.9,33502.2)">
                                <rect x="408.025" y="247.829" width="10.161" height="22.225" style="fill:rgb(240,240,240);stroke:black;stroke-width:1.58px;"/>
                            </g>
                            <g id="path8566" serif:id="path856" transform="matrix(1.75261,0,0,-1.75261,18476.7,33502.2)">
                                <rect x="408.025" y="247.829" width="10.161" height="22.225" style="fill:rgb(240,240,240);stroke:black;stroke-width:1.58px;"/>
                            </g>
                        </g>
                        <g transform="matrix(0.487805,0,0,0.625,-9059.86,-20515.3)">
                            <g id="path8527" serif:id="path852" transform="matrix(1.75261,0,0,-1.75261,18580.8,33502.2)">
                                <rect x="409.705" y="269.833" width="6.799" height="8.042" style="fill:rgb(240,240,240);stroke:black;stroke-width:1.58px;"/>
                            </g>
                            <g id="path8567" serif:id="path856" transform="matrix(1.75261,0,0,-1.75261,18580.8,33502.2)">
                                <rect x="408.025" y="247.829" width="10.161" height="22.225" style="fill:rgb(240,240,240);stroke:black;stroke-width:1.58px;"/>
                            </g>
                        </g>
                        <g transform="matrix(0.487805,0,0,0.625,-9055.76,-20515.3)">
                            <g id="path10741" serif:id="path1074" transform="matrix(-1.75261,-2.14633e-16,-2.14633e-16,1.75261,19645.6,32666.7)">
                                <rect x="91.092" y="224.219" width="59.214" height="28.292" style="fill:white;stroke:rgb(140,140,140);stroke-width:0.48px;"/>
                            </g>
                            <g id="path10781" serif:id="path1078" transform="matrix(-1.75261,-2.14633e-16,-2.14633e-16,1.75261,19645.6,32666.7)">
                                <path d="M106.333,248.053C111.48,248.053 115.653,243.879 115.653,238.731C115.653,233.584 111.48,229.41 106.333,229.41C101.186,229.41 97.012,233.584 97.012,238.731C97.012,243.879 101.186,248.053 106.333,248.053" style="fill:white;stroke:rgb(115,115,115);stroke-width:0.48px;"/>
                            </g>
                            <g id="path10821" serif:id="path1082" transform="matrix(-1.75261,-2.14633e-16,-2.14633e-16,1.75261,19645.4,32666.4)">
                                <path d="M106.186,244.032C109.032,244.032 111.34,241.724 111.34,238.878C111.34,236.032 109.032,233.724 106.186,233.724C103.34,233.724 101.032,236.032 101.032,238.878C101.032,241.724 103.34,244.032 106.186,244.032" style="fill:white;stroke:rgb(140,140,140);stroke-width:0.48px;"/>
                            </g>
                            <g id="path10861" serif:id="path1086" transform="matrix(-1.75261,-2.14633e-16,-2.14633e-16,1.75261,19645.6,32666.7)">
                                <path d="M127.492,240.158C128.26,240.158 128.881,239.536 128.881,238.769C128.881,238.002 128.26,237.38 127.492,237.38C126.725,237.38 126.104,238.002 126.104,238.769C126.104,239.536 126.725,240.158 127.492,240.158" style="fill:white;stroke:rgb(115,115,115);stroke-width:0.48px;"/>
                            </g>
                            <g id="path10901" serif:id="path1090" transform="matrix(-1.75261,-2.14633e-16,-2.14633e-16,1.75261,19645.6,32666.7)">
                                <path d="M141.599,240.158C142.366,240.158 142.988,239.536 142.988,238.769C142.988,238.002 142.366,237.38 141.599,237.38C140.832,237.38 140.21,238.002 140.21,238.769C140.21,239.536 140.832,240.158 141.599,240.158" style="fill:white;stroke:rgb(115,115,115);stroke-width:0.48px;"/>
                            </g>
                        </g>
                        <g id="path26141" serif:id="path2614" transform="matrix(0.854931,0,0,-1.09538,-11.1189,423.534)">
                            <path d="M150.224,227.221L464.569,227.221" style="fill:none;fill-rule:nonzero;stroke:rgb(191,191,191);stroke-width:0.22px;stroke-linejoin:miter;stroke-miterlimit:10;"/>
                        </g>
                        <g id="path26221" serif:id="path2622" transform="matrix(0.854931,0,0,-1.09538,-11.1189,423.534)">
                            <path d="M150.224,247.321L464.13,247.321" style="fill:none;fill-rule:nonzero;stroke:rgb(191,191,191);stroke-width:0.22px;stroke-linejoin:miter;stroke-miterlimit:10;"/>
                        </g>
                        <g id="path2624" transform="matrix(0.854931,0,0,-1.09538,-10.8373,423.534)">
                            <rect x="167.84" y="166.038" width="20.469" height="20.397" style="fill:none;stroke:rgb(191,191,191);stroke-width:0.48px;"/>
                        </g>
                        <g id="path26281" serif:id="path2628" transform="matrix(0.854931,0,0,-1.09538,-11.1189,423.534)">
                            <path d="M422.132,227.075L422.132,166.177" style="fill:none;fill-rule:nonzero;stroke:rgb(204,204,204);stroke-width:0.22px;stroke-linejoin:miter;stroke-miterlimit:10;"/>
                        </g>
                        <g id="path26441" serif:id="path2644" transform="matrix(0.842638,0,0,-1.09538,-6.45074,423.534)">
                            <path d="M185.967,185.85L422.676,185.85" style="fill:none;fill-rule:nonzero;stroke:rgb(191,191,191);stroke-width:0.22px;stroke-linejoin:miter;stroke-miterlimit:10;"/>
                        </g>
                        <g id="path27021" serif:id="path2702" transform="matrix(1.00686,2.38386e-17,-1.86057e-17,-1.09538,-70.7435,423.534)">
                            <rect x="392.456" y="256.604" width="124.568" height="5.556" style="fill:rgb(153,153,153);"/>
                        </g>
                        <g id="path29501" serif:id="path2950" transform="matrix(0.854931,0,0,-1.09538,-11.1189,423.534)">
                            <rect x="300.87" y="231.53" width="6.799" height="15.645" style="fill:white;stroke:rgb(191,191,191);stroke-width:0.48px;"/>
                        </g>
                        <g id="path29701" serif:id="path2970" transform="matrix(2.10462,1.62612e-16,-1.26917e-16,-1.36872,-386.382,497.47)">
                            <rect x="300.285" y="266.398" width="4.24" height="4.094" style="fill:none;stroke:rgb(191,191,191);stroke-width:0.24px;"/>
                        </g>
                        <g id="path29841" serif:id="path2984" transform="matrix(0.854931,0,0,-1.09538,-11.1189,423.534)">
                            <rect x="335.808" y="242.79" width="3.801" height="4.533" style="fill:rgb(191,191,191);stroke:rgb(191,191,191);stroke-width:0.48px;"/>
                        </g>
                        <g id="path3108" transform="matrix(0.854931,-1.32515e-16,1.03426e-16,-2.17744,-11.1189,671.931)">
                            <rect x="199.051" y="229.559" width="66.524" height="7.091" style="fill:rgb(191,191,191);stroke:rgb(191,191,191);stroke-width:0.3px;"/>
                        </g>
                        <g id="path31301" serif:id="path3130" transform="matrix(0.854931,0,0,-1.09538,-11.1189,423.534)">
                            <rect x="265.492" y="234.895" width="61.114" height="4.167" style="fill:rgb(191,191,191);stroke:rgb(191,191,191);stroke-width:0.48px;"/>
                        </g>
                        <g id="path31341" serif:id="path3134" transform="matrix(0.854931,0,0,-1.09538,-11.1189,423.534)">
                            <rect x="242.029" y="185.918" width="140.505" height="28.365" style="fill:rgb(224,224,224);"/>
                        </g>
                        <g id="path31361" serif:id="path3136" transform="matrix(0.854931,0,0,-1.09538,-17.906,423.534)">
                            <path d="M242.029,214.576L241.956,214.576L241.883,214.503L241.81,214.503L241.81,214.43L241.737,214.356L241.737,185.845L241.81,185.772L241.81,185.698L241.883,185.698L241.956,185.625L382.607,185.625L382.68,185.698L382.753,185.698L382.753,185.772L382.827,185.845L382.827,214.356L382.753,214.43L382.753,214.503L382.68,214.503L382.607,214.576L242.029,214.576L242.029,213.991L382.534,213.991L382.242,214.283L382.242,185.918L382.534,186.21L242.029,186.21L242.322,185.918L242.322,214.283L242.029,213.991L242.029,214.576Z" style="fill:rgb(191,191,191);"/>
                        </g>
                        <g id="path31381" serif:id="path3138" transform="matrix(0.854931,0,0,-1.09538,-17.906,423.534)">
                            <rect x="241.591" y="207.267" width="141.016" height="0.585" style="fill:rgb(191,191,191);"/>
                        </g>
                        <g id="path3144" transform="matrix(2.56321,2.68042e-16,-2.09203e-16,-1.09538,-350.778,423.467)">
                            <rect x="193.276" y="231.239" width="5.619" height="10.893" style="fill:rgb(191,191,191);stroke:rgb(191,191,191);stroke-width:0.21px;"/>
                        </g>
                        <g id="path3148" transform="matrix(1.68968,1.30978e-16,-1.02227e-16,-1.09538,-160.191,423.534)">
                            <rect x="178.584" y="234.602" width="6.872" height="4.313" style="fill:rgb(191,191,191);stroke:rgb(191,191,191);stroke-width:0.3px;"/>
                        </g>
                        <g transform="matrix(0.487805,0,0,0.625,-9059.86,-20515.3)">
                            <rect x="19036.4" y="33137.7" width="95.375" height="29.565" style="fill:rgb(179,179,179);"/>
                            <path d="M19131.8,33137.7L19131.8,33167.2L19036.4,33167.2L19036.4,33137.7L19131.8,33137.7ZM19129.4,33140.1L19038.9,33140.1L19038.9,33164.8L19129.4,33164.8L19129.4,33140.1Z" style="fill:rgb(179,179,179);"/>
                        </g>
                        <g transform="matrix(0.487805,0,0,0.625,-9059.72,-20516.8)">
                            <path d="M19159.2,33083.6L19159.2,33096C19147.4,33103.3 19134.8,33103.7 19121.4,33096L19121.4,33083.6C19135,33076.7 19147.5,33076.9 19159.2,33083.6Z" style="fill:rgb(252,252,252);"/>
                            <path d="M19159.2,33083.6L19159.2,33096C19147.4,33103.3 19134.8,33103.7 19121.4,33096L19121.4,33083.6C19135,33076.7 19147.5,33076.9 19159.2,33083.6ZM19158.1,33084.2C19147.1,33078.1 19135.2,33077.9 19122.5,33084.2L19122.5,33095.4C19135.1,33102.5 19147,33102.1 19158.1,33095.5L19158.1,33084.2Z" style="fill:rgb(191,191,191);"/>
                        </g>
                        <g transform="matrix(0.487805,0,0,0.622234,-9059.86,-20424.8)">
                            <rect x="19060" y="33097.2" width="44.264" height="30.781" style="fill:rgb(204,204,204);"/>
                            <path d="M19104.2,33097.2L19104.2,33128L19060,33128L19060,33097.2L19104.2,33097.2ZM19103.2,33098.3L19061,33098.3L19061,33127L19103.2,33127L19103.2,33098.3Z" style="fill:rgb(204,204,204);"/>
                        </g>
                        <g transform="matrix(0.202692,0,0,0.264204,-4504.99,-7099.76)">
                            <g>
                                <g transform="matrix(1.16895,0,0,1.16895,20245.8,26222.9)">
                                    <path d="M3474.37,943.946L3474.37,1194.28C3474.37,1198.27 3471.08,1201.5 3467.02,1201.5L3236.68,1201.5C3232.62,1201.5 3229.33,1198.27 3229.33,1194.28L3229.33,943.946C3229.33,939.958 3232.62,936.72 3236.68,936.72L3467.02,936.72C3471.08,936.72 3474.37,939.958 3474.37,943.946Z" style="fill:white;stroke:rgb(191,191,191);stroke-width:4.96px;stroke-miterlimit:1.5;"/>
                                </g>
                                <g transform="matrix(1.16895,0,0,1.16895,23817.9,27287.2)">
                                    <g transform="matrix(1,0,0,1,-3055.82,-919.156)">
                                        <rect x="3259.03" y="1038.65" width="44.536" height="59.824" style="fill:white;stroke:rgb(191,191,191);stroke-width:1.42px;stroke-miterlimit:1.5;"/>
                                    </g>
                                    <g transform="matrix(1,0,0,1,0,6)">
                                        <g>
                                            <g transform="matrix(1,0,0,1,-3052.89,-922.535)">
                                                <circle cx="3278.36" cy="1071.94" r="20.772" style="fill:white;stroke:rgb(191,191,191);stroke-width:1.42px;stroke-miterlimit:1.5;"/>
                                            </g>
                                            <g transform="matrix(0.877333,0,0,0.877333,-2650.74,-791.044)">
                                                <circle cx="3278.36" cy="1071.94" r="20.772" style="fill:white;stroke:rgb(191,191,191);stroke-width:1.62px;stroke-miterlimit:1.5;"/>
                                            </g>
                                        </g>
                                    </g>
                                </g>
                                <g transform="matrix(1.16895,0,0,1.16895,23817.9,27195.4)">
                                    <g transform="matrix(1,0,0,1,-3055.82,-919.156)">
                                        <rect x="3259.03" y="1038.65" width="44.536" height="59.824" style="fill:white;stroke:rgb(191,191,191);stroke-width:1.42px;stroke-miterlimit:1.5;"/>
                                    </g>
                                    <g transform="matrix(1,0,0,1,0,6)">
                                        <g>
                                            <g transform="matrix(1,0,0,1,-3052.89,-922.535)">
                                                <circle cx="3278.36" cy="1071.94" r="20.772" style="fill:white;stroke:rgb(191,191,191);stroke-width:1.42px;stroke-miterlimit:1.5;"/>
                                            </g>
                                            <g transform="matrix(0.877333,0,0,0.877333,-2650.74,-791.044)">
                                                <circle cx="3278.36" cy="1071.94" r="20.772" style="fill:white;stroke:rgb(191,191,191);stroke-width:1.62px;stroke-miterlimit:1.5;"/>
                                            </g>
                                        </g>
                                    </g>
                                </g>
                                <g transform="matrix(1.16895,0,0,1.16895,23817.9,27379.3)">
                                    <g transform="matrix(1,0,0,1,-3055.82,-919.156)">
                                        <rect x="3259.03" y="1038.65" width="44.536" height="59.824" style="fill:white;stroke:rgb(191,191,191);stroke-width:1.42px;stroke-miterlimit:1.5;"/>
                                    </g>
                                    <g transform="matrix(1,0,0,1,0,6)">
                                        <g>
                                            <g transform="matrix(1,0,0,1,-3052.89,-922.535)">
                                                <circle cx="3278.36" cy="1071.94" r="20.772" style="fill:white;stroke:rgb(191,191,191);stroke-width:1.42px;stroke-miterlimit:1.5;"/>
                                            </g>
                                            <g transform="matrix(0.877333,0,0,0.877333,-2650.74,-791.044)">
                                                <circle cx="3278.36" cy="1071.94" r="20.772" style="fill:white;stroke:rgb(191,191,191);stroke-width:1.62px;stroke-miterlimit:1.5;"/>
                                            </g>
                                        </g>
                                    </g>
                                </g>
                                <g transform="matrix(1.16895,0,0,1.16895,23892.5,27287.2)">
                                    <g transform="matrix(1,0,0,1,-3055.82,-919.156)">
                                        <rect x="3259.03" y="1038.65" width="44.536" height="59.824" style="fill:white;stroke:rgb(191,191,191);stroke-width:1.42px;stroke-miterlimit:1.5;"/>
                                    </g>
                                    <g transform="matrix(1,0,0,1,0,6)">
                                        <g>
                                            <g transform="matrix(1,0,0,1,-3052.89,-922.535)">
                                                <circle cx="3278.36" cy="1071.94" r="20.772" style="fill:white;stroke:rgb(191,191,191);stroke-width:1.42px;stroke-miterlimit:1.5;"/>
                                            </g>
                                            <g transform="matrix(0.877333,0,0,0.877333,-2650.74,-791.044)">
                                                <circle cx="3278.36" cy="1071.94" r="20.772" style="fill:white;stroke:rgb(191,191,191);stroke-width:1.62px;stroke-miterlimit:1.5;"/>
                                            </g>
                                        </g>
                                    </g>
                                </g>
                                <g transform="matrix(1.16895,0,0,1.16895,23892.5,27195)">
                                    <g transform="matrix(1,0,0,1,-3055.82,-919.156)">
                                        <rect x="3259.03" y="1038.65" width="44.536" height="59.824" style="fill:white;stroke:rgb(191,191,191);stroke-width:1.42px;stroke-miterlimit:1.5;"/>
                                    </g>
                                    <g transform="matrix(1,0,0,1,0,6)">
                                        <g>
                                            <g transform="matrix(1,0,0,1,-3052.89,-922.535)">
                                                <circle cx="3278.36" cy="1071.94" r="20.772" style="fill:white;stroke:rgb(191,191,191);stroke-width:1.42px;stroke-miterlimit:1.5;"/>
                                            </g>
                                            <g transform="matrix(0.877333,0,0,0.877333,-2650.74,-791.044)">
                                                <circle cx="3278.36" cy="1071.94" r="20.772" style="fill:white;stroke:rgb(191,191,191);stroke-width:1.62px;stroke-miterlimit:1.5;"/>
                                            </g>
                                        </g>
                                    </g>
                                </g>
                                <g transform="matrix(1.16895,0,0,1.16895,23892.5,27379.3)">
                                    <g transform="matrix(1,0,0,1,-3055.82,-919.156)">
                                        <rect x="3259.03" y="1038.65" width="44.536" height="59.824" style="fill:white;stroke:rgb(191,191,191);stroke-width:1.42px;stroke-miterlimit:1.5;"/>
                                    </g>
                                    <g transform="matrix(1,0,0,1,0,6)">
                                        <g>
                                            <g transform="matrix(1,0,0,1,-3052.89,-922.535)">
                                                <circle cx="3278.36" cy="1071.94" r="20.772" style="fill:white;stroke:rgb(191,191,191);stroke-width:1.42px;stroke-miterlimit:1.5;"/>
                                            </g>
                                            <g transform="matrix(0.877333,0,0,0.877333,-2650.74,-791.044)">
                                                <circle cx="3278.36" cy="1071.94" r="20.772" style="fill:white;stroke:rgb(191,191,191);stroke-width:1.62px;stroke-miterlimit:1.5;"/>
                                            </g>
                                        </g>
                                    </g>
                                </g>
                                <g transform="matrix(1.16895,0,0,1.16895,23973.2,27287.2)">
                                    <g transform="matrix(1,0,0,1,-3055.82,-919.156)">
                                        <rect x="3259.03" y="1038.65" width="44.536" height="59.824" style="fill:white;stroke:rgb(191,191,191);stroke-width:1.42px;stroke-miterlimit:1.5;"/>
                                    </g>
                                    <g transform="matrix(1,0,0,1,0,6)">
                                        <g>
                                            <g transform="matrix(1,0,0,1,-3052.89,-922.535)">
                                                <circle cx="3278.36" cy="1071.94" r="20.772" style="fill:white;stroke:rgb(191,191,191);stroke-width:1.42px;stroke-miterlimit:1.5;"/>
                                            </g>
                                            <g transform="matrix(0.877333,0,0,0.877333,-2650.74,-791.044)">
                                                <circle cx="3278.36" cy="1071.94" r="20.772" style="fill:white;stroke:rgb(191,191,191);stroke-width:1.62px;stroke-miterlimit:1.5;"/>
                                            </g>
                                        </g>
                                    </g>
                                </g>
                                <g transform="matrix(0.318794,0,0,0.424225,17604.7,13492.9)">
                                    <path d="M20814,32909.5L20814,32975.8C20814,32979 20810.4,32981.7 20806,32981.7C20801.5,32981.7 20797.9,32979 20797.9,32975.8L20797.9,32909.5C20797.9,32906.2 20801.5,32903.6 20806,32903.6C20810.4,32903.6 20814,32906.2 20814,32909.5Z" style="fill:none;stroke:rgb(191,191,191);stroke-width:4.4px;stroke-miterlimit:10;"/>
                                </g>
                                <g transform="matrix(0.13155,0,0,0.175055,21500.5,21693.6)">
                                    <path d="M20814,32909.5L20814,32975.8C20814,32979 20810.4,32981.7 20806,32981.7C20801.5,32981.7 20797.9,32979 20797.9,32975.8L20797.9,32909.5C20797.9,32906.2 20801.5,32903.6 20806,32903.6C20810.4,32903.6 20814,32906.2 20814,32909.5Z" style="fill:rgb(191,191,191);"/>
                                </g>
                                <g transform="matrix(1.16895,0,0,1.16895,23973.2,27195.2)">
                                    <g transform="matrix(1,0,0,1,-3055.82,-919.156)">
                                        <rect x="3259.03" y="1038.65" width="44.536" height="59.824" style="fill:white;stroke:rgb(191,191,191);stroke-width:1.42px;stroke-miterlimit:1.5;"/>
                                    </g>
                                    <g transform="matrix(1,0,0,1,0,6)">
                                        <g>
                                            <g transform="matrix(1,0,0,1,-3052.89,-922.535)">
                                                <circle cx="3278.36" cy="1071.94" r="20.772" style="fill:white;stroke:rgb(191,191,191);stroke-width:1.42px;stroke-miterlimit:1.5;"/>
                                            </g>
                                            <g transform="matrix(0.877333,0,0,0.877333,-2650.74,-791.044)">
                                                <circle cx="3278.36" cy="1071.94" r="20.772" style="fill:white;stroke:rgb(191,191,191);stroke-width:1.62px;stroke-miterlimit:1.5;"/>
                                            </g>
                                        </g>
                                    </g>
                                </g>
                                <g transform="matrix(1.16895,0,0,1.16895,20600.4,25922.5)">
                                    <g>
                                        <g transform="matrix(-0.186086,0.713399,-0.707212,-0.176732,4556.45,-841.722)">
                                            <path d="M3390.68,1167.95L3392.42,1169.44L3391.59,1171.85L3394.75,1174.56L3396.93,1173.3L3398.63,1174.76L3388.83,1180.12L3387.14,1178.67L3390.68,1167.95ZM3390.97,1173.64L3389.57,1177.55L3393.13,1175.49L3390.97,1173.64Z" style="fill:rgb(115,115,115);fill-rule:nonzero;stroke:white;stroke-width:2.32px;"/>
                                            <path d="M3389.63,1166.62L3380.9,1172.31L3378.51,1168.55C3377.91,1167.61 3377.55,1166.87 3377.44,1166.34C3377.32,1165.82 3377.38,1165.29 3377.62,1164.77C3377.86,1164.26 3378.23,1163.83 3378.75,1163.49C3379.4,1163.06 3380.07,1162.91 3380.74,1163.02C3381.42,1163.13 3382.06,1163.54 3382.66,1164.24C3382.64,1163.71 3382.68,1163.23 3382.79,1162.81C3382.89,1162.38 3383.15,1161.74 3383.56,1160.87L3384.57,1158.68L3385.93,1160.81L3384.85,1163.34C3384.47,1164.24 3384.24,1164.83 3384.17,1165.11C3384.1,1165.4 3384.09,1165.65 3384.15,1165.89C3384.2,1166.12 3384.36,1166.44 3384.62,1166.85L3384.85,1167.21L3388.49,1164.84L3389.63,1166.62ZM3383.46,1168.12L3382.62,1166.8C3382.07,1165.94 3381.7,1165.43 3381.49,1165.27C3381.28,1165.1 3381.05,1165.01 3380.8,1165.01C3380.55,1165 3380.29,1165.08 3380.03,1165.25C3379.74,1165.44 3379.55,1165.68 3379.47,1165.95C3379.39,1166.23 3379.42,1166.53 3379.56,1166.85C3379.63,1167.01 3379.9,1167.45 3380.36,1168.17L3381.24,1169.56L3383.46,1168.12Z" style="fill:rgb(115,115,115);fill-rule:nonzero;stroke:white;stroke-width:2.32px;"/>
                                            <path d="M3383.86,1157.11L3373.89,1160.06L3372.65,1155.78C3372.34,1154.7 3372.21,1153.89 3372.24,1153.35C3372.28,1152.81 3372.49,1152.32 3372.86,1151.89C3373.23,1151.46 3373.71,1151.16 3374.3,1150.99C3375.05,1150.77 3375.73,1150.81 3376.35,1151.11C3376.96,1151.41 3377.46,1151.98 3377.85,1152.83C3377.97,1152.31 3378.14,1151.87 3378.37,1151.49C3378.59,1151.12 3379.01,1150.57 3379.65,1149.85L3381.24,1148.05L3381.94,1150.48L3380.2,1152.6C3379.57,1153.35 3379.19,1153.85 3379.04,1154.1C3378.9,1154.35 3378.82,1154.6 3378.81,1154.84C3378.79,1155.07 3378.86,1155.42 3378.99,1155.89L3379.11,1156.31L3383.27,1155.07L3383.86,1157.11ZM3377.52,1156.78L3377.08,1155.27C3376.8,1154.29 3376.58,1153.7 3376.43,1153.48C3376.28,1153.26 3376.08,1153.11 3375.85,1153.03C3375.61,1152.95 3375.34,1152.96 3375.04,1153.05C3374.7,1153.15 3374.46,1153.32 3374.3,1153.56C3374.15,1153.8 3374.09,1154.1 3374.14,1154.44C3374.16,1154.61 3374.29,1155.11 3374.53,1155.94L3374.99,1157.53L3377.52,1156.78Z" style="fill:rgb(115,115,115);fill-rule:nonzero;stroke:white;stroke-width:2.32px;"/>
                                            <path d="M3381.08,1146.33L3370.7,1146.49L3370.58,1138.7L3372.34,1138.67L3372.42,1144.34L3374.73,1144.3L3374.65,1139.03L3376.39,1139L3376.47,1144.28L3379.3,1144.23L3379.21,1138.37L3380.96,1138.34L3381.08,1146.33ZM3370.09,1145.15L3367.97,1143.68L3367.95,1141.81L3370.01,1140.3L3370.04,1141.92L3368.99,1142.76L3370.06,1143.52L3370.09,1145.15Z" style="fill:rgb(115,115,115);fill-rule:nonzero;stroke:white;stroke-width:2.32px;"/>
                                            <path d="M3381.83,1133.72L3373.44,1131.68L3372.72,1134.71L3371.01,1134.3L3372.94,1126.18L3374.65,1126.6L3373.93,1129.62L3382.32,1131.66L3381.83,1133.72Z" style="fill:rgb(115,115,115);fill-rule:nonzero;stroke:white;stroke-width:2.32px;"/>
                                        </g>
                                        <g transform="matrix(0.695129,0.170681,-0.180209,0.700641,925.16,-330.711)">
                                            <path d="M3530.98,1628.37L3534.06,1630.81C3534.76,1631.36 3535.24,1631.83 3535.52,1632.23C3535.9,1632.76 3536.11,1633.34 3536.17,1633.99C3536.22,1634.63 3536.13,1635.28 3535.88,1635.95C3535.64,1636.63 3535.2,1637.35 3534.58,1638.12C3534.03,1638.81 3533.47,1639.32 3532.9,1639.68C3532.2,1640.12 3531.51,1640.37 3530.82,1640.43C3530.3,1640.48 3529.73,1640.39 3529.11,1640.15C3528.64,1639.98 3528.1,1639.64 3527.47,1639.15L3524.3,1636.64L3530.98,1628.37ZM3531.53,1631.11L3527.11,1636.58L3528.37,1637.58C3528.84,1637.95 3529.2,1638.19 3529.45,1638.3C3529.78,1638.45 3530.1,1638.52 3530.41,1638.5C3530.72,1638.48 3531.09,1638.33 3531.5,1638.05C3531.91,1637.77 3532.38,1637.31 3532.89,1636.67C3533.41,1636.03 3533.75,1635.5 3533.91,1635.07C3534.07,1634.63 3534.13,1634.24 3534.08,1633.89C3534.03,1633.53 3533.87,1633.2 3533.61,1632.88C3533.42,1632.64 3532.98,1632.25 3532.29,1631.7L3531.53,1631.11Z" style="fill:rgb(115,115,115);fill-rule:nonzero;stroke:white;stroke-width:2.37px;"/>
                                            <path d="M3538.36,1638.26L3538.97,1636.35L3539.83,1634.78L3541.79,1635.83L3540.93,1637.4L3539.68,1638.98L3538.36,1638.26Z" style="fill:rgb(115,115,115);fill-rule:nonzero;stroke:white;stroke-width:2.37px;"/>
                                            <path d="M3543.79,1636.99L3545.85,1637.65L3544.05,1643.1C3543.77,1643.97 3543.61,1644.53 3543.58,1644.81C3543.53,1645.25 3543.63,1645.64 3543.88,1646C3544.12,1646.36 3544.54,1646.63 3545.11,1646.81C3545.69,1647 3546.17,1647.02 3546.54,1646.88C3546.92,1646.74 3547.19,1646.51 3547.36,1646.19C3547.54,1645.86 3547.75,1645.3 3548.02,1644.51L3549.85,1638.94L3551.9,1639.6L3550.16,1644.89C3549.76,1646.1 3549.43,1646.93 3549.15,1647.39C3548.88,1647.86 3548.53,1648.21 3548.12,1648.46C3547.71,1648.71 3547.22,1648.85 3546.66,1648.89C3546.09,1648.94 3545.4,1648.83 3544.6,1648.57C3543.63,1648.26 3542.93,1647.91 3542.5,1647.52C3542.07,1647.14 3541.77,1646.72 3541.6,1646.28C3541.42,1645.83 3541.35,1645.39 3541.39,1644.97C3541.44,1644.36 3541.66,1643.48 3542.03,1642.36L3543.79,1636.99Z" style="fill:rgb(115,115,115);fill-rule:nonzero;stroke:white;stroke-width:2.37px;"/>
                                            <path d="M3553.59,1650.64L3554.1,1640.07L3558.64,1640.28C3559.78,1640.34 3560.6,1640.47 3561.11,1640.68C3561.62,1640.9 3562.02,1641.26 3562.31,1641.76C3562.59,1642.26 3562.72,1642.82 3562.69,1643.44C3562.65,1644.24 3562.39,1644.88 3561.89,1645.37C3561.39,1645.87 3560.68,1646.16 3559.73,1646.25C3560.18,1646.54 3560.56,1646.86 3560.84,1647.19C3561.13,1647.53 3561.51,1648.12 3561.99,1648.97L3563.2,1651.09L3560.62,1650.97L3559.17,1648.6C3558.65,1647.75 3558.3,1647.21 3558.1,1646.99C3557.91,1646.77 3557.7,1646.61 3557.48,1646.52C3557.25,1646.43 3556.89,1646.37 3556.4,1646.35L3555.96,1646.33L3555.75,1650.74L3553.59,1650.64ZM3556.04,1644.64L3557.64,1644.72C3558.67,1644.76 3559.32,1644.75 3559.58,1644.68C3559.84,1644.6 3560.05,1644.46 3560.21,1644.26C3560.36,1644.05 3560.45,1643.79 3560.46,1643.48C3560.48,1643.12 3560.4,1642.83 3560.22,1642.6C3560.03,1642.37 3559.77,1642.22 3559.42,1642.15C3559.25,1642.12 3558.73,1642.08 3557.85,1642.04L3556.17,1641.96L3556.04,1644.64Z" style="fill:rgb(115,115,115);fill-rule:nonzero;stroke:white;stroke-width:2.37px;"/>
                                            <path d="M3571.22,1645.96L3570.85,1644.22L3575.41,1643.28L3576.27,1647.41C3575.92,1647.93 3575.35,1648.43 3574.58,1648.93C3573.81,1649.42 3572.99,1649.76 3572.13,1649.93C3571.03,1650.16 3570.03,1650.12 3569.12,1649.84C3568.21,1649.55 3567.46,1649.02 3566.88,1648.26C3566.29,1647.5 3565.89,1646.62 3565.69,1645.63C3565.46,1644.55 3565.49,1643.54 3565.77,1642.61C3566.05,1641.68 3566.59,1640.9 3567.38,1640.27C3567.98,1639.79 3568.78,1639.44 3569.78,1639.24C3571.08,1638.97 3572.15,1639.04 3572.99,1639.43C3573.84,1639.82 3574.46,1640.47 3574.87,1641.38L3572.85,1642.19C3572.6,1641.71 3572.24,1641.37 3571.77,1641.16C3571.3,1640.95 3570.76,1640.9 3570.15,1641.03C3569.23,1641.22 3568.55,1641.66 3568.13,1642.35C3567.7,1643.04 3567.61,1643.95 3567.85,1645.1C3568.11,1646.33 3568.57,1647.19 3569.26,1647.69C3569.94,1648.19 3570.72,1648.36 3571.62,1648.17C3572.06,1648.08 3572.49,1647.9 3572.9,1647.64C3573.31,1647.38 3573.65,1647.09 3573.91,1646.78L3573.64,1645.47L3571.22,1645.96Z" style="fill:rgb(115,115,115);fill-rule:nonzero;stroke:white;stroke-width:2.37px;"/>
                                            <path d="M3581.06,1647.16L3576.25,1637.71L3583.34,1634.19L3584.15,1635.79L3578.99,1638.35L3580.06,1640.45L3584.86,1638.06L3585.66,1639.65L3580.87,1642.04L3582.18,1644.61L3587.51,1641.95L3588.32,1643.55L3581.06,1647.16Z" style="fill:rgb(115,115,115);fill-rule:nonzero;stroke:white;stroke-width:2.37px;"/>
                                            <path d="M3592.22,1641.01L3585.26,1632.97L3586.86,1631.62L3594.83,1634.17L3590.18,1628.8L3591.71,1627.51L3598.66,1635.55L3597.02,1636.94L3589.21,1634.47L3593.74,1639.71L3592.22,1641.01Z" style="fill:rgb(115,115,115);fill-rule:nonzero;stroke:white;stroke-width:2.37px;"/>
                                            <path d="M3602.79,1624.06L3604.53,1622.75C3605.31,1623.67 3605.71,1624.6 3605.74,1625.52C3605.78,1626.45 3605.46,1627.38 3604.8,1628.31C3603.99,1629.45 3602.92,1630.12 3601.6,1630.31C3600.28,1630.5 3598.93,1630.12 3597.56,1629.16C3596.1,1628.15 3595.23,1626.99 3594.95,1625.68C3594.68,1624.38 3594.97,1623.12 3595.83,1621.91C3596.58,1620.85 3597.51,1620.21 3598.61,1619.99C3599.27,1619.85 3600.01,1619.93 3600.85,1620.22L3600.04,1622.24C3599.52,1622.03 3599.01,1621.99 3598.51,1622.14C3598.02,1622.28 3597.61,1622.58 3597.28,1623.05C3596.82,1623.69 3596.68,1624.37 3596.87,1625.09C3597.05,1625.82 3597.66,1626.54 3598.7,1627.27C3599.81,1628.04 3600.74,1628.39 3601.49,1628.32C3602.24,1628.25 3602.83,1627.9 3603.28,1627.27C3603.61,1626.81 3603.74,1626.31 3603.68,1625.76C3603.62,1625.22 3603.33,1624.65 3602.79,1624.06Z" style="fill:rgb(115,115,115);fill-rule:nonzero;stroke:white;stroke-width:2.37px;"/>
                                            <path d="M3609.34,1620.5L3599.35,1616.72L3602.18,1609.39L3603.87,1610.03L3601.81,1615.36L3604.02,1616.2L3605.94,1611.24L3607.63,1611.88L3605.71,1616.84L3608.42,1617.87L3610.56,1612.35L3612.24,1612.99L3609.34,1620.5Z" style="fill:rgb(115,115,115);fill-rule:nonzero;stroke:white;stroke-width:2.37px;"/>
                                        </g>
                                        <g transform="matrix(1,0,0,1,-2.28864,0.968388)">
                                            <g transform="matrix(0.608229,-0.10285,0.10285,0.608229,917.292,1052.67)">
                                                <circle cx="3420.02" cy="1141.73" r="39" style="fill:none;stroke:rgb(191,191,191);stroke-width:2.3px;stroke-miterlimit:1.5;"/>
                                            </g>
                                            <g transform="matrix(0.620377,-0.104904,0.104242,0.616465,828.622,949.756)">
                                                <g transform="matrix(2.68802,0.457421,-0.446785,2.65895,196.825,21.2732)">
                                                    <path d="M1248.56,270.205L1253.28,274.258L1253.69,268.053L1248.56,270.205Z" style="fill:rgb(191,191,191);"/>
                                                    <path d="M1266.16,258.225L1260.13,259.717L1264.94,263.651L1266.16,258.225Z" style="fill:rgb(191,191,191);"/>
                                                    <path d="M1265.86,279.45L1267.96,273.595L1262.02,275.431L1265.86,279.45Z" style="fill:rgb(191,191,191);"/>
                                                    <path d="M1251.55,270.155C1250.88,265.705 1253.55,261.481 1257.68,260.144M1264.47,260.694C1265.17,261.058 1265.83,261.516 1266.42,262.055C1267.86,263.369 1268.88,265.164 1269.23,267.245C1269.47,268.724 1269.35,270.181 1268.92,271.518M1264.74,276.671C1263.88,277.159 1262.92,277.509 1261.88,277.687C1259.31,278.129 1256.81,277.413 1254.9,275.912" style="fill:none;stroke:rgb(191,191,191);stroke-width:0.83px;stroke-miterlimit:1.5;"/>
                                                </g>
                                            </g>
                                        </g>
                                    </g>
                                    <g transform="matrix(1.05998,0,0,1.05998,-512.548,186.122)">
                                        <circle cx="3420.02" cy="1141.73" r="39" style="fill:none;stroke:rgb(191,191,191);stroke-width:1.34px;stroke-miterlimit:1.5;"/>
                                    </g>
                                </g>
                            </g>
                        </g>
                        <g transform="matrix(0.487805,0,0,0.625,-8986.93,-20515.3)">
                            <g id="path1006" transform="matrix(1.75261,0,0,-1.75261,18526.5,33502.2)">
                                <rect x="132.243" y="247.683" width="10.161" height="22.225" style="fill:rgb(240,240,240);stroke:rgb(89,89,89);stroke-width:1.39px;"/>
                            </g>
                            <g>
                                <g id="path1014" transform="matrix(1.75261,0,0,-1.75261,18526.6,33502.2)">
                                    <rect x="135.021" y="270.126" width="4.459" height="6.141" style="fill:rgb(240,240,240);stroke:rgb(89,89,89);stroke-width:1.39px;"/>
                                </g>
                                <g id="path1020" transform="matrix(1.75261,0,0,-1.75261,18526.6,33502.2)">
                                    <path d="M135.167,274.293L139.407,275.243" style="fill:none;fill-rule:nonzero;stroke:rgb(89,89,89);stroke-width:0.71px;stroke-linejoin:miter;stroke-miterlimit:10;"/>
                                </g>
                                <g id="path1022" transform="matrix(1.75261,0,0,-1.75261,18526.6,33502.2)">
                                    <path d="M135.167,272.904L139.407,273.855" style="fill:none;fill-rule:nonzero;stroke:rgb(89,89,89);stroke-width:0.71px;stroke-linejoin:miter;stroke-miterlimit:10;"/>
                                </g>
                                <g id="path1024" transform="matrix(1.75261,0,0,-1.75261,18526.6,33502.2)">
                                    <path d="M135.167,271.369L139.407,272.32" style="fill:none;fill-rule:nonzero;stroke:rgb(89,89,89);stroke-width:0.71px;stroke-linejoin:miter;stroke-miterlimit:10;"/>
                                </g>
                            </g>
                        </g>
                        <g transform="matrix(0.487805,0,0,0.625,-8969.74,-20515.3)">
                            <g id="path10061" serif:id="path1006" transform="matrix(1.75261,0,0,-1.75261,18526.5,33502.2)">
                                <rect x="132.243" y="247.683" width="10.161" height="22.225" style="fill:rgb(240,240,240);stroke:rgb(89,89,89);stroke-width:1.39px;"/>
                            </g>
                            <g>
                                <g id="path10141" serif:id="path1014" transform="matrix(1.75261,0,0,-1.75261,18526.6,33502.2)">
                                    <rect x="135.021" y="270.126" width="4.459" height="6.141" style="fill:rgb(240,240,240);stroke:rgb(89,89,89);stroke-width:1.39px;"/>
                                </g>
                                <g id="path10201" serif:id="path1020" transform="matrix(1.75261,0,0,-1.75261,18526.6,33502.2)">
                                    <path d="M135.167,274.293L139.407,275.243" style="fill:none;fill-rule:nonzero;stroke:rgb(89,89,89);stroke-width:0.71px;stroke-linejoin:miter;stroke-miterlimit:10;"/>
                                </g>
                                <g id="path10221" serif:id="path1022" transform="matrix(1.75261,0,0,-1.75261,18526.6,33502.2)">
                                    <path d="M135.167,272.904L139.407,273.855" style="fill:none;fill-rule:nonzero;stroke:rgb(89,89,89);stroke-width:0.71px;stroke-linejoin:miter;stroke-miterlimit:10;"/>
                                </g>
                                <g id="path10241" serif:id="path1024" transform="matrix(1.75261,0,0,-1.75261,18526.6,33502.2)">
                                    <path d="M135.167,271.369L139.407,272.32" style="fill:none;fill-rule:nonzero;stroke:rgb(89,89,89);stroke-width:0.71px;stroke-linejoin:miter;stroke-miterlimit:10;"/>
                                </g>
                            </g>
                        </g>
                        <g id="path1046" transform="matrix(0.854931,0,0,-1.09538,-11.1189,423.534)">
                            <rect x="95.112" y="256.604" width="124.422" height="5.556" style="fill:rgb(191,191,191);"/>
                        </g>
                        <g transform="matrix(0.487805,0,0,0.625,-9047.12,-15720)">
                            <rect x="18925" y="25363.9" width="264.684" height="15.861" style="fill:white;stroke:rgb(191,191,191);stroke-width:2.43px;stroke-linecap:round;stroke-miterlimit:10;"/>
                        </g>
                        <g>
                            <g id="path10742" serif:id="path1074" transform="matrix(0.854931,0,0,-1.09538,-11.1189,423.534)">
                                <rect x="91.092" y="224.219" width="59.214" height="28.292" style="fill:white;stroke:rgb(191,191,191);stroke-width:0.48px;"/>
                            </g>
                            <g id="path10782" serif:id="path1078" transform="matrix(0.854931,0,0,-1.09538,-11.1189,423.534)">
                                <path d="M106.333,248.053C111.48,248.053 115.653,243.879 115.653,238.731C115.653,233.584 111.48,229.41 106.333,229.41C101.186,229.41 97.012,233.584 97.012,238.731C97.012,243.879 101.186,248.053 106.333,248.053" style="fill:white;stroke:rgb(191,191,191);stroke-width:0.48px;"/>
                            </g>
                            <g id="path10822" serif:id="path1082" transform="matrix(0.854931,0,0,-1.09538,-10.9935,423.695)">
                                <path d="M106.186,244.032C109.032,244.032 111.34,241.724 111.34,238.878C111.34,236.032 109.032,233.724 106.186,233.724C103.34,233.724 101.032,236.032 101.032,238.878C101.032,241.724 103.34,244.032 106.186,244.032" style="fill:white;stroke:rgb(191,191,191);stroke-width:0.48px;"/>
                            </g>
                            <g id="path10862" serif:id="path1086" transform="matrix(0.854931,0,0,-1.09538,-11.1189,423.534)">
                                <path d="M127.492,240.158C128.26,240.158 128.881,239.536 128.881,238.769C128.881,238.002 128.26,237.38 127.492,237.38C126.725,237.38 126.104,238.002 126.104,238.769C126.104,239.536 126.725,240.158 127.492,240.158" style="fill:white;stroke:rgb(191,191,191);stroke-width:0.48px;"/>
                            </g>
                            <g id="path10902" serif:id="path1090" transform="matrix(0.854931,0,0,-1.09538,-11.1189,423.534)">
                                <path d="M141.599,240.158C142.366,240.158 142.988,239.536 142.988,238.769C142.988,238.002 142.366,237.38 141.599,237.38C140.832,237.38 140.21,238.002 140.21,238.769C140.21,239.536 140.832,240.158 141.599,240.158" style="fill:white;stroke:rgb(191,191,191);stroke-width:0.48px;"/>
                            </g>
                        </g>
                        <g id="path26361" serif:id="path2636" transform="matrix(0.854931,0,0,-1.09538,-10.8465,423.534)">
                            <rect x="421.839" y="166.184" width="20.469" height="20.397" style="fill:none;stroke:rgb(128,128,128);stroke-width:0.48px;"/>
                        </g>
                    </g>
                </g>
            </g>
        </g>
    </g>
</svg>
