<?xml version="1.0" encoding="UTF-8" standalone="no"?>
<!DOCTYPE svg PUBLIC "-//W3C//DTD SVG 1.1//EN" "http://www.w3.org/Graphics/SVG/1.1/DTD/svg11.dtd">
<svg width="100%" height="100%" viewBox="0 0 1453 473" version="1.1" xmlns="http://www.w3.org/2000/svg" xmlns:xlink="http://www.w3.org/1999/xlink" xml:space="preserve" xmlns:serif="http://www.serif.com/" style="fill-rule:evenodd;clip-rule:evenodd;stroke-linejoin:round;stroke-miterlimit:10;">
    <g transform="matrix(1,0,0,1,-6687.2,-4234.65)">
        <g id="Artboard4" transform="matrix(2.05,0,0,1.6,6687.2,4234.65)">
            <rect x="0" y="0" width="708.661" height="295.276" style="fill:none;"/>
            <g transform="matrix(0.634521,0,0,0.839187,-4812.65,-1395.31)">
                <g transform="matrix(0.471034,0,0,0.451577,-4691.69,-9110.16)">
                    <path d="M26911,24156.5L26911,24578.2L26406,24578.2L26406,23917.5L26911,23917.5L26911,23917.7C26913,23917.2 26915.1,23916.9 26917.2,23916.9L27053.6,23916.9C27068.2,23916.9 27080.1,23929.3 27080.1,23944.6L27080.1,24129.6C27080.1,24144.9 27068.2,24157.3 27053.6,24157.3L26917.2,24157.3C26915.1,24157.3 26913,24157 26911,24156.5Z" style="fill:rgb(254,255,254);stroke:rgb(89,89,89);stroke-width:5.47px;"/>
                </g>
                <g id="path2836" transform="matrix(1.32953,1.87253e-17,-1.87253e-17,-1.17663,7531.22,2217.92)">
                    <path d="M187.282,305.953L182.539,311.981L172.757,311.917L172.757,302.834L167.387,302.834L166.74,305.685L166.223,308.609L165.964,311.46L165.835,314.458L165.964,317.382L166.223,320.379L166.74,323.45L167.387,326.52L172.757,326.52L172.757,318.287L182.539,318.223L187.282,322.217L210.3,322.217L210.3,305.953L187.282,305.953Z" style="fill:white;stroke:rgb(89,89,89);stroke-width:2.01px;stroke-miterlimit:2;"/>
                </g>
                <g transform="matrix(0.476334,0.126551,-0.0304643,0.10833,-4087.36,-4074.88)">
                    <rect x="26318.1" y="24237.7" width="315.175" height="79.714" style="fill:rgb(254,255,254);"/>
                </g>
                <g transform="matrix(0.476334,0.126551,-0.0304643,0.10833,-4087.36,-4074.88)">
                    <path d="M26636.6,24237.9L26636.6,24317.6C26636.6,24325.7 26635.1,24332.2 26633.3,24332.2L26318.1,24332.2C26317.2,24332.2 26316.3,24330.6 26315.7,24327.8C26315.1,24325 26314.7,24321.1 26314.7,24317.2L26314.7,24237.5C26314.7,24229.4 26316.2,24222.9 26318,24222.9L26633.2,24222.9C26634.1,24222.9 26635,24224.5 26635.6,24227.3C26636.3,24230.1 26636.6,24233.9 26636.6,24237.9ZM26629.9,24252.5L26321.5,24252.5L26321.5,24302.6L26629.9,24302.6L26629.9,24252.5Z" style="fill:rgb(89,89,89);"/>
                </g>
                <g transform="matrix(0.689897,0,0,0.272402,-10431.4,-4702.85)">
                    <rect x="26260.4" y="24404.5" width="596.013" height="55.186" style="fill:rgb(254,255,254);"/>
                </g>
                <g transform="matrix(0.689897,0,0,0.272402,-10431.4,-4702.85)">
                    <path d="M26858.9,24404.5L26858.9,24459.6C26858.9,24463 26857.8,24465.8 26856.4,24465.8L26260.4,24465.8C26259.1,24465.8 26258,24463 26258,24459.6L26258,24404.5C26258,24401.1 26259.1,24398.3 26260.4,24398.3L26856.4,24398.3C26857.8,24398.3 26858.9,24401.1 26858.9,24404.5ZM26854,24410.6L26262.9,24410.6L26262.9,24453.5L26854,24453.5L26854,24410.6Z" style="fill:rgb(89,89,89);"/>
                </g>
                <g transform="matrix(0.488761,0,0,0.476881,-5162.44,-9706.06)">
                    <rect x="26271.5" y="23898" width="127.542" height="213.387" style="fill:none;stroke:rgb(89,89,89);stroke-width:5.22px;"/>
                </g>
                <g transform="matrix(0.488761,0,0,0.476881,-5152.8,-9706.06)">
                    <path d="M26321.8,24111.4C26321.8,24111.4 26305.3,24175.5 26380.5,24174.4C26504.6,24172.6 26544.8,24214.4 26536.2,24229.1" style="fill:none;stroke:rgb(89,89,89);stroke-width:5.22px;"/>
                </g>
                <g transform="matrix(0.488761,0,0,0.476881,-5156.54,-9708.12)">
                    <rect x="26872.5" y="24355.7" width="127.427" height="137.008" style="fill:rgb(254,255,254);stroke:rgb(89,89,89);stroke-width:5.22px;"/>
                </g>
                <g transform="matrix(0.614054,0,0,0.614054,-3855.2,-18380.6)">
                    <path d="M19138,32991.9L19109.9,32991.9L19109.9,32978L19138,32978L19138,32955.2L19126.1,32955.2L19126.1,32938.5L19138,32938.5L19138,32926.1L19145.7,32926.1L19145.7,32938.5L19156.6,32938.5L19156.6,32930.9C19156.6,32923.9 19162.3,32918.2 19169.3,32918.2L19231.6,32918.2C19238.7,32918.2 19244.4,32923.9 19244.4,32930.9L19244.4,32956.4C19244.4,32963.4 19238.7,32969.1 19231.6,32969.1L19169.3,32969.1C19162.3,32969.1 19156.6,32963.4 19156.6,32956.4L19156.6,32955.2L19145.7,32955.2L19145.7,32978L19233.9,32978L19233.9,32991.9L19145.7,32991.9L19145.7,33002.3L19149.4,33002.3L19149.4,33015.5L19134.3,33015.5L19134.3,33002.3L19138,33002.3L19138,32991.9Z" style="fill:none;stroke:rgb(89,89,89);stroke-width:4.11px;"/>
                </g>
                <g transform="matrix(0.833005,0,0,1.28133,491.892,2480.83)">
                    <path d="M8783.47,-503.985L8777.13,-503.985L8777.13,-513.843L8783.47,-513.843L8783.47,-532.487L8793.32,-532.487L8793.32,-513.843L8799.66,-513.843L8799.66,-503.985L8793.32,-503.985L8793.32,-469.69L8799.66,-469.69L8799.66,-459.832L8793.32,-459.832L8793.32,-450.879L8789.48,-450.879L8789.48,-442.265L8787.31,-442.265L8787.31,-450.879L8783.47,-450.879L8783.47,-459.832L8777.13,-459.832L8777.13,-469.69L8783.47,-469.69L8783.47,-503.985Z" style="fill:white;stroke:rgb(89,89,89);stroke-width:2.32px;stroke-miterlimit:1.5;"/>
                </g>
            </g>
            <g transform="matrix(1.21524,0,0,1.1857,-311.168,-5.21335)">
                <path d="M326.935,185.111L327.311,185.111C327.773,185.111 328.147,185.602 328.147,186.209L328.147,201.892C328.147,202.498 327.773,202.99 327.311,202.99L319.174,202.99C318.712,202.99 318.337,202.498 318.337,201.892L318.337,186.209C318.337,185.602 318.712,185.111 319.174,185.111L319.549,185.111L319.549,179.162C319.549,178.556 319.924,178.064 320.386,178.064L326.099,178.064C326.561,178.064 326.935,178.556 326.935,179.162L326.935,185.111ZM326.474,187.307L320.01,187.307L320.01,200.794L326.474,200.794L326.474,187.307ZM325.262,180.714L325.262,180.261L321.222,180.261L321.222,181.597C321.759,181.583 322.503,181.534 323.272,181.387C323.958,181.255 324.668,181.049 325.262,180.714ZM325.262,182.702L325.262,181.655C324.675,181.941 324.014,182.132 323.369,182.256C322.562,182.41 321.783,182.462 321.222,182.475L321.222,183.585C321.759,183.572 322.503,183.522 323.272,183.375C323.958,183.244 324.668,183.038 325.262,182.702ZM321.222,184.464L321.222,185.088L325.262,185.088L325.262,183.643C324.675,183.929 324.014,184.121 323.369,184.244C322.562,184.399 321.783,184.45 321.222,184.464Z"/>
            </g>
            <g transform="matrix(1.21524,0,0,1.1857,-368.186,-70.4716)">
                <path d="M326.935,185.111L327.311,185.111C327.773,185.111 328.147,185.602 328.147,186.209L328.147,201.892C328.147,202.498 327.773,202.99 327.311,202.99L319.174,202.99C318.712,202.99 318.337,202.498 318.337,201.892L318.337,186.209C318.337,185.602 318.712,185.111 319.174,185.111L319.549,185.111L319.549,179.162C319.549,178.556 319.924,178.064 320.386,178.064L326.099,178.064C326.561,178.064 326.935,178.556 326.935,179.162L326.935,185.111ZM326.474,187.307L320.01,187.307L320.01,200.794L326.474,200.794L326.474,187.307ZM325.262,180.714L325.262,180.261L321.222,180.261L321.222,181.597C321.759,181.583 322.503,181.534 323.272,181.387C323.958,181.255 324.668,181.049 325.262,180.714ZM325.262,182.702L325.262,181.655C324.675,181.941 324.014,182.132 323.369,182.256C322.562,182.41 321.783,182.462 321.222,182.475L321.222,183.585C321.759,183.572 322.503,183.522 323.272,183.375C323.958,183.244 324.668,183.038 325.262,182.702ZM321.222,184.464L321.222,185.088L325.262,185.088L325.262,183.643C324.675,183.929 324.014,184.121 323.369,184.244C322.562,184.399 321.783,184.45 321.222,184.464Z"/>
            </g>
            <g transform="matrix(0.226369,0.502355,-0.679779,0.500258,18218,-31364.2)">
                <g transform="matrix(0.536641,-0.53889,0.934311,0.311128,26844.3,35739.2)">
                    <path d="M129.001,309.512L149.186,333.368L120.632,346.066L129.001,309.512Z"/>
                    <path d="M68.509,285.085C68.509,285.085 83.881,315.111 129.69,328.905" style="fill:none;stroke:black;stroke-width:8.33px;"/>
                </g>
            </g>
        </g>
    </g>
</svg>
