<?xml version="1.0" encoding="UTF-8" standalone="no"?>
<!DOCTYPE svg PUBLIC "-//W3C//DTD SVG 1.1//EN" "http://www.w3.org/Graphics/SVG/1.1/DTD/svg11.dtd">
<svg width="100%" height="100%" viewBox="0 0 237 237" version="1.1" xmlns="http://www.w3.org/2000/svg" xmlns:xlink="http://www.w3.org/1999/xlink" xml:space="preserve" xmlns:serif="http://www.serif.com/" style="fill-rule:evenodd;clip-rule:evenodd;stroke-linejoin:round;stroke-miterlimit:10;">
    <g transform="matrix(1,0,0,1,-3845.39,-17897.6)">
        <g id="main_butee">
        </g>
        <g id="Artboard4" transform="matrix(0.423111,0,0,0.354867,1557.91,16857.3)">
            <rect x="5406.33" y="2931.52" width="558.295" height="665.659" style="fill:none;"/>
            <g transform="matrix(1.26669,0,0,1.67494,-4305.39,183.327)">
                <g transform="matrix(0.471034,0,0,0.451577,-4691.69,-9110.16)">
                    <path d="M26911,24156.5L26911,24578.2L26406,24578.2L26406,23917.5L26911,23917.5L26911,23917.7C26913,23917.2 26915.1,23916.9 26917.2,23916.9L27053.6,23916.9C27068.2,23916.9 27080.1,23929.3 27080.1,23944.6L27080.1,24129.6C27080.1,24144.9 27068.2,24157.3 27053.6,24157.3L26917.2,24157.3C26915.1,24157.3 26913,24157 26911,24156.5Z" style="fill:rgb(254,255,254);stroke:rgb(128,128,128);stroke-width:3.45px;"/>
                </g>
                <g id="path2836" transform="matrix(1.32953,1.87253e-17,-1.87253e-17,-1.17663,7531.22,2217.92)">
                    <path d="M187.282,305.953L182.539,311.981L172.757,311.917L172.757,302.834L167.387,302.834L166.74,305.685L166.223,308.609L165.964,311.46L165.835,314.458L165.964,317.382L166.223,320.379L166.74,323.45L167.387,326.52L172.757,326.52L172.757,318.287L182.539,318.223L187.282,322.217L210.3,322.217L210.3,305.953L187.282,305.953Z" style="fill:white;stroke:rgb(128,128,128);stroke-width:1.27px;stroke-miterlimit:2;"/>
                </g>
                <g transform="matrix(0.476334,0.126551,-0.0304643,0.10833,-4087.36,-4074.88)">
                    <rect x="26318.1" y="24237.7" width="315.175" height="79.714" style="fill:rgb(166,166,166);stroke:black;stroke-width:6.39px;stroke-miterlimit:2;"/>
                </g>
                <g transform="matrix(0.689897,0,0,0.272402,-10431.4,-4702.85)">
                    <rect x="26260.4" y="24404.5" width="596.013" height="55.186" style="fill:rgb(254,255,254);stroke:rgb(128,128,128);stroke-width:2.92px;stroke-miterlimit:2;"/>
                </g>
                <g transform="matrix(0.488761,0,0,0.476881,-5162.44,-9706.06)">
                    <rect x="26271.5" y="23898" width="127.542" height="213.387" style="fill:none;stroke:rgb(128,128,128);stroke-width:3.29px;"/>
                </g>
                <g transform="matrix(0.488761,0,0,0.476881,-5152.8,-9706.06)">
                    <path d="M26321.8,24111.4C26321.8,24111.4 26305.3,24175.5 26380.5,24174.4C26504.6,24172.6 26544.8,24214.4 26536.2,24229.1" style="fill:none;stroke:rgb(128,128,128);stroke-width:3.29px;"/>
                </g>
                <g transform="matrix(0.488761,0,0,0.476881,-5156.54,-9708.12)">
                    <rect x="26872.5" y="24355.7" width="127.427" height="137.008" style="fill:rgb(254,255,254);stroke:rgb(128,128,128);stroke-width:3.29px;"/>
                </g>
                <g transform="matrix(0.614054,0,0,0.553686,-3855.2,-16387.5)">
                    <path d="M19138,32991.9L19109.9,32991.9L19109.9,32978L19138,32978L19138,32955.2L19126.1,32955.2L19126.1,32938.5L19138,32938.5L19138,32926.1L19145.7,32926.1L19145.7,32938.5L19156.6,32938.5L19156.6,32930.9C19156.6,32923.9 19162.3,32918.2 19169.3,32918.2L19231.6,32918.2C19238.7,32918.2 19244.4,32923.9 19244.4,32930.9L19244.4,32956.4C19244.4,32963.4 19238.7,32969.1 19231.6,32969.1L19169.3,32969.1C19162.3,32969.1 19156.6,32963.4 19156.6,32956.4L19156.6,32955.2L19145.7,32955.2L19145.7,32978L19233.9,32978L19233.9,32991.9L19145.7,32991.9L19145.7,33002.3L19149.4,33002.3L19149.4,33015.5L19134.3,33015.5L19134.3,33002.3L19138,33002.3L19138,32991.9Z" style="fill:none;stroke:rgb(128,128,128);stroke-width:2.59px;"/>
                </g>
                <g transform="matrix(0.833005,0,0,1.28133,491.892,2480.83)">
                    <path d="M8783.47,-503.985L8777.13,-503.985L8777.13,-513.843L8783.47,-513.843L8783.47,-532.487L8793.32,-532.487L8793.32,-513.843L8799.66,-513.843L8799.66,-503.985L8793.32,-503.985L8793.32,-469.69L8799.66,-469.69L8799.66,-459.832L8793.32,-459.832L8793.32,-450.879L8789.48,-450.879L8789.48,-442.265L8787.31,-442.265L8787.31,-450.879L8783.47,-450.879L8783.47,-459.832L8777.13,-459.832L8777.13,-469.69L8783.47,-469.69L8783.47,-503.985Z" style="fill:white;stroke:rgb(128,128,128);stroke-width:1.44px;stroke-miterlimit:1.5;"/>
                </g>
            </g>
        </g>
    </g>
</svg>
