<?xml version="1.0" encoding="UTF-8" standalone="no"?>
<!DOCTYPE svg PUBLIC "-//W3C//DTD SVG 1.1//EN" "http://www.w3.org/Graphics/SVG/1.1/DTD/svg11.dtd">
<svg width="100%" height="100%" viewBox="0 0 1453 473" version="1.1" xmlns="http://www.w3.org/2000/svg" xmlns:xlink="http://www.w3.org/1999/xlink" xml:space="preserve" xmlns:serif="http://www.serif.com/" style="fill-rule:evenodd;clip-rule:evenodd;stroke-linejoin:round;stroke-miterlimit:2;">
    <g transform="matrix(1,0,0,1,-6697.7,-16061)">
        <g id="main_butee">
        </g>
        <g id="Artboard4" transform="matrix(2.05,0,0,1.6,6697.7,16061)">
            <rect x="0" y="0" width="708.661" height="295.276" style="fill:none;"/>
            <g transform="matrix(1,0,0,1,-2.18371,10.2141)">
                <g transform="matrix(0.209211,0,0,0.268052,219.861,137.424)">
                    <g transform="matrix(1,0,0,1,-440.625,-440.625)">
                        <clipPath id="_clip1">
                            <rect x="0" y="0" width="881.25" height="881.25"/>
                        </clipPath>
                        <g clip-path="url(#_clip1)">
                            <g id="layer1" transform="matrix(4.16667,0,0,4.16667,-928.417,-2158.5)">
                                <g id="path3874-3-6" transform="matrix(2.1696,0,0,2.1696,-502.89,-219.26)">
                                    <path d="M431.97,388.57C431.97,415.488 410.148,437.31 383.23,437.31C356.312,437.31 334.49,415.488 334.49,388.57C334.49,361.652 356.312,339.83 383.23,339.83C410.148,339.83 431.97,361.652 431.97,388.57Z" style="fill:rgb(165,0,0);fill-rule:nonzero;"/>
                                </g>
                                <g id="path3876-8-7" transform="matrix(-1.7933,0,0,1.7933,1015.8,-73.015)">
                                    <path d="M431.97,388.57C431.97,415.488 410.148,437.31 383.23,437.31C356.312,437.31 334.49,415.488 334.49,388.57C334.49,361.652 356.312,339.83 383.23,339.83C410.148,339.83 431.97,361.652 431.97,388.57Z" style="fill:white;fill-rule:nonzero;"/>
                                </g>
                                <g id="g6866" transform="matrix(1.5003,0,0,1.5003,-116.18,-272.99)">
                                    <path id="path6856" d="M302.1,632.18L296.386,573.787L293.35,573.787L295.85,569.412L304.957,569.412L300.761,554.992L306.207,553.697L310.493,569.054L337.993,569.412L339.779,573.787L336.743,573.787L328.35,632.18L302.1,632.18Z" style="fill-rule:nonzero;"/>
                                    <path id="rect6860" d="M264.52,606.72C259.303,606.72 255.09,610.834 254.895,616.001L295.395,616.001C295.2,610.834 290.987,606.72 285.77,606.72L264.52,606.72ZM255.364,626.001C256.629,629.849 260.238,632.626 264.52,632.626L285.77,632.626C290.052,632.626 293.63,629.849 294.895,626.001L255.364,626.001Z" style="fill-rule:nonzero;"/>
                                    <rect id="rect6858" x="252.33" y="618.14" width="45.596" height="5.754"/>
                                </g>
                                <g id="rect3880-9-7" transform="matrix(-0.69479,-0.71921,-0.71921,0.69479,0,0)">
                                    <rect x="-772.69" y="187.52" width="191.53" height="19.153" style="fill:rgb(165,0,0);"/>
                                </g>
                            </g>
                        </g>
                    </g>
                </g>
                <g transform="matrix(0.0611095,0,0,0.0782966,493.168,137.424)">
                    <g transform="matrix(1,0,0,1,-1508.5,-1508.5)">
                        <clipPath id="_clip2">
                            <rect x="0" y="0" width="3017" height="3017"/>
                        </clipPath>
                        <g clip-path="url(#_clip2)">
                            <g transform="matrix(4.16667,0,0,4.16667,0,0)">
                                <circle cx="362.995" cy="365.769" r="305.464" style="fill:white;"/>
                            </g>
                            <g transform="matrix(4.16667,0,0,4.16667,0,0)">
                                <path d="M362.04,85.04C515.024,85.04 639.04,209.057 639.04,362.04C639.04,515.022 515.024,639.04 362.04,639.04C209.057,639.04 85.04,515.022 85.04,362.04C85.04,209.057 209.057,85.04 362.04,85.04M362.04,0C313.203,0 265.781,9.584 221.092,28.486C177.97,46.725 139.261,72.818 106.04,106.039C72.819,139.26 46.725,177.97 28.486,221.091C9.584,265.78 0,313.202 0,362.04C0,410.877 9.584,458.299 28.486,502.989C46.725,546.11 72.818,584.819 106.039,618.04C139.26,651.263 177.97,677.354 221.091,695.595C265.78,714.495 313.202,724.079 362.039,724.079C410.877,724.079 458.299,714.495 502.987,695.595C546.11,677.357 584.819,651.263 618.04,618.04C651.263,584.819 677.354,546.11 695.593,502.989C714.495,458.3 724.079,410.878 724.079,362.04C724.079,313.203 714.495,265.781 695.593,221.092C677.357,177.97 651.263,139.261 618.04,106.04C584.819,72.819 546.11,46.725 502.989,28.486C458.299,9.584 410.877,0 362.04,0Z" style="fill:rgb(218,59,51);fill-rule:nonzero;"/>
                            </g>
                            <g id="layer11" serif:id="layer1" transform="matrix(4.16667,0,0,4.16667,-2838.46,-2339.75)">
                                <path id="path3147" d="M1010.24,963.776C1010.24,963.776 984.157,901.965 948.257,900.072C923.723,898.784 929.316,919.015 929.316,919.015C929.316,919.015 947.397,931.92 952.558,955.168C957.725,978.406 958.584,1049.86 974.08,1066.21C989.575,1082.57 1025.73,1126.47 1034.34,1126.47C1042.95,1126.47 1095.89,1134.65 1113.97,1123.46C1132.05,1112.27 1169.49,1025.75 1169.49,1025.75L1270.21,916.426C1270.21,916.426 1281.4,881.136 1249.54,894.041L1174.65,949.144L1231.47,815.712C1231.47,815.712 1233.19,784.722 1205.64,800.218L1130.32,916.862L1129.03,914.708L1176.38,772.67C1176.38,772.67 1175.51,733.074 1147.97,759.755L1084.27,894.042L1106.65,774.391C1106.65,774.391 1102.35,744.693 1079.97,765.782C1072.65,772.671 1037.78,862.198 1037.78,862.198" style="fill-rule:nonzero;"/>
                                <path d="M847.327,1119.58L843.358,1115.15L932.459,1035.46L1009.36,1064.4L1007.26,1069.97L933.738,1042.3L847.327,1119.58ZM870.638,994.108C862.707,994.108 855.248,989.618 848.455,980.753L853.181,977.132C858.943,984.652 864.994,988.359 871.158,988.146C881.214,987.8 889.107,977.423 890.548,975.406L915.331,892.199L843.748,892.199L843.748,886.245L927.792,886.245C924.702,883.363 921.706,879.917 921.225,877.057C920.488,872.623 912.662,833.728 865.228,831.881C850.147,831.294 838.01,835.412 829.148,844.124C812.04,860.943 812.465,889.61 812.472,889.898L812.68,899.414L807.087,891.715C807.053,891.676 806.967,891.6 806.888,891.544C806.699,891.677 806.279,892.049 805.717,892.986C804.955,894.311 804.664,901.338 806.463,912.207C808.246,922.978 810.721,929.203 811.978,930.339C818.536,932.249 822.851,940.546 823.326,941.495L823.539,941.921L827.064,965.71L769.721,969.228L769.357,963.287L820.224,960.168L817.794,943.767C816.648,941.67 813.466,936.897 810.219,936.033C808.053,935.458 806.365,933.417 804.743,929.419C800.721,919.5 797.095,895.788 800.612,889.925C802.294,887.124 804.321,885.652 806.638,885.548C807.191,876.218 810.107,854.522 824.947,839.909C835.029,829.982 848.664,825.287 865.46,825.935C917.604,827.965 926.28,871.16 927.097,876.079C927.389,877.818 932.41,882.841 937.841,886.825L945.172,892.202L921.543,892.202L902.249,956.982L964.375,956.982L964.375,962.934L900.476,962.934L895.992,977.991L895.747,978.36C895.334,978.983 885.478,993.616 871.363,994.098C871.121,994.104 870.879,994.108 870.638,994.108ZM860.081,972.614C858.709,972.614 857.333,972.413 855.985,971.946C850.542,970.057 847.063,964.423 845.643,955.193C842.172,932.62 859.087,919.424 859.809,918.874C863.58,915.991 869.487,915.619 875.227,917.908C880.975,920.201 885.018,924.575 885.778,929.325C887.362,939.247 883.21,959.362 877.373,964.415C876.163,965.536 868.197,972.614 860.081,972.614ZM867.79,922.362C866.04,922.362 864.506,922.778 863.424,923.605C863.272,923.721 848.589,935.168 851.528,954.29C852.255,959.017 853.957,964.942 857.935,966.319C863.094,968.108 870.998,962.219 873.359,960.016L873.467,959.92C877.03,956.906 881.337,939.264 879.9,930.265C879.476,927.616 876.776,924.936 873.023,923.438C871.22,922.72 869.412,922.362 867.79,922.362Z" style="fill:rgb(1,1,1);fill-rule:nonzero;"/>
                            </g>
                            <g transform="matrix(-2.26333,-3.49833,3.49833,-2.26333,1076.73,3627.24)">
                                <rect x="65.353" y="322.452" width="601.338" height="85.039" style="fill:rgb(218,59,51);"/>
                            </g>
                        </g>
                    </g>
                </g>
            </g>
        </g>
    </g>
</svg>
