<?xml version="1.0" encoding="UTF-8"?>
<!-- Generator: Adobe Illustrator 16.0.3, SVG Export Plug-In . SVG Version: 6.00 Build 0)  -->
<!DOCTYPE svg PUBLIC "-//W3C//DTD SVG 1.1//EN" "http://www.w3.org/Graphics/SVG/1.1/DTD/svg11.dtd">
<svg version="1.1" id="Layer_1" xmlns="http://www.w3.org/2000/svg" xmlns:xlink="http://www.w3.org/1999/xlink" x="0px" y="0px" width="724.079px" height="724.079px" viewBox="0 0 724.079 724.079" enable-background="new 0 0 724.079 724.079" xml:space="preserve">
<circle fill="#FFFFFF" cx="362.995" cy="365.769" r="305.464"/>
<path fill="#DA3B33" d="M362.04,85.04c152.984,0,277,124.017,277,277c0,152.982-124.016,277-277,277c-152.983,0-277-124.018-277-277  C85.04,209.057,209.057,85.04,362.04,85.04 M362.04,0c-48.837,0-96.259,9.584-140.948,28.486  c-43.122,18.239-81.831,44.332-115.052,77.553C72.819,139.26,46.725,177.97,28.486,221.091C9.584,265.78,0,313.202,0,362.04  c0,48.837,9.584,96.259,28.486,140.949c18.239,43.121,44.332,81.83,77.553,115.051c33.221,33.223,71.931,59.314,115.052,77.555  c44.689,18.9,92.111,28.484,140.948,28.484c48.838,0,96.26-9.584,140.948-28.484c43.123-18.238,81.832-44.332,115.053-77.555  c33.223-33.221,59.314-71.93,77.553-115.051c18.902-44.689,28.486-92.111,28.486-140.949c0-48.837-9.584-96.259-28.486-140.948  c-18.236-43.122-44.33-81.831-77.553-115.052c-33.221-33.221-71.93-59.315-115.051-77.554C458.299,9.584,410.877,0,362.04,0  L362.04,0z"/>
<g id="layer1" transform="translate(-681.23106,-561.54095)">
	<path id="path3147" d="M1010.236,963.776c0,0-26.079-61.811-61.979-63.704c-24.534-1.288-18.941,18.943-18.941,18.943   s18.081,12.905,23.242,36.153c5.167,23.238,6.026,94.695,21.522,111.043c15.495,16.357,51.649,60.256,60.264,60.256   c8.605,0,61.543,8.18,79.622-3.01c18.082-11.189,55.525-97.707,55.525-97.707l100.715-109.324c0,0,11.195-35.29-20.666-22.385   l-74.891,55.103l56.818-133.432c0,0,1.721-30.99-25.83-15.494l-75.316,116.644l-1.291-2.154l47.348-142.038   c0,0-0.865-39.596-28.404-12.915l-63.709,134.287l22.381-119.651c0,0-4.299-29.698-26.68-8.609   c-7.311,6.889-42.182,96.416-42.182,96.416"/>
	<path fill="#010101" d="M847.327,1119.584l-3.969-4.438l89.101-79.688l76.897,28.938l-2.097,5.57l-73.521-27.664L847.327,1119.584z    M870.638,994.108c-7.931,0-15.39-4.49-22.183-13.355l4.726-3.621c5.762,7.52,11.813,11.227,17.977,11.014   c10.056-0.346,17.949-10.723,19.39-12.74l24.783-83.207h-71.583v-5.954h84.044c-3.09-2.882-6.086-6.328-6.567-9.188   c-0.737-4.434-8.563-43.329-55.997-45.176c-15.081-0.587-27.218,3.531-36.08,12.243c-17.108,16.819-16.683,45.486-16.676,45.774   l0.208,9.516l-5.593-7.699c-0.034-0.039-0.12-0.115-0.199-0.171c-0.189,0.133-0.609,0.505-1.171,1.442   c-0.762,1.325-1.053,8.352,0.746,19.221c1.783,10.771,4.258,16.996,5.515,18.132c6.558,1.91,10.873,10.207,11.348,11.156   l0.213,0.426l3.525,23.789l-57.343,3.518l-0.364-5.941l50.867-3.119l-2.43-16.401c-1.146-2.097-4.328-6.87-7.575-7.734   c-2.166-0.575-3.854-2.616-5.476-6.614c-4.022-9.919-7.648-33.631-4.131-39.494c1.682-2.801,3.709-4.273,6.026-4.377   c0.553-9.33,3.469-31.026,18.309-45.639c10.082-9.927,23.717-14.622,40.513-13.974c52.144,2.03,60.82,45.225,61.637,50.144   c0.292,1.739,5.313,6.762,10.744,10.746l7.331,5.377h-23.629l-19.294,64.78h62.126v5.952h-63.899l-4.484,15.057l-0.245,0.369   c-0.413,0.623-10.269,15.256-24.384,15.738C871.121,994.104,870.879,994.108,870.638,994.108z M860.081,972.614   c-1.372,0-2.748-0.201-4.096-0.668c-5.443-1.889-8.922-7.523-10.342-16.753c-3.471-22.573,13.444-35.769,14.166-36.319   c3.771-2.883,9.678-3.255,15.418-0.966c5.748,2.293,9.791,6.667,10.551,11.417c1.584,9.922-2.568,30.037-8.405,35.09   C876.163,965.536,868.197,972.614,860.081,972.614z M867.79,922.362c-1.75,0-3.284,0.416-4.366,1.243   c-0.152,0.116-14.835,11.563-11.896,30.685c0.727,4.727,2.429,10.652,6.407,12.029c5.159,1.789,13.063-4.1,15.424-6.303   l0.108-0.096c3.563-3.014,7.87-20.656,6.433-29.655c-0.424-2.649-3.124-5.329-6.877-6.827   C871.22,922.72,869.412,922.362,867.79,922.362z"/>
</g>
<rect x="65.353" y="322.452" transform="matrix(-0.5432 -0.8396 0.8396 -0.5432 258.4155 870.5374)" fill="#DA3B33" width="601.338" height="85.039"/>
</svg>