<?xml version="1.0" encoding="UTF-8" standalone="no"?>
<!DOCTYPE svg PUBLIC "-//W3C//DTD SVG 1.1//EN" "http://www.w3.org/Graphics/SVG/1.1/DTD/svg11.dtd">
<svg width="100%" height="100%" viewBox="0 0 1453 473" version="1.1" xmlns="http://www.w3.org/2000/svg" xmlns:xlink="http://www.w3.org/1999/xlink" xml:space="preserve" xmlns:serif="http://www.serif.com/" style="fill-rule:evenodd;clip-rule:evenodd;stroke-linejoin:round;stroke-miterlimit:1.5;">
    <g transform="matrix(1,0,0,1,-6687.2,-6273.52)">
        <g id="Artboard4" transform="matrix(2.05,0,0,1.6,6687.2,6273.52)">
            <rect x="0" y="0" width="708.661" height="295.276" style="fill:none;"/>
            <clipPath id="_clip1">
                <rect x="0" y="0" width="708.661" height="295.276"/>
            </clipPath>
            <g clip-path="url(#_clip1)">
                <g transform="matrix(2.11031,0,0,2.75074,-51056.7,-75387.3)">
                    <g transform="matrix(1.16895,0,0,1.16895,23973.2,27287.2)">
                        <g transform="matrix(1.05934,0,0,1,-3250.53,-919.156)">
                            <rect x="3259.03" y="1038.65" width="44.536" height="59.824" style="fill:white;stroke:rgb(13,13,13);stroke-width:0.56px;"/>
                        </g>
                        <g transform="matrix(1,0,0,1,0,6)">
                            <g>
                                <g transform="matrix(1,0,0,1,-3052.89,-922.535)">
                                    <circle cx="3278.36" cy="1071.94" r="20.772" style="fill:white;stroke:rgb(13,13,13);stroke-width:0.57px;"/>
                                </g>
                                <g transform="matrix(0.866025,-0.491474,0.508674,0.866025,-45.7886,130.831)">
                                    <g transform="matrix(0.877333,0,0,0.877333,-2650.74,-791.044)">
                                        <circle cx="3278.36" cy="1071.94" r="20.772" style="fill:white;stroke:rgb(13,13,13);stroke-width:0.65px;"/>
                                    </g>
                                    <g transform="matrix(0.272717,0,0,0.36291,-5448.09,-11806.6)">
                                        <path d="M20814,32909.5L20814,32975.8C20814,32979 20810.4,32981.7 20806,32981.7C20801.5,32981.7 20797.9,32979 20797.9,32975.8L20797.9,32909.5C20797.9,32906.2 20801.5,32903.6 20806,32903.6C20810.4,32903.6 20814,32906.2 20814,32909.5Z" style="fill:none;stroke:rgb(13,13,13);stroke-width:1.78px;stroke-miterlimit:10;"/>
                                    </g>
                                    <g transform="matrix(0.112536,0,0,0.149754,-2115.37,-4791.2)">
                                        <path d="M20814,32909.5L20814,32975.8C20814,32979 20810.4,32981.7 20806,32981.7C20801.5,32981.7 20797.9,32979 20797.9,32975.8L20797.9,32909.5C20797.9,32906.2 20801.5,32903.6 20806,32903.6C20810.4,32903.6 20814,32906.2 20814,32909.5Z" style="fill:rgb(13,13,13);"/>
                                    </g>
                                </g>
                            </g>
                        </g>
                    </g>
                    <g transform="matrix(1.13789,0,0,0.872966,24032.8,27316.6)">
                        <g transform="matrix(0.0775015,0,0,0.0992988,-1720.07,-3172.94)">
                            <path d="M24234.1,33403.5L24257.1,33330.6L24265.6,33330.6L24290.1,33403.5L24281,33403.5L24274,33381.4L24249.1,33381.4L24242.5,33403.5L24234.1,33403.5ZM24251.4,33373.6L24271.6,33373.6L24265.4,33353.4C24263.5,33347.2 24262.1,33342.1 24261.2,33338.2C24260.4,33342.9 24259.3,33347.6 24257.9,33352.2L24251.4,33373.6Z"/>
                            <path d="M24335.4,33330.6L24343.4,33330.6L24343.4,33372.7C24343.4,33379.8 24342.7,33385.6 24341.3,33390.1C24340,33394.6 24337.4,33398.2 24333.8,33400.8C24330.2,33403.5 24325.6,33404.8 24320,33404.8C24312.1,33404.8 24306.2,33402.4 24302.2,33397.7C24298.3,33393 24296.3,33384.7 24296.3,33372.7L24296.3,33330.6L24304.2,33330.6L24304.2,33372.7C24304.2,33379.3 24304.8,33384.1 24305.8,33387C24306.8,33390 24308.5,33392.2 24310.8,33393.7C24313.2,33395.3 24316,33396.1 24319.4,33396.1C24325,33396.1 24329.1,33394.5 24331.6,33391.3C24334.2,33388.1 24335.4,33381.9 24335.4,33372.7L24335.4,33330.6Z"/>
                            <path d="M24372,33403.5L24372,33339.2L24352.3,33339.2L24352.3,33330.6L24399.7,33330.6L24399.7,33339.2L24379.9,33339.2L24379.9,33403.5L24372,33403.5Z"/>
                            <path d="M24404,33368C24404,33355.6 24406.8,33346 24412.2,33339.3C24417.7,33332.6 24424.5,33329.3 24432.7,33329.3C24438,33329.3 24442.8,33330.8 24447.1,33333.8C24451.5,33336.8 24454.9,33341.1 24457.4,33346.8C24460,33352.5 24461.2,33359.2 24461.2,33367.1C24461.2,33377.9 24458.8,33386.7 24453.9,33393.5C24448.5,33401 24441.4,33404.8 24432.6,33404.8C24423.8,33404.8 24416.7,33400.9 24411.3,33393.2C24406.5,33386.3 24404,33377.8 24404,33368ZM24412.2,33368.1C24412.2,33377.1 24414.2,33384.1 24418.1,33389.1C24422.1,33394 24426.9,33396.5 24432.6,33396.5C24438.4,33396.5 24443.3,33394 24447.2,33389C24451.1,33384 24453.1,33376.6 24453.1,33366.9C24453.1,33360.6 24452.1,33355 24450,33350.1C24448.5,33346.3 24446.1,33343.2 24443,33341C24439.9,33338.7 24436.5,33337.6 24432.7,33337.6C24426.8,33337.6 24421.9,33340 24418,33345C24414.1,33350 24412.2,33357.7 24412.2,33368.1Z"/>
                            <g transform="matrix(1,0,0,1,88.1111,-74.4806)">
                                <path d="M24404,33368C24404,33355.6 24406.8,33346 24412.2,33339.3C24417.7,33332.6 24424.5,33329.3 24432.7,33329.3C24438,33329.3 24442.8,33330.8 24447.1,33333.8C24451.5,33336.8 24454.9,33341.1 24457.4,33346.8C24460,33352.5 24461.2,33359.2 24461.2,33367.1C24461.2,33377.9 24458.8,33386.7 24453.9,33393.5C24448.5,33401 24441.4,33404.8 24432.6,33404.8C24423.8,33404.8 24416.7,33400.9 24411.3,33393.2C24406.5,33386.3 24404,33377.8 24404,33368ZM24412.2,33368.1C24412.2,33377.1 24414.2,33384.1 24418.1,33389.1C24422.1,33394 24426.9,33396.5 24432.6,33396.5C24438.4,33396.5 24443.3,33394 24447.2,33389C24451.1,33384 24453.1,33376.6 24453.1,33366.9C24453.1,33360.6 24452.1,33355 24450,33350.1C24448.5,33346.3 24446.1,33343.2 24443,33341C24439.9,33338.7 24436.5,33337.6 24432.7,33337.6C24426.8,33337.6 24421.9,33340 24418,33345C24414.1,33350 24412.2,33357.7 24412.2,33368.1Z"/>
                            </g>
                        </g>
                        <g transform="matrix(0.0775015,0,0,0.0992988,-1693.74,-3173.13)">
                            <path d="M24240.4,33403.5L24240.4,33330.6L24252.3,33330.6L24266.5,33382.2L24269.3,33393C24270,33390.3 24271.1,33386.4 24272.5,33381.3L24286.8,33330.6L24297.5,33330.6L24297.5,33403.5L24289.9,33403.5L24289.9,33342.5L24272.5,33403.5L24265.3,33403.5L24248,33341.5L24248,33403.5L24240.4,33403.5Z"/>
                            <path d="M24303.7,33403.5L24326.7,33330.6L24335.2,33330.6L24359.7,33403.5L24350.6,33403.5L24343.6,33381.4L24318.7,33381.4L24312.1,33403.5L24303.7,33403.5ZM24321,33373.6L24341.2,33373.6L24335,33353.4C24333.1,33347.2 24331.7,33342.1 24330.8,33338.2C24330,33342.9 24328.9,33347.6 24327.5,33352.2L24321,33373.6Z"/>
                            <rect x="24367.5" y="33330.6" width="7.91" height="72.929"/>
                            <path d="M24389,33403.5L24389,33330.6L24397.1,33330.6L24428.5,33388L24428.5,33330.6L24436.1,33330.6L24436.1,33403.5L24428,33403.5L24396.6,33346.1L24396.6,33403.5L24389,33403.5Z"/>
                        </g>
                    </g>
                </g>
                <g transform="matrix(0.0871024,0,0,0.136796,-224.348,-167.989)">
                    <path d="M2997.63,1516.35L2977.12,1516.35L2977.12,1409.73C2972.18,1413.58 2965.71,1417.42 2957.7,1421.26C2949.68,1425.1 2942.49,1427.98 2936.1,1429.9L2936.1,1413.73C2947.57,1409.33 2957.6,1404 2966.18,1397.74C2974.77,1391.48 2980.84,1385.41 2984.41,1379.52L2997.63,1379.52L2997.63,1516.35Z" style="fill-rule:nonzero;"/>
                </g>
                <g transform="matrix(0.0871024,0,0,0.136796,-16.682,-167.989)">
                    <path d="M3028.17,1500.27L3028.17,1516.35L2917.76,1516.35C2917.61,1512.32 2918.41,1508.45 2920.15,1504.73C2922.96,1498.6 2927.46,1492.56 2933.65,1486.61C2939.85,1480.66 2948.79,1473.78 2960.49,1465.97C2978.64,1453.82 2990.91,1444.2 2997.29,1437.11C3003.67,1430.01 3006.86,1423.3 3006.86,1416.98C3006.86,1410.35 3003.95,1404.76 2998.14,1400.2C2992.33,1395.65 2984.76,1393.37 2975.41,1393.37C2965.54,1393.37 2957.64,1395.79 2951.71,1400.62C2945.79,1405.46 2942.79,1412.15 2942.71,1420.7L2921.63,1418.94C2923.08,1406.11 2928.51,1396.33 2937.93,1389.61C2947.35,1382.88 2959.99,1379.52 2975.87,1379.52C2991.9,1379.52 3004.58,1383.15 3013.93,1390.4C3023.27,1397.65 3027.94,1406.63 3027.94,1417.36C3027.94,1422.81 3026.57,1428.17 3023.84,1433.44C3021.1,1438.7 3016.57,1444.25 3010.22,1450.08C3003.88,1455.9 2993.34,1463.89 2978.6,1474.06C2966.3,1482.49 2958.4,1488.2 2954.9,1491.21C2951.41,1494.21 2948.52,1497.23 2946.24,1500.27L3028.17,1500.27Z" style="fill-rule:nonzero;"/>
                </g>
                <g transform="matrix(2.67343,0,0,3.29476,-305.763,-339.315)">
                    <g transform="matrix(1,0,0,1,-3055.82,-919.156)">
                        <rect x="3259.03" y="1038.65" width="44.536" height="59.824" style="fill:white;stroke:black;stroke-width:0.54px;"/>
                    </g>
                    <g transform="matrix(0.0754422,0,0,0.0741557,-1616.88,-2344.55)">
                        <path d="M24321.7,33403.5L24321.7,33330.6L24333.5,33330.6L24347.7,33382.2L24350.6,33393C24351.3,33390.3 24352.3,33386.4 24353.7,33381.3L24368.1,33330.6L24378.7,33330.6L24378.7,33403.5L24371.1,33403.5L24371.1,33342.5L24353.7,33403.5L24346.6,33403.5L24329.3,33341.5L24329.3,33403.5L24321.7,33403.5Z" style="fill-rule:nonzero;"/>
                        <path d="M24384.9,33403.5L24407.9,33330.6L24416.4,33330.6L24440.9,33403.5L24431.8,33403.5L24424.9,33381.4L24399.9,33381.4L24393.3,33403.5L24384.9,33403.5ZM24402.2,33373.6L24422.4,33373.6L24416.2,33353.4C24414.3,33347.2 24412.9,33342.1 24412,33338.2C24411.2,33342.9 24410.2,33347.6 24408.8,33352.2L24402.2,33373.6Z" style="fill-rule:nonzero;"/>
                        <rect x="24448.7" y="33330.6" width="7.91" height="72.929" style="fill-rule:nonzero;"/>
                        <path d="M24470.2,33403.5L24470.2,33330.6L24478.3,33330.6L24509.7,33388L24509.7,33330.6L24517.3,33330.6L24517.3,33403.5L24509.2,33403.5L24477.8,33346.1L24477.8,33403.5L24470.2,33403.5Z" style="fill-rule:nonzero;"/>
                    </g>
                    <g transform="matrix(1,0,0,1,0,6)">
                        <g>
                            <g transform="matrix(1,0,0,1,-3052.89,-922.535)">
                                <circle cx="3278.36" cy="1071.94" r="20.772" style="fill:white;stroke:black;stroke-width:0.54px;"/>
                            </g>
                            <g transform="matrix(0.877333,0,0,0.877333,-2650.74,-791.044)">
                                <circle cx="3278.36" cy="1071.94" r="20.772" style="fill:white;stroke:black;stroke-width:0.62px;"/>
                            </g>
                        </g>
                    </g>
                </g>
                <g transform="matrix(0.256283,-0.54864,0.428207,0.328362,-21125.3,2209.52)">
                    <g transform="matrix(0.993444,0,0,0.993444,-881.527,-1433.03)">
                        <path d="M25628.6,37112.2C25628.6,37112.2 25687.4,36934.3 25763.8,36916C25787.4,36882.2 25845.8,36808.9 25859.8,36825.1C25868.5,36835.2 25814.7,36901.8 25814.7,36901.8C25814.7,36901.8 25837.2,36901.8 25833.4,36915C25832.6,36918 25827.8,36927.4 25827.8,36927.4C25827.8,36927.4 25851.1,36928.5 25847.4,36941.7C25846,36946.4 25836.9,36963.3 25836.9,36963.3C25836.9,36963.3 25849.2,36965.8 25845.5,36978.9C25841.7,36992.1 25827.1,37026.3 25818,37045.5C25818,37045.5 25737.5,37111.5 25722.1,37146C25706.7,37180.4 25704.4,37170.6 25694.6,37186.8" style="fill:white;"/>
                    </g>
                    <g transform="matrix(2.03656,0,0,1.58951,23974.8,35094.5)">
                        <g transform="matrix(0.487805,0,0,0.625,-12215,-23018.7)">
                            <path d="M25650.8,37173.5C25650.8,37173.5 25709.3,36995.7 25785.7,36977.3" style="fill:none;stroke:rgb(13,13,13);stroke-width:4.1px;stroke-linecap:round;stroke-miterlimit:10;"/>
                        </g>
                        <g transform="matrix(0.487805,0,0,0.625,-12215,-23018.7)">
                            <path d="M25725.9,37041.8C25725.9,37041.8 25762,37012 25784.5,36979.3C25807.1,36946.6 25867.7,36869.8 25882,36886.4C25896.3,36903 25810.1,36989.1 25803.4,37007.5" style="fill:white;stroke:rgb(13,13,13);stroke-width:4.1px;stroke-linecap:round;stroke-miterlimit:10;"/>
                        </g>
                        <g transform="matrix(0.487805,0,0,0.625,-12215,-23018.7)">
                            <path d="M25836.8,36963.1C25836.8,36963.1 25859.4,36963.1 25855.6,36976.3C25851.9,36989.5 25824.8,37029 25825.5,37043.6" style="fill:none;stroke:rgb(13,13,13);stroke-width:4.1px;stroke-linecap:round;stroke-miterlimit:10;"/>
                        </g>
                        <g transform="matrix(0.487805,0,0,0.625,-12208.2,-23002)">
                            <path d="M25836.8,36963.1C25836.8,36963.1 25859.4,36963.1 25855.6,36976.3C25851.9,36989.5 25824.8,37029 25825.5,37043.6" style="fill:none;stroke:rgb(13,13,13);stroke-width:4.1px;stroke-linecap:round;stroke-miterlimit:10;"/>
                        </g>
                        <g transform="matrix(0.487805,0,0,0.625,-12204.2,-22980.4)">
                            <path d="M25836.8,36963.1C25836.8,36963.1 25849.2,36965.8 25845.5,36978.9C25841.7,36992.1 25827.1,37026.3 25818,37045.5C25818,37045.5 25737.5,37111.5 25722.1,37146C25706.7,37180.4 25704.4,37170.6 25694.6,37186.8" style="fill:none;stroke:rgb(13,13,13);stroke-width:4.1px;stroke-linecap:round;stroke-miterlimit:10;"/>
                        </g>
                        <g transform="matrix(0.487805,0,0,0.625,-12215,-23018.7)">
                            <path d="M25870.2,36886C25870.2,36886 25855.4,36908.4 25881.5,36899.7" style="fill:none;stroke:rgb(13,13,13);stroke-width:4.1px;stroke-linecap:round;stroke-miterlimit:10;"/>
                        </g>
                    </g>
                </g>
                <g transform="matrix(0.479509,0,0,0.580874,-11288.9,-19218.7)">
                    <path d="M24369.2,33403.5L24392.3,33365.5L24371.9,33330.6L24381.3,33330.6L24392.2,33349.3C24394.4,33353.1 24396,33356.1 24397,33358.2C24398.3,33355.7 24399.8,33352.9 24401.7,33349.9L24413.8,33330.6L24422.3,33330.6L24401.3,33364.9L24424,33403.5L24414.2,33403.5L24399.2,33377.5C24398.3,33376.1 24397.5,33374.4 24396.6,33372.6C24395.2,33375.3 24394.2,33377.1 24393.7,33378.1L24378.7,33403.5L24369.2,33403.5Z" style="fill-rule:nonzero;"/>
                    <path d="M24427.9,33384.2L24435.2,33383C24436.8,33392.6 24440.6,33397.4 24446.8,33397.4C24450.2,33397.4 24453.1,33396 24455.5,33393.1C24458,33390.3 24459.2,33386.6 24459.2,33382.1C24459.2,33377.8 24458.1,33374.4 24455.8,33371.8C24453.6,33369.2 24450.8,33367.9 24447.5,33367.9C24446.1,33367.9 24444.4,33368.3 24442.3,33368.9L24443.2,33361.1L24444.3,33361.2C24447.9,33361.2 24450.9,33360.1 24453.1,33357.9C24455.4,33355.6 24456.5,33352.7 24456.5,33349C24456.5,33345.6 24455.6,33342.8 24453.7,33340.8C24451.8,33338.7 24449.5,33337.7 24446.8,33337.7C24443.9,33337.7 24441.6,33338.7 24439.6,33340.9C24437.7,33343.1 24436.5,33346.4 24435.9,33350.8L24428.6,33349.2C24429.5,33343 24431.6,33338.2 24434.9,33335.1C24438.1,33331.9 24442.1,33330.3 24446.7,33330.3C24451.5,33330.3 24455.6,33332.1 24459,33335.7C24462.4,33339.2 24464.1,33343.7 24464.1,33349.2C24464.1,33352.5 24463.4,33355.4 24461.9,33358C24460.5,33360.5 24458.5,33362.5 24455.9,33364C24458.3,33364.7 24460.2,33365.8 24461.8,33367.3C24463.3,33368.8 24464.6,33370.8 24465.6,33373.4C24466.5,33375.9 24467,33378.8 24467,33381.9C24467,33388.6 24465,33394.1 24461.1,33398.4C24457.1,33402.6 24452.4,33404.8 24446.9,33404.8C24441.8,33404.8 24437.5,33402.9 24433.9,33399.2C24430.4,33395.5 24428.4,33390.5 24427.9,33384.2Z" style="fill-rule:nonzero;"/>
                </g>
            </g>
        </g>
    </g>
</svg>
