<?xml version="1.0" encoding="UTF-8" standalone="no"?>
<!DOCTYPE svg PUBLIC "-//W3C//DTD SVG 1.1//EN" "http://www.w3.org/Graphics/SVG/1.1/DTD/svg11.dtd">
<svg width="100%" height="100%" viewBox="0 0 1453 473" version="1.1" xmlns="http://www.w3.org/2000/svg" xmlns:xlink="http://www.w3.org/1999/xlink" xml:space="preserve" xmlns:serif="http://www.serif.com/" style="fill-rule:evenodd;clip-rule:evenodd;stroke-linejoin:round;stroke-miterlimit:1.5;">
    <g transform="matrix(1,0,0,1,-8657.6,-5437.7)">
        <g id="Artboard4" transform="matrix(2.05,0,0,1.6,8657.6,5437.7)">
            <rect x="0" y="0" width="708.661" height="295.276" style="fill:none;"/>
            <clipPath id="_clip1">
                <rect x="0" y="0" width="708.661" height="295.276"/>
            </clipPath>
            <g clip-path="url(#_clip1)">
                <g transform="matrix(2.11031,0,0,2.75074,-51056.7,-75387.3)">
                    <g transform="matrix(1.16895,0,0,1.16895,23973.2,27287.2)">
                        <g transform="matrix(1.05934,0,0,1,-3250.53,-919.156)">
                            <rect x="3259.03" y="1038.65" width="44.536" height="59.824" style="fill:white;stroke:rgb(13,13,13);stroke-width:0.56px;"/>
                        </g>
                        <g transform="matrix(1,0,0,1,0,6)">
                            <g>
                                <g transform="matrix(1,0,0,1,-3052.89,-922.535)">
                                    <circle cx="3278.36" cy="1071.94" r="20.772" style="fill:white;stroke:rgb(13,13,13);stroke-width:0.57px;"/>
                                </g>
                                <g transform="matrix(0.866025,-0.491474,0.508674,0.866025,-45.7886,130.831)">
                                    <g transform="matrix(0.877333,0,0,0.877333,-2650.74,-791.044)">
                                        <circle cx="3278.36" cy="1071.94" r="20.772" style="fill:white;stroke:rgb(13,13,13);stroke-width:0.65px;"/>
                                    </g>
                                    <g transform="matrix(0.272717,0,0,0.36291,-5448.09,-11806.6)">
                                        <path d="M20814,32909.5L20814,32975.8C20814,32979 20810.4,32981.7 20806,32981.7C20801.5,32981.7 20797.9,32979 20797.9,32975.8L20797.9,32909.5C20797.9,32906.2 20801.5,32903.6 20806,32903.6C20810.4,32903.6 20814,32906.2 20814,32909.5Z" style="fill:none;stroke:rgb(13,13,13);stroke-width:1.78px;stroke-miterlimit:10;"/>
                                    </g>
                                    <g transform="matrix(0.112536,0,0,0.149754,-2115.37,-4791.2)">
                                        <path d="M20814,32909.5L20814,32975.8C20814,32979 20810.4,32981.7 20806,32981.7C20801.5,32981.7 20797.9,32979 20797.9,32975.8L20797.9,32909.5C20797.9,32906.2 20801.5,32903.6 20806,32903.6C20810.4,32903.6 20814,32906.2 20814,32909.5Z" style="fill:rgb(13,13,13);"/>
                                    </g>
                                </g>
                            </g>
                        </g>
                    </g>
                    <g transform="matrix(1.13789,0,0,0.872966,24032.8,27316.6)">
                        <g transform="matrix(0.0775015,0,0,0.0992988,-1720.07,-3172.94)">
                            <path d="M24234.1,33403.5L24257.1,33330.6L24265.6,33330.6L24290.1,33403.5L24281,33403.5L24274,33381.4L24249.1,33381.4L24242.5,33403.5L24234.1,33403.5ZM24251.4,33373.6L24271.6,33373.6L24265.4,33353.4C24263.5,33347.2 24262.1,33342.1 24261.2,33338.2C24260.4,33342.9 24259.3,33347.6 24257.9,33352.2L24251.4,33373.6Z" style="fill-rule:nonzero;"/>
                            <path d="M24335.4,33330.6L24343.4,33330.6L24343.4,33372.7C24343.4,33379.8 24342.7,33385.6 24341.3,33390.1C24340,33394.6 24337.4,33398.2 24333.8,33400.8C24330.2,33403.5 24325.6,33404.8 24320,33404.8C24312.1,33404.8 24306.2,33402.4 24302.2,33397.7C24298.3,33393 24296.3,33384.7 24296.3,33372.7L24296.3,33330.6L24304.2,33330.6L24304.2,33372.7C24304.2,33379.3 24304.8,33384.1 24305.8,33387C24306.8,33390 24308.5,33392.2 24310.8,33393.7C24313.2,33395.3 24316,33396.1 24319.4,33396.1C24325,33396.1 24329.1,33394.5 24331.6,33391.3C24334.2,33388.1 24335.4,33381.9 24335.4,33372.7L24335.4,33330.6Z" style="fill-rule:nonzero;"/>
                            <path d="M24372,33403.5L24372,33339.2L24352.3,33339.2L24352.3,33330.6L24399.7,33330.6L24399.7,33339.2L24379.9,33339.2L24379.9,33403.5L24372,33403.5Z" style="fill-rule:nonzero;"/>
                            <path d="M24404,33368C24404,33355.6 24406.8,33346 24412.2,33339.3C24417.7,33332.6 24424.5,33329.3 24432.7,33329.3C24438,33329.3 24442.8,33330.8 24447.1,33333.8C24451.5,33336.8 24454.9,33341.1 24457.4,33346.8C24460,33352.5 24461.2,33359.2 24461.2,33367.1C24461.2,33377.9 24458.8,33386.7 24453.9,33393.5C24448.5,33401 24441.4,33404.8 24432.6,33404.8C24423.8,33404.8 24416.7,33400.9 24411.3,33393.2C24406.5,33386.3 24404,33377.8 24404,33368ZM24412.2,33368.1C24412.2,33377.1 24414.2,33384.1 24418.1,33389.1C24422.1,33394 24426.9,33396.5 24432.6,33396.5C24438.4,33396.5 24443.3,33394 24447.2,33389C24451.1,33384 24453.1,33376.6 24453.1,33366.9C24453.1,33360.6 24452.1,33355 24450,33350.1C24448.5,33346.3 24446.1,33343.2 24443,33341C24439.9,33338.7 24436.5,33337.6 24432.7,33337.6C24426.8,33337.6 24421.9,33340 24418,33345C24414.1,33350 24412.2,33357.7 24412.2,33368.1Z" style="fill-rule:nonzero;"/>
                            <g transform="matrix(1,0,0,1,87.8451,-75.0469)">
                                <path d="M24404,33368C24404,33355.6 24406.8,33346 24412.2,33339.3C24417.7,33332.6 24424.5,33329.3 24432.7,33329.3C24438,33329.3 24442.8,33330.8 24447.1,33333.8C24451.5,33336.8 24454.9,33341.1 24457.4,33346.8C24460,33352.5 24461.2,33359.2 24461.2,33367.1C24461.2,33377.9 24458.8,33386.7 24453.9,33393.5C24448.5,33401 24441.4,33404.8 24432.6,33404.8C24423.8,33404.8 24416.7,33400.9 24411.3,33393.2C24406.5,33386.3 24404,33377.8 24404,33368ZM24412.2,33368.1C24412.2,33377.1 24414.2,33384.1 24418.1,33389.1C24422.1,33394 24426.9,33396.5 24432.6,33396.5C24438.4,33396.5 24443.3,33394 24447.2,33389C24451.1,33384 24453.1,33376.6 24453.1,33366.9C24453.1,33360.6 24452.1,33355 24450,33350.1C24448.5,33346.3 24446.1,33343.2 24443,33341C24439.9,33338.7 24436.5,33337.6 24432.7,33337.6C24426.8,33337.6 24421.9,33340 24418,33345C24414.1,33350 24412.2,33357.7 24412.2,33368.1Z" style="fill-rule:nonzero;"/>
                            </g>
                        </g>
                        <g transform="matrix(0.0775015,0,0,0.0992988,-1693.74,-3173.13)">
                            <path d="M24240.4,33403.5L24240.4,33330.6L24252.3,33330.6L24266.5,33382.2L24269.3,33393C24270,33390.3 24271.1,33386.4 24272.5,33381.3L24286.8,33330.6L24297.5,33330.6L24297.5,33403.5L24289.9,33403.5L24289.9,33342.5L24272.5,33403.5L24265.3,33403.5L24248,33341.5L24248,33403.5L24240.4,33403.5Z" style="fill-rule:nonzero;"/>
                            <path d="M24303.7,33403.5L24326.7,33330.6L24335.2,33330.6L24359.7,33403.5L24350.6,33403.5L24343.6,33381.4L24318.7,33381.4L24312.1,33403.5L24303.7,33403.5ZM24321,33373.6L24341.2,33373.6L24335,33353.4C24333.1,33347.2 24331.7,33342.1 24330.8,33338.2C24330,33342.9 24328.9,33347.6 24327.5,33352.2L24321,33373.6Z" style="fill-rule:nonzero;"/>
                            <rect x="24367.5" y="33330.6" width="7.91" height="72.929" style="fill-rule:nonzero;"/>
                            <path d="M24389,33403.5L24389,33330.6L24397.1,33330.6L24428.5,33388L24428.5,33330.6L24436.1,33330.6L24436.1,33403.5L24428,33403.5L24396.6,33346.1L24396.6,33403.5L24389,33403.5Z" style="fill-rule:nonzero;"/>
                        </g>
                    </g>
                </g>
                <g transform="matrix(1,0,0,1,188.171,13.4648)">
                    <g transform="matrix(2.51306,0,0,3.27571,-459.363,-349.598)">
                        <g transform="matrix(1.04238,0,0,1,-3194.88,-919.156)">
                            <rect x="3259.03" y="1038.65" width="44.536" height="59.824" style="fill:white;stroke:black;stroke-width:0.55px;"/>
                        </g>
                        <g transform="matrix(1,0,0,1,0,6)">
                            <g>
                                <g transform="matrix(1,0,0,1,-3052.89,-922.535)">
                                    <circle cx="3278.36" cy="1071.94" r="20.772" style="fill:white;stroke:black;stroke-width:0.56px;"/>
                                </g>
                                <g transform="matrix(0.877333,0,0,0.877333,-2650.74,-791.044)">
                                    <circle cx="3278.36" cy="1071.94" r="20.772" style="fill:white;stroke:black;stroke-width:0.64px;"/>
                                </g>
                            </g>
                        </g>
                    </g>
                    <g transform="matrix(0.18959,0,0,0.242913,-4521.77,-8029.32)">
                        <path d="M24240.4,33403.5L24240.4,33330.6L24252.3,33330.6L24266.5,33382.2L24269.3,33393C24270,33390.3 24271.1,33386.4 24272.5,33381.3L24286.8,33330.6L24297.5,33330.6L24297.5,33403.5L24289.9,33403.5L24289.9,33342.5L24272.5,33403.5L24265.3,33403.5L24248,33341.5L24248,33403.5L24240.4,33403.5Z" style="fill-rule:nonzero;"/>
                        <path d="M24303.7,33403.5L24326.7,33330.6L24335.2,33330.6L24359.7,33403.5L24350.6,33403.5L24343.6,33381.4L24318.7,33381.4L24312.1,33403.5L24303.7,33403.5ZM24321,33373.6L24341.2,33373.6L24335,33353.4C24333.1,33347.2 24331.7,33342.1 24330.8,33338.2C24330,33342.9 24328.9,33347.6 24327.5,33352.2L24321,33373.6Z" style="fill-rule:nonzero;"/>
                        <path d="M24365.9,33403.5L24365.9,33330.6L24392.4,33330.6C24398,33330.6 24402.1,33331.3 24404.7,33332.6C24407.3,33334 24409.5,33336.2 24411.2,33339.4C24412.9,33342.6 24413.7,33346.2 24413.7,33350.4C24413.7,33355.9 24412.3,33360.4 24409.4,33363.8C24406.6,33367.2 24402.4,33369.4 24396.9,33370.3C24399.1,33371.6 24400.8,33373 24402,33374.4C24404.3,33377.2 24406.4,33380.3 24408.2,33383.7L24418.7,33403.5L24408.7,33403.5L24400.7,33388.3C24397.7,33382.4 24395.3,33378.4 24393.8,33376.3C24392.2,33374.3 24390.7,33372.9 24389.2,33372.2C24387.7,33371.5 24385.6,33371.1 24383,33371.1L24373.8,33371.1L24373.8,33403.5L24365.9,33403.5ZM24373.8,33362.8L24390.9,33362.8C24394.6,33362.8 24397.4,33362.3 24399.3,33361.4C24401.2,33360.5 24402.8,33359.1 24403.9,33357.2C24405,33355.3 24405.6,33353 24405.6,33350.5C24405.6,33346.8 24404.5,33343.9 24402.3,33341.8C24400.2,33339.7 24397,33338.6 24392.7,33338.6L24373.8,33338.6L24373.8,33362.8Z" style="fill-rule:nonzero;"/>
                        <path d="M24468.7,33377.9L24476.7,33380.4C24474.9,33388.6 24471.8,33394.7 24467.4,33398.7C24463,33402.7 24457.7,33404.8 24451.4,33404.8C24445.9,33404.8 24441.1,33403.4 24437.2,33400.7C24433.3,33398 24430,33393.7 24427.5,33387.7C24425,33381.7 24423.8,33374.7 24423.8,33366.5C24423.8,33358.5 24425,33351.7 24427.5,33346.1C24430,33340.6 24433.4,33336.4 24437.7,33333.6C24442,33330.7 24446.8,33329.3 24452,33329.3C24457.8,33329.3 24462.8,33331.1 24466.9,33334.7C24471.1,33338.3 24474,33343.5 24475.6,33350.5L24467.9,33352.7C24465.2,33342.6 24459.9,33337.6 24451.9,33337.6C24447.9,33337.6 24444.5,33338.6 24441.5,33340.6C24438.6,33342.7 24436.3,33345.8 24434.6,33350.2C24432.8,33354.5 24431.9,33359.9 24431.9,33366.5C24431.9,33376.5 24433.7,33384 24437.2,33389C24440.7,33394 24445.4,33396.5 24451.2,33396.5C24455.6,33396.5 24459.3,33395 24462.4,33391.9C24465.5,33388.8 24467.6,33384.2 24468.7,33377.9Z" style="fill-rule:nonzero;"/>
                        <path d="M24486.5,33403.5L24486.5,33330.6L24494.4,33330.6L24494.4,33360.5L24525.5,33360.5L24525.5,33330.6L24533.4,33330.6L24533.4,33403.5L24525.5,33403.5L24525.5,33369.1L24494.4,33369.1L24494.4,33403.5L24486.5,33403.5Z" style="fill-rule:nonzero;"/>
                        <path d="M24547,33403.5L24547,33330.6L24590.2,33330.6L24590.2,33339.2L24554.9,33339.2L24554.9,33361.5L24588,33361.5L24588,33370.1L24554.9,33370.1L24554.9,33394.9L24591.6,33394.9L24591.6,33403.5L24547,33403.5Z" style="fill-rule:nonzero;"/>
                    </g>
                </g>
                <g transform="matrix(0.0871024,0,0,0.136796,-224.348,-167.989)">
                    <path d="M2997.63,1516.35L2977.12,1516.35L2977.12,1409.73C2972.18,1413.58 2965.71,1417.42 2957.7,1421.26C2949.68,1425.1 2942.49,1427.98 2936.1,1429.9L2936.1,1413.73C2947.57,1409.33 2957.6,1404 2966.18,1397.74C2974.77,1391.48 2980.84,1385.41 2984.41,1379.52L2997.63,1379.52L2997.63,1516.35Z" style="fill-rule:nonzero;"/>
                </g>
                <g transform="matrix(0.0871024,0,0,0.136796,-16.682,-167.989)">
                    <path d="M3028.17,1500.27L3028.17,1516.35L2917.76,1516.35C2917.61,1512.32 2918.41,1508.45 2920.15,1504.73C2922.96,1498.6 2927.46,1492.56 2933.65,1486.61C2939.85,1480.66 2948.79,1473.78 2960.49,1465.97C2978.64,1453.82 2990.91,1444.2 2997.29,1437.11C3003.67,1430.01 3006.86,1423.3 3006.86,1416.98C3006.86,1410.35 3003.95,1404.76 2998.14,1400.2C2992.33,1395.65 2984.76,1393.37 2975.41,1393.37C2965.54,1393.37 2957.64,1395.79 2951.71,1400.62C2945.79,1405.46 2942.79,1412.15 2942.71,1420.7L2921.63,1418.94C2923.08,1406.11 2928.51,1396.33 2937.93,1389.61C2947.35,1382.88 2959.99,1379.52 2975.87,1379.52C2991.9,1379.52 3004.58,1383.15 3013.93,1390.4C3023.27,1397.65 3027.94,1406.63 3027.94,1417.36C3027.94,1422.81 3026.57,1428.17 3023.84,1433.44C3021.1,1438.7 3016.57,1444.25 3010.22,1450.08C3003.88,1455.9 2993.34,1463.89 2978.6,1474.06C2966.3,1482.49 2958.4,1488.2 2954.9,1491.21C2951.41,1494.21 2948.52,1497.23 2946.24,1500.27L3028.17,1500.27Z" style="fill-rule:nonzero;"/>
                </g>
                <g transform="matrix(0.256283,-0.54864,0.428207,0.328362,-21125.3,2209.52)">
                    <g transform="matrix(0.993444,0,0,0.993444,-881.527,-1433.03)">
                        <path d="M25628.6,37112.2C25628.6,37112.2 25687.4,36934.3 25763.8,36916C25787.4,36882.2 25845.8,36808.9 25859.8,36825.1C25868.5,36835.2 25814.7,36901.8 25814.7,36901.8C25814.7,36901.8 25837.2,36901.8 25833.4,36915C25832.6,36918 25827.8,36927.4 25827.8,36927.4C25827.8,36927.4 25851.1,36928.5 25847.4,36941.7C25846,36946.4 25836.9,36963.3 25836.9,36963.3C25836.9,36963.3 25849.2,36965.8 25845.5,36978.9C25841.7,36992.1 25827.1,37026.3 25818,37045.5C25818,37045.5 25737.5,37111.5 25722.1,37146C25706.7,37180.4 25704.4,37170.6 25694.6,37186.8" style="fill:white;"/>
                    </g>
                    <g transform="matrix(2.03656,0,0,1.58951,23974.8,35094.5)">
                        <g transform="matrix(0.487805,0,0,0.625,-12215,-23018.7)">
                            <path d="M25650.8,37173.5C25650.8,37173.5 25709.3,36995.7 25785.7,36977.3" style="fill:none;stroke:rgb(13,13,13);stroke-width:4.1px;stroke-linecap:round;stroke-miterlimit:10;"/>
                        </g>
                        <g transform="matrix(0.487805,0,0,0.625,-12215,-23018.7)">
                            <path d="M25725.9,37041.8C25725.9,37041.8 25762,37012 25784.5,36979.3C25807.1,36946.6 25867.7,36869.8 25882,36886.4C25896.3,36903 25810.1,36989.1 25803.4,37007.5" style="fill:white;stroke:rgb(13,13,13);stroke-width:4.1px;stroke-linecap:round;stroke-miterlimit:10;"/>
                        </g>
                        <g transform="matrix(0.487805,0,0,0.625,-12215,-23018.7)">
                            <path d="M25836.8,36963.1C25836.8,36963.1 25859.4,36963.1 25855.6,36976.3C25851.9,36989.5 25824.8,37029 25825.5,37043.6" style="fill:none;stroke:rgb(13,13,13);stroke-width:4.1px;stroke-linecap:round;stroke-miterlimit:10;"/>
                        </g>
                        <g transform="matrix(0.487805,0,0,0.625,-12208.2,-23002)">
                            <path d="M25836.8,36963.1C25836.8,36963.1 25859.4,36963.1 25855.6,36976.3C25851.9,36989.5 25824.8,37029 25825.5,37043.6" style="fill:none;stroke:rgb(13,13,13);stroke-width:4.1px;stroke-linecap:round;stroke-miterlimit:10;"/>
                        </g>
                        <g transform="matrix(0.487805,0,0,0.625,-12204.2,-22980.4)">
                            <path d="M25836.8,36963.1C25836.8,36963.1 25849.2,36965.8 25845.5,36978.9C25841.7,36992.1 25827.1,37026.3 25818,37045.5C25818,37045.5 25737.5,37111.5 25722.1,37146C25706.7,37180.4 25704.4,37170.6 25694.6,37186.8" style="fill:none;stroke:rgb(13,13,13);stroke-width:4.1px;stroke-linecap:round;stroke-miterlimit:10;"/>
                        </g>
                        <g transform="matrix(0.487805,0,0,0.625,-12215,-23018.7)">
                            <path d="M25870.2,36886C25870.2,36886 25855.4,36908.4 25881.5,36899.7" style="fill:none;stroke:rgb(13,13,13);stroke-width:4.1px;stroke-linecap:round;stroke-miterlimit:10;"/>
                        </g>
                    </g>
                </g>
                <g transform="matrix(0.730517,0,0,0.730517,417.898,39.9789)">
                    <g>
                        <g transform="matrix(0.435193,0,0,0.395255,-11483.7,-9408.6)">
                            <path d="M27015.4,24352.4L27016.3,24352.4C27017.5,24352.4 27018.6,24353.9 27018.6,24355.7L27018.6,24400.8C27018.6,24402.6 27017.5,24404 27016.3,24404L26995.2,24404C26993.9,24404 26992.8,24402.6 26992.8,24400.8L26992.8,24355.7C26992.8,24353.9 26993.9,24352.4 26995.2,24352.4L26996,24352.4L26996,24335.5C26996,24333.7 26997,24332.2 26998.3,24332.2L27013.1,24332.2C27014.4,24332.2 27015.4,24333.7 27015.4,24335.5L27015.4,24352.4ZM27010.8,24338.8L27000.6,24338.8L27000.6,24352.4L27010.8,24352.4L27010.8,24338.8ZM27013.9,24362.2L27013.9,24359L26997.5,24359L26997.5,24362.2L27013.9,24362.2Z"/>
                        </g>
                        <g transform="matrix(0.435193,0,0,0.395255,-11427.3,-9478.18)">
                            <path d="M27015.4,24352.4L27016.3,24352.4C27017.5,24352.4 27018.6,24353.9 27018.6,24355.7L27018.6,24400.8C27018.6,24402.6 27017.5,24404 27016.3,24404L26995.2,24404C26993.9,24404 26992.8,24402.6 26992.8,24400.8L26992.8,24355.7C26992.8,24353.9 26993.9,24352.4 26995.2,24352.4L26996,24352.4L26996,24335.5C26996,24333.7 26997,24332.2 26998.3,24332.2L27013.1,24332.2C27014.4,24332.2 27015.4,24333.7 27015.4,24335.5L27015.4,24352.4ZM27010.8,24338.8L27000.6,24338.8L27000.6,24352.4L27010.8,24352.4L27010.8,24338.8ZM27013.9,24362.2L27013.9,24359L26997.5,24359L26997.5,24362.2L27013.9,24362.2Z"/>
                        </g>
                        <g transform="matrix(0.440635,-0.133226,0.17834,0.978075,-18059.4,-31174.6)">
                            <path d="M27220.4,35775.4C27181.5,35794.8 27141.6,35794.1 27141.6,35794.1L27141.8,35788.9C27141.8,35788.9 27178.1,35789.4 27213.8,35771.9L27202.7,35765.9L27235.8,35762.5L27232.2,35781.8L27220.4,35775.4Z"/>
                        </g>
                        <g transform="matrix(0.634521,0,0,0.839187,-4846.79,-1395.31)">
                            <g transform="matrix(0.471034,0,0,0.451577,-4691.69,-9110.16)">
                                <path d="M26911,24156.5L26911,24578.2L26406,24578.2L26406,23917.5L26911,23917.5L26911,23917.7C26913,23917.2 26915.1,23916.9 26917.2,23916.9L27053.6,23916.9C27068.2,23916.9 27080.1,23929.3 27080.1,23944.6L27080.1,24129.6C27080.1,24144.9 27068.2,24157.3 27053.6,24157.3L26917.2,24157.3C26915.1,24157.3 26913,24157 26911,24156.5Z" style="fill:rgb(254,255,254);stroke:rgb(128,128,128);stroke-width:7.49px;stroke-miterlimit:10;"/>
                            </g>
                            <g id="path2836" transform="matrix(1.32953,1.87253e-17,-1.87253e-17,-1.17663,7531.22,2217.92)">
                                <path d="M187.282,305.953L182.539,311.981L172.757,311.917L172.757,302.834L167.387,302.834L166.74,305.685L166.223,308.609L165.964,311.46L165.835,314.458L165.964,317.382L166.223,320.379L166.74,323.45L167.387,326.52L172.757,326.52L172.757,318.287L182.539,318.223L187.282,322.217L210.3,322.217L210.3,305.953L187.282,305.953Z" style="fill:white;stroke:rgb(128,128,128);stroke-width:2.75px;stroke-miterlimit:2;"/>
                            </g>
                            <g transform="matrix(0.476334,0.126551,-0.0304643,0.10833,-4087.36,-4074.88)">
                                <rect x="26318.1" y="24237.7" width="315.175" height="79.714" style="fill:rgb(254,255,254);"/>
                            </g>
                            <g transform="matrix(0.476334,0.126551,-0.0304643,0.10833,-4087.36,-4074.88)">
                                <path d="M26636.6,24237.9L26636.6,24317.6C26636.6,24325.7 26635.1,24332.2 26633.3,24332.2L26318.1,24332.2C26317.2,24332.2 26316.3,24330.6 26315.7,24327.8C26315.1,24325 26314.7,24321.1 26314.7,24317.2L26314.7,24237.5C26314.7,24229.4 26316.2,24222.9 26318,24222.9L26633.2,24222.9C26634.1,24222.9 26635,24224.5 26635.6,24227.3C26636.3,24230.1 26636.6,24233.9 26636.6,24237.9ZM26629.9,24252.5L26321.5,24252.5L26321.5,24302.6L26629.9,24302.6L26629.9,24252.5Z" style="fill:rgb(128,128,128);"/>
                            </g>
                            <g transform="matrix(0.689897,0,0,0.272402,-10431.4,-4702.85)">
                                <rect x="26260.4" y="24404.5" width="596.013" height="55.186" style="fill:rgb(254,255,254);"/>
                            </g>
                            <g transform="matrix(0.689897,0,0,0.272402,-10431.4,-4702.85)">
                                <path d="M26858.9,24404.5L26858.9,24459.6C26858.9,24463 26857.8,24465.8 26856.4,24465.8L26260.4,24465.8C26259.1,24465.8 26258,24463 26258,24459.6L26258,24404.5C26258,24401.1 26259.1,24398.3 26260.4,24398.3L26856.4,24398.3C26857.8,24398.3 26858.9,24401.1 26858.9,24404.5ZM26854,24410.6L26262.9,24410.6L26262.9,24453.5L26854,24453.5L26854,24410.6Z" style="fill:rgb(128,128,128);"/>
                            </g>
                            <g transform="matrix(0.488761,0,0,0.476881,-5162.44,-9706.06)">
                                <rect x="26271.5" y="23898" width="127.542" height="213.387" style="fill:none;stroke:rgb(128,128,128);stroke-width:7.15px;stroke-miterlimit:10;"/>
                            </g>
                            <g transform="matrix(0.488761,0,0,0.476881,-5152.8,-9706.06)">
                                <path d="M26321.8,24111.4C26321.8,24111.4 26305.3,24175.5 26380.5,24174.4C26504.6,24172.6 26544.8,24214.4 26536.2,24229.1" style="fill:none;stroke:rgb(128,128,128);stroke-width:7.15px;stroke-miterlimit:10;"/>
                            </g>
                            <g transform="matrix(0.488761,0,0,0.476881,-5156.54,-9708.12)">
                                <rect x="26872.5" y="24355.7" width="127.427" height="137.008" style="fill:rgb(254,255,254);stroke:rgb(128,128,128);stroke-width:7.15px;stroke-miterlimit:10;"/>
                            </g>
                            <g transform="matrix(0.614054,0,0,0.614054,-3855.2,-18380.6)">
                                <path d="M19138,32991.9L19109.9,32991.9L19109.9,32978L19138,32978L19138,32955.2L19126.1,32955.2L19126.1,32938.5L19138,32938.5L19138,32926.1L19145.7,32926.1L19145.7,32938.5L19156.6,32938.5L19156.6,32930.9C19156.6,32923.9 19162.3,32918.2 19169.3,32918.2L19231.6,32918.2C19238.7,32918.2 19244.4,32923.9 19244.4,32930.9L19244.4,32956.4C19244.4,32963.4 19238.7,32969.1 19231.6,32969.1L19169.3,32969.1C19162.3,32969.1 19156.6,32963.4 19156.6,32956.4L19156.6,32955.2L19145.7,32955.2L19145.7,32978L19233.9,32978L19233.9,32991.9L19145.7,32991.9L19145.7,33002.3L19149.4,33002.3L19149.4,33015.5L19134.3,33015.5L19134.3,33002.3L19138,33002.3L19138,32991.9Z" style="fill:none;stroke:rgb(128,128,128);stroke-width:5.62px;stroke-miterlimit:10;"/>
                            </g>
                            <g transform="matrix(0.833005,0,0,1.28133,491.892,2480.83)">
                                <path d="M8783.47,-503.985L8777.13,-503.985L8777.13,-513.843L8783.47,-513.843L8783.47,-532.487L8793.32,-532.487L8793.32,-513.843L8799.66,-513.843L8799.66,-503.985L8793.32,-503.985L8793.32,-469.69L8799.66,-469.69L8799.66,-459.832L8793.32,-459.832L8793.32,-450.879L8789.48,-450.879L8789.48,-442.265L8787.31,-442.265L8787.31,-450.879L8783.47,-450.879L8783.47,-459.832L8777.13,-459.832L8777.13,-469.69L8783.47,-469.69L8783.47,-503.985Z" style="fill:white;stroke:rgb(128,128,128);stroke-width:3.17px;"/>
                            </g>
                        </g>
                    </g>
                </g>
                <g transform="matrix(0.0871024,0,0,0.136796,182.344,-167.989)">
                    <path d="M2920.49,1480.38L2941,1478.15C2943.36,1487.63 2947.37,1494.46 2953.02,1498.64C2958.68,1502.83 2965.58,1504.92 2973.7,1504.92C2983.35,1504.92 2991.5,1502.19 2998.14,1496.74C3004.79,1491.28 3008.11,1484.53 3008.11,1476.47C3008.11,1468.79 3005.04,1462.45 2998.89,1457.46C2992.73,1452.48 2984.91,1449.98 2975.41,1449.98C2971.54,1449.98 2966.72,1450.6 2960.94,1451.84L2963.22,1437.15C2964.59,1437.28 2965.69,1437.34 2966.53,1437.34C2975.26,1437.34 2983.12,1435.48 2990.11,1431.76C2997.1,1428.05 3000.59,1422.31 3000.59,1414.57C3000.59,1408.43 2998.05,1403.35 2992.96,1399.32C2987.87,1395.29 2981.3,1393.28 2973.25,1393.28C2965.27,1393.28 2958.63,1395.33 2953.31,1399.41C2947.99,1403.51 2944.57,1409.64 2943.05,1417.82L2922.55,1414.85C2925.05,1403.63 2930.75,1394.94 2939.64,1388.77C2948.52,1382.61 2959.58,1379.52 2972.79,1379.52C2981.91,1379.52 2990.3,1381.12 2997.97,1384.31C3005.64,1387.5 3011.51,1391.86 3015.58,1397.37C3019.64,1402.89 3021.67,1408.74 3021.67,1414.94C3021.67,1420.83 3019.74,1426.19 3015.86,1431.02C3011.99,1435.85 3006.25,1439.69 2998.66,1442.55C3008.53,1444.4 3016.2,1448.26 3021.67,1454.12C3027.14,1459.98 3029.88,1467.3 3029.88,1476.1C3029.88,1488 3024.56,1498.09 3013.93,1506.36C3003.29,1514.63 2989.85,1518.77 2973.59,1518.77C2958.93,1518.77 2946.76,1515.2 2937.07,1508.08C2927.39,1500.95 2921.86,1491.72 2920.49,1480.38Z" style="fill-rule:nonzero;"/>
                </g>
            </g>
        </g>
    </g>
</svg>
