<?xml version="1.0" encoding="UTF-8" standalone="no"?>
<!DOCTYPE svg PUBLIC "-//W3C//DTD SVG 1.1//EN" "http://www.w3.org/Graphics/SVG/1.1/DTD/svg11.dtd">
<svg width="100%" height="100%" viewBox="0 0 237 237" version="1.1" xmlns="http://www.w3.org/2000/svg" xmlns:xlink="http://www.w3.org/1999/xlink" xml:space="preserve" xmlns:serif="http://www.serif.com/" style="fill-rule:evenodd;clip-rule:evenodd;stroke-linejoin:round;stroke-miterlimit:1.5;">
    <g transform="matrix(1,0,0,1,-5331.26,-3503.69)">
        <g id="Artboard4" transform="matrix(0.423111,0,0,0.354867,3043.79,2463.39)">
            <rect x="5406.33" y="2931.52" width="558.295" height="665.659" style="fill:none;"/>
            <g transform="matrix(4.20981,0,0,5.0194,-14381.1,-12943.9)">
                <g transform="matrix(1.80158,0,0,1.80158,-38897.8,-46245.6)">
                    <g transform="matrix(1.16895,0,0,1.16895,23973.2,27287.2)">
                        <g transform="matrix(1.05934,0,0,1,-3250.53,-919.156)">
                            <rect x="3259.03" y="1038.65" width="44.536" height="59.824" style="fill:white;stroke:rgb(13,13,13);stroke-width:0.22px;"/>
                        </g>
                        <g transform="matrix(1,0,0,1,0,6)">
                            <g>
                                <g transform="matrix(1,0,0,1,-3052.89,-922.535)">
                                    <circle cx="3278.36" cy="1071.94" r="20.772" style="fill:white;stroke:rgb(13,13,13);stroke-width:0.22px;"/>
                                </g>
                                <g transform="matrix(0.877333,0,0,0.877333,-2650.74,-791.044)">
                                    <circle cx="3278.36" cy="1071.94" r="20.772" style="fill:white;stroke:rgb(13,13,13);stroke-width:0.25px;"/>
                                </g>
                            </g>
                        </g>
                    </g>
                    <g transform="matrix(1.13789,0,0,0.872966,24032.8,27316.6)">
                        <g transform="matrix(0.0775015,0,0,0.0992988,-1720.07,-3172.94)">
                            <path d="M24234.1,33403.5L24257.1,33330.6L24265.6,33330.6L24290.1,33403.5L24281,33403.5L24274,33381.4L24249.1,33381.4L24242.5,33403.5L24234.1,33403.5ZM24251.4,33373.6L24271.6,33373.6L24265.4,33353.4C24263.5,33347.2 24262.1,33342.1 24261.2,33338.2C24260.4,33342.9 24259.3,33347.6 24257.9,33352.2L24251.4,33373.6Z" style="fill-rule:nonzero;"/>
                            <path d="M24335.4,33330.6L24343.4,33330.6L24343.4,33372.7C24343.4,33379.8 24342.7,33385.6 24341.3,33390.1C24340,33394.6 24337.4,33398.2 24333.8,33400.8C24330.2,33403.5 24325.6,33404.8 24320,33404.8C24312.1,33404.8 24306.2,33402.4 24302.2,33397.7C24298.3,33393 24296.3,33384.7 24296.3,33372.7L24296.3,33330.6L24304.2,33330.6L24304.2,33372.7C24304.2,33379.3 24304.8,33384.1 24305.8,33387C24306.8,33390 24308.5,33392.2 24310.8,33393.7C24313.2,33395.3 24316,33396.1 24319.4,33396.1C24325,33396.1 24329.1,33394.5 24331.6,33391.3C24334.2,33388.1 24335.4,33381.9 24335.4,33372.7L24335.4,33330.6Z" style="fill-rule:nonzero;"/>
                            <path d="M24372,33403.5L24372,33339.2L24352.3,33339.2L24352.3,33330.6L24399.7,33330.6L24399.7,33339.2L24379.9,33339.2L24379.9,33403.5L24372,33403.5Z" style="fill-rule:nonzero;"/>
                            <path d="M24404,33368C24404,33355.6 24406.8,33346 24412.2,33339.3C24417.7,33332.6 24424.5,33329.3 24432.7,33329.3C24438,33329.3 24442.8,33330.8 24447.1,33333.8C24451.5,33336.8 24454.9,33341.1 24457.4,33346.8C24460,33352.5 24461.2,33359.2 24461.2,33367.1C24461.2,33377.9 24458.8,33386.7 24453.9,33393.5C24448.5,33401 24441.4,33404.8 24432.6,33404.8C24423.8,33404.8 24416.7,33400.9 24411.3,33393.2C24406.5,33386.3 24404,33377.8 24404,33368ZM24412.2,33368.1C24412.2,33377.1 24414.2,33384.1 24418.1,33389.1C24422.1,33394 24426.9,33396.5 24432.6,33396.5C24438.4,33396.5 24443.3,33394 24447.2,33389C24451.1,33384 24453.1,33376.6 24453.1,33366.9C24453.1,33360.6 24452.1,33355 24450,33350.1C24448.5,33346.3 24446.1,33343.2 24443,33341C24439.9,33338.7 24436.5,33337.6 24432.7,33337.6C24426.8,33337.6 24421.9,33340 24418,33345C24414.1,33350 24412.2,33357.7 24412.2,33368.1Z" style="fill-rule:nonzero;"/>
                        </g>
                        <g transform="matrix(0.0775015,0,0,0.0992988,-1693.74,-3173.13)">
                            <path d="M24240.4,33403.5L24240.4,33330.6L24252.3,33330.6L24266.5,33382.2L24269.3,33393C24270,33390.3 24271.1,33386.4 24272.5,33381.3L24286.8,33330.6L24297.5,33330.6L24297.5,33403.5L24289.9,33403.5L24289.9,33342.5L24272.5,33403.5L24265.3,33403.5L24248,33341.5L24248,33403.5L24240.4,33403.5Z" style="fill-rule:nonzero;"/>
                            <path d="M24303.7,33403.5L24326.7,33330.6L24335.2,33330.6L24359.7,33403.5L24350.6,33403.5L24343.6,33381.4L24318.7,33381.4L24312.1,33403.5L24303.7,33403.5ZM24321,33373.6L24341.2,33373.6L24335,33353.4C24333.1,33347.2 24331.7,33342.1 24330.8,33338.2C24330,33342.9 24328.9,33347.6 24327.5,33352.2L24321,33373.6Z" style="fill-rule:nonzero;"/>
                            <rect x="24367.5" y="33330.6" width="7.91" height="72.929" style="fill-rule:nonzero;"/>
                            <path d="M24389,33403.5L24389,33330.6L24397.1,33330.6L24428.5,33388L24428.5,33330.6L24436.1,33330.6L24436.1,33403.5L24428,33403.5L24396.6,33346.1L24396.6,33403.5L24389,33403.5Z" style="fill-rule:nonzero;"/>
                        </g>
                        <g transform="matrix(0.0775015,0,0,0.0992988,-1699.63,-3180.43)">
                            <path d="M24237.5,33367.6C24237.5,33355.3 24239.2,33346 24242.5,33339.7C24245.8,33333.4 24250.6,33330.3 24257.1,33330.3C24262.8,33330.3 24267.3,33332.8 24270.6,33338C24274.5,33344.1 24276.5,33354 24276.5,33367.6C24276.5,33379.7 24274.9,33389 24271.6,33395.3C24268.3,33401.6 24263.4,33404.8 24257,33404.8C24251.3,33404.8 24246.6,33402 24243,33396.4C24239.3,33390.8 24237.5,33381.2 24237.5,33367.6ZM24245,33367.5C24245,33379.4 24246.2,33387.3 24248.4,33391.3C24250.7,33395.4 24253.6,33397.4 24257.2,33397.4C24260.5,33397.4 24263.3,33395.4 24265.6,33391.3C24267.8,33387.2 24269,33379.3 24269,33367.5C24269,33355.6 24267.8,33347.7 24265.6,33343.7C24263.3,33339.7 24260.3,33337.7 24256.7,33337.7C24253.4,33337.7 24250.6,33339.7 24248.4,33343.8C24246.2,33347.9 24245,33355.8 24245,33367.5Z" style="fill-rule:nonzero;"/>
                        </g>
                    </g>
                </g>
                <g transform="matrix(0.574331,0,0,0.777532,-7181.68,-22374.8)">
                    <path d="M20814,32909.5L20814,32975.8C20814,32979 20810.4,32981.7 20806,32981.7C20801.5,32981.7 20797.9,32979 20797.9,32975.8L20797.9,32909.5C20797.9,32906.2 20801.5,32903.6 20806,32903.6C20810.4,32903.6 20814,32906.2 20814,32909.5Z" style="fill:none;stroke:rgb(13,13,13);stroke-width:0.68px;stroke-miterlimit:10;"/>
                </g>
                <g transform="matrix(0.236997,0,0,0.320847,-163.101,-7344.32)">
                    <path d="M20814,32909.5L20814,32975.8C20814,32979 20810.4,32981.7 20806,32981.7C20801.5,32981.7 20797.9,32979 20797.9,32975.8L20797.9,32909.5C20797.9,32906.2 20801.5,32903.6 20806,32903.6C20810.4,32903.6 20814,32906.2 20814,32909.5Z" style="fill:rgb(13,13,13);"/>
                </g>
            </g>
        </g>
    </g>
</svg>
