<?xml version="1.0" encoding="UTF-8" standalone="no"?>
<!DOCTYPE svg PUBLIC "-//W3C//DTD SVG 1.1//EN" "http://www.w3.org/Graphics/SVG/1.1/DTD/svg11.dtd">
<svg width="100%" height="100%" viewBox="0 0 237 237" version="1.1" xmlns="http://www.w3.org/2000/svg" xmlns:xlink="http://www.w3.org/1999/xlink" xml:space="preserve" xmlns:serif="http://www.serif.com/" style="fill-rule:evenodd;clip-rule:evenodd;stroke-linejoin:round;stroke-miterlimit:1.5;">
    <g transform="matrix(1,0,0,1,-4756.31,-14543.3)">
        <g id="Artboard4" transform="matrix(0.423111,0,0,0.354867,2468.83,13503)">
            <rect x="5406.33" y="2931.52" width="558.295" height="665.659" style="fill:none;"/>
            <g transform="matrix(9.39178,0,0,10.5706,-25131.7,-8030.99)">
                <rect x="3259.03" y="1038.65" width="44.536" height="59.824" style="fill:rgb(38,38,38);stroke:rgb(13,13,13);stroke-width:0.22px;"/>
            </g>
            <g transform="matrix(8.86569,0,0,10.5706,-23379.5,-8003.28)">
                <circle cx="3278.36" cy="1071.94" r="20.772" style="fill:rgb(179,179,179);stroke:rgb(13,13,13);stroke-width:0.22px;"/>
            </g>
            <g transform="matrix(7.77817,0,0,9.27398,-19814.2,-6613.34)">
                <circle cx="3278.36" cy="1071.94" r="20.772" style="fill:rgb(51,51,51);stroke:rgb(13,13,13);stroke-width:0.25px;"/>
            </g>
            <g transform="matrix(0.668847,0,0,0.783873,-10706.1,-23097.2)">
                <path d="M24234.1,33403.5L24257.1,33330.6L24265.6,33330.6L24290.1,33403.5L24281,33403.5L24274,33381.4L24249.1,33381.4L24242.5,33403.5L24234.1,33403.5ZM24251.4,33373.6L24271.6,33373.6L24265.4,33353.4C24263.5,33347.2 24262.1,33342.1 24261.2,33338.2C24260.4,33342.9 24259.3,33347.6 24257.9,33352.2L24251.4,33373.6Z" style="fill:white;fill-rule:nonzero;"/>
            </g>
            <g transform="matrix(0.668847,0,0,0.783873,-10706.1,-23097.2)">
                <path d="M24335.4,33330.6L24343.4,33330.6L24343.4,33372.7C24343.4,33379.8 24342.7,33385.6 24341.3,33390.1C24340,33394.6 24337.4,33398.2 24333.8,33400.8C24330.2,33403.5 24325.6,33404.8 24320,33404.8C24312.1,33404.8 24306.2,33402.4 24302.2,33397.7C24298.3,33393 24296.3,33384.7 24296.3,33372.7L24296.3,33330.6L24304.2,33330.6L24304.2,33372.7C24304.2,33379.3 24304.8,33384.1 24305.8,33387C24306.8,33390 24308.5,33392.2 24310.8,33393.7C24313.2,33395.3 24316,33396.1 24319.4,33396.1C24325,33396.1 24329.1,33394.5 24331.6,33391.3C24334.2,33388.1 24335.4,33381.9 24335.4,33372.7L24335.4,33330.6Z" style="fill:white;fill-rule:nonzero;"/>
            </g>
            <g transform="matrix(0.668847,0,0,0.783873,-10706.1,-23097.2)">
                <path d="M24372,33403.5L24372,33339.2L24352.3,33339.2L24352.3,33330.6L24399.7,33330.6L24399.7,33339.2L24379.9,33339.2L24379.9,33403.5L24372,33403.5Z" style="fill:white;fill-rule:nonzero;"/>
            </g>
            <g transform="matrix(0.668847,0,0,0.783873,-10706.1,-23097.2)">
                <path d="M24404,33368C24404,33355.6 24406.8,33346 24412.2,33339.3C24417.7,33332.6 24424.5,33329.3 24432.7,33329.3C24438,33329.3 24442.8,33330.8 24447.1,33333.8C24451.5,33336.8 24454.9,33341.1 24457.4,33346.8C24460,33352.5 24461.2,33359.2 24461.2,33367.1C24461.2,33377.9 24458.8,33386.7 24453.9,33393.5C24448.5,33401 24441.4,33404.8 24432.6,33404.8C24423.8,33404.8 24416.7,33400.9 24411.3,33393.2C24406.5,33386.3 24404,33377.8 24404,33368ZM24412.2,33368.1C24412.2,33377.1 24414.2,33384.1 24418.1,33389.1C24422.1,33394 24426.9,33396.5 24432.6,33396.5C24438.4,33396.5 24443.3,33394 24447.2,33389C24451.1,33384 24453.1,33376.6 24453.1,33366.9C24453.1,33360.6 24452.1,33355 24450,33350.1C24448.5,33346.3 24446.1,33343.2 24443,33341C24439.9,33338.7 24436.5,33337.6 24432.7,33337.6C24426.8,33337.6 24421.9,33340 24418,33345C24414.1,33350 24412.2,33357.7 24412.2,33368.1Z" style="fill:white;fill-rule:nonzero;"/>
            </g>
            <g transform="matrix(0.668847,0,0,0.783873,-10647,-23154.7)">
                <path d="M24404,33368C24404,33355.6 24406.8,33346 24412.2,33339.3C24417.7,33332.6 24424.5,33329.3 24432.7,33329.3C24438,33329.3 24442.8,33330.8 24447.1,33333.8C24451.5,33336.8 24454.9,33341.1 24457.4,33346.8C24460,33352.5 24461.2,33359.2 24461.2,33367.1C24461.2,33377.9 24458.8,33386.7 24453.9,33393.5C24448.5,33401 24441.4,33404.8 24432.6,33404.8C24423.8,33404.8 24416.7,33400.9 24411.3,33393.2C24406.5,33386.3 24404,33377.8 24404,33368ZM24412.2,33368.1C24412.2,33377.1 24414.2,33384.1 24418.1,33389.1C24422.1,33394 24426.9,33396.5 24432.6,33396.5C24438.4,33396.5 24443.3,33394 24447.2,33389C24451.1,33384 24453.1,33376.6 24453.1,33366.9C24453.1,33360.6 24452.1,33355 24450,33350.1C24448.5,33346.3 24446.1,33343.2 24443,33341C24439.9,33338.7 24436.5,33337.6 24432.7,33337.6C24426.8,33337.6 24421.9,33340 24418,33345C24414.1,33350 24412.2,33357.7 24412.2,33368.1Z" style="fill:white;fill-rule:nonzero;"/>
            </g>
            <g transform="matrix(0.668847,0,0,0.783873,-10478.9,-23098.7)">
                <path d="M24240.4,33403.5L24240.4,33330.6L24252.3,33330.6L24266.5,33382.2L24269.3,33393C24270,33390.3 24271.1,33386.4 24272.5,33381.3L24286.8,33330.6L24297.5,33330.6L24297.5,33403.5L24289.9,33403.5L24289.9,33342.5L24272.5,33403.5L24265.3,33403.5L24248,33341.5L24248,33403.5L24240.4,33403.5Z" style="fill:white;fill-rule:nonzero;"/>
            </g>
            <g transform="matrix(0.668847,0,0,0.783873,-10478.9,-23098.7)">
                <path d="M24303.7,33403.5L24326.7,33330.6L24335.2,33330.6L24359.7,33403.5L24350.6,33403.5L24343.6,33381.4L24318.7,33381.4L24312.1,33403.5L24303.7,33403.5ZM24321,33373.6L24341.2,33373.6L24335,33353.4C24333.1,33347.2 24331.7,33342.1 24330.8,33338.2C24330,33342.9 24328.9,33347.6 24327.5,33352.2L24321,33373.6Z" style="fill:white;fill-rule:nonzero;"/>
            </g>
            <g transform="matrix(0.668847,0,0,0.783873,-10478.9,-23098.7)">
                <rect x="24367.5" y="33330.6" width="7.91" height="72.929" style="fill:white;fill-rule:nonzero;"/>
            </g>
            <g transform="matrix(0.668847,0,0,0.783873,-10478.9,-23098.7)">
                <path d="M24389,33403.5L24389,33330.6L24397.1,33330.6L24428.5,33388L24428.5,33330.6L24436.1,33330.6L24436.1,33403.5L24428,33403.5L24396.6,33346.1L24396.6,33403.5L24389,33403.5Z" style="fill:white;fill-rule:nonzero;"/>
            </g>
            <g transform="matrix(2.41783,0,0,3.90274,-44614.6,-125252)">
                <path d="M20814,32909.5L20814,32975.8C20814,32979 20810.4,32981.7 20806,32981.7C20801.5,32981.7 20797.9,32979 20797.9,32975.8L20797.9,32909.5C20797.9,32906.2 20801.5,32903.6 20806,32903.6C20810.4,32903.6 20814,32906.2 20814,32909.5Z" style="fill:rgb(102,102,102);stroke:rgb(13,13,13);stroke-width:0.68px;stroke-miterlimit:10;"/>
            </g>
            <g transform="matrix(0.997712,0,0,1.61046,-15067.7,-49807.9)">
                <path d="M20814,32909.5L20814,32975.8C20814,32979 20810.4,32981.7 20806,32981.7C20801.5,32981.7 20797.9,32979 20797.9,32975.8L20797.9,32909.5C20797.9,32906.2 20801.5,32903.6 20806,32903.6C20810.4,32903.6 20814,32906.2 20814,32909.5Z" style="fill:rgb(64,64,64);stroke:white;stroke-width:1.66px;stroke-miterlimit:10;"/>
            </g>
        </g>
    </g>
</svg>
