<?xml version="1.0" encoding="UTF-8" standalone="no"?>
<!DOCTYPE svg PUBLIC "-//W3C//DTD SVG 1.1//EN" "http://www.w3.org/Graphics/SVG/1.1/DTD/svg11.dtd">
<svg width="100%" height="100%" viewBox="0 0 237 237" version="1.1" xmlns="http://www.w3.org/2000/svg" xmlns:xlink="http://www.w3.org/1999/xlink" xml:space="preserve" xmlns:serif="http://www.serif.com/" style="fill-rule:evenodd;clip-rule:evenodd;stroke-linejoin:round;stroke-miterlimit:1.5;">
    <g transform="matrix(1,0,0,1,-5897.62,-4296.03)">
        <g id="Artboard4" transform="matrix(0.423111,0,0,0.354867,3610.14,3255.74)">
            <rect x="5406.33" y="2931.52" width="558.295" height="665.659" style="fill:none;"/>
            <g transform="matrix(1,0,0,1,-83.2188,-135.596)">
                <g transform="matrix(8.71451,0,0,10.5706,3803.79,1820.68)">
                    <g transform="matrix(1,0,0,1,-3055.82,-919.156)">
                        <rect x="3259.03" y="1038.65" width="44.536" height="59.824" style="fill:white;stroke:black;stroke-width:0.22px;"/>
                    </g>
                    <g transform="matrix(1,0,0,1,-3052.89,-916.535)">
                        <g>
                            <circle cx="3278.36" cy="1071.94" r="20.772" style="fill:white;stroke:black;stroke-width:0.22px;"/>
                        </g>
                    </g>
                </g>
                <g transform="matrix(0.657442,0,0,0.783873,-10287.5,-22961.6)">
                    <path d="M24240.5,33403.5L24240.5,33330.6L24261.1,33330.6C24266.2,33330.6 24270.1,33331 24272.8,33331.9C24276.2,33333.1 24279.2,33335.2 24281.8,33338.3C24284.4,33341.4 24286.3,33345.3 24287.8,33350C24289.2,33354.7 24289.9,33360.2 24289.9,33366.7C24289.9,33374.9 24288.7,33381.9 24286.3,33387.7C24283.9,33393.4 24280.8,33397.5 24277,33399.9C24273.2,33402.3 24268.2,33403.5 24262.1,33403.5L24240.5,33403.5ZM24248.4,33394.9L24261.1,33394.9C24266.2,33394.9 24270.1,33394.1 24272.8,33392.4C24275.5,33390.7 24277.5,33388 24278.9,33384.3C24280.8,33379.4 24281.8,33373.5 24281.8,33366.6C24281.8,33359.2 24280.8,33353.3 24278.7,33349.1C24276.7,33344.9 24274.2,33342.1 24271,33340.6C24268.9,33339.7 24265.5,33339.2 24260.9,33339.2L24248.4,33339.2L24248.4,33394.9Z" style="fill-rule:nonzero;"/>
                    <path d="M24301.1,33403.5L24301.1,33330.6L24344.3,33330.6L24344.3,33339.2L24309,33339.2L24309,33361.5L24342.1,33361.5L24342.1,33370.1L24309,33370.1L24309,33394.9L24345.7,33394.9L24345.7,33403.5L24301.1,33403.5Z" style="fill-rule:nonzero;"/>
                    <path d="M24357.2,33403.5L24357.2,33330.6L24397.6,33330.6L24397.6,33339.2L24365.1,33339.2L24365.1,33361.8L24393.2,33361.8L24393.2,33370.4L24365.1,33370.4L24365.1,33403.5L24357.2,33403.5Z" style="fill-rule:nonzero;"/>
                    <path d="M24396.6,33403.5L24419.6,33330.6L24428.1,33330.6L24452.5,33403.5L24443.5,33403.5L24436.5,33381.4L24411.5,33381.4L24405,33403.5L24396.6,33403.5ZM24413.8,33373.6L24434.1,33373.6L24427.9,33353.4C24425.9,33347.2 24424.5,33342.1 24423.6,33338.2C24422.9,33342.9 24421.8,33347.6 24420.4,33352.2L24413.8,33373.6Z" style="fill-rule:nonzero;"/>
                    <path d="M24497.9,33330.6L24505.9,33330.6L24505.9,33372.7C24505.9,33379.8 24505.2,33385.6 24503.8,33390.1C24502.4,33394.6 24499.9,33398.2 24496.3,33400.8C24492.7,33403.5 24488,33404.8 24482.4,33404.8C24474.5,33404.8 24468.6,33402.4 24464.7,33397.7C24460.8,33393 24458.8,33384.7 24458.8,33372.7L24458.8,33330.6L24466.7,33330.6L24466.7,33372.7C24466.7,33379.3 24467.2,33384.1 24468.3,33387C24469.3,33390 24471,33392.2 24473.3,33393.7C24475.6,33395.3 24478.5,33396.1 24481.8,33396.1C24487.5,33396.1 24491.6,33394.5 24494.1,33391.3C24496.6,33388.1 24497.9,33381.9 24497.9,33372.7L24497.9,33330.6Z" style="fill-rule:nonzero;"/>
                    <path d="M24518.7,33403.5L24518.7,33330.6L24526.6,33330.6L24526.6,33394.9L24556,33394.9L24556,33403.5L24518.7,33403.5Z" style="fill-rule:nonzero;"/>
                    <path d="M24574.8,33403.5L24574.8,33339.2L24555.1,33339.2L24555.1,33330.6L24602.5,33330.6L24602.5,33339.2L24582.7,33339.2L24582.7,33403.5L24574.8,33403.5Z" style="fill-rule:nonzero;"/>
                </g>
            </g>
        </g>
    </g>
</svg>
