<?xml version="1.0" encoding="UTF-8" standalone="no"?>
<!DOCTYPE svg PUBLIC "-//W3C//DTD SVG 1.1//EN" "http://www.w3.org/Graphics/SVG/1.1/DTD/svg11.dtd">
<svg width="100%" height="100%" viewBox="0 0 237 237" version="1.1" xmlns="http://www.w3.org/2000/svg" xmlns:xlink="http://www.w3.org/1999/xlink" xml:space="preserve" xmlns:serif="http://www.serif.com/" style="fill-rule:evenodd;clip-rule:evenodd;stroke-linejoin:round;stroke-miterlimit:2;">
    <g transform="matrix(1,0,0,1,-4759.7,-13999)">
        <g id="Artboard4" transform="matrix(0.423111,0,0,0.354867,2472.23,12958.7)">
            <rect x="5406.33" y="2931.52" width="558.295" height="665.659" style="fill:none;"/>
            <g transform="matrix(8.71451,0,0,10.5706,-22909.4,-8030.99)">
                <rect x="3259.03" y="1038.65" width="44.536" height="59.824" style="fill:rgb(38,38,38);"/>
            </g>
            <g transform="matrix(0.657442,0,0,0.783873,-10369.8,-23164.3)">
                <path d="M24305.3,33380L24312.7,33379.2C24313.1,33383.3 24314,33386.4 24315.4,33388.6C24316.8,33390.9 24318.9,33392.7 24321.5,33394C24324.1,33395.4 24327,33396.1 24330.3,33396.1C24335,33396.1 24338.7,33394.9 24341.3,33392.6C24343.9,33390.3 24345.2,33387.3 24345.2,33383.6C24345.2,33381.5 24344.7,33379.6 24343.8,33378C24342.8,33376.4 24341.4,33375.1 24339.5,33374.1C24337.6,33373 24333.5,33371.6 24327.1,33369.7C24321.5,33368 24317.5,33366.4 24315.1,33364.7C24312.7,33363 24310.9,33360.8 24309.5,33358.2C24308.2,33355.6 24307.5,33352.7 24307.5,33349.4C24307.5,33343.5 24309.5,33338.7 24313.3,33334.9C24317.1,33331.2 24322.2,33329.3 24328.7,33329.3C24333.1,33329.3 24337,33330.2 24340.4,33331.9C24343.7,33333.7 24346.3,33336.2 24348.1,33339.5C24350,33342.8 24350.9,33346.6 24351.1,33351.1L24343.5,33351.8C24343.1,33347 24341.7,33343.5 24339.2,33341.2C24336.8,33338.9 24333.4,33337.8 24328.9,33337.8C24324.5,33337.8 24321,33338.8 24318.7,33340.8C24316.3,33342.8 24315.2,33345.4 24315.2,33348.6C24315.2,33351.5 24316,33353.8 24317.7,33355.5C24319.5,33357.1 24323.4,33358.7 24329.4,33360.4C24335.3,33362 24339.4,33363.5 24341.8,33364.7C24345.5,33366.6 24348.2,33369 24350.1,33372C24351.9,33375.1 24352.9,33378.7 24352.9,33382.9C24352.9,33387 24351.9,33390.8 24349.9,33394.3C24348,33397.7 24345.3,33400.3 24341.9,33402.1C24338.6,33403.9 24334.5,33404.8 24329.8,33404.8C24322.4,33404.8 24316.5,33402.5 24312.1,33398.1C24307.7,33393.7 24305.4,33387.6 24305.3,33380Z" style="fill:white;fill-rule:nonzero;"/>
            </g>
            <g transform="matrix(0.657442,0,0,0.783873,-10369.8,-23164.3)">
                <path d="M24361.4,33368C24361.4,33355.6 24364.2,33346 24369.6,33339.3C24375.1,33332.6 24381.9,33329.3 24390.1,33329.3C24395.4,33329.3 24400.2,33330.8 24404.5,33333.8C24408.9,33336.8 24412.3,33341.1 24414.8,33346.8C24417.4,33352.5 24418.6,33359.2 24418.6,33367.1C24418.6,33377.9 24416.2,33386.7 24411.3,33393.5C24405.9,33401 24398.8,33404.8 24390,33404.8C24381.2,33404.8 24374.1,33400.9 24368.7,33393.2C24363.9,33386.3 24361.4,33377.8 24361.4,33368ZM24369.6,33368.1C24369.6,33377.1 24371.6,33384.1 24375.5,33389.1C24379.5,33394 24384.3,33396.5 24390,33396.5C24395.8,33396.5 24400.7,33394 24404.6,33389C24408.5,33384 24410.5,33376.6 24410.5,33366.9C24410.5,33360.6 24409.5,33355 24407.4,33350.1C24405.9,33346.3 24403.5,33343.2 24400.4,33341C24397.3,33338.7 24393.8,33337.6 24390.1,33337.6C24384.2,33337.6 24379.2,33340 24375.4,33345C24371.5,33350 24369.6,33357.7 24369.6,33368.1Z" style="fill:white;fill-rule:nonzero;"/>
            </g>
            <g transform="matrix(0.657442,0,0,0.783873,-10369.8,-23164.3)">
                <path d="M24467.7,33330.6L24475.7,33330.6L24475.7,33372.7C24475.7,33379.8 24475,33385.6 24473.6,33390.1C24472.3,33394.6 24469.7,33398.2 24466.1,33400.8C24462.5,33403.5 24457.9,33404.8 24452.3,33404.8C24444.4,33404.8 24438.5,33402.4 24434.5,33397.7C24430.6,33393 24428.6,33384.7 24428.6,33372.7L24428.6,33330.6L24436.5,33330.6L24436.5,33372.7C24436.5,33379.3 24437.1,33384.1 24438.1,33387C24439.1,33390 24440.8,33392.2 24443.1,33393.7C24445.5,33395.3 24448.3,33396.1 24451.7,33396.1C24457.3,33396.1 24461.4,33394.5 24463.9,33391.3C24466.5,33388.1 24467.7,33381.9 24467.7,33372.7L24467.7,33330.6Z" style="fill:white;fill-rule:nonzero;"/>
            </g>
            <g transform="matrix(0.657442,0,0,0.783873,-10369.8,-23164.3)">
                <path d="M24486.3,33380L24493.8,33379.2C24494.2,33383.3 24495.1,33386.4 24496.5,33388.6C24497.9,33390.9 24499.9,33392.7 24502.5,33394C24505.1,33395.4 24508.1,33396.1 24511.4,33396.1C24516.1,33396.1 24519.7,33394.9 24522.3,33392.6C24524.9,33390.3 24526.2,33387.3 24526.2,33383.6C24526.2,33381.5 24525.8,33379.6 24524.8,33378C24523.9,33376.4 24522.4,33375.1 24520.5,33374.1C24518.6,33373 24514.5,33371.6 24508.2,33369.7C24502.5,33368 24498.5,33366.4 24496.1,33364.7C24493.8,33363 24491.9,33360.8 24490.6,33358.2C24489.2,33355.6 24488.6,33352.7 24488.6,33349.4C24488.6,33343.5 24490.5,33338.7 24494.3,33334.9C24498.1,33331.2 24503.3,33329.3 24509.7,33329.3C24514.2,33329.3 24518.1,33330.2 24521.4,33331.9C24524.7,33333.7 24527.3,33336.2 24529.1,33339.5C24531,33342.8 24532,33346.6 24532.1,33351.1L24524.5,33351.8C24524.1,33347 24522.7,33343.5 24520.2,33341.2C24517.8,33338.9 24514.4,33337.8 24510,33337.8C24505.5,33337.8 24502.1,33338.8 24499.7,33340.8C24497.4,33342.8 24496.2,33345.4 24496.2,33348.6C24496.2,33351.5 24497.1,33353.8 24498.8,33355.5C24500.5,33357.1 24504.4,33358.7 24510.4,33360.4C24516.3,33362 24520.5,33363.5 24522.9,33364.7C24526.5,33366.6 24529.3,33369 24531.1,33372C24533,33375.1 24533.9,33378.7 24533.9,33382.9C24533.9,33387 24532.9,33390.8 24531,33394.3C24529,33397.7 24526.3,33400.3 24523,33402.1C24519.6,33403.9 24515.6,33404.8 24510.8,33404.8C24503.4,33404.8 24497.5,33402.5 24493.1,33398.1C24488.7,33393.7 24486.5,33387.6 24486.3,33380Z" style="fill:white;fill-rule:nonzero;"/>
            </g>
            <g transform="matrix(0.657442,0,0,0.783873,-10369.8,-23164.3)">
                <path d="M24256,33505.4L24256,33441.1L24236.3,33441.1L24236.3,33432.5L24283.7,33432.5L24283.7,33441.1L24263.9,33441.1L24263.9,33505.4L24256,33505.4Z" style="fill:white;fill-rule:nonzero;"/>
            </g>
            <g transform="matrix(0.657442,0,0,0.783873,-10369.8,-23164.3)">
                <path d="M24291.9,33505.4L24291.9,33432.5L24335.1,33432.5L24335.1,33441.1L24299.8,33441.1L24299.8,33463.4L24332.8,33463.4L24332.8,33472L24299.8,33472L24299.8,33496.8L24336.5,33496.8L24336.5,33505.4L24291.9,33505.4Z" style="fill:white;fill-rule:nonzero;"/>
            </g>
            <g transform="matrix(0.657442,0,0,0.783873,-10369.8,-23164.3)">
                <path d="M24347.2,33505.4L24347.2,33432.5L24355.3,33432.5L24386.7,33489.8L24386.7,33432.5L24394.3,33432.5L24394.3,33505.4L24386.2,33505.4L24354.8,33448L24354.8,33505.4L24347.2,33505.4Z" style="fill:white;fill-rule:nonzero;"/>
            </g>
            <g transform="matrix(0.657442,0,0,0.783873,-10369.8,-23164.3)">
                <path d="M24405,33481.9L24412.5,33481.1C24412.9,33485.1 24413.8,33488.3 24415.2,33490.5C24416.6,33492.7 24418.6,33494.5 24421.2,33495.9C24423.9,33497.3 24426.8,33497.9 24430.1,33497.9C24434.8,33497.9 24438.5,33496.8 24441.1,33494.5C24443.7,33492.2 24445,33489.2 24445,33485.5C24445,33483.4 24444.5,33481.5 24443.6,33479.9C24442.6,33478.3 24441.2,33477 24439.3,33475.9C24437.4,33474.9 24433.3,33473.5 24426.9,33471.6C24421.3,33469.9 24417.3,33468.2 24414.9,33466.5C24412.5,33464.9 24410.6,33462.7 24409.3,33460.1C24408,33457.5 24407.3,33454.6 24407.3,33451.3C24407.3,33445.4 24409.2,33440.5 24413,33436.8C24416.9,33433.1 24422,33431.2 24428.5,33431.2C24432.9,33431.2 24436.8,33432.1 24440.1,33433.8C24443.5,33435.6 24446,33438.1 24447.9,33441.4C24449.7,33444.7 24450.7,33448.5 24450.8,33453L24443.2,33453.7C24442.8,33448.9 24441.4,33445.4 24439,33443.1C24436.5,33440.8 24433.1,33439.7 24428.7,33439.7C24424.2,33439.7 24420.8,33440.7 24418.5,33442.7C24416.1,33444.7 24414.9,33447.3 24414.9,33450.5C24414.9,33453.4 24415.8,33455.7 24417.5,33457.3C24419.2,33459 24423.1,33460.6 24429.2,33462.3C24435.1,33463.9 24439.2,33465.4 24441.6,33466.6C24445.2,33468.4 24448,33470.9 24449.9,33473.9C24451.7,33476.9 24452.6,33480.6 24452.6,33484.8C24452.6,33488.9 24451.7,33492.7 24449.7,33496.1C24447.7,33499.6 24445.1,33502.2 24441.7,33504C24438.4,33505.8 24434.3,33506.6 24429.6,33506.6C24422.2,33506.6 24416.3,33504.4 24411.9,33500C24407.5,33495.5 24405.2,33489.5 24405,33481.9Z" style="fill:white;fill-rule:nonzero;"/>
            </g>
            <g transform="matrix(0.657442,0,0,0.783873,-10369.8,-23164.3)">
                <rect x="24464.9" y="33432.5" width="7.91" height="72.929" style="fill:white;fill-rule:nonzero;"/>
            </g>
            <g transform="matrix(0.657442,0,0,0.783873,-10369.8,-23164.3)">
                <path d="M24484.4,33469.9C24484.4,33457.4 24487.2,33447.9 24492.6,33441.2C24498.1,33434.5 24504.9,33431.2 24513.1,33431.2C24518.4,33431.2 24523.2,33432.7 24527.5,33435.7C24531.9,33438.6 24535.3,33443 24537.8,33448.7C24540.4,33454.4 24541.6,33461.1 24541.6,33469C24541.6,33479.8 24539.2,33488.6 24534.3,33495.4C24528.9,33502.9 24521.8,33506.6 24513,33506.6C24504.2,33506.6 24497.1,33502.8 24491.7,33495.1C24486.9,33488.1 24484.4,33479.7 24484.4,33469.9ZM24492.6,33470C24492.6,33479 24494.6,33486 24498.5,33490.9C24502.5,33495.9 24507.3,33498.4 24513,33498.4C24518.8,33498.4 24523.7,33495.9 24527.6,33490.9C24531.5,33485.9 24533.5,33478.5 24533.5,33468.8C24533.5,33462.5 24532.5,33456.9 24530.4,33451.9C24528.9,33448.1 24526.5,33445.1 24523.4,33442.8C24520.3,33440.6 24516.8,33439.4 24513.1,33439.4C24507.2,33439.4 24502.2,33441.9 24498.4,33446.9C24494.5,33451.9 24492.6,33459.6 24492.6,33470Z" style="fill:white;fill-rule:nonzero;"/>
            </g>
            <g transform="matrix(0.657442,0,0,0.783873,-10369.8,-23164.3)">
                <path d="M24551.4,33505.4L24551.4,33432.5L24559.5,33432.5L24591,33489.8L24591,33432.5L24598.5,33432.5L24598.5,33505.4L24590.4,33505.4L24559,33448L24559,33505.4L24551.4,33505.4Z" style="fill:white;fill-rule:nonzero;"/>
            </g>
            <g transform="matrix(8.71451,0,0,10.5706,-22883.8,-8003.28)">
                <circle cx="3278.36" cy="1071.94" r="20.772" style="fill:rgb(249,160,0);"/>
            </g>
            <g transform="matrix(8.45179,0,0,10.252,-22022.5,-7661.68)">
                <circle cx="3278.36" cy="1071.94" r="20.772" style="fill:rgb(255,228,157);"/>
            </g>
        </g>
    </g>
</svg>
