<?xml version="1.0" encoding="UTF-8" standalone="no"?>
<!DOCTYPE svg PUBLIC "-//W3C//DTD SVG 1.1//EN" "http://www.w3.org/Graphics/SVG/1.1/DTD/svg11.dtd">
<svg width="100%" height="100%" viewBox="0 0 237 237" version="1.1" xmlns="http://www.w3.org/2000/svg" xmlns:xlink="http://www.w3.org/1999/xlink" xml:space="preserve" xmlns:serif="http://www.serif.com/" style="fill-rule:evenodd;clip-rule:evenodd;stroke-linejoin:round;stroke-miterlimit:1.5;">
    <g transform="matrix(1,0,0,1,-5334.66,-3241.93)">
        <g id="Artboard4" transform="matrix(0.423111,0,0,0.354867,3047.18,2201.63)">
            <rect x="5406.33" y="2931.52" width="558.295" height="665.659" style="fill:none;"/>
            <g transform="matrix(8.71451,0,0,10.5706,3720.57,1685.08)">
                <g transform="matrix(1,0,0,1,-3055.82,-919.156)">
                    <rect x="3259.03" y="1038.65" width="44.536" height="59.824" style="fill:white;stroke:black;stroke-width:0.22px;"/>
                </g>
                <g transform="matrix(0.0754422,0,0,0.0741557,-1615.94,-2351.07)">
                    <path d="M24368.5,33403.5L24368.5,33330.6L24411.7,33330.6L24411.7,33339.2L24376.4,33339.2L24376.4,33361.5L24409.5,33361.5L24409.5,33370.1L24376.4,33370.1L24376.4,33394.9L24413.1,33394.9L24413.1,33403.5L24368.5,33403.5Z" style="fill-rule:nonzero;"/>
                    <path d="M24423.8,33403.5L24423.8,33330.6L24431.9,33330.6L24463.3,33388L24463.3,33330.6L24470.9,33330.6L24470.9,33403.5L24462.8,33403.5L24431.4,33346.1L24431.4,33403.5L24423.8,33403.5Z" style="fill-rule:nonzero;"/>
                    <path d="M24241,33481.9L24248.5,33481.1C24248.9,33485.1 24249.8,33488.3 24251.2,33490.5C24252.6,33492.7 24254.6,33494.5 24257.2,33495.9C24259.8,33497.3 24262.8,33497.9 24266.1,33497.9C24270.8,33497.9 24274.5,33496.8 24277.1,33494.5C24279.7,33492.2 24281,33489.2 24281,33485.5C24281,33483.4 24280.5,33481.5 24279.5,33479.9C24278.6,33478.3 24277.2,33477 24275.3,33475.9C24273.4,33474.9 24269.2,33473.5 24262.9,33471.6C24257.3,33469.9 24253.2,33468.2 24250.9,33466.5C24248.5,33464.9 24246.6,33462.7 24245.3,33460.1C24244,33457.5 24243.3,33454.6 24243.3,33451.3C24243.3,33445.4 24245.2,33440.5 24249,33436.8C24252.8,33433.1 24258,33431.2 24264.4,33431.2C24268.9,33431.2 24272.8,33432.1 24276.1,33433.8C24279.4,33435.6 24282,33438.1 24283.9,33441.4C24285.7,33444.7 24286.7,33448.5 24286.8,33453L24279.2,33453.7C24278.8,33448.9 24277.4,33445.4 24275,33443.1C24272.5,33440.8 24269.1,33439.7 24264.7,33439.7C24260.2,33439.7 24256.8,33440.7 24254.4,33442.7C24252.1,33444.7 24250.9,33447.3 24250.9,33450.5C24250.9,33453.4 24251.8,33455.7 24253.5,33457.3C24255.2,33459 24259.1,33460.6 24265.1,33462.3C24271,33463.9 24275.2,33465.4 24277.6,33466.6C24281.2,33468.4 24284,33470.9 24285.8,33473.9C24287.7,33476.9 24288.6,33480.6 24288.6,33484.8C24288.6,33488.9 24287.6,33492.7 24285.7,33496.1C24283.7,33499.6 24281.1,33502.2 24277.7,33504C24274.3,33505.8 24270.3,33506.6 24265.5,33506.6C24258.1,33506.6 24252.2,33504.4 24247.9,33500C24243.5,33495.5 24241.2,33489.5 24241,33481.9Z" style="fill-rule:nonzero;"/>
                    <path d="M24299.6,33505.4L24299.6,33432.5L24342.8,33432.5L24342.8,33441.1L24307.5,33441.1L24307.5,33463.4L24340.6,33463.4L24340.6,33472L24307.5,33472L24307.5,33496.8L24344.2,33496.8L24344.2,33505.4L24299.6,33505.4Z" style="fill-rule:nonzero;"/>
                    <path d="M24355.1,33505.4L24355.1,33432.5L24381.6,33432.5C24387.1,33432.5 24391.2,33433.2 24393.9,33434.5C24396.5,33435.9 24398.7,33438.1 24400.4,33441.3C24402,33444.5 24402.9,33448.1 24402.9,33452.3C24402.9,33457.8 24401.5,33462.3 24398.6,33465.7C24395.7,33469.1 24391.5,33471.3 24386.1,33472.2C24388.3,33473.5 24390,33474.9 24391.1,33476.2C24393.5,33479 24395.6,33482.1 24397.4,33485.6L24407.8,33505.4L24397.9,33505.4L24389.9,33490.2C24386.8,33484.3 24384.5,33480.3 24382.9,33478.2C24381.3,33476.2 24379.8,33474.8 24378.3,33474.1C24376.9,33473.4 24374.8,33473 24372.1,33473L24363,33473L24363,33505.4L24355.1,33505.4ZM24363,33464.7L24380,33464.7C24383.7,33464.7 24386.5,33464.2 24388.5,33463.3C24390.4,33462.4 24391.9,33461 24393,33459.1C24394.2,33457.2 24394.7,33454.9 24394.7,33452.4C24394.7,33448.7 24393.7,33445.8 24391.5,33443.7C24389.3,33441.6 24386.1,33440.5 24381.9,33440.5L24363,33440.5L24363,33464.7Z" style="fill-rule:nonzero;"/>
                    <path d="M24431.1,33505.4L24407.9,33432.5L24416.5,33432.5L24432,33485.5C24433.2,33489.6 24434.3,33493.5 24435.2,33497.4C24436.1,33493.4 24437.2,33489.4 24438.4,33485.5L24454.5,33432.5L24462.6,33432.5L24439.2,33505.4L24431.1,33505.4Z" style="fill-rule:nonzero;"/>
                    <rect x="24471.2" y="33432.5" width="7.91" height="72.929" style="fill-rule:nonzero;"/>
                    <path d="M24535.4,33479.8L24543.3,33482.3C24541.6,33490.5 24538.5,33496.6 24534.1,33500.6C24529.7,33504.6 24524.4,33506.6 24518.1,33506.6C24512.5,33506.6 24507.8,33505.3 24503.9,33502.6C24499.9,33499.9 24496.7,33495.5 24494.2,33489.6C24491.7,33483.6 24490.4,33476.5 24490.4,33468.4C24490.4,33460.4 24491.7,33453.6 24494.2,33448C24496.7,33442.5 24500.1,33438.3 24504.4,33435.4C24508.7,33432.6 24513.4,33431.2 24518.7,33431.2C24524.5,33431.2 24529.4,33433 24533.6,33436.6C24537.7,33440.2 24540.6,33445.4 24542.3,33452.4L24534.5,33454.6C24531.9,33444.5 24526.5,33439.4 24518.6,33439.4C24514.6,33439.4 24511.1,33440.5 24508.2,33442.5C24505.3,33444.5 24503,33447.7 24501.2,33452C24499.5,33456.3 24498.6,33461.8 24498.6,33468.4C24498.6,33478.4 24500.4,33485.9 24503.9,33490.9C24507.4,33495.9 24512.1,33498.4 24517.9,33498.4C24522.2,33498.4 24525.9,33496.9 24529.1,33493.8C24532.2,33490.7 24534.3,33486.1 24535.4,33479.8Z" style="fill-rule:nonzero;"/>
                    <path d="M24553.4,33505.4L24553.4,33432.5L24596.6,33432.5L24596.6,33441.1L24561.3,33441.1L24561.3,33463.4L24594.4,33463.4L24594.4,33472L24561.3,33472L24561.3,33496.8L24598,33496.8L24598,33505.4L24553.4,33505.4Z" style="fill-rule:nonzero;"/>
                </g>
                <g transform="matrix(1,0,0,1,0,6)">
                    <g>
                        <g transform="matrix(1,0,0,1,-3052.89,-922.535)">
                            <circle cx="3278.36" cy="1071.94" r="20.772" style="fill:white;stroke:black;stroke-width:0.22px;"/>
                        </g>
                        <g transform="matrix(0.877333,0,0,0.877333,-2650.74,-791.044)">
                            <circle cx="3278.36" cy="1071.94" r="20.772" style="fill:white;stroke:black;stroke-width:0.26px;"/>
                        </g>
                    </g>
                </g>
            </g>
        </g>
    </g>
</svg>
