<?xml version="1.0" encoding="UTF-8" standalone="no"?>
<!DOCTYPE svg PUBLIC "-//W3C//DTD SVG 1.1//EN" "http://www.w3.org/Graphics/SVG/1.1/DTD/svg11.dtd">
<svg width="100%" height="100%" viewBox="0 0 237 237" version="1.1" xmlns="http://www.w3.org/2000/svg" xmlns:xlink="http://www.w3.org/1999/xlink" xml:space="preserve" xmlns:serif="http://www.serif.com/" style="fill-rule:evenodd;clip-rule:evenodd;stroke-linejoin:round;stroke-miterlimit:1.5;">
    <g transform="matrix(1,0,0,1,-5331.26,-4588.37)">
        <g id="Artboard4" transform="matrix(0.423111,0,0,0.354867,3043.79,3548.07)">
            <rect x="5406.33" y="2931.52" width="558.295" height="665.659" style="fill:none;"/>
            <g transform="matrix(6.30568,0,0,7.64874,-13941.5,-7415.83)">
                <g>
                    <g transform="matrix(-0.186086,0.713399,-0.707212,-0.176732,4556.45,-841.722)">
                        <path d="M3390.68,1167.95L3392.42,1169.44L3391.59,1171.85L3394.75,1174.56L3396.93,1173.3L3398.63,1174.76L3388.83,1180.12L3387.14,1178.67L3390.68,1167.95ZM3390.97,1173.64L3389.57,1177.55L3393.13,1175.49L3390.97,1173.64Z" style="fill-rule:nonzero;"/>
                        <path d="M3389.63,1166.62L3380.9,1172.31L3378.51,1168.55C3377.91,1167.61 3377.55,1166.87 3377.44,1166.34C3377.32,1165.82 3377.38,1165.29 3377.62,1164.77C3377.86,1164.26 3378.23,1163.83 3378.75,1163.49C3379.4,1163.06 3380.07,1162.91 3380.74,1163.02C3381.42,1163.13 3382.06,1163.54 3382.66,1164.24C3382.64,1163.71 3382.68,1163.23 3382.79,1162.81C3382.89,1162.38 3383.15,1161.74 3383.56,1160.87L3384.57,1158.68L3385.93,1160.81L3384.85,1163.34C3384.47,1164.24 3384.24,1164.83 3384.17,1165.11C3384.1,1165.4 3384.09,1165.65 3384.15,1165.89C3384.2,1166.12 3384.36,1166.44 3384.62,1166.85L3384.85,1167.21L3388.49,1164.84L3389.63,1166.62ZM3383.46,1168.12L3382.62,1166.8C3382.07,1165.94 3381.7,1165.43 3381.49,1165.27C3381.28,1165.1 3381.05,1165.01 3380.8,1165.01C3380.55,1165 3380.29,1165.08 3380.03,1165.25C3379.74,1165.44 3379.55,1165.68 3379.47,1165.95C3379.39,1166.23 3379.42,1166.53 3379.56,1166.85C3379.63,1167.01 3379.9,1167.45 3380.36,1168.17L3381.24,1169.56L3383.46,1168.12Z" style="fill-rule:nonzero;"/>
                        <path d="M3383.86,1157.11L3373.89,1160.06L3372.65,1155.78C3372.34,1154.7 3372.21,1153.89 3372.24,1153.35C3372.28,1152.81 3372.49,1152.32 3372.86,1151.89C3373.23,1151.46 3373.71,1151.16 3374.3,1150.99C3375.05,1150.77 3375.73,1150.81 3376.35,1151.11C3376.96,1151.41 3377.46,1151.98 3377.85,1152.83C3377.97,1152.31 3378.14,1151.87 3378.37,1151.49C3378.59,1151.12 3379.01,1150.57 3379.65,1149.85L3381.24,1148.05L3381.94,1150.48L3380.2,1152.6C3379.57,1153.35 3379.19,1153.85 3379.04,1154.1C3378.9,1154.35 3378.82,1154.6 3378.81,1154.84C3378.79,1155.07 3378.86,1155.42 3378.99,1155.89L3379.11,1156.31L3383.27,1155.07L3383.86,1157.11ZM3377.52,1156.78L3377.08,1155.27C3376.8,1154.29 3376.58,1153.7 3376.43,1153.48C3376.28,1153.26 3376.08,1153.11 3375.85,1153.03C3375.61,1152.95 3375.34,1152.96 3375.04,1153.05C3374.7,1153.15 3374.46,1153.32 3374.3,1153.56C3374.15,1153.8 3374.09,1154.1 3374.14,1154.44C3374.16,1154.61 3374.29,1155.11 3374.53,1155.94L3374.99,1157.53L3377.52,1156.78Z" style="fill-rule:nonzero;"/>
                        <path d="M3381.08,1146.33L3370.7,1146.49L3370.58,1138.7L3372.34,1138.67L3372.42,1144.34L3374.73,1144.3L3374.65,1139.03L3376.39,1139L3376.47,1144.28L3379.3,1144.23L3379.21,1138.37L3380.96,1138.34L3381.08,1146.33ZM3370.09,1145.15L3367.97,1143.68L3367.95,1141.81L3370.01,1140.3L3370.04,1141.92L3368.99,1142.76L3370.06,1143.52L3370.09,1145.15Z" style="fill-rule:nonzero;"/>
                        <path d="M3381.83,1133.72L3373.44,1131.68L3372.72,1134.71L3371.01,1134.3L3372.94,1126.18L3374.65,1126.6L3373.93,1129.62L3382.32,1131.66L3381.83,1133.72Z" style="fill-rule:nonzero;"/>
                    </g>
                    <g transform="matrix(0.695129,0.170681,-0.180209,0.700641,925.16,-330.711)">
                        <path d="M3530.98,1628.37L3534.06,1630.81C3534.76,1631.36 3535.24,1631.83 3535.52,1632.23C3535.9,1632.76 3536.11,1633.34 3536.17,1633.99C3536.22,1634.63 3536.13,1635.28 3535.88,1635.95C3535.64,1636.63 3535.2,1637.35 3534.58,1638.12C3534.03,1638.81 3533.47,1639.32 3532.9,1639.68C3532.2,1640.12 3531.51,1640.37 3530.82,1640.43C3530.3,1640.48 3529.73,1640.39 3529.11,1640.15C3528.64,1639.98 3528.1,1639.64 3527.47,1639.15L3524.3,1636.64L3530.98,1628.37ZM3531.53,1631.11L3527.11,1636.58L3528.37,1637.58C3528.84,1637.95 3529.2,1638.19 3529.45,1638.3C3529.78,1638.45 3530.1,1638.52 3530.41,1638.5C3530.72,1638.48 3531.09,1638.33 3531.5,1638.05C3531.91,1637.77 3532.38,1637.31 3532.89,1636.67C3533.41,1636.03 3533.75,1635.5 3533.91,1635.07C3534.07,1634.63 3534.13,1634.24 3534.08,1633.89C3534.03,1633.53 3533.87,1633.2 3533.61,1632.88C3533.42,1632.64 3532.98,1632.25 3532.29,1631.7L3531.53,1631.11Z" style="fill-rule:nonzero;"/>
                        <path d="M3538.36,1638.26L3538.97,1636.35L3539.83,1634.78L3541.79,1635.83L3540.93,1637.4L3539.68,1638.98L3538.36,1638.26Z" style="fill-rule:nonzero;"/>
                        <path d="M3543.79,1636.99L3545.85,1637.65L3544.05,1643.1C3543.77,1643.97 3543.61,1644.53 3543.58,1644.81C3543.53,1645.25 3543.63,1645.64 3543.88,1646C3544.12,1646.36 3544.54,1646.63 3545.11,1646.81C3545.69,1647 3546.17,1647.02 3546.54,1646.88C3546.92,1646.74 3547.19,1646.51 3547.36,1646.19C3547.54,1645.86 3547.75,1645.3 3548.02,1644.51L3549.85,1638.94L3551.9,1639.6L3550.16,1644.89C3549.76,1646.1 3549.43,1646.93 3549.15,1647.39C3548.88,1647.86 3548.53,1648.21 3548.12,1648.46C3547.71,1648.71 3547.22,1648.85 3546.66,1648.89C3546.09,1648.94 3545.4,1648.83 3544.6,1648.57C3543.63,1648.26 3542.93,1647.91 3542.5,1647.52C3542.07,1647.14 3541.77,1646.72 3541.6,1646.28C3541.42,1645.83 3541.35,1645.39 3541.39,1644.97C3541.44,1644.36 3541.66,1643.48 3542.03,1642.36L3543.79,1636.99Z" style="fill-rule:nonzero;"/>
                        <path d="M3553.59,1650.64L3554.1,1640.07L3558.64,1640.28C3559.78,1640.34 3560.6,1640.47 3561.11,1640.68C3561.62,1640.9 3562.02,1641.26 3562.31,1641.76C3562.59,1642.26 3562.72,1642.82 3562.69,1643.44C3562.65,1644.24 3562.39,1644.88 3561.89,1645.37C3561.39,1645.87 3560.68,1646.16 3559.73,1646.25C3560.18,1646.54 3560.56,1646.86 3560.84,1647.19C3561.13,1647.53 3561.51,1648.12 3561.99,1648.97L3563.2,1651.09L3560.62,1650.97L3559.17,1648.6C3558.65,1647.75 3558.3,1647.21 3558.1,1646.99C3557.91,1646.77 3557.7,1646.61 3557.48,1646.52C3557.25,1646.43 3556.89,1646.37 3556.4,1646.35L3555.96,1646.33L3555.75,1650.74L3553.59,1650.64ZM3556.04,1644.64L3557.64,1644.72C3558.67,1644.76 3559.32,1644.75 3559.58,1644.68C3559.84,1644.6 3560.05,1644.46 3560.21,1644.26C3560.36,1644.05 3560.45,1643.79 3560.46,1643.48C3560.48,1643.12 3560.4,1642.83 3560.22,1642.6C3560.03,1642.37 3559.77,1642.22 3559.42,1642.15C3559.25,1642.12 3558.73,1642.08 3557.85,1642.04L3556.17,1641.96L3556.04,1644.64Z" style="fill-rule:nonzero;"/>
                        <path d="M3571.22,1645.96L3570.85,1644.22L3575.41,1643.28L3576.27,1647.41C3575.92,1647.93 3575.35,1648.43 3574.58,1648.93C3573.81,1649.42 3572.99,1649.76 3572.13,1649.93C3571.03,1650.16 3570.03,1650.12 3569.12,1649.84C3568.21,1649.55 3567.46,1649.02 3566.88,1648.26C3566.29,1647.5 3565.89,1646.62 3565.69,1645.63C3565.46,1644.55 3565.49,1643.54 3565.77,1642.61C3566.05,1641.68 3566.59,1640.9 3567.38,1640.27C3567.98,1639.79 3568.78,1639.44 3569.78,1639.24C3571.08,1638.97 3572.15,1639.04 3572.99,1639.43C3573.84,1639.82 3574.46,1640.47 3574.87,1641.38L3572.85,1642.19C3572.6,1641.71 3572.24,1641.37 3571.77,1641.16C3571.3,1640.95 3570.76,1640.9 3570.15,1641.03C3569.23,1641.22 3568.55,1641.66 3568.13,1642.35C3567.7,1643.04 3567.61,1643.95 3567.85,1645.1C3568.11,1646.33 3568.57,1647.19 3569.26,1647.69C3569.94,1648.19 3570.72,1648.36 3571.62,1648.17C3572.06,1648.08 3572.49,1647.9 3572.9,1647.64C3573.31,1647.38 3573.65,1647.09 3573.91,1646.78L3573.64,1645.47L3571.22,1645.96Z" style="fill-rule:nonzero;"/>
                        <path d="M3581.06,1647.16L3576.25,1637.71L3583.34,1634.19L3584.15,1635.79L3578.99,1638.35L3580.06,1640.45L3584.86,1638.06L3585.66,1639.65L3580.87,1642.04L3582.18,1644.61L3587.51,1641.95L3588.32,1643.55L3581.06,1647.16Z" style="fill-rule:nonzero;"/>
                        <path d="M3592.22,1641.01L3585.26,1632.97L3586.86,1631.62L3594.83,1634.17L3590.18,1628.8L3591.71,1627.51L3598.66,1635.55L3597.02,1636.94L3589.21,1634.47L3593.74,1639.71L3592.22,1641.01Z" style="fill-rule:nonzero;"/>
                        <path d="M3602.79,1624.06L3604.53,1622.75C3605.31,1623.67 3605.71,1624.6 3605.74,1625.52C3605.78,1626.45 3605.46,1627.38 3604.8,1628.31C3603.99,1629.45 3602.92,1630.12 3601.6,1630.31C3600.28,1630.5 3598.93,1630.12 3597.56,1629.16C3596.1,1628.15 3595.23,1626.99 3594.95,1625.68C3594.68,1624.38 3594.97,1623.12 3595.83,1621.91C3596.58,1620.85 3597.51,1620.21 3598.61,1619.99C3599.27,1619.85 3600.01,1619.93 3600.85,1620.22L3600.04,1622.24C3599.52,1622.03 3599.01,1621.99 3598.51,1622.14C3598.02,1622.28 3597.61,1622.58 3597.28,1623.05C3596.82,1623.69 3596.68,1624.37 3596.87,1625.09C3597.05,1625.82 3597.66,1626.54 3598.7,1627.27C3599.81,1628.04 3600.74,1628.39 3601.49,1628.32C3602.24,1628.25 3602.83,1627.9 3603.28,1627.27C3603.61,1626.81 3603.74,1626.31 3603.68,1625.76C3603.62,1625.22 3603.33,1624.65 3602.79,1624.06Z" style="fill-rule:nonzero;"/>
                        <path d="M3609.34,1620.5L3599.35,1616.72L3602.18,1609.39L3603.87,1610.03L3601.81,1615.36L3604.02,1616.2L3605.94,1611.24L3607.63,1611.88L3605.71,1616.84L3608.42,1617.87L3610.56,1612.35L3612.24,1612.99L3609.34,1620.5Z" style="fill-rule:nonzero;"/>
                    </g>
                    <g transform="matrix(1,0,0,1,-2.28864,0.968388)">
                        <g transform="matrix(0.608229,-0.10285,0.10285,0.608229,917.292,1052.67)">
                            <circle cx="3420.02" cy="1141.73" r="39" style="fill:none;stroke:rgb(13,13,13);stroke-width:0.5px;"/>
                        </g>
                        <g transform="matrix(0.620377,-0.104904,0.104242,0.616465,828.622,949.756)">
                            <g transform="matrix(0.587374,0.0999534,-0.0976294,0.581021,3406.89,1232.01)">
                                <path d="M75.027,136.552L85.505,143.252L84.578,130.85L75.027,136.552Z" style="fill:rgb(51,51,51);"/>
                                <path d="M128.376,72.015L116.859,76.707L127.524,83.106L128.376,72.015Z" style="fill:rgb(51,51,51);"/>
                                <path d="M150.183,152.402L152.69,140.221L141.441,145.524L150.183,152.402Z" style="fill:rgb(51,51,51);"/>
                                <path d="M80.943,135.611C79.439,132.331 78.34,128.796 77.718,125.059C74.298,104.481 86.554,84.843 105.681,78.664M125.732,77.39C133.222,78.812 140.109,82.328 145.656,87.407C152.228,93.424 156.919,101.636 158.502,111.162C159.627,117.93 159.056,124.597 157.102,130.717M147.187,147.215C141.356,153.185 133.689,157.431 124.897,158.944C113.124,160.969 101.671,157.69 92.933,150.824" style="fill:none;stroke:rgb(51,51,51);stroke-width:1.67px;"/>
                            </g>
                        </g>
                    </g>
                </g>
                <g transform="matrix(1.05998,0,0,1.05998,-512.548,186.122)">
                    <circle cx="3420.02" cy="1141.73" r="39" style="fill:none;stroke:rgb(13,13,13);stroke-width:0.29px;"/>
                </g>
            </g>
        </g>
    </g>
</svg>
