<?xml version="1.0" encoding="UTF-8" standalone="no"?>
<!DOCTYPE svg PUBLIC "-//W3C//DTD SVG 1.1//EN" "http://www.w3.org/Graphics/SVG/1.1/DTD/svg11.dtd">
<svg width="100%" height="100%" viewBox="0 0 237 237" version="1.1" xmlns="http://www.w3.org/2000/svg" xmlns:xlink="http://www.w3.org/1999/xlink" xml:space="preserve" xmlns:serif="http://www.serif.com/" style="fill-rule:evenodd;clip-rule:evenodd;stroke-linejoin:round;stroke-miterlimit:1.5;">
    <g transform="matrix(1,0,0,1,-4756.31,-14799.9)">
        <g id="Artboard4" transform="matrix(0.423111,0,0,0.354867,2468.83,13759.6)">
            <rect x="5406.33" y="2931.52" width="558.295" height="665.659" style="fill:none;"/>
            <g transform="matrix(8.71451,0,0,10.5706,-22909.4,-8030.99)">
                <rect x="3259.03" y="1038.65" width="44.536" height="59.824" style="fill:rgb(38,38,38);stroke:black;stroke-width:0.22px;"/>
            </g>
            <g transform="matrix(0.657442,0,0,0.783873,-10366.6,-23097.2)">
                <path d="M24240.4,33403.5L24240.4,33330.6L24252.3,33330.6L24266.5,33382.2L24269.3,33393C24270,33390.3 24271.1,33386.4 24272.5,33381.3L24286.8,33330.6L24297.5,33330.6L24297.5,33403.5L24289.9,33403.5L24289.9,33342.5L24272.5,33403.5L24265.3,33403.5L24248,33341.5L24248,33403.5L24240.4,33403.5Z" style="fill:white;fill-rule:nonzero;"/>
            </g>
            <g transform="matrix(0.657442,0,0,0.783873,-10366.6,-23097.2)">
                <path d="M24303.7,33403.5L24326.7,33330.6L24335.2,33330.6L24359.7,33403.5L24350.6,33403.5L24343.6,33381.4L24318.7,33381.4L24312.1,33403.5L24303.7,33403.5ZM24321,33373.6L24341.2,33373.6L24335,33353.4C24333.1,33347.2 24331.7,33342.1 24330.8,33338.2C24330,33342.9 24328.9,33347.6 24327.5,33352.2L24321,33373.6Z" style="fill:white;fill-rule:nonzero;"/>
            </g>
            <g transform="matrix(0.657442,0,0,0.783873,-10366.6,-23097.2)">
                <path d="M24365.9,33403.5L24365.9,33330.6L24392.4,33330.6C24398,33330.6 24402.1,33331.3 24404.7,33332.6C24407.3,33334 24409.5,33336.2 24411.2,33339.4C24412.9,33342.6 24413.7,33346.2 24413.7,33350.4C24413.7,33355.9 24412.3,33360.4 24409.4,33363.8C24406.6,33367.2 24402.4,33369.4 24396.9,33370.3C24399.1,33371.6 24400.8,33373 24402,33374.4C24404.3,33377.2 24406.4,33380.3 24408.2,33383.7L24418.7,33403.5L24408.7,33403.5L24400.7,33388.3C24397.7,33382.4 24395.3,33378.4 24393.8,33376.3C24392.2,33374.3 24390.7,33372.9 24389.2,33372.2C24387.7,33371.5 24385.6,33371.1 24383,33371.1L24373.8,33371.1L24373.8,33403.5L24365.9,33403.5ZM24373.8,33362.8L24390.9,33362.8C24394.6,33362.8 24397.4,33362.3 24399.3,33361.4C24401.2,33360.5 24402.8,33359.1 24403.9,33357.2C24405,33355.3 24405.6,33353 24405.6,33350.5C24405.6,33346.8 24404.5,33343.9 24402.3,33341.8C24400.2,33339.7 24397,33338.6 24392.7,33338.6L24373.8,33338.6L24373.8,33362.8Z" style="fill:white;fill-rule:nonzero;"/>
            </g>
            <g transform="matrix(0.657442,0,0,0.783873,-10366.6,-23097.2)">
                <path d="M24468.7,33377.9L24476.7,33380.4C24474.9,33388.6 24471.8,33394.7 24467.4,33398.7C24463,33402.7 24457.7,33404.8 24451.4,33404.8C24445.9,33404.8 24441.1,33403.4 24437.2,33400.7C24433.3,33398 24430,33393.7 24427.5,33387.7C24425,33381.7 24423.8,33374.7 24423.8,33366.5C24423.8,33358.5 24425,33351.7 24427.5,33346.1C24430,33340.6 24433.4,33336.4 24437.7,33333.6C24442,33330.7 24446.8,33329.3 24452,33329.3C24457.8,33329.3 24462.8,33331.1 24466.9,33334.7C24471.1,33338.3 24474,33343.5 24475.6,33350.5L24467.9,33352.7C24465.2,33342.6 24459.9,33337.6 24451.9,33337.6C24447.9,33337.6 24444.5,33338.6 24441.5,33340.6C24438.6,33342.7 24436.3,33345.8 24434.6,33350.2C24432.8,33354.5 24431.9,33359.9 24431.9,33366.5C24431.9,33376.5 24433.7,33384 24437.2,33389C24440.7,33394 24445.4,33396.5 24451.2,33396.5C24455.6,33396.5 24459.3,33395 24462.4,33391.9C24465.5,33388.8 24467.6,33384.2 24468.7,33377.9Z" style="fill:white;fill-rule:nonzero;"/>
            </g>
            <g transform="matrix(0.657442,0,0,0.783873,-10366.6,-23097.2)">
                <path d="M24486.5,33403.5L24486.5,33330.6L24494.4,33330.6L24494.4,33360.5L24525.5,33360.5L24525.5,33330.6L24533.4,33330.6L24533.4,33403.5L24525.5,33403.5L24525.5,33369.1L24494.4,33369.1L24494.4,33403.5L24486.5,33403.5Z" style="fill:white;fill-rule:nonzero;"/>
            </g>
            <g transform="matrix(0.657442,0,0,0.783873,-10366.6,-23097.2)">
                <path d="M24547,33403.5L24547,33330.6L24590.2,33330.6L24590.2,33339.2L24554.9,33339.2L24554.9,33361.5L24588,33361.5L24588,33370.1L24554.9,33370.1L24554.9,33394.9L24591.6,33394.9L24591.6,33403.5L24547,33403.5Z" style="fill:white;fill-rule:nonzero;"/>
            </g>
            <g transform="matrix(8.71451,0,0,10.5706,-22883.8,-8003.28)">
                <circle cx="3278.36" cy="1071.94" r="20.772" style="fill:rgb(179,179,179);"/>
            </g>
            <g transform="matrix(7.47564,0,0,9.0679,-18821.9,-6391.27)">
                <circle cx="3278.36" cy="1071.94" r="20.772" style="fill:rgb(51,51,51);"/>
            </g>
        </g>
    </g>
</svg>
