<?xml version="1.0" encoding="UTF-8" standalone="no"?>
<!DOCTYPE svg PUBLIC "-//W3C//DTD SVG 1.1//EN" "http://www.w3.org/Graphics/SVG/1.1/DTD/svg11.dtd">
<svg width="100%" height="100%" viewBox="0 0 237 237" version="1.1" xmlns="http://www.w3.org/2000/svg" xmlns:xlink="http://www.w3.org/1999/xlink" xml:space="preserve" xmlns:serif="http://www.serif.com/" style="fill-rule:evenodd;clip-rule:evenodd;stroke-linejoin:round;stroke-miterlimit:1.5;">
    <g transform="matrix(1,0,0,1,-5331.26,-4296.03)">
        <g id="Artboard4" transform="matrix(0.423111,0,0,0.354867,3043.79,3255.74)">
            <rect x="5406.33" y="2931.52" width="558.295" height="665.659" style="fill:none;"/>
            <g transform="matrix(4.13803,0,0,4.9338,-13437.3,-13494.2)">
                <g transform="matrix(2.10596,0,0,2.14249,4146.4,3076.59)">
                    <g transform="matrix(1,0,0,1,-3055.82,-919.156)">
                        <rect x="3259.03" y="1038.65" width="44.536" height="59.824" style="fill:white;stroke:black;stroke-width:0.22px;"/>
                    </g>
                    <g transform="matrix(1,0,0,1,0,6)">
                        <g>
                            <g transform="matrix(1,0,0,1,-3052.89,-922.535)">
                                <circle cx="3278.36" cy="1071.94" r="20.772" style="fill:white;stroke:black;stroke-width:0.22px;"/>
                            </g>
                            <g transform="matrix(0.877333,0,0,0.877333,-2650.74,-791.044)">
                                <circle cx="3278.36" cy="1071.94" r="20.772" style="fill:white;stroke:black;stroke-width:0.26px;"/>
                            </g>
                        </g>
                    </g>
                </g>
                <g transform="matrix(0.158878,0,0,0.158878,746.193,-1949.7)">
                    <path d="M24234.1,33403.5L24257.1,33330.6L24265.6,33330.6L24290.1,33403.5L24281,33403.5L24274,33381.4L24249.1,33381.4L24242.5,33403.5L24234.1,33403.5ZM24251.4,33373.6L24271.6,33373.6L24265.4,33353.4C24263.5,33347.2 24262.1,33342.1 24261.2,33338.2C24260.4,33342.9 24259.3,33347.6 24257.9,33352.2L24251.4,33373.6Z" style="fill-rule:nonzero;"/>
                    <path d="M24296.3,33403.5L24296.3,33330.6L24322.8,33330.6C24328.4,33330.6 24332.5,33331.3 24335.1,33332.6C24337.7,33334 24339.9,33336.2 24341.6,33339.4C24343.3,33342.6 24344.1,33346.2 24344.1,33350.4C24344.1,33355.9 24342.7,33360.4 24339.8,33363.8C24337,33367.2 24332.8,33369.4 24327.3,33370.3C24329.5,33371.6 24331.2,33373 24332.4,33374.4C24334.8,33377.2 24336.8,33380.3 24338.6,33383.7L24349.1,33403.5L24339.1,33403.5L24331.2,33388.3C24328.1,33382.4 24325.7,33378.4 24324.2,33376.3C24322.6,33374.3 24321.1,33372.9 24319.6,33372.2C24318.1,33371.5 24316,33371.1 24313.4,33371.1L24304.2,33371.1L24304.2,33403.5L24296.3,33403.5ZM24304.2,33362.8L24321.3,33362.8C24325,33362.8 24327.8,33362.3 24329.7,33361.4C24331.6,33360.5 24333.2,33359.1 24334.3,33357.2C24335.4,33355.3 24336,33353 24336,33350.5C24336,33346.8 24334.9,33343.9 24332.7,33341.8C24330.6,33339.7 24327.4,33338.6 24323.1,33338.6L24304.2,33338.6L24304.2,33362.8Z" style="fill-rule:nonzero;"/>
                    <path d="M24356.6,33403.5L24356.6,33330.6L24383.1,33330.6C24388.7,33330.6 24392.8,33331.3 24395.4,33332.6C24398,33334 24400.2,33336.2 24401.9,33339.4C24403.6,33342.6 24404.4,33346.2 24404.4,33350.4C24404.4,33355.9 24403,33360.4 24400.1,33363.8C24397.3,33367.2 24393.1,33369.4 24387.6,33370.3C24389.8,33371.6 24391.5,33373 24392.7,33374.4C24395,33377.2 24397.1,33380.3 24398.9,33383.7L24409.4,33403.5L24399.4,33403.5L24391.4,33388.3C24388.4,33382.4 24386,33378.4 24384.5,33376.3C24382.9,33374.3 24381.4,33372.9 24379.9,33372.2C24378.4,33371.5 24376.3,33371.1 24373.7,33371.1L24364.5,33371.1L24364.5,33403.5L24356.6,33403.5ZM24364.5,33362.8L24381.5,33362.8C24385.3,33362.8 24388.1,33362.3 24390,33361.4C24391.9,33360.5 24393.5,33359.1 24394.6,33357.2C24395.7,33355.3 24396.3,33353 24396.3,33350.5C24396.3,33346.8 24395.2,33343.9 24393,33341.8C24390.9,33339.7 24387.7,33338.6 24383.4,33338.6L24364.5,33338.6L24364.5,33362.8Z" style="fill-rule:nonzero;"/>
                    <path d="M24417.1,33403.5L24417.1,33330.6L24460.3,33330.6L24460.3,33339.2L24425,33339.2L24425,33361.5L24458.1,33361.5L24458.1,33370.1L24425,33370.1L24425,33394.9L24461.7,33394.9L24461.7,33403.5L24417.1,33403.5ZM24439,33317.2L24434.4,33325.6L24426,33325.6L24434.8,33311.7L24442.7,33311.7L24451.8,33325.6L24443.5,33325.6L24439,33317.2Z" style="fill-rule:nonzero;"/>
                    <path d="M24488,33403.5L24488,33339.2L24468.3,33339.2L24468.3,33330.6L24515.7,33330.6L24515.7,33339.2L24495.9,33339.2L24495.9,33403.5L24488,33403.5Z" style="fill-rule:nonzero;"/>
                </g>
            </g>
        </g>
    </g>
</svg>
