<?xml version="1.0" encoding="UTF-8" standalone="no"?>
<!DOCTYPE svg PUBLIC "-//W3C//DTD SVG 1.1//EN" "http://www.w3.org/Graphics/SVG/1.1/DTD/svg11.dtd">
<svg width="100%" height="100%" viewBox="0 0 237 237" version="1.1" xmlns="http://www.w3.org/2000/svg" xmlns:xlink="http://www.w3.org/1999/xlink" xml:space="preserve" xmlns:serif="http://www.serif.com/" style="fill-rule:evenodd;clip-rule:evenodd;stroke-linejoin:round;stroke-miterlimit:1.5;">
    <g transform="matrix(1,0,0,1,-5630.24,-4300.52)">
        <g id="Artboard4" transform="matrix(0.423111,0,0,0.354867,3342.76,3260.22)">
            <rect x="5406.33" y="2931.52" width="558.295" height="665.659" style="fill:none;"/>
            <g transform="matrix(1,0,0,1,-83.2188,-135.596)">
                <g transform="matrix(8.71451,0,0,10.5706,3803.79,1820.68)">
                    <g transform="matrix(1,0,0,1,-3055.82,-919.156)">
                        <rect x="3259.03" y="1038.65" width="44.536" height="59.824" style="fill:white;stroke:black;stroke-width:0.22px;"/>
                    </g>
                    <g transform="matrix(1,0,0,1,0,6)">
                        <g>
                            <g transform="matrix(1,0,0,1,-3052.89,-922.535)">
                                <circle cx="3278.36" cy="1071.94" r="20.772" style="fill:white;stroke:black;stroke-width:0.22px;"/>
                            </g>
                            <g transform="matrix(0.877333,0,0,0.877333,-2650.74,-791.044)">
                                <circle cx="3278.36" cy="1071.94" r="20.772" style="fill:white;stroke:black;stroke-width:0.26px;"/>
                            </g>
                        </g>
                    </g>
                </g>
                <g transform="matrix(0.657442,0,0,0.783873,-10258.6,-22978.1)">
                    <path d="M24240.7,33403.5L24240.7,33330.6L24263.2,33330.6C24268.5,33330.6 24272.4,33331.1 24274.9,33332C24278.4,33333.2 24281.1,33335.6 24283.2,33339C24285.3,33342.4 24286.3,33346.6 24286.3,33351.6C24286.3,33358.1 24284.6,33363.5 24281.3,33367.7C24277.9,33371.8 24272.1,33373.9 24263.9,33373.9L24248.6,33373.9L24248.6,33403.5L24240.7,33403.5ZM24248.6,33365.3L24264,33365.3C24268.9,33365.3 24272.5,33364.2 24274.7,33362C24277,33359.7 24278.1,33356.4 24278.1,33352C24278.1,33349.1 24277.6,33346.6 24276.5,33344.6C24275.3,33342.5 24274,33341.1 24272.4,33340.3C24270.9,33339.6 24268,33339.2 24263.9,33339.2L24248.6,33339.2L24248.6,33365.3Z" style="fill-rule:nonzero;"/>
                    <path d="M24335.4,33330.6L24343.4,33330.6L24343.4,33372.7C24343.4,33379.8 24342.7,33385.6 24341.3,33390.1C24340,33394.6 24337.4,33398.2 24333.8,33400.8C24330.2,33403.5 24325.6,33404.8 24320,33404.8C24312.1,33404.8 24306.2,33402.4 24302.2,33397.7C24298.3,33393 24296.3,33384.7 24296.3,33372.7L24296.3,33330.6L24304.2,33330.6L24304.2,33372.7C24304.2,33379.3 24304.8,33384.1 24305.8,33387C24306.8,33390 24308.5,33392.2 24310.8,33393.7C24313.2,33395.3 24316,33396.1 24319.4,33396.1C24325,33396.1 24329.1,33394.5 24331.6,33391.3C24334.2,33388.1 24335.4,33381.9 24335.4,33372.7L24335.4,33330.6Z" style="fill-rule:nonzero;"/>
                    <path d="M24356.6,33403.5L24356.6,33330.6L24383.1,33330.6C24388.7,33330.6 24392.8,33331.3 24395.4,33332.6C24398,33334 24400.2,33336.2 24401.9,33339.4C24403.6,33342.6 24404.4,33346.2 24404.4,33350.4C24404.4,33355.9 24403,33360.4 24400.1,33363.8C24397.3,33367.2 24393.1,33369.4 24387.6,33370.3C24389.8,33371.6 24391.5,33373 24392.7,33374.4C24395,33377.2 24397.1,33380.3 24398.9,33383.7L24409.4,33403.5L24399.4,33403.5L24391.4,33388.3C24388.4,33382.4 24386,33378.4 24384.5,33376.3C24382.9,33374.3 24381.4,33372.9 24379.9,33372.2C24378.4,33371.5 24376.3,33371.1 24373.7,33371.1L24364.5,33371.1L24364.5,33403.5L24356.6,33403.5ZM24364.5,33362.8L24381.5,33362.8C24385.3,33362.8 24388.1,33362.3 24390,33361.4C24391.9,33360.5 24393.5,33359.1 24394.6,33357.2C24395.7,33355.3 24396.3,33353 24396.3,33350.5C24396.3,33346.8 24395.2,33343.9 24393,33341.8C24390.9,33339.7 24387.7,33338.6 24383.4,33338.6L24364.5,33338.6L24364.5,33362.8Z" style="fill-rule:nonzero;"/>
                    <path d="M24445.1,33374.9L24445.1,33366.3L24470.4,33366.3L24470.4,33393.4C24466.6,33397.2 24462.6,33400 24458.4,33401.9C24454.3,33403.8 24450,33404.8 24445.6,33404.8C24439.8,33404.8 24434.6,33403.3 24430,33400.4C24425.4,33397.5 24421.8,33393.2 24419.1,33387.6C24416.5,33382 24415.1,33375.2 24415.1,33367.4C24415.1,33359.4 24416.5,33352.5 24419.2,33346.6C24421.8,33340.7 24425.4,33336.3 24429.7,33333.5C24434,33330.7 24439.2,33329.3 24445.1,33329.3C24449.5,33329.3 24453.3,33330.1 24456.6,33331.7C24459.9,33333.4 24462.6,33335.7 24464.7,33338.6C24466.8,33341.6 24468.4,33345.7 24469.5,33350.9L24462.4,33353.3C24461.4,33349.2 24460.2,33346.1 24458.8,33344.1C24457.3,33342.1 24455.4,33340.5 24453,33339.3C24450.6,33338.1 24447.9,33337.6 24444.9,33337.6C24440.6,33337.6 24436.8,33338.6 24433.7,33340.7C24430.6,33342.8 24428.1,33346.1 24426.1,33350.5C24424.2,33355 24423.3,33360.4 24423.3,33366.8C24423.3,33376.6 24425.3,33383.9 24429.4,33388.8C24433.5,33393.6 24438.8,33396.1 24445.3,33396.1C24448.4,33396.1 24451.6,33395.3 24454.9,33393.8C24458.2,33392.3 24460.8,33390.6 24462.7,33388.5L24462.7,33374.9L24445.1,33374.9Z" style="fill-rule:nonzero;"/>
                    <path d="M24482.1,33403.5L24482.1,33330.6L24525.4,33330.6L24525.4,33339.2L24490,33339.2L24490,33361.5L24523.1,33361.5L24523.1,33370.1L24490,33370.1L24490,33394.9L24526.8,33394.9L24526.8,33403.5L24482.1,33403.5Z" style="fill-rule:nonzero;"/>
                </g>
            </g>
        </g>
    </g>
</svg>
